<?xml version="1.0" encoding="utf-8"?>
<!-- Generator: Adobe Illustrator 16.0.0, SVG Export Plug-In . SVG Version: 6.00 Build 0)  -->
<!DOCTYPE svg PUBLIC "-//W3C//DTD SVG 1.1//EN" "http://www.w3.org/Graphics/SVG/1.1/DTD/svg11.dtd">
<svg version="1.1" id="Layer_2" xmlns="http://www.w3.org/2000/svg" xmlns:xlink="http://www.w3.org/1999/xlink" x="0px" y="0px"
	 width="743px" height="560px" viewBox="0 0 743 560" enable-background="new 0 0 743 560" xml:space="preserve">
<g>
	<g>
		<g>
			<g>
				<g>
					<rect y="490.125" fill="#D1E3FF" width="742.052" height="0.37"/>
					<rect x="613.676" y="510.947" fill="#D1E3FF" width="15.749" height="0.371"/>
					<rect x="538.751" y="511.133" fill="#D1E3FF" width="64.041" height="0.371"/>
					<rect x="351.509" y="507.59" fill="#D1E3FF" width="108.068" height="0.371"/>
					<rect x="255.051" y="514.041" fill="#D1E3FF" width="34.294" height="0.371"/>
					<rect x="127.821" y="507.775" fill="#D1E3FF" width="47.225" height="0.371"/>
					<rect x="183.287" y="507.775" fill="#D1E3FF" width="44.139" height="0.371"/>
					<rect x="96.903" y="501.283" fill="#D1E3FF" width="45.075" height="0.37"/>
					<path fill="#D1E3FF" d="M351.752,423.936H65.174c-4.671,0-8.471-3.8-8.471-8.471V12.632c0-4.67,3.8-8.47,8.471-8.47h286.578
						c4.67,0,8.47,3.8,8.47,8.47v402.833C360.223,420.136,356.422,423.936,351.752,423.936z M65.174,4.533
						c-4.467,0-8.1,3.633-8.1,8.099v402.833c0,4.466,3.633,8.101,8.1,8.101h286.578c4.466,0,8.099-3.635,8.099-8.101V12.632
						c0-4.466-3.633-8.099-8.099-8.099H65.174z"/>
					<path fill="#D1E3FF" d="M672.76,423.936H386.182c-4.67,0-8.47-3.8-8.47-8.471V12.632c0-4.67,3.8-8.47,8.47-8.47H672.76
						c4.671,0,8.471,3.8,8.471,8.47v402.833C681.23,420.136,677.431,423.936,672.76,423.936z M386.182,4.533
						c-4.466,0-8.099,3.633-8.099,8.099v402.833c0,4.466,3.633,8.101,8.099,8.101H672.76c4.466,0,8.101-3.635,8.101-8.101V12.632
						c0-4.466-3.635-8.099-8.101-8.099H386.182z"/>
				</g>
			</g>
		</g>
		<g>
			<g>
				<rect x="80.28" y="36.089" fill="#D1E3FF" width="231.15" height="201.146"/>
				<rect x="84.7" y="36.089" fill="#E3EEFF" width="236.188" height="201.146"/>
				<rect x="80.28" y="237.236" fill="#D1E3FF" width="231.15" height="8.071"/>
				<rect x="100.457" y="237.236" fill="#E3EEFF" width="236.188" height="8.071"/>
				<rect x="97.94" y="49.331" fill="#F5FCFF" width="209.707" height="174.665"/>
				<polygon fill="#FFFFFF" points="131.908,223.995 172.367,49.331 227.887,49.331 187.429,223.995 				"/>
				<path fill="#E2EEFF" d="M105.582,194.807c-0.523,0-0.947-0.423-0.947-0.946V57.946c0-0.522,0.424-0.946,0.947-0.946
					c0.523,0,0.946,0.423,0.946,0.946v135.915C106.528,194.384,106.105,194.807,105.582,194.807z"/>
				<polygon fill="#FFFFFF" points="198.806,223.995 239.262,49.331 258.472,49.331 218.014,223.995 				"/>
				<rect x="305.966" y="49.331" fill="#D1E3FF" width="1.681" height="174.665"/>
				<polygon fill="#D1E3FF" points="324.02,50.772 92.87,50.772 91.651,46.752 322.801,46.752 				"/>
				<polygon fill="#D1E3FF" points="324.02,57.406 92.87,57.406 91.651,53.388 322.801,53.388 				"/>
				<polygon fill="#D1E3FF" points="324.02,64.041 92.87,64.041 91.651,60.022 322.801,60.022 				"/>
				<polygon fill="#D1E3FF" points="324.02,70.675 92.87,70.675 91.651,66.657 322.801,66.657 				"/>
				<polygon fill="#D1E3FF" points="324.02,77.31 92.87,77.31 91.651,73.292 322.801,73.292 				"/>
				<polygon fill="#D1E3FF" points="324.02,83.944 92.87,83.944 91.651,79.926 322.801,79.926 				"/>
			</g>
			<g>
				<g>
					<g>
						<rect x="501.176" y="49.182" fill="#D1E3FF" width="97.191" height="173.277"/>
						<path fill="#CADEFF" d="M555.938,58.335c-4.132,0-7.494-3.362-7.494-7.494c0-4.131,3.362-7.493,7.494-7.493
							s7.494,3.361,7.494,7.493C563.432,54.973,560.069,58.335,555.938,58.335z M555.938,44.833c-3.313,0-6.01,2.696-6.01,6.009
							c0,3.314,2.696,6.01,6.01,6.01c3.314,0,6.011-2.696,6.011-6.01C561.948,47.528,559.252,44.833,555.938,44.833z"/>
						<rect x="508.503" y="49.182" fill="#EEF9FF" width="100.391" height="173.277"/>
						<rect x="516.912" y="57.593" fill="#FFFFFF" width="83.571" height="156.456"/>
						<rect x="599.451" y="57.593" fill="#D1E3FF" width="1.032" height="156.456"/>
					</g>
				</g>
			</g>
			<g>
				<path fill="#CADEFC" d="M526.497,284.068c0,0,1.034,17.479,40.735,17.479s40.738-17.479,40.738-17.479H526.497z"/>
				<g>
					<g>
						<rect x="405.666" y="315.258" fill="#E3EEFF" width="40.542" height="166.987"/>
						<rect x="413.45" y="482.245" fill="#E3EEFF" width="211.842" height="7.88"/>
						<rect x="446.208" y="315.258" fill="#F3F8FF" width="186.869" height="166.987"/>
						<rect x="462.147" y="378.359" fill="#E3EEFF" width="154.99" height="40.785"/>
						<rect x="462.147" y="426.582" fill="#E3EEFF" width="154.99" height="40.785"/>
						<path fill="#F3F8FF" d="M562.815,382.829h-46.347c-1.537,0-2.797-1.259-2.797-2.796l0,0c0-1.538,1.26-2.797,2.797-2.797
							h46.347c1.538,0,2.797,1.259,2.797,2.797l0,0C565.612,381.57,564.354,382.829,562.815,382.829z"/>
						<rect x="462.147" y="330.136" fill="#E3EEFF" width="154.99" height="40.785"/>
						<path fill="#F3F8FF" d="M562.815,334.605h-46.347c-1.537,0-2.797-1.258-2.797-2.796l0,0c0-1.539,1.26-2.797,2.797-2.797
							h46.347c1.538,0,2.797,1.258,2.797,2.797l0,0C565.612,333.348,564.354,334.605,562.815,334.605z"/>
						<path fill="#F3F8FF" d="M562.815,431.054h-46.347c-1.537,0-2.797-1.26-2.797-2.797l0,0c0-1.538,1.26-2.796,2.797-2.796h46.347
							c1.538,0,2.797,1.258,2.797,2.796l0,0C565.612,429.794,564.354,431.054,562.815,431.054z"/>
					</g>
					<rect x="446.208" y="301.547" fill="#E3EEFF" width="192.271" height="13.711"/>
					<rect x="400" y="301.547" fill="#D1E3FF" width="46.208" height="13.711"/>
				</g>
				<g>
					<g>
						<rect x="421.268" y="253.257" fill="#E3EEFF" width="40.3" height="48.29"/>
						<rect x="461.567" y="253.257" fill="#F3F8FF" width="71.498" height="48.29"/>
						<ellipse fill="#FFFFFF" cx="497.316" cy="278.748" rx="16.492" ry="6.247"/>
						<rect x="421.268" y="259.439" opacity="0.7" fill="#D1E3FF" width="112.218" height="3.313"/>
					</g>
					<g>
						<rect x="419.045" y="251.252" fill="#E3EEFF" width="42.522" height="9.583"/>
						<rect x="461.567" y="251.252" fill="#F3F8FF" width="73.721" height="9.583"/>
					</g>
				</g>
			</g>
			<g>
				<g>
					<polygon fill="#E3EEFF" points="257.998,277.403 104.393,277.403 113.976,490.125 267.581,490.125 					"/>
					<polygon fill="#F3F8FF" points="260.224,277.403 106.619,277.403 116.202,490.125 269.807,490.125 					"/>
				</g>
				<g>
					<g>
						<rect x="140.494" y="441.835" fill="#E3EEFF" width="40.298" height="48.29"/>
						<rect x="180.792" y="441.835" fill="#F3F8FF" width="192.896" height="48.29"/>
						<rect x="140.494" y="448.018" opacity="0.7" fill="#D1E3FF" width="233.616" height="3.313"/>
					</g>
					<g>
						<rect x="138.268" y="439.83" fill="#E3EEFF" width="42.524" height="9.582"/>
						<rect x="180.792" y="439.83" fill="#F3F8FF" width="195.121" height="9.582"/>
					</g>
				</g>
				<g>
					<g>
						<rect x="173.884" y="352.574" fill="#D1E3FF" width="52.433" height="87.256"/>
						<rect x="226.317" y="352.574" fill="#E3EEFF" width="131.013" height="87.256"/>
						<rect x="173.884" y="360.617" opacity="0.7" fill="#D1E3FF" width="183.992" height="4.311"/>
					</g>
					<g>
						<rect x="170.987" y="342.607" fill="#D1E3FF" width="55.33" height="19.827"/>
						<rect x="226.317" y="342.607" fill="#E3EEFF" width="133.906" height="19.827"/>
					</g>
				</g>
				<g>
					<circle fill="#D1E3FF" cx="115.471" cy="453.063" r="37.061"/>
					
						<ellipse transform="matrix(0.7199 0.6941 -0.6941 0.7199 324.4629 54.022)" opacity="0.7" fill="#D1E3FF" cx="95.298" cy="429.022" rx="2.815" ry="5.756"/>
					
						<ellipse transform="matrix(0.1889 0.982 -0.982 0.1889 504.672 231.5233)" opacity="0.7" fill="#D1E3FF" cx="112.185" cy="421.262" rx="2.816" ry="5.755"/>
					
						<ellipse transform="matrix(0.3313 0.9435 -0.9435 0.3313 481.6153 187.6993)" opacity="0.7" fill="#D1E3FF" cx="108.385" cy="433.63" rx="3.53" ry="5.756"/>
				</g>
			</g>
		</g>
	</g>
	<g>
		<ellipse fill="#F0F6FF" cx="371.026" cy="540.347" rx="287.751" ry="16.805"/>
		<g>
			<path fill="#C0DAFF" d="M455.973,540.347H285.171c-11.929,0-21.69-9.761-21.69-21.69V109.691c0-11.929,9.761-21.69,21.69-21.69
				h170.802c11.932,0,21.692,9.761,21.692,21.69v408.965C477.665,530.586,467.904,540.347,455.973,540.347z"/>
			<path fill="#C0DAFF" d="M477.304,219.232h-14.138c-3.272,0-5.949-2.678-5.949-5.951V170.19c0-3.274,2.677-5.951,5.949-5.951
				h14.138c3.272,0,5.951,2.676,5.951,5.951v43.091C483.255,216.555,480.576,219.232,477.304,219.232z"/>
			<path fill="#C0DAFF" d="M478.786,266.117h-17.1c-2.46,0-4.47-2.01-4.47-4.47v-22.084c0-2.46,2.01-4.47,4.47-4.47h17.1
				c2.457,0,4.469,2.01,4.469,4.47v22.084C483.255,264.106,481.243,266.117,478.786,266.117z"/>
			<rect x="250.856" y="123.29" fill="#DCE9FF" width="1.484" height="19.623"/>
			<rect x="250.856" y="148.355" fill="#DCE9FF" width="1.484" height="6.148"/>
			<path opacity="0.6" fill="#0053CC" d="M448.546,540.347H277.742c-11.929,0-21.69-9.761-21.69-21.69V109.691
				c0-11.929,9.761-21.69,21.69-21.69h170.804c11.929,0,21.69,9.761,21.69,21.69v408.965
				C470.236,530.586,460.475,540.347,448.546,540.347z"/>
			<circle fill="#0053CC" cx="363.144" cy="519.632" r="9.653"/>
			<rect x="256.051" y="112.93" fill="#DCE9FF" width="214.185" height="388.725"/>
			<rect x="256.051" y="112.93" fill="#DCE9FF" width="214.185" height="388.725"/>
			<path fill="#FFFFFF" d="M437.063,250.607H289.223c-8.109,0-14.744-6.635-14.744-14.745v-88.254
				c0-8.109,6.635-14.744,14.744-14.744h147.839c8.11,0,14.745,6.635,14.745,14.744v88.254
				C451.808,243.973,445.173,250.607,437.063,250.607z"/>
			<circle fill="#DCE9FF" cx="301.666" cy="160.05" r="19.637"/>
			<path fill="#FFFFFF" d="M317.87,160.047c0,2.798-0.709,5.427-1.958,7.72c-2.734,5.051-8.086,8.487-14.249,8.487
				c-6.16,0-11.514-3.436-14.247-8.487c-1.25-2.293-1.959-4.922-1.959-7.72c0-8.952,7.255-16.206,16.206-16.206
				C310.617,143.841,317.87,151.096,317.87,160.047z"/>
			<path fill="#C0DAFF" d="M315.913,167.767c-2.734,5.051-8.086,8.487-14.249,8.487c-6.16,0-11.514-3.436-14.247-8.487
				c4.08-2.725,8.977-4.316,14.247-4.316C306.937,163.451,311.833,165.042,315.913,167.767z"/>
			<circle fill="#C0DAFF" cx="301.666" cy="154.503" r="7.219"/>
			<path fill="#FFFFFF" d="M440.93,302.702H285.358c-5.983,0-10.879-4.896-10.879-10.879v-19.458
				c0-5.983,4.896-10.879,10.879-10.879H440.93c5.981,0,10.878,4.896,10.878,10.879v19.458
				C451.808,297.807,446.911,302.702,440.93,302.702z"/>
			<circle fill="#0053CC" cx="341.981" cy="99.474" r="3.415"/>
			<path fill="#0053CC" d="M353.777,96.059h28.365c1.878,0,3.414,1.537,3.414,3.415l0,0c0,1.877-1.536,3.414-3.414,3.414h-28.365
				c-1.876,0-3.415-1.536-3.415-3.414l0,0C350.362,97.596,351.901,96.059,353.777,96.059z"/>
		</g>
		<g>
			<path opacity="0.6" fill="#0053CC" d="M477.51,306.688l20.966,57.798c1.135,3.13-0.496,6.62-3.627,7.756l-110.026,39.909
				c-3.13,1.137-6.619-0.496-7.756-3.626l-20.964-57.797c-0.593-1.638-0.431-3.376,0.306-4.822c0.678-1.315,1.826-2.392,3.322-2.934
				l110.026-39.91c1.493-0.542,3.065-0.452,4.428,0.122C475.677,303.823,476.917,305.053,477.51,306.688z"/>
			<path fill="#9FC6FF" d="M474.184,303.185l-31.441,51.755c-6.005,9.885-18.079,14.265-29.023,10.527l-57.311-19.561
				c0.678-1.315,1.826-2.392,3.322-2.934l110.026-39.91C471.249,302.521,472.821,302.61,474.184,303.185z"/>
		</g>
		<g>
			<path opacity="0.6" fill="#0053CC" d="M443.003,406.017l-1.007,52.066c-0.056,2.819-2.406,5.082-5.227,5.027l-99.117-1.917
				c-2.819-0.055-5.083-2.406-5.028-5.226l1.007-52.067c0.027-1.474,0.686-2.799,1.709-3.719c0.935-0.832,2.171-1.335,3.516-1.31
				l99.119,1.918c1.345,0.026,2.562,0.575,3.464,1.444C442.426,403.192,443.03,404.542,443.003,406.017z"/>
			<path fill="#9FC6FF" d="M441.439,402.234l-40.598,31.35c-7.754,5.987-18.63,5.776-26.146-0.506l-39.354-32.896
				c0.935-0.832,2.171-1.335,3.516-1.31l99.119,1.918C439.32,400.816,440.537,401.365,441.439,402.234z"/>
		</g>
		<g>
			<defs>
				<rect id="SVGID_1_" x="256.051" y="112.93" width="214.185" height="388.725"/>
			</defs>
			<clipPath id="SVGID_2_">
				<use xlink:href="#SVGID_1_"  overflow="visible"/>
			</clipPath>
			<g clip-path="url(#SVGID_2_)">
				<path fill="#0F264C" d="M380.653,202.277c0-8.905-2.969-43.945,11.625-46.914c4.618-4.865,27.485-5.364,31.001,7.008
					c4.617,16.243-2.227,55.902-2.227,55.902L380.653,202.277"/>
				<path fill="#0F264C" d="M424.086,218.356c-0.015,0-0.031-0.001-0.046-0.003c-0.203-0.024-0.348-0.21-0.322-0.413
					c0.049-0.398,4.818-40.044-0.502-55.778c-1.452-4.299-5.614-7.32-11.721-8.506c-7.965-1.551-16.574,0.384-18.953,3.149
					c-0.133,0.155-0.368,0.173-0.522,0.039c-0.155-0.133-0.173-0.368-0.04-0.523c2.781-3.236,12.146-4.854,19.657-3.394
					c6.379,1.24,10.741,4.436,12.283,8.998c5.373,15.893,0.582,55.706,0.533,56.105
					C424.431,218.218,424.271,218.356,424.086,218.356z"/>
				<path fill="#FF8B7B" d="M410.993,226.636l0.361,0.792l0.455,0.932c0.303,0.63,0.641,1.274,0.978,1.907
					c0.698,1.267,1.424,2.534,2.231,3.76c1.559,2.479,3.28,4.877,5.154,7.149c1.914,2.236,3.918,4.4,6.072,6.417
					c1.106,0.968,2.187,1.979,3.344,2.897l1.738,1.371l0.412,0.325c0,0,0.03,0.041-0.007,0.019c-0.05-0.008-0.229-0.091-0.581-0.12
					c-0.363-0.049-0.868,0.014-1.256,0.185c-0.374,0.144-0.568,0.319-0.634,0.409c-0.094,0.139,0.164-0.085,0.388-0.472
					c0.486-0.799,0.981-2.089,1.378-3.415c0.829-2.702,1.396-5.737,1.914-8.78c0.518-3.057,0.922-6.177,1.254-9.316
					c0.393-3.131,0.668-6.322,0.97-9.439l5.722-0.085c0.359,3.303,0.511,6.533,0.648,9.82c0.07,3.277,0.064,6.567-0.069,9.899
					c-0.157,3.339-0.455,6.685-1.164,10.221c-0.394,1.78-0.838,3.585-1.806,5.654c-0.514,1.033-1.136,2.182-2.405,3.42
					c-0.666,0.622-1.536,1.247-2.66,1.685c-1.146,0.438-2.466,0.577-3.627,0.435c-1.146-0.145-2.091-0.501-2.852-0.881
					c-0.4-0.193-0.695-0.386-1.042-0.595l-0.565-0.379l-2.153-1.461c-1.436-0.977-2.79-2.066-4.148-3.152
					c-2.662-2.232-5.185-4.639-7.494-7.239c-2.284-2.619-4.427-5.367-6.334-8.292c-0.953-1.461-1.827-2.981-2.67-4.529
					c-0.415-0.786-0.829-1.561-1.211-2.383l-0.561-1.251c-0.194-0.448-0.347-0.809-0.582-1.423L410.993,226.636z"/>
				<polygon fill="#DCE9FF" points="416.016,234.309 406.038,248.064 410.161,252.118 420.78,239.352 				"/>
				<path fill="#9FC6FF" d="M400.375,216.154c11.233,3.022,18.977,18.725,18.977,18.725l-12.975,18.186
					c0,0-15.588-19.608-15.21-25.844C391.56,220.728,393.605,214.334,400.375,216.154z"/>
				<path fill="#FF8B7B" d="M435.334,222.696l-2.967-11.813l11.332,3.305c0,0-0.323,7.976-4.229,10.582L435.334,222.696z"/>
				<polygon fill="#FF8B7B" points="435.936,201.292 443.892,205.315 443.699,214.188 432.367,210.883 				"/>
				<path fill="#FF8B7B" d="M293.684,205.664l-10.372-6.388l10.421-5.544c0,0,5.337,5.938,4.36,10.529L293.684,205.664z"/>
				<polygon fill="#FF8B7B" points="279.174,189.917 287.678,187.243 293.733,193.731 283.313,199.276 				"/>
				<polygon fill="#FF8B7B" points="288.339,492.296 299.25,493.361 310.604,467.391 299.693,466.325 				"/>
				<polygon fill="#FF8B7B" points="177.605,412.792 183.829,422.217 207.658,410.831 201.434,401.406 				"/>
				<path fill="#14365B" d="M186.438,421.234l-3.699-12.14c-0.136-0.442-0.551-0.707-1.001-0.638l-10.026,1.545
					c-1.039,0.16-1.721,1.304-1.393,2.317c1.362,4.211,2.231,6.174,3.859,11.513c1.001,3.283,2.732,10.696,4.115,15.23
					c1.351,4.437,5.939,3.41,5.771,1.396c-0.759-9.021,0.733-13.635,2.261-17.218C186.6,422.597,186.634,421.881,186.438,421.234z"
					/>
				<path fill="#14365B" d="M300.699,489.99h-13.401c-0.487,0-0.927,0.34-1.058,0.814l-2.913,10.602
					c-0.303,1.101,0.507,2.141,1.634,2.122c4.682-0.082,6.969-0.355,12.861-0.355c3.626,0,12.997,0.377,18.004,0.377
					c4.896,0,5.919-4.951,3.893-5.399c-9.084-2.01-14.319-4.782-17.122-7.427C302.09,490.247,301.412,489.99,300.699,489.99z"/>
				<polygon fill="#EA7063" points="310.598,467.398 304.749,480.785 293.365,480.785 299.683,466.331 				"/>
				<polygon fill="#EA7063" points="201.426,401.408 207.652,410.837 195.368,416.701 189.139,407.271 				"/>
				<path fill="#9FC6FF" d="M410.115,221.963c0,0,3.688,4.353-39.089,56.116c-15.71-9.193-31.949-18.695-39.596-23.169
					c10.095-15.727,15.928-25.653,27.578-63.232c0,0,9.351,3.049,18.109,7.623c11.855,6.192,17.32,10.05,17.98,10.522
					C402.406,215.047,410.115,221.963,410.115,221.963z"/>
				<path fill="#FF8B7B" d="M390.745,180.099c-2.251,6.449-7.32,17.711-13.628,19.202c0,0-1.853,6.794,8.897,13.085
					c11.82,6.916,9.083-2.563,9.083-2.563c-5.55-5.316-2.583-10.004,1.171-13.843L390.745,180.099z"/>
				<g>
					<path fill="#FF8B7B" d="M404.924,217.496c-2.787-2.327-6.357-5.191-9.826-7.677c-5.547-3.967-11.139-6.943-17.983-10.522
						c-3.501-1.835-7.093-3.428-10.15-4.654c-0.49,0.819-0.093,3.316,1.414,6.971c5.698,7.345,18.93,18.158,29.974,20.305
						C403.486,221.183,405.097,219.557,404.924,217.496z"/>
					<path fill="#DCE9FF" d="M368.378,201.615c2.064,5.009,6.22,12.206,13.138,20.363c7.822,0.543,13.204,0.464,16.836-0.058
						C387.308,219.773,374.076,208.96,368.378,201.615z"/>
				</g>
				<path fill="#EA7063" d="M392.994,186.576l3.271,9.397c-0.892,0.906-1.732,1.861-2.422,2.867
					c-2.255-1.799-4.677-6.18-3.429-8.914C391.037,188.565,392.435,187.055,392.994,186.576z"/>
				<path fill="#FF8B7B" d="M390.861,167.271c-3.069,10.783-4.6,15.282-1.177,22.576c5.146,10.973,19.061,12.384,25.291,2.738
					c5.606-8.685,9.684-24.859,0.833-32.698C407.088,152.166,393.93,156.49,390.861,167.271z"/>
				<path fill="#0F264C" d="M387.703,174.037c7.666,2.858,25.703-6.657,30.609-12.49c0.659-8.988-20.428-5.442-20.428-5.442
					S386.631,152.683,387.703,174.037z"/>
				<path fill="#FF8B7B" d="M385.866,176.217c-0.552,2.258-0.011,4.559,1.006,6.177c1.529,2.432,4.217,1.529,5.401-0.921
					c1.067-2.205,1.559-6.128-0.752-7.717C389.247,172.193,386.498,173.637,385.866,176.217z"/>
				<path fill="#0053CC" d="M371.026,278.08c0,0,0.649,101.694-17.386,131.051c-18.76,30.536-43.219,67.759-43.219,67.759
					l-21.172-1.023c0,0,24.695-55.091,34.01-80.657c12.841-35.246,18.771-134.097,18.771-134.097L371.026,278.08z"/>
				<path fill="#004DAA" d="M348.498,280.892c-2.803,2.068-5.847,5.863-8.739,10.169c-0.658,7.56-1.461,16.073-2.415,24.979
					C343.799,307.293,348.909,291.901,348.498,280.892z"/>
				<path fill="#0053CC" d="M360.57,271.96c0,0-44.813,63.603-72.75,97.881c-22.564,27.685-87.868,47.456-87.868,47.456
					l-7.967-13.363c0,0,51.954-28.991,67.447-47.725c49.588-59.953,48.974-91.05,71.998-101.299L360.57,271.96z"/>
				<path fill="#14365B" d="M332.199,252.239l-3.861,2.5c-0.299,0.193-0.138,0.666,0.32,0.932l41.524,24.298
					c0.357,0.21,0.757,0.207,0.91-0.004l2.431-3.335c0.167-0.23-0.021-0.62-0.41-0.848l-40.098-23.462
					C332.721,252.146,332.39,252.115,332.199,252.239z"/>
				<path fill="#0053CC" d="M334.959,259.875l-1.074-0.629c-0.214-0.125-0.313-0.33-0.219-0.456l3.199-4.311
					c0.093-0.126,0.345-0.126,0.558-0.001l1.074,0.629c0.215,0.125,0.313,0.331,0.219,0.455l-3.199,4.311
					C335.425,259.999,335.172,259.999,334.959,259.875z"/>
				<path fill="#0053CC" d="M366.94,278.588l-1.074-0.629c-0.215-0.125-0.313-0.33-0.219-0.457l3.199-4.31
					c0.093-0.126,0.345-0.126,0.56-0.001l1.072,0.627c0.215,0.126,0.313,0.332,0.22,0.457l-3.198,4.31
					C367.405,278.712,367.153,278.712,366.94,278.588z"/>
				<path fill="#0053CC" d="M350.95,269.231l-1.074-0.629c-0.213-0.125-0.312-0.33-0.219-0.457l3.197-4.31
					c0.094-0.126,0.346-0.126,0.56-0.001l1.075,0.629c0.213,0.125,0.312,0.33,0.218,0.455l-3.197,4.311
					C351.415,269.356,351.164,269.356,350.95,269.231z"/>
				
					<ellipse transform="matrix(-0.9432 -0.3323 0.3323 -0.9432 732.0203 477.6157)" fill="#0F264C" cx="406.847" cy="176.219" rx="1.078" ry="1.651"/>
				
					<ellipse transform="matrix(-0.9432 -0.3323 0.3323 -0.9432 749.7571 487.4925)" fill="#0F264C" cx="416.56" cy="179.641" rx="1.078" ry="1.649"/>
				<path fill="#0F264C" d="M416.843,178.046l2.274,0.132C419.117,178.178,417.49,179.417,416.843,178.046z"/>
				<path fill="#FF5652" d="M412.456,179.854c0,0,0.153,4.215,1.13,6.564c-1.507,0.66-3.265-0.503-3.265-0.503L412.456,179.854z"/>
				<path fill="#0F264C" d="M406.193,188.249c-0.028,0-0.06-0.006-0.088-0.016c-4.046-1.424-4.921-4.848-4.956-4.994
					c-0.034-0.144,0.053-0.289,0.196-0.323c0.15-0.035,0.289,0.055,0.323,0.197c0.009,0.032,0.852,3.292,4.613,4.616
					c0.14,0.048,0.212,0.202,0.163,0.341C406.406,188.18,406.304,188.249,406.193,188.249z"/>
				<path fill="#0F264C" d="M405.399,172.466c-0.19,0-0.374-0.101-0.472-0.281c-0.141-0.26-0.043-0.584,0.218-0.725
					c2.603-1.404,4.789-0.25,4.88-0.2c0.262,0.142,0.357,0.466,0.215,0.726c-0.143,0.259-0.47,0.352-0.724,0.216
					c-0.087-0.046-1.79-0.918-3.864,0.2C405.573,172.445,405.486,172.466,405.399,172.466z"/>
				<path fill="#0F264C" d="M421.706,176.391c-0.238,0-0.456-0.161-0.518-0.403c-0.588-2.313-2.446-2.971-2.465-2.977
					c-0.279-0.095-0.429-0.4-0.332-0.68c0.094-0.278,0.397-0.431,0.678-0.335c0.099,0.035,2.428,0.858,3.156,3.728
					c0.072,0.287-0.102,0.577-0.387,0.651C421.794,176.385,421.751,176.391,421.706,176.391z"/>
				<path fill="#FF8B7B" d="M355.737,208.7c-2.809,2.251-5.486,4.057-8.32,5.919c-2.806,1.842-5.713,3.515-8.676,5.106
					c-5.899,3.217-12.151,5.907-18.712,7.922c-0.807,0.275-1.659,0.46-2.488,0.691c-0.867,0.216-1.596,0.445-2.575,0.648
					c-2.008,0.452-4.238,0.617-6.495,0.337c-2.258-0.274-4.539-1.062-6.467-2.264c-1.937-1.202-3.493-2.755-4.728-4.368
					c-2.47-3.261-3.716-6.78-4.632-10.188c-0.458-1.71-0.745-3.434-0.955-5.148c-0.213-1.74-0.346-3.375-0.335-5.232l5.701-0.483
					c0.668,2.808,1.627,5.817,2.775,8.465c1.13,2.679,2.632,5.119,4.31,6.81c1.719,1.708,3.407,2.44,5.261,2.452
					c0.946-0.014,1.968-0.13,3.079-0.484c1.297-0.415,2.814-0.887,4.196-1.399c5.642-2.095,11.174-4.736,16.518-7.792
					c2.688-1.497,5.281-3.183,7.884-4.835c2.557-1.652,5.188-3.501,7.47-5.196L355.737,208.7z"/>
				<polygon fill="#DCE9FF" points="337.378,204.812 342.512,220.334 347.335,217.447 342.82,202.049 				"/>
				<path fill="#9FC6FF" d="M359.008,191.678c-4.673-1.115-19.056,9.843-19.056,9.843l6.102,19.459c0,0,15.093-8.351,16.426-14.454
					C363.869,200.171,364.34,192.951,359.008,191.678z"/>
				<path fill="#407BFF" d="M187.583,427.595c-0.252,0-0.492-0.067-0.715-0.199c-1.233-0.733-1.578-3.358-1.672-4.858
					c-0.007-0.107,0.051-0.207,0.146-0.256c0.094-0.047,0.208-0.035,0.292,0.033c0.355,0.295,3.472,2.93,3.289,4.361
					c-0.029,0.227-0.151,0.535-0.565,0.728C188.087,427.53,187.828,427.595,187.583,427.595z M185.782,423.148
					c0.197,1.996,0.693,3.391,1.359,3.786c0.285,0.171,0.606,0.162,0.988-0.015c0.208-0.097,0.248-0.217,0.261-0.313
					C188.487,425.854,186.997,424.24,185.782,423.148z"/>
				<path fill="#407BFF" d="M189.455,424.369c-1.365,0-3.444-0.961-4.177-1.655c-0.07-0.064-0.098-0.163-0.075-0.255
					c0.021-0.093,0.09-0.166,0.181-0.196c0.132-0.04,3.247-0.973,4.646-0.115c0.371,0.228,0.598,0.558,0.672,0.979
					c0.117,0.664-0.232,0.962-0.451,1.078C190.039,424.319,189.765,424.369,189.455,424.369z M186.043,422.64
					c1.133,0.778,3.261,1.474,3.954,1.095c0.114-0.063,0.238-0.175,0.177-0.515c-0.046-0.268-0.186-0.469-0.423-0.616
					C188.915,422.089,187.094,422.384,186.043,422.64z"/>
				<path fill="#407BFF" d="M306.643,492.203c-1.292,0-2.694-0.249-3.665-0.467c-0.113-0.024-0.197-0.117-0.209-0.231
					c-0.011-0.113,0.049-0.224,0.152-0.271c0.903-0.426,5.469-2.499,6.68-1.674c0.168,0.111,0.36,0.33,0.338,0.729
					c-0.03,0.536-0.26,0.968-0.68,1.286C308.641,492.043,307.677,492.203,306.643,492.203z M303.902,491.377
					c1.462,0.266,3.979,0.568,5.034-0.228c0.294-0.222,0.448-0.513,0.468-0.891c0.009-0.157-0.046-0.219-0.101-0.256
					C308.644,489.56,305.902,490.51,303.902,491.377z"/>
				<path fill="#407BFF" d="M303.035,491.743c-0.064,0-0.125-0.021-0.174-0.063c-0.076-0.065-0.11-0.167-0.087-0.265
					c0.046-0.207,1.168-5.062,3.837-4.727c0.689,0.083,0.879,0.43,0.917,0.706c0.17,1.264-2.88,3.709-4.392,4.328
					C303.103,491.736,303.068,491.743,303.035,491.743z M306.366,487.21c-1.603,0-2.565,2.601-2.919,3.769
					c1.542-0.847,3.649-2.777,3.551-3.51c-0.018-0.131-0.169-0.216-0.449-0.248C306.487,487.213,306.427,487.21,306.366,487.21z"/>
				<path fill="#0F264C" d="M407.129,174.624l2.275,0.132C409.404,174.756,407.776,175.995,407.129,174.624z"/>
			</g>
		</g>
		<g>
			<path opacity="0.8" fill="#0053CC" d="M537.227,70.192H427.105c-9.795,0-17.809,8.014-17.809,17.809V122.1
				c0,9.795,8.014,17.809,17.809,17.809h9.233v17.516l17.518-17.516h83.37c9.795,0,17.81-8.014,17.81-17.809V88.001
				C555.036,78.206,547.021,70.192,537.227,70.192z"/>
			<g>
				<path fill="#9FC6FF" d="M534.652,92.542H429.678c-2.255,0-4.083-1.829-4.083-4.084l0,0c0-2.256,1.828-4.084,4.083-4.084h104.975
					c2.255,0,4.085,1.829,4.085,4.084l0,0C538.737,90.713,536.907,92.542,534.652,92.542z"/>
			</g>
			<g>
				<path fill="#9FC6FF" d="M534.652,108.751h-67.3c-2.255,0-4.085-1.829-4.085-4.084l0,0c0-2.256,1.83-4.084,4.085-4.084h67.3
					c2.255,0,4.085,1.828,4.085,4.084l0,0C538.737,106.922,536.907,108.751,534.652,108.751z"/>
			</g>
			<g>
				<path fill="#9FC6FF" d="M447.388,108.751h-17.71c-2.255,0-4.083-1.829-4.083-4.084l0,0c0-2.256,1.828-4.084,4.083-4.084h17.71
					c2.255,0,4.084,1.828,4.084,4.084l0,0C451.472,106.922,449.643,108.751,447.388,108.751z"/>
			</g>
			<g>
				<path fill="#9FC6FF" d="M508.433,124.96h-78.755c-2.255,0-4.083-1.828-4.083-4.084l0,0c0-2.256,1.828-4.084,4.083-4.084h78.755
					c2.257,0,4.084,1.828,4.084,4.084l0,0C512.517,123.132,510.689,124.96,508.433,124.96z"/>
			</g>
		</g>
	</g>
</g>
</svg>
