<?xml version="1.0" encoding="utf-8"?>
<!-- Generator: Adobe Illustrator 16.0.0, SVG Export Plug-In . SVG Version: 6.00 Build 0)  -->
<!DOCTYPE svg PUBLIC "-//W3C//DTD SVG 1.1//EN" "http://www.w3.org/Graphics/SVG/1.1/DTD/svg11.dtd">
<svg version="1.1" id="Layer_1" xmlns="http://www.w3.org/2000/svg" xmlns:xlink="http://www.w3.org/1999/xlink" x="0px" y="0px"
	 width="520px" height="385px" viewBox="0 0 520 385" enable-background="new 0 0 520 385" xml:space="preserve">
<g>
	<g>
		<g>
			<g>
				<g>
					<rect x="7" y="334.398" fill="#D1E3FF" width="500" height="0.25"/>
					<rect x="385.65" y="342" fill="#D1E3FF" width="26.572" height="0.25"/>
					<rect x="429.685" y="347" fill="#D1E3FF" width="22.901" height="0.25"/>
					<rect x="237.457" y="346.264" fill="#D1E3FF" width="16.099" height="0.25"/>
					<rect x="171.611" y="346.264" fill="#D1E3FF" width="60.088" height="0.25"/>
					<rect x="108.444" y="344.681" fill="#D1E3FF" width="38.231" height="0.25"/>
					<rect x="282.223" y="340.563" fill="#D1E3FF" width="86.629" height="0.25"/>
					<rect x="71.932" y="344.556" fill="#D1E3FF" width="25.18" height="0.25"/>
					<path fill="#D1E3FF" d="M244.014,289.8H50.915c-3.147,0-5.708-2.561-5.708-5.708V12.66c0-3.147,2.561-5.708,5.708-5.708
						h193.099c3.146,0,5.707,2.561,5.707,5.708v271.432C249.721,287.239,247.16,289.8,244.014,289.8z M50.915,7.203
						c-3.01,0-5.458,2.448-5.458,5.458v271.432c0,3.01,2.448,5.458,5.458,5.458h193.099c3.009,0,5.457-2.448,5.457-5.458V12.66
						c0-3.009-2.448-5.458-5.457-5.458H50.915z"/>
					<path fill="#D1E3FF" d="M460.311,289.8H267.212c-3.146,0-5.707-2.561-5.707-5.708V12.66c0-3.147,2.561-5.708,5.707-5.708
						h193.099c3.147,0,5.708,2.561,5.708,5.708v271.432C466.019,287.239,463.458,289.8,460.311,289.8z M267.212,7.203
						c-3.009,0-5.457,2.448-5.457,5.458v271.432c0,3.01,2.448,5.458,5.457,5.458h193.099c3.01,0,5.458-2.448,5.458-5.458V12.66
						c0-3.009-2.448-5.458-5.458-5.458H267.212z"/>
				</g>
			</g>
		</g>
		<g>
			<g>
				<rect x="320.898" y="208.586" fill="#E3EEFF" width="19.3" height="125.813"/>
			</g>
			<g>
				
					<rect x="316.272" y="240.525" transform="matrix(-0.9014 0.4329 -0.4329 -0.9014 721.4779 376.0576)" fill="#E3EEFF" width="3.316" height="59.267"/>
			</g>
			<path fill="#E3EEFF" d="M322.925,250.225c0,0,3.538,17.414,22.383,12.282c8.242-2.245,10.034-8.436,9.627-14.355
				c7.612,5.428,19.073,9.845,17.963-13.949c0,0,24.555,18.705,32.786-8.189c8.23-26.896-13.809-29.429-13.809-29.429
				s30.996-25.609,20.416-46.603c-11.397-22.613-31.252-10.92-31.252-10.92s4.106-29.979-18.056-28.688
				c-2.848,0.166-5.461,1.399-7.413,3.35c-7.59-4.03-17.173,8.278-17.173,8.278s-1.907-15.085-16.977-9.64
				c-6.592,2.381-8.312,7.897-8.288,13.065c-5.712-4.374-14.498-7.67-14.82,13.129c0,0-18.361-15.161-26.183,8.825
				c-7.821,23.985,9.376,25.099,9.376,25.099s-25.651,24.002-18.389,41.871c7.822,19.246,24.016,8,24.016,8
				s-3.957,22.191,8.801,24.21c-0.801,4.496,1.072,9.212,5.127,11.602C311.173,264.122,322.925,250.225,322.925,250.225z"/>
			<g>
				<polygon fill="#F3F8FF" points="437.946,211.909 437.946,334.403 80.196,334.403 80.196,211.47 234.267,190.609 				"/>
				<polygon fill="#E3EEFF" points="234.267,190.609 80.198,211.47 80.198,334.398 234.267,334.398 				"/>
				<rect x="250.456" y="240.172" fill="#D1E3FF" width="73.477" height="94.227"/>
				<rect x="253.922" y="243.347" fill="#E3EEFF" width="66.543" height="91.052"/>
				<rect x="286.914" y="243.347" fill="#D1E3FF" width="0.561" height="91.052"/>
				<polygon fill="#D1E3FF" points="451.814,216.373 234.313,193.63 66.429,216.362 65.624,210.417 234.221,187.588 
					234.579,187.625 452.438,210.406 				"/>
			</g>
			<path fill="#F3F8FF" d="M436.304,73.51c5.801-12.534,1.196-21.457-12.982-21.457c-8.892,0-19.917,3.512-30.653,9.23
				c-1.213-3.26-4.629-5.213-10.125-5.213c-9.672,0-23.004,6.037-33.464,14.554c-2.53-1.899-6.192-3.063-10.898-3.249
				c-9.257-0.384-20.468,3.084-30.215,8.726c-0.844-0.944-2.292-1.537-4.29-1.625c-5.335-0.219-12.555,3.282-16.142,7.814
				c-0.224,0.286-0.422,0.56-0.62,0.834h11.079h8.814h30.622h15.068h11.717h18.048h3.275h44.767h13.202
				C448.455,78.682,442.986,73.733,436.304,73.51z"/>
			<path fill="#F3F8FF" d="M215.757,40.02c-0.388-0.042-0.782-0.063-1.182-0.063c0.367-4.099-1.757-6.716-6.293-6.716
				c-3.273,0-7.29,1.366-11.383,3.678c1.171-7.956-2.58-13.126-11.073-13.126c-6.851,0-15.525,3.363-24.093,8.849
				c-0.75-3.121-3.275-4.992-7.516-4.992c-7.451,0-18.039,5.78-26.528,13.936c0,0-0.003,0.01-0.01,0
				c-1.834-1.818-4.59-2.943-8.213-3.122c-7.095-0.368-15.904,2.953-23.714,8.365c-0.594-0.914-1.676-1.481-3.224-1.555
				c-3.879-0.2-9.226,2.785-12.332,6.779h9.051h6.135h23.596h11.05h9.84h13.977h26.406h10.293h3.662h14.65h13.145
				C225.331,46,222.678,40.703,215.757,40.02z"/>
			<g>
				<path fill="#F3F8FF" d="M72.014,334.398H56.791c0,0-9.372-8.326-12.421-19.498c-1.404-5.145,5.507-8.7,9.691-5.022
					C63.855,318.488,72.014,334.398,72.014,334.398z"/>
				<path fill="#F3F8FF" d="M78.424,334.398H63.2c0,0-8.706-17.88-5.342-30.897c1.167-4.516,6.826-5.909,9.962-2.459
					C79.336,313.709,78.424,334.398,78.424,334.398z"/>
				<path fill="#F3F8FF" d="M78.441,334.398h9.825c0,0,6.168-10.867,11.956-24.222c5.397-12.453-3.805-17.658-9.583-5.415
					C83.288,320.333,78.441,334.398,78.441,334.398z"/>
				<path fill="#F3F8FF" d="M81.128,334.398h15.224c0,0,15.33-7.253,14.472-20.979c-0.225-3.592-4.333-5.927-7.968-4.533
					C86.516,315.15,81.128,334.398,81.128,334.398z"/>
				<path fill="#F3F8FF" d="M72.582,334.398h15.224c0,0,4.6-25.393-0.854-41.391c-1.629-4.779-7.422-5.615-10.091-1.46
					C66.941,306.993,72.582,334.398,72.582,334.398z"/>
			</g>
			<rect x="117.196" y="224.723" fill="#D1E3FF" width="80.073" height="82.111"/>
			<rect x="120.959" y="228.949" fill="#F5FCFF" width="72.546" height="73.657"/>
			<rect x="118.752" y="262.94" fill="#D1E3FF" width="76.96" height="5.675"/>
			<rect x="154.395" y="226.213" fill="#D1E3FF" width="5.675" height="79.131"/>
			<polyline fill="#D1E3FF" points="437.951,306.834 347.155,306.834 347.155,226.213 437.951,226.213 			"/>
			<rect x="350.844" y="230.363" fill="#F5FCFF" width="87.107" height="72.319"/>
			<circle fill="#FFFFFF" cx="287.194" cy="218.713" r="11.121"/>
			<rect x="179.656" y="331.556" fill="#D1E3FF" width="158.833" height="2.848"/>
		</g>
	</g>
	<g>
		<ellipse fill="#F0F6FF" cx="257" cy="368.238" rx="193.889" ry="11.html"/>
		<g>
			<g>
				<path fill="#FFC3BD" d="M165.597,125.019c-0.162,2.855-0.496,5.47-0.867,8.182c-0.373,2.688-0.878,5.355-1.453,8.017
					c-1.125,5.323-2.676,10.604-4.815,15.755l-0.862,1.918l-0.216,0.479l-0.108,0.239c-0.035,0.078-0.063,0.145-0.148,0.309
					c-0.274,0.547-0.626,1.125-1.125,1.689c-0.501,0.558-1.131,1.101-1.873,1.479c-0.725,0.378-1.524,0.625-2.234,0.701
					c-1.45,0.17-2.576-0.086-3.525-0.368c-1.863-0.612-3.194-1.449-4.448-2.302c-1.232-0.87-2.331-1.787-3.382-2.725
					c-4.125-3.818-7.548-7.895-10.697-12.336l3.318-2.805c1.855,1.741,3.792,3.502,5.723,5.174c1.923,1.689,3.914,3.285,5.91,4.71
					c0.994,0.712,2,1.375,2.985,1.919c0.964,0.544,1.963,0.987,2.63,1.112c0.313,0.062,0.516,0.015,0.371-0.004
					c-0.134-0.04-0.612,0.187-0.729,0.332c-0.07,0.066-0.081,0.076-0.072,0.031l0.3-0.786l0.657-1.719
					c1.633-4.664,2.867-9.56,3.82-14.539c0.496-2.485,0.846-5.008,1.222-7.522c0.359-2.493,0.646-5.102,0.866-7.489L165.597,125.019
					z"/>
				<path fill="#0053CC" d="M159.625,114.563c-3.536,0.9-6.01,15.451-6.01,15.451l9.744,6.627c0,0,9.343-14.68,6.623-18.567
					C167.149,114.026,164.785,113.25,159.625,114.563z"/>
				<polygon fill="#004DAA" points="159.944,117.813 157.228,132.48 162.705,136.193 				"/>
				<path fill="#FFC3BD" d="M133.256,142.708l-4.635-7.321l-2.628,8.319c0,0,3.801,3.987,7.239,3.037L133.256,142.708z"/>
				<polygon fill="#FFC3BD" points="121.827,132.966 120.003,140.05 125.993,143.707 128.621,135.388 				"/>
				<polygon fill="#FFC3BD" points="178.756,359.479 170.176,359.479 169.604,339.61 178.183,339.61 				"/>
				<polygon fill="#FFC3BD" points="254.462,319.627 247.923,325.181 232.958,311.824 239.497,306.271 				"/>
				<path fill="#14365B" d="M246.131,324.516l6.341-7.259c0.231-0.265,0.602-0.318,0.892-0.13l6.466,4.189
					c0.67,0.436,0.786,1.44,0.244,2.04c-2.255,2.492-3.469,3.582-6.258,6.774c-1.715,1.964-4.018,5.011-6.387,7.723
					c-2.317,2.652-5.177,0.514-4.434-0.828c3.335-6.014,2.532-8.126,2.589-11.083C245.595,325.409,245.793,324.901,246.131,324.516z
					"/>
				<path fill="#14365B" d="M169.882,358.484h9.639c0.351,0,0.635,0.244,0.685,0.586l1.098,7.626
					c0.114,0.791-0.566,1.54-1.375,1.526c-3.36-0.059-4.979-0.256-9.218-0.256c-2.607,0-8.001,0.271-11.603,0.271
					c-3.522,0-3.793-3.562-2.293-3.884c6.724-1.446,9.37-3.439,11.634-5.343C168.857,358.669,169.369,358.484,169.882,358.484z"/>
				<g>
					<polygon fill="#F29994" points="169.605,339.615 169.899,349.856 178.482,349.856 178.188,339.615 					"/>
					<polygon fill="#F29994" points="239.503,306.272 232.961,311.829 240.678,318.711 247.22,313.154 					"/>
				</g>
				<path fill="#0F264C" d="M165.778,75.833c5.792-8.61,19.671-11.47,28.313-3.75c11,9.826,4.326,29.1,21.243,23.966
					c16.917-5.133,32.75-3.883,32.833,4.867c0.083,8.75,10.422-2.354,22.583,6.624c24.617,18.171,5.791,64.904-15.862,47.05
					c-14.193-11.703-19.167-16.722-26.25-7.805c-7.083,8.917-32.29,4.715-34.547-6.535S175.75,134.5,167,124.667
					C158.25,114.833,153.434,94.18,165.778,75.833z"/>
				<path fill="#0053CC" d="M159.625,114.563c0,0-4.087,1.439,4.1,51.781c13.826,0,28.116,0,34.844,0
					c-0.584-14.182-0.601-22.926,6.177-52.029c0,0-7.301-1.588-14.796-1.95c-5.863-0.282-10.667-0.47-15.822,0.001
					C167.332,112.986,159.625,114.563,159.625,114.563z"/>
				<path fill="#FFC3BD" d="M188.382,94.55c-0.998,5.091-1.994,14.419,1.567,17.815c0,0-1.392,5.165-10.851,5.165
					c-10.401,0-4.971-5.164-4.971-5.164c5.677-1.356,5.53-5.568,4.542-9.523L188.382,94.55z"/>
				<path fill="#F29994" d="M184.422,97.934l-5.749,4.905c0.237,0.937,0.422,1.886,0.488,2.809c2.168-0.313,5.148-2.694,5.378-4.965
					C184.654,99.55,184.606,98.461,184.422,97.934z"/>
				<path fill="#FFC3BD" d="M193.751,85.212c-1.996,8.277-2.664,11.823-7.652,15.37c-7.502,5.335-17.232,1.073-17.749-7.634
					c-0.466-7.837,2.877-20.057,11.658-21.936C188.66,69.16,195.747,76.935,193.751,85.212z"/>
				<path fill="#19437F" d="M163.725,166.344c0,0-6.767,66.087-6.205,92.25c0.585,27.214,10.557,89.278,10.557,89.278h11.601
					c0,0-1.836-60.475-0.811-87.201c1.118-29.136,10.373-94.328,10.373-94.328H163.725z"/>
				<polygon fill="#4EA4F9" points="180.684,348.289 167.072,348.289 166.073,343.947 181.316,343.416 				"/>
				<path fill="#133A68" d="M178.755,182.787c-8.558,17.217-1.718,48.622,1.308,60.307c1.552-17.549,4.168-39,6.208-54.752
					C184.974,179.428,182.702,174.85,178.755,182.787z"/>
				<path fill="#19437F" d="M172.927,166.344c0,0,7.893,68.707,13.854,90.764c7.077,26.188,51.035,61.433,51.035,61.433l8.917-7.574
					c0,0-31.861-38.285-37.271-52.081c-11.548-29.445-1.663-73.327-10.892-92.542H172.927z"/>
				<polygon fill="#4EA4F9" points="248.155,310.561 237.093,319.956 232.961,317.479 245.475,305.84 				"/>
				
					<ellipse transform="matrix(0.9847 0.1744 -0.1744 0.9847 17.6076 -30.0581)" fill="#0F264C" cx="179.837" cy="85.16" rx="0.819" ry="1.253"/>
				
					<ellipse transform="matrix(0.9847 0.1743 -0.1743 0.9847 17.2458 -28.7278)" fill="#0F264C" cx="172.135" cy="83.796" rx="0.819" ry="1.253"/>
				<path fill="#0F264C" d="M172.544,82.634l-1.553-0.761C170.991,81.873,171.604,83.3,172.544,82.634z"/>
				<path fill="#ED847E" d="M174.77,85.47c0,0-1.676,2.729-3.2,3.918c0.751,0.999,2.349,0.886,2.349,0.886L174.77,85.47z"/>
				<path fill="#0F264C" d="M177.001,93.487c-0.364,0-0.75-0.032-1.159-0.104c-0.11-0.02-0.184-0.125-0.165-0.236
					c0.02-0.11,0.124-0.182,0.236-0.165c2.979,0.53,4.757-1.313,4.774-1.331c0.077-0.082,0.205-0.085,0.287-0.009
					c0.082,0.077,0.086,0.205,0.009,0.287C180.916,92.002,179.492,93.487,177.001,93.487z"/>
				<path fill="#0F264C" d="M180.354,70.308c-3.833,2.199,5.614,23,12.531,20.083c6.917-2.917,4.667-14.527,1.25-17.451
					C190.718,70.016,185.656,67.266,180.354,70.308z"/>
				<path fill="#0F264C" d="M178.196,69.333c0,0-4.606,0.667-7.689,6.417c-3.083,5.75,14.625-5.625,12.125-6.417
					C180.131,68.542,178.196,69.333,178.196,69.333z"/>
				<path fill="#FFC3BD" d="M194.104,91.452c-0.666,1.635-2.024,2.81-3.37,3.352c-2.024,0.814-3.275-0.938-2.913-2.974
					c0.326-1.832,1.773-4.463,3.901-4.411C193.819,87.471,194.865,89.583,194.104,91.452z"/>
				<path fill="#0F264C" d="M182.752,80.822c-0.107,0-0.215-0.042-0.295-0.126c-1.248-1.315-2.723-1.063-2.738-1.059
					c-0.218,0.04-0.433-0.105-0.473-0.327c-0.041-0.221,0.106-0.433,0.327-0.473c0.077-0.013,1.928-0.332,3.475,1.299
					c0.154,0.163,0.147,0.42-0.015,0.575C182.954,80.785,182.853,80.822,182.752,80.822z"/>
				<path fill="#0F264C" d="M170.145,79.776c-0.101,0-0.202-0.037-0.281-0.112c-0.162-0.155-0.168-0.413-0.013-0.575
					c1.554-1.626,3.402-1.301,3.479-1.287c0.221,0.042,0.366,0.253,0.325,0.474c-0.041,0.22-0.251,0.364-0.473,0.325
					c-0.072-0.015-1.509-0.243-2.743,1.049C170.358,79.734,170.251,79.776,170.145,79.776z"/>
				<path fill="#FFC3BD" d="M208.51,123.485c1.917,4.661,3.49,9.252,4.867,14.029c1.371,4.761,2.531,9.611,3.172,14.706
					c0.129,1.289,0.283,2.562,0.318,3.896l0.045,0.989c0.008,0.164,0.071,1.051-0.156,1.974c-0.115,0.479-0.316,1.027-0.648,1.565
					c-0.331,0.539-0.804,1.055-1.307,1.417c-1.035,0.748-2.006,0.942-2.713,1.021c-0.732,0.071-1.286,0.02-1.776-0.047
					c-0.501-0.068-0.918-0.168-1.324-0.274c-0.793-0.217-1.48-0.473-2.133-0.742c-1.301-0.535-2.456-1.15-3.578-1.781
					c-4.431-2.573-8.333-5.463-12.108-8.689l2.458-3.583c4.214,2.129,8.497,4.347,12.687,6.059c1.04,0.424,2.083,0.798,3.042,1.088
					c0.478,0.14,0.938,0.25,1.317,0.307c0.181,0.023,0.355,0.042,0.453,0.033c0.106,0,0.158-0.028,0.024-0.032
					c-0.114,0.006-0.487,0.029-1.039,0.415c-0.565,0.378-0.96,1.135-1.025,1.484c-0.098,0.333-0.054,0.612-0.101,0.178l-0.088-0.811
					c-0.087-1.07-0.291-2.179-0.464-3.277c-0.404-2.212-0.883-4.445-1.491-6.677c-0.565-2.234-1.225-4.473-1.916-6.702
					c-1.423-4.43-2.987-8.946-4.635-13.224L208.51,123.485z"/>
				<path fill="#0053CC" d="M204.746,114.315c3.491,1.062,7.684,13.082,7.684,13.082l-13.543,9.683c0,0-4.939-10.035-3.472-14.547
					C196.941,117.834,200.762,113.104,204.746,114.315z"/>
				<path fill="#9FC6FF" d="M243.787,328.656c-0.335,0-0.64-0.155-0.907-0.464c-0.226-0.262-0.214-0.515-0.164-0.681
					c0.317-1.049,3.297-1.904,3.636-1.998c0.075-0.026,0.162,0.005,0.212,0.067c0.051,0.063,0.06,0.151,0.021,0.223
					c-0.533,1.01-1.589,2.723-2.671,2.846C243.872,328.654,243.829,328.656,243.787,328.656z M245.989,326.046
					c-1.182,0.377-2.717,1.031-2.884,1.584c-0.021,0.069-0.031,0.166,0.083,0.297c0.209,0.242,0.429,0.354,0.681,0.318
					C244.453,328.179,245.231,327.366,245.989,326.046z"/>
				<path fill="#9FC6FF" d="M245.046,326.081c-0.989,0-2.101-0.199-2.481-0.694c-0.115-0.149-0.265-0.464,0.023-0.888
					c0.183-0.27,0.442-0.427,0.771-0.469c1.234-0.167,3.103,1.457,3.182,1.525c0.054,0.048,0.08,0.121,0.066,0.191
					c-0.014,0.071-0.064,0.13-0.132,0.153C246.148,326.015,245.618,326.081,245.046,326.081z M243.541,324.425
					c-0.045,0-0.088,0.003-0.13,0.008c-0.211,0.027-0.37,0.124-0.486,0.295c-0.147,0.216-0.097,0.334-0.037,0.412
					c0.367,0.477,2.054,0.661,3.081,0.472C245.354,325.135,244.279,324.425,243.541,324.425z"/>
				<path fill="#9FC6FF" d="M166.662,359.984c-0.854,0-1.641-0.133-2.082-0.528c-0.28-0.252-0.403-0.585-0.366-0.99
					c0.021-0.242,0.141-0.429,0.344-0.54c1.054-0.576,4.471,1.171,4.857,1.372c0.077,0.04,0.12,0.124,0.107,0.209
					c-0.012,0.086-0.077,0.154-0.162,0.171C168.633,359.822,167.606,359.984,166.662,359.984z M165.132,358.209
					c-0.157,0-0.286,0.022-0.379,0.073c-0.083,0.046-0.125,0.114-0.135,0.221c-0.024,0.274,0.052,0.487,0.234,0.65
					c0.521,0.468,1.931,0.549,3.833,0.234C167.509,358.823,165.945,358.209,165.132,358.209z"/>
				<path fill="#9FC6FF" d="M169.322,359.682c-0.028,0-0.057-0.006-0.083-0.018c-1.023-0.463-3.045-2.314-2.887-3.285
					c0.038-0.23,0.201-0.517,0.763-0.573c0.416-0.043,0.795,0.076,1.125,0.351c1.079,0.897,1.277,3.208,1.285,3.306
					c0.006,0.072-0.027,0.142-0.085,0.183C169.404,359.669,169.363,359.682,169.322,359.682z M167.278,356.204
					c-0.04,0-0.081,0.002-0.123,0.006c-0.371,0.037-0.395,0.186-0.403,0.234c-0.096,0.583,1.277,2.039,2.319,2.671
					c-0.1-0.673-0.385-2.059-1.093-2.647C167.767,356.291,167.536,356.204,167.278,356.204z"/>
				<path fill="#9FC6FF" d="M199.091,164.299l0.891,3.119c0.122,0.242-0.165,0.489-0.567,0.489h-35.861
					c-0.314,0-0.574-0.154-0.594-0.352l-0.314-3.119c-0.022-0.216,0.25-0.399,0.594-0.399h35.284
					C198.783,164.038,199.012,164.144,199.091,164.299z"/>
				<path fill="#19437F" d="M194.352,168.245h0.945c0.188,0,0.332-0.097,0.318-0.216l-0.443-4.052
					c-0.013-0.118-0.178-0.215-0.366-0.215h-0.945c-0.188,0-0.332,0.097-0.318,0.215l0.443,4.052
					C193.999,168.147,194.164,168.245,194.352,168.245z"/>
				<path fill="#19437F" d="M166.208,168.245h0.945c0.188,0,0.332-0.097,0.318-0.216l-0.443-4.052
					c-0.013-0.118-0.178-0.215-0.366-0.215h-0.945c-0.188,0-0.332,0.097-0.318,0.215l0.443,4.052
					C165.856,168.147,166.021,168.245,166.208,168.245z"/>
				<path fill="#19437F" d="M180.28,168.245h0.945c0.188,0,0.332-0.097,0.319-0.216l-0.443-4.052
					c-0.013-0.118-0.178-0.215-0.366-0.215h-0.945c-0.188,0-0.332,0.097-0.319,0.215l0.443,4.052
					C179.927,168.147,180.092,168.245,180.28,168.245z"/>
				<path fill="#FFC3BD" d="M194.767,148.875l-2.879-8.81l-4.594,7.417c0,0,2.704,4.799,6.27,4.724L194.767,148.875z"/>
				<g>
					<path fill="#DCE9FF" d="M188.825,129.96l-2.256,29.237c-0.122,1.583-1.518,2.779-3.101,2.657l-55.657-4.295
						c-1.583-0.123-2.779-1.518-2.657-3.101l2.257-29.237c0.064-0.828,0.477-1.551,1.081-2.036c0.553-0.438,1.264-0.68,2.02-0.621
						l55.657,4.295c0.755,0.059,1.421,0.407,1.9,0.924C188.592,128.354,188.889,129.133,188.825,129.96z"/>
					<path fill="#9FC6FF" d="M188.069,127.783l-23.839,16.306c-4.553,3.114-10.661,2.643-14.682-1.133l-21.056-19.771
						c0.553-0.438,1.264-0.68,2.02-0.621l55.657,4.295C186.924,126.918,187.59,127.266,188.069,127.783z"/>
				</g>
				<polygon fill="#FFC3BD" points="185.897,136.046 182.387,142.464 188.069,148.646 191.887,140.065 				"/>
				<path fill="#0F264C" d="M180.246,83.999l-1.553-0.762C178.692,83.237,179.306,84.664,180.246,83.999z"/>
			</g>
			<g>
				<g>
					<g>
						<rect x="328.031" y="202" fill="#9FC6FF" width="12.264" height="166.238"/>
						<polygon fill="#77B3FC" points="328.031,202 340.295,202 340.295,214.264 328.031,209.75 						"/>
					</g>
					<g>
						<path fill="#0053CC" d="M314.796,162.116c0-16.201-13.133-29.333-29.333-29.333s-29.333,13.133-29.333,29.333V202h58.667
							V162.116z"/>
						<path fill="#77B3FC" d="M250.574,219.111c-3.92,16.2,6.036,29.333,22.236,29.333c16.2,0,32.511-13.133,36.431-29.333
							l4.082-16.869c0.235-0.973-0.502-1.908-1.503-1.908h-55.486c-0.714,0-1.334,0.488-1.502,1.182L250.574,219.111z"/>
						<path fill="#9FC6FF" d="M248.213,219.111c-3.92,16.2,6.036,29.333,22.236,29.333c16.2,0,32.512-13.133,36.431-29.333
							l4.082-16.869c0.235-0.973-0.502-1.908-1.503-1.908h-55.486c-0.713,0-1.334,0.488-1.502,1.182L248.213,219.111z"/>
						<path fill="#9FC6FF" d="M383.844,162.111v39.893h-69.05v-39.893c0-6.79-2.3-13.03-6.18-18c-5.36-6.9-13.74-11.33-23.15-11.33
							h69.05c9.41,0,17.79,4.43,23.15,11.33C381.544,149.081,383.844,155.321,383.844,162.111z"/>
						<path fill="#B6D7FF" d="M383.844,162.111v10.67h-69.05v-10.67c0-6.79-2.3-13.03-6.18-18h69.05
							C381.544,149.081,383.844,155.321,383.844,162.111z"/>
						<path fill="#0053CC" d="M324.407,177.917v-58.978c0-2.237,2.008-3.94,4.215-3.575l14.136,2.336
							c1.048,0.173,1.816,1.079,1.816,2.141v3.657c0,1.198-0.972,2.169-2.17,2.169h-13.497v52.25c0,1.243-1.008,2.25-2.25,2.25l0,0
							C325.414,180.167,324.407,179.159,324.407,177.917z"/>
					</g>
				</g>
				<g>
					<g>
						<path fill="#DCE9FF" d="M285.464,140.57v29.324c0,1.588-1.299,2.888-2.888,2.888h-55.822c-1.588,0-2.888-1.3-2.888-2.888
							V140.57c0-0.83,0.356-1.583,0.922-2.112c0.517-0.479,1.208-0.775,1.966-0.775h55.822c0.758,0,1.449,0.296,1.966,0.775
							C285.107,138.987,285.464,139.74,285.464,140.57z"/>
						<path fill="#9FC6FF" d="M284.542,138.458l-22.514,18.092c-4.3,3.455-10.426,3.455-14.726,0l-22.514-18.092
							c0.517-0.479,1.208-0.775,1.966-0.775h55.822C283.334,137.683,284.025,137.979,284.542,138.458z"/>
					</g>
					<g>
						<path fill="#DCE9FF" d="M242.685,184.604v29.324c0,1.588-1.299,2.888-2.888,2.888h-55.822c-1.588,0-2.888-1.3-2.888-2.888
							v-29.324c0-0.83,0.356-1.583,0.922-2.112c0.517-0.479,1.208-0.775,1.966-0.775h55.822c0.758,0,1.449,0.296,1.966,0.775
							C242.329,183.021,242.685,183.774,242.685,184.604z"/>
						<path fill="#9FC6FF" d="M241.763,182.492l-22.514,18.092c-4.3,3.455-10.426,3.455-14.726,0l-22.514-18.092
							c0.517-0.479,1.208-0.775,1.966-0.775h55.822C240.556,181.717,241.246,182.013,241.763,182.492z"/>
					</g>
					<g>
						<g>
							<path fill="#DCE9FF" d="M314.796,162.617v35.1h-20.859c-1.591,0-2.891-1.3-2.891-2.891v-29.319c0-0.83,0.36-1.58,0.931-2.11
								c0.51-0.48,1.199-0.78,1.96-0.78H314.796z"/>
							<path fill="#9FC6FF" d="M314.796,162.617v19.1c-0.109-0.07-0.21-0.15-0.31-0.23l-22.51-18.09c0.51-0.48,1.199-0.78,1.96-0.78
								H314.796z"/>
						</g>
						<rect x="310.223" y="162.617" fill="#B6D7FF" width="4.573" height="35.1"/>
					</g>
				</g>
			</g>
		</g>
	</g>
</g>
</svg>
