<?xml version="1.0" encoding="utf-8"?>
<!-- Generator: Adobe Illustrator 16.0.0, SVG Export Plug-In . SVG Version: 6.00 Build 0)  -->
<!DOCTYPE svg PUBLIC "-//W3C//DTD SVG 1.1//EN" "http://www.w3.org/Graphics/SVG/1.1/DTD/svg11.dtd">
<svg version="1.1" id="Layer_2" xmlns="http://www.w3.org/2000/svg" xmlns:xlink="http://www.w3.org/1999/xlink" x="0px" y="0px"
	 width="743px" height="560px" viewBox="0 0 743 560" enable-background="new 0 0 743 560" xml:space="preserve">
<g>
	<g>
		<g>
			<g>
				<rect x="2.454" y="486.778" fill="#F0F0F0" width="739" height="0.369"/>
				<rect x="511.651" y="505.403" fill="#F0F0F0" width="15.493" height="0.369"/>
				<rect x="98.423" y="495.704" fill="#F0F0F0" width="14.973" height="0.369"/>
				<rect x="229.25" y="505.219" fill="#F0F0F0" width="45.321" height="0.369"/>
				<rect x="319.212" y="496.792" fill="#F0F0F0" width="29.094" height="0.369"/>
				<rect x="559.92" y="499.132" fill="#F0F0F0" width="77.515" height="0.369"/>
				<rect x="120.53" y="495.704" fill="#F0F0F0" width="63.652" height="0.369"/>
				<rect x="646.051" y="499.316" fill="#F0F0F0" width="24.342" height="0.369"/>
				<path fill="#F0F0F0" d="M352.76,420.86H67.36c-4.652,0-8.436-3.784-8.436-8.436V11.249c0-4.651,3.784-8.436,8.436-8.436h285.4
					c4.65,0,8.435,3.785,8.435,8.436v401.176C361.195,417.076,357.411,420.86,352.76,420.86z M67.36,3.182
					c-4.448,0-8.067,3.619-8.067,8.066v401.176c0,4.448,3.619,8.066,8.067,8.066h285.4c4.447,0,8.066-3.618,8.066-8.066V11.249
					c0-4.447-3.619-8.066-8.066-8.066H67.36z"/>
				<path fill="#F0F0F0" d="M672.447,420.86H387.048c-4.65,0-8.436-3.784-8.436-8.436V11.249c0-4.651,3.785-8.436,8.436-8.436
					h285.399c4.651,0,8.437,3.785,8.437,8.436v401.176C680.884,417.076,677.099,420.86,672.447,420.86z M387.048,3.182
					c-4.447,0-8.066,3.619-8.066,8.066v401.176c0,4.448,3.619,8.066,8.066,8.066h285.399c4.448,0,8.066-3.618,8.066-8.066V11.249
					c0-4.447-3.618-8.066-8.066-8.066H387.048z"/>
			</g>
		</g>
	</g>
	<g>
		<rect x="606.011" y="398.055" fill="#E6E6E6" width="40.649" height="88.724"/>
		<polygon fill="#F5F5F5" points="638.939,486.778 646.66,486.778 646.66,464.815 630.846,464.815 		"/>
		<rect x="374.077" y="398.055" fill="#EBEBEB" width="40.649" height="88.724"/>
		<rect x="407.989" y="398.055" fill="#F5F5F5" width="238.671" height="75.247"/>
		<g>
			<rect x="415.925" y="405.245" fill="#E6E6E6" width="70.75" height="40.602"/>
			<path fill="#F0F0F0" d="M458.299,411.388h-13.998c-6.079,0-11.892-2.499-16.072-6.913l0,0h46.146l0,0
				C470.19,408.889,464.378,411.388,458.299,411.388z"/>
		</g>
		<g>
			<rect x="491.95" y="405.245" fill="#E6E6E6" width="70.75" height="40.602"/>
			<path fill="#F0F0F0" d="M535.04,411.388h-13.999c-6.078,0-11.891-2.499-16.072-6.913l0,0h46.144l0,0
				C546.931,408.889,541.118,411.388,535.04,411.388z"/>
		</g>
		<g>
			<rect x="567.976" y="405.245" fill="#E6E6E6" width="70.748" height="40.602"/>
			<path fill="#F0F0F0" d="M611.063,411.388h-13.997c-6.08,0-11.893-2.499-16.074-6.913l0,0h46.146l0,0
				C622.956,408.889,617.144,411.388,611.063,411.388z"/>
		</g>
		<polygon fill="#F5F5F5" points="415.709,486.778 407.989,486.778 407.989,464.815 423.805,464.815 		"/>
	</g>
	<g>
		<rect x="95.37" y="30.951" fill="#E6E6E6" width="362.904" height="195.773"/>
		<rect x="98.878" y="30.951" fill="#EBEBEB" width="366.901" height="195.773"/>
		<rect x="95.37" y="226.724" fill="#E6E6E6" width="362.904" height="13.95"/>
		<rect x="111.384" y="226.724" fill="#E6E6E6" width="366.9" height="13.95"/>
		<rect x="109.387" y="41.46" fill="#FAFAFA" width="345.882" height="174.754"/>
		<polygon fill="#FFFFFF" points="129.493,216.214 191.177,41.46 220.296,41.46 158.611,216.214 		"/>
		<path fill="#E6E6E6" d="M114.253,156.979c-0.443,0-0.804-0.36-0.804-0.804V48.298c0-0.444,0.36-0.804,0.804-0.804
			c0.444,0,0.804,0.36,0.804,0.804v107.876C115.057,156.618,114.697,156.979,114.253,156.979z"/>
		<polygon fill="#FFFFFF" points="164.866,216.214 226.551,41.46 237.903,41.46 176.219,216.214 		"/>
		<rect x="453.935" y="41.46" fill="#E6E6E6" width="1.334" height="174.754"/>
		<polygon fill="#EBEBEB" points="468.265,54.906 105.362,54.906 104.395,45.546 467.297,45.546 		"/>
		<polygon fill="#EBEBEB" points="468.265,61.758 105.362,61.758 104.395,52.397 467.297,52.397 		"/>
		<polygon fill="#EBEBEB" points="468.265,69.979 105.362,69.979 104.395,60.619 467.297,60.619 		"/>
		<polygon fill="#EBEBEB" points="468.265,79.128 105.362,79.128 104.395,69.769 467.297,69.769 		"/>
		<polygon fill="#E6E6E6" points="468.265,90.091 105.362,90.091 104.395,80.73 467.297,80.73 		"/>
		<polygon fill="#E6E6E6" points="468.265,102.424 105.362,102.424 104.395,93.063 467.297,93.063 		"/>
	</g>
	<g>
		<rect x="508.283" y="113.736" fill="#EBEBEB" width="50.619" height="58.316"/>
		<rect x="514.288" y="113.736" fill="#F5F5F5" width="54.856" height="58.316"/>
		<rect x="518.882" y="118.332" fill="#FFFFFF" width="45.667" height="49.125"/>
		<path fill="#FAFAFA" d="M529.951,151.521v-17.254c0-2.225,1.805-4.029,4.028-4.029h15.472c2.225,0,4.029,1.804,4.029,4.029v17.254
			c0,2.225-1.805,4.027-4.029,4.027h-15.472C531.756,155.549,529.951,153.746,529.951,151.521z"/>
	</g>
	<g>
		<rect x="584.682" y="88.086" fill="#EBEBEB" width="50.62" height="58.316"/>
		<rect x="590.685" y="88.086" fill="#F5F5F5" width="54.857" height="58.316"/>
		<rect x="595.28" y="92.682" fill="#FFFFFF" width="45.666" height="49.125"/>
		<path fill="#FAFAFA" d="M606.351,125.872v-17.255c0-2.225,1.803-4.028,4.027-4.028h15.472c2.224,0,4.028,1.803,4.028,4.028v17.255
			c0,2.224-1.805,4.027-4.028,4.027h-15.472C608.153,129.899,606.351,128.096,606.351,125.872z"/>
	</g>
	<g>
		<g>
			<rect x="305.108" y="314.251" fill="#E6E6E6" width="82.119" height="172.527"/>
			<polygon fill="#E6E6E6" points="378.967,486.778 387.227,486.778 387.227,463.281 370.306,463.281 			"/>
			<rect x="103.102" y="314.251" fill="#E6E6E6" width="82.119" height="172.527"/>
			<rect x="178.013" y="314.251" fill="#F5F5F5" width="209.214" height="158.109"/>
			<rect x="182.685" y="321.258" fill="#E6E6E6" width="196.399" height="43.359"/>
			<path fill="#F5F5F5" d="M291.896,334.731h-18.553c-8.06,0-15.765-5.35-21.307-14.793l0,0h61.167l0,0
				C307.661,329.382,299.957,334.731,291.896,334.731z"/>
			<polygon fill="#E6E6E6" points="186.272,486.778 178.013,486.778 178.013,463.281 194.934,463.281 			"/>
			<rect x="182.685" y="371.625" fill="#E6E6E6" width="196.399" height="43.36"/>
			<path fill="#F5F5F5" d="M291.896,385.099h-18.553c-8.06,0-15.765-5.349-21.307-14.792l0,0h61.167l0,0
				C307.661,379.75,299.957,385.099,291.896,385.099z"/>
			<rect x="182.685" y="421.992" fill="#E6E6E6" width="196.399" height="43.359"/>
			<path fill="#F5F5F5" d="M291.896,435.467h-18.553c-8.06,0-15.765-5.349-21.307-14.794l0,0h61.167l0,0
				C307.661,430.118,299.957,435.467,291.896,435.467z"/>
		</g>
	</g>
	<g>
		<path fill="#E6E6E6" d="M567.84,382.143h2.449c-0.024-5.05,0.011-17.856,0.257-47.211c0.442-53.203,1.285-56.447,1.285-56.447
			l-5.836,24.561C562.297,330.242,567.067,357.572,567.84,382.143z"/>
		<path fill="#E6E6E6" d="M556.966,293.951c-12.847-12.695-37.916-14.396-63.521-15.46c-10.054-0.418,28.08,18.897,47.188,33.363
			c14.845,11.236,23.911,13.877,28.832,25.999C569.967,322.116,568.034,304.889,556.966,293.951z"/>
		<path fill="#E6E6E6" d="M571.086,266.333c8.703-16.537,30.607-32.106,55.182-38.013c9.649-2.319-22.351,30.538-34.513,51.724
			c-9.448,16.458-21.979,35.792-23.927,49.68C564.888,302.209,562.384,282.869,571.086,266.333z"/>
		<g>
			<path fill="#F0F0F0" d="M569.967,398.055L569.967,398.055c-8.555,0-15.624-6.674-16.116-15.215l-1.425-14.592h35.083
				l-1.427,14.592C585.591,391.381,578.522,398.055,569.967,398.055z"/>
			<polygon fill="#F5F5F5" points="589.78,373.86 550.154,373.86 549.02,357.605 590.914,357.605 			"/>
		</g>
	</g>
	<ellipse fill="#F5F5F5" cx="371.954" cy="536.794" rx="286.567" ry="16.735"/>
	<g>
		<path fill="#407BFF" d="M365.25,132.668c2.005,25.105,31.014,57.757,40.318,67.638c1.552,1.647,4.149,1.647,5.702,0
			c9.306-9.88,38.313-42.532,40.317-67.638c0.127-1.582-0.657-3.095-2.053-3.849l-39.25-21.184c-1.164-0.628-2.567-0.628-3.732,0
			l-39.249,21.184C365.908,129.573,365.124,131.086,365.25,132.668z"/>
		<g>
			<path opacity="0.3" fill="#407BFF" d="M405.499,190.786c-11.883-13.38-28.959-35.664-33.052-53.467
				c-0.39-1.696,0.373-3.443,1.88-4.31l32.135-18.472c1.213-0.697,2.705-0.697,3.917,0l32.134,18.473
				c1.507,0.867,2.268,2.613,1.879,4.308c-4.086,17.823-21.159,40.097-33.046,53.47C409.79,192.539,407.055,192.539,405.499,190.786
				z"/>
			<path opacity="0.3" fill="#FFFFFF" d="M405.499,190.786c-11.883-13.38-28.959-35.664-33.052-53.467
				c-0.39-1.696,0.373-3.443,1.88-4.31l32.135-18.472c1.213-0.697,2.705-0.697,3.917,0l32.134,18.473
				c1.507,0.867,2.268,2.613,1.879,4.308c-4.086,17.823-21.159,40.097-33.046,53.47C409.79,192.539,407.055,192.539,405.499,190.786
				z"/>
		</g>
		<path fill="#FFFFFF" d="M404.035,163.801c-0.566,0-1.134-0.216-1.566-0.649l-10.947-10.946c-0.865-0.865-0.865-2.269,0-3.135
			c0.866-0.866,2.27-0.866,3.135,0l9.379,9.378l22.1-22.101c0.866-0.866,2.27-0.866,3.136,0c0.865,0.865,0.865,2.269,0,3.135
			l-23.667,23.668C405.17,163.584,404.604,163.801,404.035,163.801z"/>
	</g>
	<g>
		<path fill="#263238" d="M497.1,223.598H292.149c-9.755,0-17.735,7.981-17.735,17.736v268.855c0,9.754,7.98,17.735,17.735,17.735
			H497.1c9.754,0,17.735-7.981,17.735-17.735V241.334C514.835,231.579,506.854,223.598,497.1,223.598z"/>
		<path fill="#407BFF" d="M510.893,223.598H305.943c-9.754,0-17.736,7.981-17.736,17.736v268.855
			c0,9.754,7.982,17.735,17.736,17.735h204.949c9.755,0,17.737-7.981,17.737-17.735V241.334
			C528.63,231.579,520.647,223.598,510.893,223.598z"/>
		<path fill="#263238" d="M330.221,533.344h-19.96c-0.607,0-1.104-0.497-1.104-1.104v-3.21c0-0.607,0.497-1.104,1.104-1.104h19.96
			c0.609,0,1.105,0.497,1.105,1.104v3.21C331.326,532.847,330.83,533.344,330.221,533.344z"/>
		<path fill="#263238" d="M506.576,533.344h-19.96c-0.607,0-1.104-0.497-1.104-1.104v-3.21c0-0.607,0.497-1.104,1.104-1.104h19.96
			c0.607,0,1.105,0.497,1.105,1.104v3.21C507.682,532.847,507.184,533.344,506.576,533.344z"/>
		<path opacity="0.2" d="M510.893,223.598H305.943c-9.754,0-17.736,7.981-17.736,17.736v268.855c0,9.754,7.982,17.735,17.736,17.735
			h204.949c9.755,0,17.737-7.981,17.737-17.735V241.334C528.63,231.579,520.647,223.598,510.893,223.598z"/>
		<path opacity="0.4" fill="#E6E6E6" d="M486.752,492.823H330.085c-3.735,0-6.775-3.039-6.775-6.773V265.474
			c0-3.735,3.04-6.774,6.775-6.774h156.667c3.735,0,6.774,3.039,6.774,6.774V486.05
			C493.526,489.784,490.487,492.823,486.752,492.823z M330.085,259.438c-3.328,0-6.036,2.708-6.036,6.036V486.05
			c0,3.326,2.708,6.033,6.036,6.033h156.667c3.328,0,6.036-2.707,6.036-6.033V265.474c0-3.328-2.708-6.036-6.036-6.036H330.085z"/>
		<g>
			<path fill="#407BFF" d="M330.085,489.497c-1.902,0-3.449-1.547-3.449-3.447V265.474c0-1.901,1.547-3.448,3.449-3.448h156.667
				c1.9,0,3.448,1.547,3.448,3.448V486.05c0,1.9-1.548,3.447-3.448,3.447H330.085z"/>
			<path opacity="0.1" fill="#FFFFFF" d="M330.085,489.497c-1.902,0-3.449-1.547-3.449-3.447V265.474
				c0-1.901,1.547-3.448,3.449-3.448h156.667c1.9,0,3.448,1.547,3.448,3.448V486.05c0,1.9-1.548,3.447-3.448,3.447H330.085z"/>
		</g>
		<g>
			<rect x="532.324" y="286.331" fill="#407BFF" width="1.478" height="12.48"/>
			<rect x="532.324" y="241.333" fill="#407BFF" width="1.478" height="31.859"/>
		</g>
		<circle opacity="0.1" cx="408.419" cy="380.071" r="50.399"/>
		<g>
			<circle fill="#407BFF" cx="408.418" cy="292.912" r="12.316"/>
			<circle opacity="0.6" fill="#FFFFFF" cx="408.346" cy="292.876" r="12.317"/>
			<path fill="#407BFF" d="M408.419,302.641c-5.367,0-9.73-4.363-9.73-9.729c0-5.366,4.363-9.73,9.73-9.73
				c5.365,0,9.729,4.364,9.729,9.73C418.148,298.277,413.784,302.641,408.419,302.641z M408.419,283.92
				c-4.958,0-8.992,4.034-8.992,8.992s4.034,8.99,8.992,8.99s8.991-4.032,8.991-8.99S413.377,283.92,408.419,283.92z"/>
		</g>
		<g>
			<path fill="#407BFF" d="M326.416,325.362h-5.473c-1.204,0-2.188-0.984-2.188-2.188v-29.996c0-1.204,0.984-2.189,2.188-2.189
				h5.473c1.205,0,2.191,0.985,2.191,2.189v29.996C328.607,324.378,327.621,325.362,326.416,325.362z"/>
			<path opacity="0.6" fill="#FFFFFF" d="M326.416,325.362h-5.473c-1.204,0-2.188-0.984-2.188-2.188v-29.996
				c0-1.204,0.984-2.189,2.188-2.189h5.473c1.205,0,2.191,0.985,2.191,2.189v29.996
				C328.607,324.378,327.621,325.362,326.416,325.362z"/>
		</g>
		<g>
			<path fill="#407BFF" d="M326.416,460.535h-5.473c-1.204,0-2.188-0.986-2.188-2.19v-29.996c0-1.204,0.984-2.188,2.188-2.188h5.473
				c1.205,0,2.191,0.984,2.191,2.188v29.996C328.607,459.549,327.621,460.535,326.416,460.535z"/>
			<path opacity="0.6" fill="#FFFFFF" d="M326.416,460.535h-5.473c-1.204,0-2.188-0.986-2.188-2.19v-29.996
				c0-1.204,0.984-2.188,2.188-2.188h5.473c1.205,0,2.191,0.984,2.191,2.188v29.996
				C328.607,459.549,327.621,460.535,326.416,460.535z"/>
		</g>
		<g>
			<circle fill="#407BFF" cx="408.419" cy="375.762" r="50.399"/>
			<circle opacity="0.6" fill="#FFFFFF" cx="408.419" cy="375.762" r="50.399"/>
		</g>
		<g>
			<g>
				
					<rect x="371.663" y="374.284" transform="matrix(0.7071 0.7071 -0.7071 0.7071 385.3366 -178.7376)" fill="#407BFF" width="73.51" height="2.955"/>
				
					<rect x="406.94" y="339.007" transform="matrix(0.7069 0.7073 -0.7073 0.7069 385.4557 -178.7426)" fill="#407BFF" width="2.956" height="73.509"/>
			</g>
			<g>
				
					<rect x="406.784" y="338.839" transform="matrix(0.7074 0.7068 -0.7068 0.7074 384.9034 -178.6643)" opacity="0.2" width="2.954" height="73.512"/>
				
					<rect x="371.507" y="374.116" transform="matrix(0.7071 0.7071 -0.7071 0.7071 385.1521 -178.6747)" opacity="0.2" width="73.509" height="2.958"/>
				<path fill="#407BFF" d="M408.262,413.86c-21.099,0-38.265-17.165-38.265-38.265c0-21.099,17.167-38.264,38.265-38.264
					c21.1,0,38.264,17.165,38.264,38.264C446.525,396.695,429.361,413.86,408.262,413.86z M408.262,340.288
					c-19.47,0-35.309,15.84-35.309,35.308s15.839,35.31,35.309,35.31c19.469,0,35.308-15.842,35.308-35.31
					S427.73,340.288,408.262,340.288z"/>
				<circle fill="#407BFF" cx="408.261" cy="375.596" r="16.012"/>
				<path opacity="0.2" d="M408.262,413.86c-21.099,0-38.265-17.165-38.265-38.265c0-21.099,17.167-38.264,38.265-38.264
					c21.1,0,38.264,17.165,38.264,38.264C446.525,396.695,429.361,413.86,408.262,413.86z M408.262,340.288
					c-19.47,0-35.309,15.84-35.309,35.308s15.839,35.31,35.309,35.31c19.469,0,35.308-15.842,35.308-35.31
					S427.73,340.288,408.262,340.288z"/>
				<circle opacity="0.2" cx="408.261" cy="375.596" r="16.012"/>
			</g>
		</g>
	</g>
	<g>
		<path fill="#7F3E3B" d="M284.778,162.157c3.565,8.25,7.243,16.628,10.966,24.862c3.711,8.256,7.536,16.447,11.625,24.299
			c1.039,1.917,2.048,3.917,3.141,5.729l0.808,1.388l0.4,0.688c-0.039-0.063-0.114-0.112-0.14-0.138
			c-0.182-0.113-0.057,0.106,0.358,0.351c0.822,0.546,2.524,1.113,4.344,1.462c1.842,0.353,3.877,0.609,5.964,0.765
			c4.194,0.289,8.605,0.288,13.043,0.153l6.702-0.282l6.686-0.443l1.723,8.045c-9.126,2.914-18.235,5.008-28.197,5.644
			c-2.5,0.134-5.059,0.175-7.767-0.074c-2.715-0.271-5.567-0.66-8.895-2.099c-1.64-0.755-3.477-1.823-5.17-3.669
			c-0.421-0.446-0.816-0.97-1.192-1.498l-0.514-0.769l-1.016-1.532c-1.395-2.046-2.575-4.084-3.842-6.133
			c-4.801-8.209-9.079-16.503-13.099-24.892c-4.008-8.414-7.758-16.827-11.277-25.509L284.778,162.157z"/>
		<g>
			<path fill="#407BFF" d="M265.125,161.018c-3.354,9.804,16.356,38.673,16.356,38.673l18.899-10.461
				c0,0-5.145-14.684-11.351-26.312C282.371,150.44,268.803,150.259,265.125,161.018z"/>
			<path opacity="0.5" fill="#FFFFFF" d="M265.125,161.018c-3.354,9.804,16.356,38.673,16.356,38.673l18.899-10.461
				c0,0-5.145-14.684-11.351-26.312C282.371,150.44,268.803,150.259,265.125,161.018z"/>
		</g>
		<g>
			<path fill="#407BFF" d="M264.838,162.258c4.228-2.034,9.104-0.332,14.222,7.765c5.052,8.015,9.494,21.631,9.971,25.492
				l-7.552,4.177C281.479,199.691,263.281,173.034,264.838,162.258z"/>
			<path opacity="0.4" fill="#FFFFFF" d="M264.838,162.258c4.228-2.034,9.104-0.332,14.222,7.765
				c5.052,8.015,9.494,21.631,9.971,25.492l-7.552,4.177C281.479,199.691,263.281,173.034,264.838,162.258z"/>
		</g>
		<path fill="#407BFF" d="M277.875,153.519c0,0,14.081,33.088,3.935,94.709c-17.66,0-50.016,0-58.608,0
			c-0.715-8.997,3.415-52.883-6.733-95.273c0,0,9.976-2.016,19.533-2.477c7.475-0.361,18.309-0.6,24.913,0.001
			C269.623,151.271,277.875,153.519,277.875,153.519z"/>
		<path opacity="0.5" fill="#FFFFFF" d="M277.875,153.519c0,0,14.081,33.088,3.935,94.709c-17.66,0-50.016,0-58.608,0
			c-0.715-8.997,3.415-52.883-6.733-95.273c0,0,9.976-2.016,19.533-2.477c7.475-0.361,18.309-0.6,24.913,0.001
			C269.623,151.271,277.875,153.519,277.875,153.519z"/>
		<g>
			<path fill="#407BFF" d="M229.563,163.421c1.218,6.976-0.404,23.668-6.379,42.955c-0.535-14.844-2.024-32.055-5.754-49.204
				l-0.003-0.083C221.275,156.694,228.403,156.881,229.563,163.421z"/>
			<path opacity="0.4" fill="#FFFFFF" d="M229.563,163.421c1.218,6.976-0.404,23.668-6.379,42.955
				c-0.535-14.844-2.024-32.055-5.754-49.204l-0.003-0.083C221.275,156.694,228.403,156.881,229.563,163.421z"/>
		</g>
		<polygon fill="#7F3E3B" points="202.45,510.764 211.137,518.536 227.667,501.321 218.979,493.549 		"/>
		<path fill="#263238" d="M213.533,515.417l-10.56-7.11c-0.395-0.266-0.897-0.25-1.208,0.035l-8.071,8.146
			c-0.717,0.662-0.483,1.799,0.389,2.47c6.736,5.189,11.604,9.105,15.438,13.42c4.482,5.045,6.835,5.756,17.181,5.756
			c4.786,0,7.492-4.03,5.543-4.648c-17.244-5.46-12.634-7.832-16.822-15.828C214.968,516.788,214.368,515.979,213.533,515.417z"/>
		<g>
			<polygon fill="#5E2B2B" points="227.661,501.325 219.142,510.199 210.451,502.424 218.97,493.549 			"/>
			<polygon fill="#5E2B2B" points="233.623,501.578 244.583,501.578 243.845,514.656 232.883,514.656 			"/>
		</g>
		<g>
			<path fill="#407BFF" d="M281.811,248.228c0,0,11.541,79.897,15.481,123.39c3.161,34.886-72.291,138.979-72.291,138.979
				l-14.597-13.734c0,0,55.11-93.278,50.87-132.117c-4.109-37.62-18.04-116.518-18.04-116.518H281.811z"/>
			<path opacity="0.5" d="M281.811,248.228c0,0,11.541,79.897,15.481,123.39c3.161,34.886-72.291,138.979-72.291,138.979
				l-14.597-13.734c0,0,55.11-93.278,50.87-132.117c-4.109-37.62-18.04-116.518-18.04-116.518H281.811z"/>
		</g>
		<polygon fill="#7F3E3B" points="232.202,526.945 243.159,526.945 244.582,501.571 233.625,501.571 		"/>
		<path fill="#263238" d="M243.733,525.676h-12.311c-0.447,0-0.785,0.313-0.811,0.75l-0.598,9.74
			c-0.062,1.008,0.886,1.965,1.918,1.948c4.285-0.075,6.332-0.326,11.746-0.326c3.33,0,17.49,0.345,22.089,0.345
			c4.499,0,4.467-4.547,2.519-4.96c-8.739-1.846-19.572-4.394-22.667-6.822C245.063,525.911,244.389,525.676,243.733,525.676z"/>
		<path fill="#7F3E3B" d="M346.274,221.503l10.079-3.982l2.456,10.315c0,0-11.494,3.431-13.259,0.118L346.274,221.503z"/>
		<polygon fill="#7F3E3B" points="364.873,219.595 367.829,225.261 358.808,227.836 356.353,217.521 		"/>
		<path fill="#E6E6E6" d="M263.307,150.727c-0.784-0.089-1.596-0.177-2.395-0.251c-6.606-0.591-17.44-0.354-24.905,0
			c-0.517,0.029-1.019,0.059-1.536,0.088l0.133,0.399c0.118,0.31,2.867,7.626,18.637,7.626c6.873,0,10.464-1.138,11.293-3.606
			C265.079,153.373,264.207,151.806,263.307,150.727z"/>
		<path fill="#7F3E3B" d="M237.498,122.425c1.849,8.017,3.927,22.704-1.495,28.053c0,0,2.34,6.641,17.235,6.641
			c16.377,0,7.678-6.639,7.678-6.639c-9.012-2.135-9.012-8.767-7.671-14.995L237.498,122.425z"/>
		<path fill="#5E2B2B" d="M243.918,127.753l9.32,7.723c-0.323,1.474-0.562,2.969-0.615,4.422c-3.432-0.494-8.253-4.243-8.74-7.817
			C243.641,130.298,243.657,128.584,243.918,127.753z"/>
		<path fill="#263238" d="M260.867,98.584c4.98,3.216,5.697,18.709-1.59,20.924C251.991,121.724,251.437,92.492,260.867,98.584z"/>
		<path fill="#7F3E3B" d="M233.995,114.025c3.338,10.38,4.763,16.607,11.498,20.836c10.13,6.362,21.988-1.32,21.835-12.378
			c-0.139-9.953-5.574-25.256-17.023-27.173C239.025,93.421,230.655,103.645,233.995,114.025z"/>
		<path fill="#263238" d="M222.059,104.295c3.566,6.472,12.566,21.188,16.916,19.823s4.334-13.296-1.209-20.792
			c0,0,43.907,4.453,44.796-20.507c0.91-25.535-20.248-0.826-38.849,6.309C223.42,96.91,213.644,89.018,222.059,104.295z"/>
		<path fill="#263238" d="M223.934,95.245c-0.171,0-0.325-0.12-0.361-0.295c-0.042-0.199,0.087-0.395,0.286-0.437
			c0.665-0.138,1.39-0.275,2.177-0.424c4.225-0.799,10.01-1.893,17.081-5.078c5.537-2.495,11.354-6.744,16.489-10.492
			c3.678-2.686,7.152-5.223,10.205-6.918c0.179-0.096,0.404-0.034,0.502,0.144c0.1,0.179,0.035,0.403-0.143,0.503
			c-3.013,1.672-6.471,4.196-10.128,6.868c-5.165,3.77-11.016,8.042-16.622,10.569c-7.15,3.221-12.986,4.325-17.247,5.13
			c-0.782,0.148-1.504,0.285-2.164,0.421C223.984,95.243,223.959,95.245,223.934,95.245z"/>
		<path fill="#7F3E3B" d="M232.168,126.672c2.123,2.09,4.997,3.05,7.424,3.048c3.65-0.002,4.385-3.455,2.458-6.344
			c-1.735-2.601-5.726-5.733-8.95-4.342C229.922,120.406,229.742,124.282,232.168,126.672z"/>
		<path opacity="0.2" d="M261.267,364.742c-2.115-19.377-6.843-49.736-10.908-74.596c2.128-4.167,8.097-12.602,8.097-12.602
			c5.35,18.49,16.98,88.187,0.388,182.32c-17.293,27.875-33.847,50.726-33.847,50.726l-2.262-35.945
			C238.713,444.582,264.208,391.626,261.267,364.742z"/>
		<path fill="#263238" d="M250.83,113.447c0.218,0.857,0.853,1.451,1.417,1.328c0.564-0.124,0.844-0.918,0.626-1.775
			c-0.219-0.857-0.854-1.452-1.419-1.328C250.891,111.796,250.611,112.591,250.83,113.447z"/>
		<path fill="#263238" d="M260.587,111.313c0.22,0.856,0.854,1.451,1.419,1.328c0.564-0.125,0.844-0.919,0.625-1.776
			c-0.218-0.856-0.853-1.451-1.417-1.328C260.649,109.661,260.369,110.455,260.587,111.313z"/>
		<path fill="#630F0F" d="M257.594,112.417c0,0,3.228,4.513,5.997,6.426c-1.166,1.749-3.929,1.67-3.929,1.67L257.594,112.417z"/>
		<path fill="#263238" d="M255.933,123.631c-2.998,0-4.828-1.681-4.919-1.765c-0.105-0.098-0.109-0.262-0.011-0.366
			c0.098-0.103,0.261-0.108,0.367-0.013c0.024,0.023,2.478,2.266,6.263,1.438c0.143-0.029,0.278,0.058,0.309,0.198
			c0.032,0.14-0.058,0.278-0.198,0.309C257.1,123.573,256.495,123.631,255.933,123.631z"/>
		<path fill="#263238" d="M246.962,110.983c-0.069,0-0.139-0.014-0.208-0.043c-0.262-0.115-0.382-0.419-0.268-0.683
			c1.132-2.601,3.509-2.977,3.61-2.992c0.28-0.039,0.547,0.154,0.589,0.438c0.042,0.283-0.154,0.546-0.438,0.588
			c-0.098,0.016-1.92,0.335-2.809,2.38C247.353,110.867,247.162,110.983,246.962,110.983z"/>
		<path fill="#263238" d="M263.881,107.066c-0.147,0-0.294-0.064-0.399-0.187c-1.494-1.793-3.383-1.666-3.458-1.658
			c-0.286,0.015-0.537-0.189-0.56-0.473c-0.026-0.285,0.185-0.535,0.468-0.561c0.098-0.009,2.49-0.2,4.348,2.026
			c0.185,0.22,0.156,0.548-0.065,0.731C264.118,107.026,264,107.066,263.881,107.066z"/>
		<path fill="#7F3E3B" d="M224.069,212.288c-3.144-1.107-6.188-2.471-8.424-3.915c-0.676-0.437-1.227-0.905-1.596-1.287
			c0.677-3.181,1.558-6.379,2.516-9.585c1.043-3.244,2.147-6.491,3.372-9.724c1.246-3.224,2.532-6.449,3.897-9.646
			c0.675-1.602,1.367-3.197,2.083-4.773l2.121-4.602l-14.785-7.567c-0.969,1.851-1.773,3.478-2.559,5.235
			c-0.79,1.726-1.548,3.46-2.287,5.203c-1.453,3.497-2.792,7.046-3.985,10.662c-2.397,7.229-4.299,14.717-5.247,22.613l-0.052,0.393
			l-0.072,0.775c-0.049,0.509-0.036,1.055-0.019,1.586c0.055,1.071,0.245,2.157,0.563,3.161c0.631,2.023,1.689,3.688,2.778,4.921
			c2.21,2.465,4.43,3.742,6.5,4.816c4.146,2.046,8.048,2.987,11.893,3.815c7.708,1.506,15.119,1.947,22.756,1.769l0.677-8.199
			C237.387,216.362,230.394,214.543,224.069,212.288z"/>
		<path fill="#407BFF" d="M247.619,527.575c-1.012,0-2.132-0.207-2.92-0.39c-0.094-0.022-0.167-0.1-0.185-0.194
			c-0.019-0.096,0.02-0.191,0.101-0.248c0.349-0.244,3.446-2.355,4.78-1.836c0.307,0.12,0.511,0.366,0.589,0.716
			c0.13,0.577,0.023,1.041-0.317,1.377C249.234,527.43,248.464,527.575,247.619,527.575z M245.377,526.828
			c1.975,0.394,3.43,0.335,3.943-0.177c0.215-0.213,0.275-0.515,0.185-0.922c-0.042-0.188-0.134-0.304-0.288-0.365
			C248.432,525.054,246.482,526.125,245.377,526.828z"/>
		<path fill="#407BFF" d="M244.755,527.19c-0.039,0-0.077-0.009-0.113-0.027c-0.076-0.038-0.125-0.112-0.133-0.197
			c-0.01-0.133-0.255-3.281,0.848-4.344c0.294-0.284,0.652-0.403,1.073-0.354c0.501,0.061,0.826,0.332,0.918,0.766
			c0.252,1.191-1.378,3.474-2.469,4.122C244.843,527.179,244.799,527.19,244.755,527.19z M246.252,522.749
			c-0.213,0-0.396,0.075-0.554,0.228c-0.666,0.641-0.753,2.463-0.722,3.504c0.912-0.775,2.069-2.511,1.893-3.344
			c-0.034-0.154-0.118-0.334-0.495-0.381C246.332,522.752,246.292,522.749,246.252,522.749z"/>
		<path fill="#407BFF" d="M220.629,521.346c-1.605,0-4.026-1.26-5.464-2.102c-0.093-0.056-0.14-0.164-0.116-0.268
			c0.025-0.105,0.114-0.182,0.221-0.191c0.589-0.045,5.775-0.393,6.762,0.795c0.174,0.209,0.229,0.458,0.159,0.722
			c-0.115,0.438-0.376,0.745-0.775,0.909C221.189,521.305,220.922,521.346,220.629,521.346z M216.134,519.228
			c2.38,1.306,4.254,1.879,5.094,1.528c0.253-0.104,0.413-0.295,0.488-0.579c0.03-0.11,0.012-0.195-0.061-0.282
			C221.108,519.237,218.261,519.135,216.134,519.228z"/>
		<path fill="#407BFF" d="M215.289,519.276c-0.083,0-0.161-0.042-0.207-0.112c-0.046-0.072-0.051-0.163-0.015-0.24
			c0.083-0.171,2.053-4.178,4.575-2.98c0.692,0.331,0.765,0.739,0.704,1.023c-0.254,1.185-3.545,2.275-5.051,2.31
			C215.293,519.276,215.291,519.276,215.289,519.276z M218.706,516.218c-1.368,0-2.527,1.739-2.986,2.534
			c1.577-0.199,3.994-1.188,4.146-1.887c0.035-0.162-0.112-0.322-0.435-0.477C219.185,516.271,218.942,516.218,218.706,516.218z"/>
		<path fill="#7F3E3B" d="M242.649,217.817l8.989-2.474l1.23,11.372c0,0-8.892,2.663-11.071-2.007L242.649,217.817z"/>
		<path fill="#7F3E3B" d="M242.461,218.044c2.969-2.75,3.12-7.465,3.12-7.465l2.311,1.257c0,0,0.461,5.111-0.438,6.566
			C246.552,219.857,242.461,218.044,242.461,218.044z"/>
		<polygon fill="#7F3E3B" points="255.857,216.468 255.316,226.715 252.869,226.715 251.639,215.343 		"/>
		<g>
			<polygon fill="#407BFF" points="209.518,496.028 225.888,511.433 231.157,505.772 212.437,488.714 			"/>
			<polygon opacity="0.1" points="209.518,496.028 225.888,511.433 231.157,505.772 212.437,488.714 			"/>
		</g>
		<g>
			<path fill="#407BFF" d="M260.97,248.228c0,0,1.043,83.736-0.735,115.108C258.29,397.691,248.544,511.5,248.544,511.5h-20.068
				c0,0,0.599-111.036-0.61-145.049c-1.313-36.915-4.712-118.223-4.712-118.223H260.97z"/>
			<path opacity="0.5" d="M260.97,248.228c0,0,1.043,83.736-0.735,115.108C258.29,397.691,248.544,511.5,248.544,511.5h-20.068
				c0,0,0.599-111.036-0.61-145.049c-1.313-36.915-4.712-118.223-4.712-118.223H260.97z"/>
		</g>
		<g>
			<polygon fill="#407BFF" points="227.667,511.5 249.353,511.5 250.556,503.885 226.621,505.073 			"/>
			<polygon opacity="0.1" points="227.667,511.5 249.353,511.5 250.556,503.885 226.621,505.073 			"/>
		</g>
		<g>
			<path fill="#407BFF" d="M216.47,152.955c-10.314,1.508-20.941,39.482-20.941,39.482l24.931,9.484c0,0,6.265-16.322,10.553-29.01
				C235.508,159.618,227.533,151.338,216.47,152.955z"/>
			<path opacity="0.5" fill="#FFFFFF" d="M216.47,152.955c-10.314,1.508-20.941,39.482-20.941,39.482l24.931,9.484
				c0,0,6.265-16.322,10.553-29.01C235.508,159.618,227.533,151.338,216.47,152.955z"/>
		</g>
	</g>
</g>
</svg>
