<?xml version="1.0" encoding="utf-8"?>
<!-- Generator: Adobe Illustrator 16.0.0, SVG Export Plug-In . SVG Version: 6.00 Build 0)  -->
<!DOCTYPE svg PUBLIC "-//W3C//DTD SVG 1.1//EN" "http://www.w3.org/Graphics/SVG/1.1/DTD/svg11.dtd">
<svg version="1.1" xmlns="http://www.w3.org/2000/svg" xmlns:xlink="http://www.w3.org/1999/xlink" x="0px" y="0px" width="520px"
	 height="385px" viewBox="0 0 520 385" enable-background="new 0 0 520 385" xml:space="preserve">
<g id="Layer_1">
</g>
<g id="Layer_2">
	<g>
		<g>
			<rect x="11.793" y="345.793" fill="#EBEBEB" width="500" height="0.25"/>
			<rect x="428.572" y="361.889" fill="#EBEBEB" width="33.122" height="0.25"/>
			<rect x="334.32" y="364.602" fill="#EBEBEB" width="8.693" height="0.25"/>
			<rect x="408.379" y="352.604" fill="#EBEBEB" width="19.192" height="0.25"/>
			<rect x="64.252" y="354.283" fill="#EBEBEB" width="43.193" height="0.25"/>
			<rect x="116.349" y="354.283" fill="#EBEBEB" width="6.333" height="0.25"/>
			<rect x="143.264" y="358.506" fill="#EBEBEB" width="93.676" height="0.25"/>
			<path fill="#EBEBEB" d="M248.807,301.194H55.708c-3.147,0-5.708-2.561-5.708-5.708V24.055c0-3.147,2.561-5.708,5.708-5.708
				h193.099c3.146,0,5.707,2.561,5.707,5.708v271.432C254.514,298.634,251.953,301.194,248.807,301.194z M55.708,18.597
				c-3.01,0-5.458,2.448-5.458,5.458v271.432c0,3.01,2.448,5.458,5.458,5.458h193.099c3.009,0,5.457-2.448,5.457-5.458V24.055
				c0-3.009-2.448-5.458-5.457-5.458H55.708z"/>
			<path fill="#EBEBEB" d="M465.104,301.194H272.005c-3.146,0-5.707-2.561-5.707-5.708V24.055c0-3.147,2.561-5.708,5.707-5.708
				h193.099c3.147,0,5.708,2.561,5.708,5.708v271.432C470.812,298.634,468.251,301.194,465.104,301.194z M272.005,18.597
				c-3.009,0-5.457,2.448-5.457,5.458v271.432c0,3.01,2.448,5.458,5.457,5.458h193.099c3.01,0,5.458-2.448,5.458-5.458V24.055
				c0-3.009-2.448-5.458-5.458-5.458H272.005z"/>
		</g>
		<g>
			<g>
				<g>
					<g>
						<g>
							<rect x="190.924" y="52.009" fill="#E6E6E6" width="231.695" height="154.066"/>
							<rect x="187.338" y="52.009" fill="#F5F5F5" width="231.695" height="154.066"/>
							<rect x="193.775" y="59.24" fill="#FFFFFF" width="218.82" height="139.606"/>
							<rect x="193.775" y="59.24" fill="#E6E6E6" width="2.711" height="139.606"/>
							<rect x="190.001" y="155.453" fill="#F5F5F5" width="226.37" height="9.706"/>
						</g>
					</g>
				</g>
				<g opacity="0.4">
					<rect x="180.154" y="44.402" fill="#E6E6E6" width="21.875" height="130.344"/>
					<rect x="202.029" y="44.402" fill="#F5F5F5" width="10.844" height="119.87"/>
					<rect x="212.873" y="44.402" fill="#E6E6E6" width="21.875" height="130.344"/>
					<rect x="234.748" y="44.402" fill="#F5F5F5" width="10.844" height="119.87"/>
					<rect x="245.592" y="44.402" fill="#E6E6E6" width="21.875" height="130.344"/>
					<rect x="267.467" y="44.402" fill="#F5F5F5" width="10.844" height="119.87"/>
					<rect x="278.311" y="44.402" fill="#E6E6E6" width="21.874" height="130.344"/>
					<rect x="300.185" y="44.402" fill="#F5F5F5" width="10.844" height="119.87"/>
					<rect x="311.028" y="44.402" fill="#E6E6E6" width="21.875" height="130.344"/>
					<rect x="332.903" y="44.402" fill="#F5F5F5" width="10.844" height="119.87"/>
					<rect x="343.747" y="44.402" fill="#E6E6E6" width="21.874" height="130.344"/>
					<rect x="365.621" y="44.402" fill="#F5F5F5" width="10.844" height="119.87"/>
					<rect x="376.465" y="44.402" fill="#E6E6E6" width="21.875" height="130.344"/>
					<rect x="398.34" y="44.402" fill="#F5F5F5" width="10.844" height="119.87"/>
					<rect x="409.184" y="44.402" fill="#E6E6E6" width="21.875" height="130.344"/>
				</g>
			</g>
			<g>
				<rect x="94.586" y="240.395" fill="#EBEBEB" width="51.288" height="105.398"/>
				<polygon fill="#F5F5F5" points="104.328,345.793 94.586,345.793 94.586,324.329 114.541,324.329 				"/>
				<rect x="387.222" y="240.395" fill="#EBEBEB" width="51.288" height="105.398"/>
				<rect x="94.586" y="240.395" fill="#F5F5F5" width="301.137" height="92.228"/>
				<g>
					<path fill="#E6E6E6" d="M385.711,306.602h-89.269c-0.453,0-0.82-0.366-0.82-0.82v-58.359c0-0.453,0.367-0.82,0.82-0.82h16.485
						c0.176,0,0.347,0.057,0.488,0.16c2.365,1.75,5.074,3.139,8.05,4.129c3.409,1.143,7.036,1.721,10.781,1.721h17.66
						c7.055,0,13.742-2.077,18.831-5.848c0.141-0.105,0.313-0.162,0.488-0.162h16.484c0.453,0,0.82,0.367,0.82,0.82v58.359
						C386.531,306.235,386.164,306.602,385.711,306.602z M297.263,304.961h87.628v-56.718h-15.396
						c-5.34,3.877-12.284,6.009-19.588,6.009h-17.66c-3.923,0-7.725-0.606-11.301-1.805c-3.047-1.014-5.834-2.428-8.287-4.204
						h-15.396V304.961z"/>
				</g>
				<g>
					<path fill="#E6E6E6" d="M289.785,306.602h-89.27c-0.453,0-0.82-0.366-0.82-0.82v-58.359c0-0.453,0.367-0.82,0.82-0.82h15.591
						c0.176,0,0.347,0.057,0.488,0.16c2.381,1.762,5.089,3.15,8.049,4.129c3.41,1.143,7.037,1.721,10.782,1.721h17.66
						c7.043,0,13.724-2.077,18.812-5.848c0.141-0.105,0.313-0.162,0.488-0.162h17.399c0.453,0,0.82,0.367,0.82,0.82v58.359
						C290.605,306.235,290.238,306.602,289.785,306.602z M201.336,304.961h87.629v-56.718h-16.311
						c-5.339,3.877-12.276,6.009-19.568,6.009h-17.66c-3.923,0-7.725-0.606-11.301-1.805c-3.031-1.002-5.819-2.416-8.287-4.204
						h-14.502V304.961z"/>
				</g>
				<g>
					<path fill="#E6E6E6" d="M193.858,306.602H104.59c-0.453,0-0.82-0.366-0.82-0.82v-58.359c0-0.453,0.367-0.82,0.82-0.82h15.59
						c0.176,0,0.347,0.057,0.487,0.16c2.368,1.75,5.077,3.14,8.051,4.129c3.409,1.143,7.036,1.721,10.781,1.721h17.66
						c7.055,0,13.742-2.077,18.831-5.848c0.141-0.105,0.313-0.162,0.488-0.162h17.38c0.453,0,0.82,0.367,0.82,0.82v58.359
						C194.679,306.235,194.312,306.602,193.858,306.602z M105.41,304.961h87.628v-56.718h-16.291
						c-5.34,3.877-12.284,6.009-19.588,6.009h-17.66c-3.923,0-7.725-0.606-11.301-1.805c-3.046-1.014-5.833-2.428-8.287-4.204
						H105.41V304.961z"/>
				</g>
				<polygon fill="#F5F5F5" points="385.981,345.793 395.723,345.793 395.723,324.329 375.768,324.329 				"/>
			</g>
			<g>
				<path fill="#E6E6E6" d="M155.737,222.736h-8.091c0.055-5.604-0.026-19.817-0.572-52.392
					c-0.982-59.044-2.867-62.643-2.867-62.643l9.613,29.141c2.262,6.857,3.621,13.99,3.945,21.203
					C158.781,180.762,154.813,198.902,155.737,222.736z"/>
				<path fill="#E6E6E6" d="M161.881,128.058c10.789-16.331,32.332-24.853,54.348-32.875c8.645-3.15-15.617,35.925-33.255,53.638
					c-13.702,13.76-26.947,13.453-30.928,27.055C151.283,160.086,152.584,142.129,161.881,128.058z"/>
				<path fill="#E6E6E6" d="M149.52,117.572c-8.455-19.097-29.828-43.866-53.85-61.315c-9.432-6.851,13.84,51.956,30.254,76.053
					c12.778,18.76,24.703,30.181,26.558,43.564C160.539,159.133,157.975,136.669,149.52,117.572z"/>
				<g>
					<path fill="#F0F0F0" d="M150.321,240.395L150.321,240.395c9.494,0,17.339-7.407,17.884-16.885l1.583-16.193h-38.933
						l1.582,16.193C132.982,232.987,140.828,240.395,150.321,240.395z"/>
					<polygon fill="#F0F0F0" points="128.334,207.402 172.309,207.402 173.568,201.65 127.074,201.65 					"/>
					<polygon fill="#F0F0F0" points="130.5,217.266 170.143,217.266 171.277,211.515 129.365,211.515 					"/>
				</g>
			</g>
		</g>
		<g>
			<g>
				<rect x="106.508" y="281.729" fill="#407BFF" width="310.57" height="35.158"/>
				<rect x="350.459" y="281.729" opacity="0.3" width="66.619" height="35.158"/>
			</g>
			<g>
				<rect x="106.508" y="316.887" fill="#407BFF" width="34.285" height="62.746"/>
				<polygon opacity="0.3" points="106.508,316.887 106.508,320.395 130.793,327.729 130.793,379.633 140.793,379.633 
					140.793,316.887 				"/>
			</g>
			<g>
				<g>
					<rect x="382.793" y="316.887" fill="#407BFF" width="34.285" height="62.746"/>
					<rect x="382.793" y="316.887" opacity="0.2" width="34.285" height="62.746"/>
				</g>
				<polygon opacity="0.3" points="382.793,316.887 382.793,320.395 407.078,327.729 407.078,379.633 417.078,379.633 
					417.078,316.887 				"/>
			</g>
			<g>
				<rect x="316.174" y="316.887" fill="#407BFF" width="34.285" height="62.746"/>
				<polygon opacity="0.3" points="316.174,316.887 316.174,320.395 340.459,327.729 340.459,379.633 350.459,379.633 
					350.459,316.887 				"/>
			</g>
			<g>
				<g>
					<rect x="173.127" y="316.887" fill="#407BFF" width="34.285" height="62.746"/>
					<rect x="173.127" y="316.887" opacity="0.2" width="34.285" height="62.746"/>
				</g>
				<polygon opacity="0.3" points="173.127,316.887 173.127,320.395 197.412,327.729 197.412,379.633 207.412,379.633 
					207.412,316.887 				"/>
			</g>
		</g>
		<g>
			<g>
				<g>
					<g>
						<path fill="#263238" d="M374.269,274.812H184.396c-2.527,0-4.464-2.067-4.305-4.595l7.823-124.095
							c0.159-2.527,2.356-4.594,4.884-4.594h189.872c2.526,0,4.464,2.067,4.304,4.594l-7.822,124.095
							C378.993,272.744,376.795,274.812,374.269,274.812z"/>
						<path opacity="0.6" d="M374.269,274.812H184.396c-2.527,0-4.464-2.067-4.305-4.595l7.823-124.095
							c0.159-2.527,2.356-4.594,4.884-4.594h189.872c2.526,0,4.464,2.067,4.304,4.594l-7.822,124.095
							C378.993,272.744,376.795,274.812,374.269,274.812z"/>
					</g>
					<g>
						<path fill="#263238" d="M372.852,274.812H182.979c-2.526,0-4.463-2.067-4.304-4.595l7.823-124.095
							c0.158-2.527,2.356-4.594,4.883-4.594h189.873c2.526,0,4.463,2.067,4.304,4.594l-7.823,124.095
							C377.576,272.744,375.378,274.812,372.852,274.812z"/>
					</g>
					<g>
						<g>
							<path fill="#263238" d="M372.611,276.373H146.68c-2.184,0-4.079,1.271-4.953,3.097c-0.502,1.05,0.267,2.259,1.45,2.259
								h232.938c1.183,0,1.951-1.209,1.449-2.259C376.69,277.645,374.795,276.373,372.611,276.373z"/>
						</g>
						<path opacity="0.6" d="M372.611,276.373H340.48c-2.184,0-4.078,1.271-4.952,3.097c-0.503,1.05,0.267,2.259,1.449,2.259h39.138
							c1.183,0,1.951-1.209,1.449-2.259C376.69,277.645,374.795,276.373,372.611,276.373z"/>
						<path fill="#407BFF" d="M352.689,280.291h-8.293c-0.4,0-0.729-0.328-0.729-0.729l0,0c0-0.401,0.328-0.729,0.729-0.729h8.293
							c0.4,0,0.729,0.328,0.729,0.729l0,0C353.418,279.963,353.09,280.291,352.689,280.291z"/>
						<path opacity="0.7" fill="#FFFFFF" d="M245.961,280.291h-8.291c-0.402,0-0.73-0.328-0.73-0.729l0,0
							c0-0.401,0.328-0.729,0.73-0.729h8.291c0.4,0,0.729,0.328,0.729,0.729l0,0C246.689,279.963,246.361,280.291,245.961,280.291z"
							/>
						<path fill="#407BFF" d="M361.275,280.291h-5.423c-0.331,0-0.601-0.271-0.601-0.602v-0.256c0-0.332,0.27-0.602,0.601-0.602
							h5.423c0.33,0,0.602,0.27,0.602,0.602v0.256C361.877,280.02,361.605,280.291,361.275,280.291z"/>
					</g>
					<path fill="#FFFFFF" d="M182.957,265.73l7.256-115.122c0.063-0.984,0.918-1.789,1.902-1.789H379.6
						c0.984,0,1.738,0.805,1.676,1.789L374.02,265.73c-0.063,0.983-0.918,1.789-1.902,1.789H184.633
						C183.648,267.52,182.895,266.714,182.957,265.73z"/>
					<path opacity="0.1" fill="#407BFF" d="M289.613,145.274l-62.45,118.7h-46.07c-0.989,0-1.739-0.8-1.68-1.79l7.26-115.12
						c0.06-0.98,0.92-1.79,1.899-1.79H289.613z"/>
					<polygon opacity="0.1" fill="#407BFF" points="344.303,145.274 281.854,263.975 267.293,263.975 329.743,145.274 					"/>
					<path opacity="0.1" fill="#407BFF" d="M377.732,147.064l-7.26,115.12c-0.06,0.99-0.92,1.79-1.9,1.79h-70.969l62.449-118.7h16
						C377.043,145.274,377.793,146.084,377.732,147.064z"/>
					<path opacity="0.4" fill="#FFFFFF" d="M287.421,145.374c-0.047,0.743-0.688,1.347-1.431,1.347
						c-0.744,0-1.309-0.604-1.262-1.347c0.047-0.744,0.688-1.346,1.432-1.346C286.903,144.028,287.468,144.63,287.421,145.374z"/>
				</g>
			</g>
			<g>
				<g>
					<path fill="#263238" d="M256.44,117.789c-5.466,6.26-8.626,25.445-4.573,34.889c4.053,9.445-42.947,18.889-4.17,34.223
						c38.778,15.333,69.778-2.445,58.557-18.334c-11.223-15.889,1.208-42.347-11.78-49.026
						C282.729,113.5,267.405,105.233,256.44,117.789z"/>
					<path fill="#B65B52" d="M244.854,195.054c-2.054,7.044-4.232,14.034-6.493,21.011c-2.281,6.973-4.611,13.918-7.102,20.873
						l-0.949,2.614l-0.482,1.312l-0.148,0.396l-0.236,0.583c-0.146,0.378-0.375,0.797-0.579,1.186
						c-0.856,1.595-2.383,3.265-4.206,4.26c-1.826,0.998-3.707,1.345-5.248,1.38c-3.127,0.048-5.402-0.704-7.488-1.472
						c-2.062-0.818-3.89-1.774-5.632-2.783c-6.88-4.125-12.511-9.006-17.88-14.455l4.31-5.081c1.454,0.926,2.995,1.915,4.504,2.847
						c1.521,0.938,3.065,1.828,4.589,2.721c3.066,1.75,6.158,3.408,9.211,4.714c1.516,0.651,3.031,1.208,4.436,1.569
						c1.369,0.389,2.723,0.521,3.264,0.379c0.284-0.053,0.226-0.16-0.006-0.068c-0.244,0.072-0.48,0.345-0.494,0.318
						c-0.012-0.026-0.004-0.004-0.005-0.061c0.001-0.02,0.005-0.039,0.009-0.057l0.076-0.254l0.385-1.291l0.762-2.601l6.119-20.999
						c2.076-7.003,4.201-14.002,6.418-20.959L244.854,195.054z"/>
					<path fill="#B55B52" d="M192.417,224.695l-11.584-4.316l4.614,12.271c0,0,8.194,1.185,11.375-3.129l-2.592-3.467
						C193.77,225.438,193.14,224.965,192.417,224.695z"/>
					<polygon fill="#B55B52" points="170.54,223.969 174.959,234.033 185.447,232.65 180.833,220.379 					"/>
					<g>
						<path fill="#407BFF" d="M236.369,176.945c-5.314,1.354-9.031,23.221-9.031,23.221l14.644,9.959c0,0,14.04-22.061,9.952-27.903
							C247.676,176.138,244.123,174.971,236.369,176.945z"/>
						<path opacity="0.5" fill="#FFFFFF" d="M236.369,176.945c-5.314,1.354-9.031,23.221-9.031,23.221l14.644,9.959
							c0,0,14.04-22.061,9.952-27.903C247.676,176.138,244.123,174.971,236.369,176.945z"/>
					</g>
					<path opacity="0.2" d="M235.889,184.895l11.375,2.635l1.091,11.121c-2.976,6.133-6.375,11.474-6.375,11.474l-8.882-6.034
						C233.48,198.976,234.443,188.352,235.889,184.895z"/>
					<g>
						<path fill="#407BFF" d="M236.369,176.945c0,0-6.143,2.164,6.162,77.817c20.778,0,42.252,0,52.363,0
							c-0.879-21.312-0.903-34.454,9.283-78.19c0,0-10.973-2.387-22.236-2.93c-8.813-0.425-16.031-0.706-23.777,0.001
							C247.951,174.575,236.369,176.945,236.369,176.945z"/>
						<path opacity="0.5" fill="#FFFFFF" d="M236.369,176.945c0,0-6.143,2.164,6.162,77.817c20.778,0,42.252,0,52.363,0
							c-0.879-21.312-0.903-34.454,9.283-78.19c0,0-10.973-2.387-22.236-2.93c-8.813-0.425-16.031-0.706-23.777,0.001
							C247.951,174.575,236.369,176.945,236.369,176.945z"/>
					</g>
					<path opacity="0.2" d="M291.857,196.879l6.757,5.752c-1.444,7.648-2.409,14.023-3.032,19.689
						C294.322,216.641,291.106,201.229,291.857,196.879z"/>
					<path fill="#B55B52" d="M279.585,146.869c-1.499,7.651-2.997,21.669,2.356,26.774c0,0-4.968,11.462-18.251,11.462
						s-5.526-11.461-5.526-11.461c8.531-2.038,8.311-8.367,6.824-14.312L279.585,146.869z"/>
					<path fill="#FAFAFA" d="M280.238,170.781c-1.259,2.552-5.313,8.388-16.66,10.458c-0.31,0.058-0.645,0.005-0.902-0.176
						c-2.127-1.483-3.438-4.608-2.51-8.236c0.256-0.998-0.707-1.88-1.659-1.485c-1.126,0.467-2.07,1.045-2.503,1.327
						c-0.176,0.115-0.314,0.269-0.412,0.455c-0.825,1.563-4.186,9.198,5.952,13.907c0.161,0.074,0.335,0.116,0.512,0.119
						c5.952,0.125,16.487-1.051,23.119-13.016c0.243-0.438,0.199-0.986-0.111-1.379c-0.731-0.925-2.07-1.852-3.065-2.467
						C281.378,169.905,280.561,170.127,280.238,170.781z"/>
					<path fill="#FAFAFA" d="M283.023,202.264l-13.5-0.392c-0.596-0.017-1.045-0.518-0.998-1.112l0.13-1.663
						c0.047-0.595,0.572-1.066,1.169-1.05l13.5,0.392c0.596,0.017,1.045,0.518,0.998,1.112l-0.131,1.662
						C284.146,201.809,283.619,202.28,283.023,202.264z"/>
					<path opacity="0.2" d="M273.635,151.954l-8.64,7.371c0.356,1.407,0.634,2.833,0.733,4.22c3.259-0.471,7.736-4.048,8.082-7.461
						C273.983,154.382,273.912,152.746,273.635,151.954z"/>
					<path fill="#B55B52" d="M289.666,132.416c-2.414,12.566-3.168,17.937-10.406,23.611c-10.886,8.536-25.793,2.822-27.182-10.212
						c-1.25-11.732,2.909-30.311,15.959-33.75C280.895,108.677,292.08,119.849,289.666,132.416z"/>
					<path fill="#263238" d="M282.51,123.094c-1.556,7.873-1.923,18.333,5.327,18.333s12.856-12.275,6.637-21.887
						C288.254,109.927,283.426,118.454,282.51,123.094z"/>
					<path fill="#263238" d="M294.976,124.066c0.003,8.556-10.778,4.325-15.556,0.635s-5.041-3.285-13.833-3.301
						c-8.792-0.016-10.611-0.611-13.222-4.833c-2.611-4.222-2.377-7,3.506-6.111c5.883,0.889,0.938-5.111,5.326-8.444
						c4.39-3.334,9.564-2.491,15.557,5.111C282.745,114.724,294.97,109.231,294.976,124.066z"/>
					<g>
						
							<ellipse transform="matrix(0.9596 0.2813 -0.2813 0.9596 51.6077 -75.0572)" fill="#FFFFFF" cx="287.258" cy="142.242" rx="4.73" ry="7.301"/>
						<path fill="#FFFFFF" d="M271.749,153.251c-2.286,0-4.571-0.461-6.743-1.383c-0.19-0.081-0.279-0.301-0.198-0.492
							c0.081-0.19,0.3-0.279,0.491-0.199c4.101,1.74,8.626,1.764,12.738,0.068c4.021-1.657,7.131-4.765,8.758-8.75
							c3.031-8.587,6.063-19.316,2.517-25.966c-1.376-2.582-3.696-4.308-6.896-5.131c-0.2-0.052-0.321-0.256-0.27-0.457
							c0.052-0.2,0.25-0.322,0.457-0.27c3.411,0.878,5.892,2.73,7.371,5.505c3.684,6.908,0.61,17.836-2.478,26.584
							c-1.71,4.19-4.966,7.443-9.173,9.177C276.201,152.814,273.975,153.251,271.749,153.251z"/>
						
							<ellipse transform="matrix(0.9596 0.2814 -0.2814 0.9596 51.8171 -75.4036)" opacity="0.6" fill="#407BFF" cx="288.494" cy="142.746" rx="3.077" ry="5.738"/>
						<path fill="#FFFFFF" d="M265.561,152.913l-3.912-0.755c-0.686-0.132-1.14-0.802-1.008-1.489l0.043-0.219
							c0.133-0.687,0.803-1.14,1.489-1.008l3.912,0.754c0.687,0.133,1.141,0.803,1.009,1.49l-0.043,0.219
							C266.918,152.592,266.248,153.046,265.561,152.913z"/>
					</g>
					<path fill="#A02724" d="M260.968,133.44c0,0-2.323,4.214-4.527,6.107c1.197,1.447,3.588,1.166,3.588,1.166L260.968,133.44z"/>
					<path fill="#263238" d="M263.178,146.09c0.023,0.016,0.052,0.026,0.082,0.03c3.486,0.434,6.188-1.824,6.301-1.92
						c0.082-0.07,0.092-0.193,0.022-0.275s-0.192-0.091-0.274-0.022c-0.027,0.022-2.689,2.243-6,1.831
						c-0.107-0.014-0.205,0.062-0.218,0.169C263.081,145.979,263.117,146.051,263.178,146.09z"/>
					<path fill="#263238" d="M274.609,128.499c0.116,0.052,0.254,0.048,0.369-0.024c0.183-0.115,0.236-0.355,0.123-0.537
						c-1.736-2.761-4.438-2.836-4.552-2.839c-0.215-0.003-0.392,0.167-0.396,0.382c-0.004,0.214,0.167,0.393,0.381,0.397
						c0.098,0.002,2.402,0.083,3.906,2.474C274.484,128.418,274.543,128.468,274.609,128.499z"/>
					
						<ellipse transform="matrix(0.9858 0.1679 -0.1679 0.9858 26.2012 -43.0503)" fill="#263238" cx="267.665" cy="133.407" rx="1.239" ry="1.895"/>
					
						<ellipse transform="matrix(0.9858 0.1678 -0.1678 0.9858 25.6803 -41.0914)" fill="#263238" cx="256.006" cy="131.422" rx="1.238" ry="1.894"/>
					<path fill="#263238" d="M256.611,129.662l-2.355-1.136C254.256,128.526,255.197,130.678,256.611,129.662z"/>
					<path fill="#263238" d="M268.271,131.647l-2.356-1.136C265.915,130.511,266.856,132.663,268.271,131.647z"/>
					<path fill="#263238" d="M253.266,124.667c0.127,0.058,0.28,0.045,0.398-0.045c2.24-1.719,4.431-0.993,4.523-0.961
						c0.202,0.07,0.424-0.037,0.495-0.24c0.071-0.203-0.04-0.427-0.237-0.495c-0.109-0.038-2.669-0.907-5.256,1.078
						c-0.17,0.13-0.203,0.375-0.071,0.546C253.158,124.602,253.209,124.641,253.266,124.667z"/>
					<g>
						<path fill="#407BFF" d="M240.546,267.52c0,0-0.142-7.166,1.985-12.757c4.57,0,52.363,0,52.363,0s4.707,7.603,5.93,12.757
							C294.935,267.52,240.546,267.52,240.546,267.52z"/>
						<path fill="#407BFF" d="M295.679,251.689l0.417,4.688c0.184,0.363-0.246,0.734-0.852,0.734h-52.973
							c-0.472,0-0.863-0.23-0.893-0.528l-0.473-4.687c-0.032-0.325,0.377-0.6,0.894-0.6h53.026
							C295.216,251.297,295.561,251.455,295.679,251.689z"/>
						<path opacity="0.3" fill="#FAFAFA" d="M295.679,251.689l0.417,4.688c0.184,0.363-0.246,0.734-0.852,0.734h-52.973
							c-0.472,0-0.863-0.23-0.893-0.528l-0.473-4.687c-0.032-0.325,0.377-0.6,0.894-0.6h53.026
							C295.216,251.297,295.561,251.455,295.679,251.689z"/>
					</g>
					<path fill="#407BFF" d="M288.557,257.619h1.421c0.282,0,0.498-0.146,0.479-0.324l-0.666-6.09
						c-0.02-0.178-0.267-0.324-0.55-0.324h-1.42c-0.283,0-0.498,0.146-0.479,0.324l0.666,6.09
						C288.027,257.473,288.274,257.619,288.557,257.619z"/>
					<path fill="#407BFF" d="M246.264,257.619h1.42c0.282,0,0.498-0.146,0.479-0.324l-0.666-6.09
						c-0.02-0.178-0.268-0.324-0.55-0.324h-1.42c-0.283,0-0.499,0.146-0.479,0.324l0.666,6.09
						C245.732,257.473,245.98,257.619,246.264,257.619z"/>
					<path fill="#407BFF" d="M267.41,257.619h1.42c0.283,0,0.498-0.146,0.479-0.324l-0.666-6.09
						c-0.02-0.178-0.266-0.324-0.549-0.324h-1.42c-0.283,0-0.499,0.146-0.479,0.324l0.666,6.09
						C266.88,257.473,267.127,257.619,267.41,257.619z"/>
				</g>
				<g>
					<path fill="#B65B52" d="M308.654,191.348c2.304,7.468,4.514,14.989,6.631,22.514l3.186,11.266l1.59,5.596l0.404,1.381
						l0.202,0.691l0.047,0.161l0.009,0.04c0.007,0.036,0.005,0.025,0.002,0.038l-0.164-0.247c-0.133-0.18-0.347-0.5-0.92-0.939
						c-0.539-0.436-1.635-0.922-2.68-0.948c-1.039-0.04-1.752,0.241-2.118,0.418c-0.72,0.386-0.649,0.481-0.594,0.411
						c0.087-0.063,0.271-0.25,0.466-0.491c0.398-0.484,0.854-1.15,1.293-1.857c0.888-1.433,1.75-3.058,2.576-4.718
						c1.694-3.32,3.234-6.842,4.781-10.373c1.525-3.544,3.024-7.129,4.494-10.734c1.518-3.583,2.935-7.239,4.414-10.824l6.385,1.905
						c-1.654,7.799-3.598,15.454-5.98,23.093c-1.176,3.826-2.488,7.617-3.994,11.461c-0.782,1.918-1.611,3.836-2.64,5.828
						c-0.523,1.002-1.087,2.016-1.839,3.121c-0.38,0.553-0.81,1.134-1.399,1.781c-0.62,0.633-1.298,1.393-2.903,2.207
						c-0.808,0.385-2.008,0.799-3.539,0.736c-1.537-0.039-3.104-0.734-4.029-1.467c-0.961-0.74-1.49-1.445-1.891-2.035
						c-0.399-0.601-0.629-1.078-0.846-1.548c-0.094-0.216-0.195-0.45-0.268-0.646l-0.184-0.494l-0.262-0.706l-0.521-1.411
						c-0.679-1.877-1.365-3.74-2.002-5.612c-1.281-3.743-2.561-7.472-3.762-11.222c-2.449-7.488-4.727-15.004-6.854-22.589
						L308.654,191.348z"/>
					<g>
						<path fill="#407BFF" d="M304.178,176.572c5.246,1.596,13.275,22.186,13.275,22.186L297.1,213.309
							c0,0-9.151-17.604-6.947-24.386C292.449,181.861,298.19,174.752,304.178,176.572z"/>
						<path opacity="0.5" fill="#FFFFFF" d="M304.178,176.572c5.246,1.596,13.275,22.186,13.275,22.186L297.1,213.309
							c0,0-9.151-17.604-6.947-24.386C292.449,181.861,298.19,174.752,304.178,176.572z"/>
					</g>
					<path fill="#B55B52" d="M332.496,195.449l-2.791-12.305l11.596,6.119c0,0,0.146,8.277-4.533,10.892L332.496,195.449z"/>
					<polygon fill="#B55B52" points="334.559,173.384 341.959,178.63 341.301,189.264 329.705,183.145 					"/>
				</g>
			</g>
		</g>
		<g>
			<g>
				<path fill="#407BFF" d="M126.801,111.48h81c6.6,0,11.669,5.4,11.265,12l-2.245,36.667c-0.404,6.6-6.135,12-12.734,12h-9.381
					l3.832,12.587l-18.328-12.587h-57.123c-6.6,0-11.67-5.4-11.266-12l2.245-36.667C114.47,116.88,120.2,111.48,126.801,111.48z"/>
				<g>
					<path fill="#FFFFFF" d="M200.377,130.687h-68.506c-1.243,0-2.198-1.017-2.122-2.26l0,0c0.076-1.243,1.155-2.261,2.399-2.261
						h68.506c1.243,0,2.198,1.018,2.122,2.261l0,0C202.7,129.67,201.621,130.687,200.377,130.687z"/>
					<path fill="#FFFFFF" d="M159.83,144.074h-28.779c-1.242,0-2.197-1.017-2.121-2.26l0,0c0.076-1.243,1.155-2.261,2.398-2.261
						h28.779c1.243,0,2.197,1.018,2.121,2.261l0,0C162.152,143.057,161.074,144.074,159.83,144.074z"/>
					<path fill="#FFFFFF" d="M184.426,157.461h-54.193c-1.244,0-2.199-1.017-2.123-2.26l0,0c0.076-1.243,1.156-2.261,2.399-2.261
						h54.192c1.244,0,2.199,1.018,2.123,2.261l0,0C186.748,156.444,185.668,157.461,184.426,157.461z"/>
					<path fill="#FFFFFF" d="M180.898,144.074h-11.32c-1.244,0-2.199-1.017-2.123-2.26l0,0c0.076-1.243,1.156-2.261,2.399-2.261
						h11.321c1.242,0,2.197,1.018,2.121,2.261l0,0C183.221,143.057,182.142,144.074,180.898,144.074z"/>
				</g>
			</g>
			<g>
				<g>
					<g>
						<path fill="#407BFF" d="M239.584,45.582h-44.16c-5.137,0-9.596,4.202-9.91,9.337l-1.746,28.531
							c-0.314,5.136,3.63,9.337,8.766,9.337h7.299l-4.181,9.794l15.461-9.794h25.582c5.136,0,9.595-4.202,9.909-9.337l1.746-28.531
							C248.664,49.784,244.72,45.582,239.584,45.582z"/>
					</g>
					<g opacity="0.5">
						<path fill="#FAFAFA" d="M239.584,45.582h-44.16c-5.137,0-9.596,4.202-9.91,9.337l-1.746,28.531
							c-0.314,5.136,3.63,9.337,8.766,9.337h7.299l-4.181,9.794l15.461-9.794h25.582c5.136,0,9.595-4.202,9.909-9.337l1.746-28.531
							C248.664,49.784,244.72,45.582,239.584,45.582z"/>
					</g>
				</g>
				<g>
					<path fill="#FFFFFF" d="M218.291,73.855c-0.275,1.291-1.495,2.214-2.801,2.214h-2.605c0.031-0.742,0.053-1.194,0.063-1.356
						c0.103-1.673,0.463-3.049,1.082-4.129s1.8-2.294,3.543-3.644c1.742-1.349,2.788-2.233,3.138-2.651
						c0.539-0.661,0.834-1.39,0.883-2.186c0.067-1.106-0.316-2.055-1.152-2.844c-0.835-0.79-2.002-1.184-3.5-1.184
						c-1.443,0-2.677,0.412-3.698,1.235c-0.593,0.478-1.093,1.101-1.499,1.87c-0.576,1.088-1.721,1.771-2.904,1.624l0,0
						c-1.828-0.229-2.807-2.231-1.841-3.874c0.569-0.968,1.333-1.854,2.29-2.656c2.014-1.687,4.571-2.53,7.675-2.53
						c3.266,0,5.812,0.854,7.636,2.561c1.826,1.707,2.668,3.694,2.529,5.961c-0.076,1.255-0.504,2.442-1.28,3.562
						c-0.777,1.12-2.386,2.645-4.823,4.574c-1.263,0.999-2.059,1.802-2.385,2.409C218.5,73.07,218.384,73.418,218.291,73.855z
						 M212.581,81.033l0.019-0.315c0.092-1.483,1.367-2.686,2.852-2.686h0.314c1.484,0,2.613,1.203,2.522,2.686l-0.019,0.315
						c-0.092,1.484-1.367,2.687-2.852,2.687h-0.314C213.619,83.72,212.49,82.517,212.581,81.033z"/>
				</g>
			</g>
		</g>
	</g>
</g>
</svg>
