<?xml version="1.0" encoding="utf-8"?>
<!-- Generator: Adobe Illustrator 16.0.0, SVG Export Plug-In . SVG Version: 6.00 Build 0)  -->
<!DOCTYPE svg PUBLIC "-//W3C//DTD SVG 1.1//EN" "http://www.w3.org/Graphics/SVG/1.1/DTD/svg11.dtd">
<svg version="1.1" xmlns="http://www.w3.org/2000/svg" xmlns:xlink="http://www.w3.org/1999/xlink" x="0px" y="0px" width="300px"
	 height="315.959px" viewBox="0 0 300 315.959" enable-background="new 0 0 300 315.959" xml:space="preserve">
<g id="Layer_1" display="none">
	<g display="inline">
		<g>
			<g>
				<path fill="#F7B690" d="M63.724,188.557c-0.41,3.792-0.635,7.827,1.108,11.22c1.743,3.393,6.166,5.689,9.504,3.847
					c1.883-1.039,2.962-3.063,3.941-4.98c5.488-10.751,10.979-21.505,16.466-32.257c4.524-8.866,9.171-18.272,8.598-28.209
					c-0.267-4.592-1.707-9.171-4.482-12.837c-2.425-3.204-7.693-8.304-11.316-4.558c-3.609,3.729-6.086,10.237-8.371,14.852
					c-5.274,10.658-9.339,21.912-12.096,33.478C65.552,175.515,64.429,182.011,63.724,188.557z"/>
				<path fill-rule="evenodd" clip-rule="evenodd" fill="#7368E3" d="M103.297,140.284c-0.296-5.108-1.9-10.202-4.989-14.284
					c-2.696-3.563-4.274-12.519-8.308-8.352c-4.014,4.15-11.056,14.672-13.597,19.807c-3.344,6.759-6.235,13.738-8.686,20.868
					l26.313,12.757C98.97,161.389,103.923,151.122,103.297,140.284z"/>
				<path fill="#F7B690" d="M64.548,187.815c2.671-3.252,7.269-4.39,11.451-3.924c4.181,0.462,8.071,2.288,11.871,4.094
					c6.968,3.31,13.928,6.631,20.888,9.952c7.186,3.429,14.373,6.856,21.558,10.285c1.118,0.536,2.351,1.195,2.712,2.381
					c0.387,1.271-0.457,2.66-1.61,3.324c-1.15,0.663-2.529,0.771-3.856,0.84c-10.781,0.563-21.642-0.467-32.139-2.979
					c-5.303-1.271-10.514-2.916-15.581-4.928c-4.354-1.73-10.531-3.643-14.048-6.84C62.431,196.965,61.582,191.431,64.548,187.815z"
					/>
			</g>
			<g>
				<path fill-rule="evenodd" clip-rule="evenodd" fill="#222B54" d="M109.675,212.048c8.01-1.173,46.02-1.173,54.026,0
					c9.963,1.457,8.464,13.854,7.208,21.271c-1.369,8.092-3.044,16.781-8.992,22.436c-5.808,5.526-44.646,5.526-50.456,0
					c-5.947-5.654-7.623-14.344-8.991-22.436C101.214,225.901,99.715,213.505,109.675,212.048z"/>
				<path fill-rule="evenodd" clip-rule="evenodd" fill="#222B54" d="M249.153,246.039c4.18,4.613,6.907,12.176,3.283,16.967
					c-3.069,4.057-88.89-3.926-101.579-3.926c-9.018-11.495-8.662-28.948,14.447-40.714c4.944-2.516,10.374,0.13,15.744,1.259
					C196.595,222.896,238.766,234.587,249.153,246.039z"/>
				<path fill-rule="evenodd" clip-rule="evenodd" fill="#222B54" d="M63.589,164.129c-6.2-0.54-13.046,1.87-16.065,7.313
					c-2.469,4.451-1.94,10.078,0.141,14.722c2.08,4.646,5.528,8.52,8.922,12.312c49.071,54.816,49.865,57.301,58.069,59.501
					c13.981,3.749,30.861-0.059,18.468-32.165C131.125,220.638,78.991,165.468,63.589,164.129z"/>
				<path fill="#F7B690" d="M107.255,276.232c-3.267-1.906-9.746-10.325-17.327-21.415l14.27-5.03
					C108.865,266.344,110.678,278.231,107.255,276.232z"/>
				<path fill-rule="evenodd" clip-rule="evenodd" fill="#0A3C5F" d="M51.161,165.044c8.706-4.199,17.286-3.105,24.235,8.161
					c9.373,15.188,21.949,52.259,28.801,76.582l-16.372,7.42c-10.365-23.653-30.796-54.329-38.711-68.264
					C44.677,181.129,44.293,168.355,51.161,165.044z"/>
				<g>
					<path fill="#F7B690" d="M150.542,260.764l7.086,13.248c-10.586,0.699-19.104,0.818-22.694-0.67
						C131.324,271.845,138.533,266.566,150.542,260.764z"/>
					<path fill-rule="evenodd" clip-rule="evenodd" fill="#0A3C5F" d="M234.333,245.814c13.237,0,19.771,6.807,19.771,11.601
						c0,8.152-5.03,16.865-17.564,16.865c-15.939,0-55.877-0.542-80.372,1.13l-5.624-14.646
						C168.615,252.033,214.972,245.814,234.333,245.814z"/>
					<path fill-rule="evenodd" clip-rule="evenodd" fill="#0A3C5F" d="M129.692,271.483c0.483-0.302,4.13-5.677,6.509-6.63
						c1.381-0.55,3.243-1.428,4.724-0.703c1.678,0.82,1.755,3.151,2.753,4.558c0.747,1.054,1.77,1.919,2.933,2.494l2.315-3.111
						c8.197,3.783,1.685,13.311,9.906,17.232c1.985,0.945,4.15,1.61,5.854,3.003c1.702,1.394,2.779,3.935,1.646,5.819
						c-0.424,0.71-1.1,1.203-1.873,1.504l-26.483-12.85c0,0-0.159-5.357,0.599-5.96c-0.9,0.363-3.006,1.344-3.968,1.358
						L129.692,271.483z"/>
				</g>
				<path fill-rule="evenodd" clip-rule="evenodd" fill="#0A3C5F" d="M89.342,276.934c-0.086-2.189,0.829-4.006,1.77-4.516
					c0.94-0.51,2.408-4.183,4.354-9.557c0.893-2.459,5.856-3.147,8.333,1.085c0.804,1.373,1.552,2.266,2.455,2.236
					c0.756-0.027,1.602-1.342,2.331-0.473c0.64,0.769,0.812,2.788,0.976,4.229c0.279,2.483,0.533,4.982,0.8,7.472
					c0.061,0.553,0.117,1.128,0.136,1.694h-20.7C89.547,278.498,89.375,277.759,89.342,276.934z"/>
			</g>
			<g>
				<path fill="#F7B690" d="M209.657,188.557c0.407,3.792,0.636,7.827-1.108,11.22c-1.743,3.393-6.165,5.689-9.507,3.847
					c-1.882-1.039-2.961-3.063-3.938-4.98c-5.488-10.751-10.979-21.505-16.467-32.257c-4.524-8.866-9.173-18.272-8.598-28.209
					c0.265-4.592,1.707-9.171,4.482-12.837c2.425-3.204,7.69-8.304,11.316-4.558c3.609,3.729,6.087,10.237,8.371,14.852
					c5.273,10.658,9.339,21.912,12.093,33.478C207.828,175.515,208.951,182.011,209.657,188.557z"/>
				<path fill-rule="evenodd" clip-rule="evenodd" fill="#7368E3" d="M170.042,140.284c0.298-5.108,1.902-10.202,4.988-14.284
					c2.698-3.563,4.275-12.519,8.309-8.352c4.016,4.15,11.056,14.672,13.599,19.807c3.342,6.759,6.235,13.738,8.684,20.868
					L179.31,171.08C174.372,161.389,169.417,151.122,170.042,140.284z"/>
				<path fill="#F7B690" d="M208.128,189.694c-2.669-3.252-7.269-4.392-11.449-3.926c-4.18,0.464-8.072,2.291-11.873,4.094
					c-6.966,3.31-13.928,6.631-20.886,9.952c-7.188,3.429-14.373,6.856-21.56,10.287c-1.119,0.534-2.352,1.193-2.713,2.381
					c-0.387,1.271,0.46,2.658,1.61,3.322c1.15,0.663,2.53,0.772,3.856,0.84c10.785,0.563,21.645-0.467,32.142-2.978
					c5.304-1.271,10.515-2.918,15.581-4.93c4.353-1.73,10.531-3.641,14.048-6.84C210.249,198.845,211.097,193.31,208.128,189.694z"
					/>
			</g>
			<path fill-rule="evenodd" clip-rule="evenodd" fill="#7368E3" d="M88.928,118.837c2.565-3.105,6.427-4.8,10.206-6.185
				c11.108-4.075,36.592-14.734,37.556-14.713c0.961-0.021,26.445,10.638,37.556,14.713c3.779,1.385,7.641,3.08,10.204,6.185
				c3.422,4.141,3.867,10.09,2.637,15.32c-1.23,5.228-3.913,9.975-6.254,14.81c-2.921,6.03-5.34,12.304-7.237,18.73
				c-3.427,11.608-5.158,23.72-5.106,35.826c0.018,3.71,1.99,9.987,0.849,13.489c-1.432,4.398-9.016,5.396-12.845,5.887
				c-6.562,0.847-13.193,1.126-19.803,0.851c-6.609,0.275-13.242-0.004-19.803-0.851c-3.832-0.491-11.413-1.488-12.845-5.887
				c-1.142-3.502,0.83-9.779,0.846-13.489c0.055-12.106-1.678-24.218-5.104-35.826c-1.898-6.427-4.316-12.7-7.237-18.73
				c-2.343-4.835-5.024-9.582-6.254-14.81C85.063,128.927,85.508,122.978,88.928,118.837z"/>
			<g>
				<path fill="#F4A086" d="M128.313,96.641c1.035-3.334,1.591-9.567,3.652-11.785c1.237-1.331,7.695-1.331,8.932,0
					c2.062,2.217,2.618,8.451,3.653,11.785c1.161,3.733,2.171,8.213,0.96,11.907c-0.849,2.586-2.644,4.138-4.464,4.661
					c-1.521,0.437-7.71,0.437-9.229,0c-1.82-0.522-3.615-2.074-4.464-4.661C126.142,104.854,127.152,100.374,128.313,96.641z"/>
				<path fill="#F7B690" d="M122.755,68.564c2.078-6.055,25.273-6.055,27.353,0c1.652,4.818,1.888,10.256,0.946,15.329
					c-0.888,4.791-2.823,9.131-5.536,12.729c-1.852,2.452-4.26,6.067-6.956,7.287H134.3c-2.695-1.22-5.104-4.835-6.956-7.287
					c-2.712-3.599-4.647-7.938-5.536-12.729C120.868,78.82,121.103,73.383,122.755,68.564z"/>
				<path fill-rule="evenodd" clip-rule="evenodd" fill="#0A3C5F" d="M123.455,84.628c-0.288-1.432-0.918-2.78-1.197-4.214
					s-0.791-3.082,0.252-4.107c0.951,4.395,2.81,8.734,4.252,12.994c0.313,0.922,0.655,1.873,1.337,2.565
					c0.838,0.853,2.06,1.19,3.235,1.398c1.292,0.227,4.703-1.226,5.098-1.203c0.395-0.023,3.807,1.43,5.098,1.203
					c1.176-0.208,2.397-0.546,3.235-1.398c0.683-0.692,1.024-1.644,1.338-2.565c1.442-4.26,2.643-8.6,3.594-12.994
					c1.042,1.025,1.188,2.673,0.909,4.107s-0.909,2.782-1.196,4.214c-0.023,0.113-0.042,0.227-0.061,0.34
					c-0.141,0.938-0.107,1.948,0.283,2.828c0.176,0.401,0.415,0.662,0.43,1.104c0.013,0.409-0.163,0.917-0.243,1.323
					c-0.38,1.944-0.944,3.853-1.671,5.696c-0.729,1.843-1.621,3.622-2.66,5.31c-0.521,0.844-1.079,1.667-1.669,2.463
					c-0.248,0.334-1.409,2.221-1.8,2.221l-4.53,1.295h-2.112l-4.531-1.295c-0.388,0-1.551-1.887-1.799-2.221
					c-0.59-0.796-1.148-1.619-1.667-2.463c-1.041-1.688-1.934-3.466-2.662-5.31c-0.727-1.843-1.291-3.752-1.672-5.696
					c-0.079-0.405-0.256-0.914-0.243-1.323c0.015-0.443,0.254-0.704,0.431-1.104c0.391-0.88,0.424-1.89,0.283-2.828
					C123.499,84.854,123.477,84.741,123.455,84.628z"/>
				<path fill-rule="evenodd" clip-rule="evenodd" fill="#0A3C5F" d="M113.719,56.02c2.821-3.748,8.021-5.215,12.193-3.406
					c1.756,0.761,3.332,2.034,5.19,2.423c2.169,0.454,4.377-0.363,6.445-1.197c2.07-0.833,4.243-1.711,6.431-1.377
					c2.19,0.333,4.323,2.364,4.04,4.706c2.951-1.164,6.533-0.19,8.604,2.342c2.07,2.531,2.494,6.453,1.019,9.421
					c-0.893,1.793-2.388,3.227-3.038,5.133c-0.743,2.182,0.113,7.416-2.484,8.417c-2.007,0.773-3.124-15.182-8.753-15.583
					c-2.987,3.191-7.961,4.006-11.706,1.919c-1.405-0.783-2.894-1.967-4.405-1.457c-1.01,0.342-2.251,0.827-2.901,1.726
					c-1.57,2.169-1.11,12.045-3.277,13.674c-1.157-3.489-1.612-7.237-1.36-10.928c-0.98,0.025-1.966-0.132-2.881-0.506
					c-2.658-1.087-4.642,0.118-5.192-2.868C111.094,65.476,111.934,58.389,113.719,56.02z"/>
				<path fill="#F7B690" d="M153.674,83.504c0.559-1.035,1.021-2.213,0.865-3.397s-1.136-2.307-2.246-2.171
					c-0.687,0.084-1.269,0.617-1.621,1.25c-0.353,0.634-0.517,1.364-0.674,2.083c-0.275,1.251-0.55,2.505-0.827,3.756
					c-0.231,1.054-0.369,2.392,0.466,3.002C151.166,89.148,153.066,84.63,153.674,83.504z"/>
				<path fill="#F7B690" d="M119.367,83.504c-0.559-1.035-1.022-2.213-0.867-3.397s1.138-2.307,2.248-2.171
					c0.687,0.084,1.267,0.617,1.621,1.25c0.353,0.634,0.515,1.364,0.674,2.083c0.275,1.251,0.551,2.505,0.827,3.756
					c0.231,1.054,0.37,2.392-0.466,3.002C121.875,89.148,119.977,84.63,119.367,83.504z"/>
			</g>
			<path fill="#BEE3ED" d="M102.191,218.381h70.346c3.288,0,6.03-2.522,6.308-5.8l3.648-43.47c0.311-3.691-2.602-6.857-6.305-6.857
				H98.54c-3.706,0-6.618,3.166-6.307,6.857l3.651,43.47C96.159,215.858,98.901,218.381,102.191,218.381z"/>
			<path fill="#3C79A6" d="M182.337,170.971c-0.668-2.752-3.149-4.833-6.149-4.833H98.54c-3.002,0-5.481,2.081-6.151,4.833
				l-0.155-1.859c-0.311-3.691,2.601-6.857,6.307-6.857h77.648c3.703,0,6.615,3.166,6.305,6.857L182.337,170.971z"/>
		</g>
		<g>
			<g>
				<path fill="#BEE3ED" d="M203.853,21.188c-13.38,3.483-21.78,16.406-19.958,29.772c-6.097,5.504-17.048,19.718-10.703,39.033
					c0,0,7.898-20.336,17.065-24.961c6.521,7.51,16.938,11.146,27.216,8.47c14.446-3.76,23.109-18.52,19.347-32.966
					C233.062,26.09,218.302,17.427,203.853,21.188z"/>
			</g>
			<g>
				<g>
					<path fill="#FFFFFF" d="M194.002,40.302h35.604c1.006,0,1.82-0.815,1.82-1.819c0-1.006-0.814-1.819-1.82-1.819h-35.604
						c-1.004,0-1.818,0.813-1.818,1.819C192.184,39.487,192.999,40.302,194.002,40.302z"/>
				</g>
				<g>
					<path fill="#FFFFFF" d="M194.002,48.866h35.604c1.006,0,1.82-0.815,1.82-1.819c0-1.005-0.814-1.819-1.82-1.819h-35.604
						c-1.004,0-1.818,0.814-1.818,1.819C192.184,48.051,192.999,48.866,194.002,48.866z"/>
				</g>
				<g>
					<path fill="#FFFFFF" d="M194.002,57.431h35.604c1.006,0,1.82-0.815,1.82-1.819c0-1.006-0.814-1.82-1.82-1.82h-35.604
						c-1.004,0-1.818,0.814-1.818,1.82C192.184,56.616,192.999,57.431,194.002,57.431z"/>
				</g>
			</g>
		</g>
	</g>
</g>
<g id="Layer_2" display="none">
	<g display="inline">
		<g>
			<path fill="#0092DF" d="M216.721,100.109l-0.007,0.065c-0.27-0.04-0.543-0.065-0.825-0.065c-2.835,0-5.207,2.079-5.475,4.802
				l-9.322,94.525c-0.188,1.944-1.854,3.407-3.88,3.407h-58.96c-3.037,0-5.5,2.378-5.5,5.307c0,2.931,2.463,5.307,5.5,5.307h58.96
				c4.506,0,8.565-1.945,11.31-5.035c3.242,0.233,15.806,1.271,15.806,1.271l12.871-3.952l11.696-105.631H216.721z"/>
			<path fill="#42BEFF" d="M230.218,202.844c2.022,0,3.69-1.463,3.88-3.407l9.321-94.525c0.269-2.724,2.639-4.802,5.476-4.802
				c3.242,0,5.782,2.692,5.475,5.807l-9.319,94.509c-0.716,7.385-7.143,13.032-14.833,13.032h-58.959
				c-3.039,0-5.502-2.376-5.502-5.307c0-2.929,2.463-5.307,5.502-5.307H230.218z"/>
			<rect x="187.901" y="213.457" fill="#839BAA" width="8.944" height="80.21"/>
			<path fill="#3C79A6" d="M224.249,293.667c0-4.766-4.003-8.63-8.943-8.63h-45.862c-4.941,0-8.945,3.864-8.945,8.63H224.249z"/>
			<path fill="#3C79A6" d="M188.291,221.712h8.165c2.789,0,5.385-1.369,6.893-3.631l3.082-4.624h-28.112l3.082,4.624
				C182.907,220.343,185.503,221.712,188.291,221.712z"/>
		</g>
		<g>
			<path fill="#F4A086" d="M71.367,279.982c-0.98,1.536-2.29,3.248-4.055,3.204c-3.045-0.073-3.265-4.605-2.504-7.657
				c0.823-3.294,1.646-6.585,2.468-9.877l9.565,2.915C75.796,272.707,73.222,277.08,71.367,279.982z"/>
			<path fill-rule="evenodd" clip-rule="evenodd" fill="#6A60D1" d="M95.483,184.666c7.697-8.866,55.803-19.887,78.427-27.105
				c16.896-5.393,34.281-8.422,36.854,15.376c1.11,10.268-3.899,20.812-12.332,26.214c-9.185,5.882-20.73,5.332-31.483,4.589
				c-20.505-1.416-33.077-2.284-53.58-3.699c-1.962,27.985-24.765,38.005-34.974,69.002l-15.338-3.262
				C72.356,251.186,91.66,189.776,95.483,184.666z"/>
			<path fill="#F7B690" d="M176.506,265.527c0.785,1.653,1.553,3.692,0.635,5.265c-1.585,2.713-5.459,0.648-7.611-1.567
				c-2.322-2.39-4.644-4.778-6.967-7.167l9.385-5.848C173.497,259.3,175.025,262.401,176.506,265.527z"/>
			<path fill-rule="evenodd" clip-rule="evenodd" fill="#7B81E8" d="M214.596,199.15c-9.184,5.882-20.73,5.332-31.483,4.589
				c-21.232-1.467-42.465-2.933-63.697-4.397c-3.388-0.233-7.19-0.686-9.306-3.458c-2.469-3.238-1.273-8.299,1.536-11.218
				c2.812-2.92,6.765-4.229,10.558-5.44c22.624-7.221,45.247-14.446,67.871-21.665c16.896-5.393,34.281-8.422,36.854,15.376
				C228.038,183.204,223.028,193.748,214.596,199.15z"/>
			<path fill-rule="evenodd" clip-rule="evenodd" fill="#7B81E8" d="M108.856,190.771c4.679-15.105,33.852,14.706,38.944,22.73
				c8.74,13.767,16.798,28.032,24.147,42.709l-11.387,9.723c-7.47-15.695-22.369-28.945-34.556-41.479
				c-4.005-4.122-8.091-8.36-10.535-13.708C113.026,205.396,108.023,193.463,108.856,190.771z"/>
			<g>
				<path fill-rule="evenodd" clip-rule="evenodd" fill="#E0B605" d="M185.092,101.744c1.905-6.943,3.367-14.859,1.166-21.925
					c-0.688-2.21-0.821-2.562-2.715-1.463c-1.488,0.865-2.852,2.447-4.026,3.716c-2.399,2.594-4.436,5.543-6.184,8.647
					c-1.828,3.246-3.345,6.661-4.741,10.135l14.4,7.734C183.757,106.328,184.46,104.046,185.092,101.744z"/>
				<path fill="#F4A086" d="M168.592,100.853c-0.925,2.301-1.797,4.628-2.665,6.951c-4.77,12.771-9.54,25.543-14.31,38.316
					c-0.449,1.205-0.906,2.523-0.559,3.765c0.554,1.975,2.985,2.801,4.876,2.218c1.889-0.586,3.329-2.155,4.635-3.695
					c9.838-11.604,17.483-25.213,22.423-39.82L168.592,100.853z"/>
				<path fill="#F7B690" d="M143.763,105.292c0.27-1.363,0.862-2.997,2.189-3.153c1.26-0.147,2.181,1.17,2.789,2.332
					c5.127,9.809,11.704,41.609,8.942,45.72c-2.576,3.838-5.715,4.027-8.127,0.115C144.647,142.345,142.677,110.75,143.763,105.292z
					"/>
				<g>
					<path fill="#A2D1EB" d="M162.346,105.836h-10.564c-0.626,0-1.274-0.528-1.448-1.18l-6.454-23.39
						c-0.175-0.652,0.189-1.182,0.815-1.182h10.564c0.626,0,1.274,0.53,1.449,1.182l6.453,23.39
						C163.336,105.308,162.97,105.836,162.346,105.836z"/>
					<path fill="#3C79A6" d="M163.162,104.656l-6.453-23.39c-0.175-0.652-0.823-1.182-1.449-1.182h-1.125
						c0.624,0,1.272,0.53,1.449,1.182l6.451,23.39c0.176,0.652-0.188,1.18-0.815,1.18h1.127
						C162.972,105.836,163.336,105.308,163.162,104.656z"/>
				</g>
				<path fill="#F7B690" d="M142.981,101.991c-0.291-2.958,0.364-6.167,2.386-8.267c1.622-1.686,3.938-2.479,6.219-2.687
					c0.99-0.089,2.245,0.1,2.549,1.087c0.271,0.879-0.419,1.724-0.773,2.572c-0.81,1.926,0.138,4.109,0.365,6.199
					c0.253,2.316-0.444,4.726-1.882,6.51c-1.144,1.417-4.36,3.947-6.231,2.682C143.875,108.915,143.176,103.961,142.981,101.991z"/>
			</g>
			<path fill-rule="evenodd" clip-rule="evenodd" fill="#FFC300" d="M214.143,99.122c-1.157,9.011-4.476,17.75-4.336,26.841
				c0.141,9.103,3.946,18.086,10.308,24.319c3.92,3.846,9.303,8.207,7.898,13.625c-1.263,4.873-7.104,6.316-11.913,6.887
				c-10.487,1.243-22.45,2.012-30.166-5.5c-4.723-4.603-6.767-11.403-8.271-17.958c-2.663-11.614-4.224-23.501-4.652-35.432
				c-0.366-10.162,0.286-20.996,5.886-29.319c5.579-8.293,11.842-13.793,20.974-10.869
				C210.253,82.339,215.292,90.185,214.143,99.122z"/>
			<path fill-rule="evenodd" clip-rule="evenodd" fill="#222B54" d="M75.698,273.051c-0.595,1.088-3.339,1.598-4.471,1.644
				c-0.896,0.038-4.989-1.908-5.874-1.59c-0.637,0.229-3.011,9.143-5.96,11.032c-2.951,1.89-6.222,2.933-9.358,4.339
				c-1.094,0.489-2.204,1.046-3.085,1.92c-0.882,0.87-1.501,2.13-1.31,3.235c0.019,0.107,0.062,0.184,0.091,0.278h19.295
				c0.561-0.688,1.065-1.435,1.556-2.166c1.765-2.635,3.53-5.269,5.292-7.903c0.557,2.878,1.038,6.254,1.572,10.069h2.155
				C76.29,290.84,78.192,276.239,75.698,273.051z"/>
			<path fill-rule="evenodd" clip-rule="evenodd" fill="#0A3C5F" d="M183.808,275.511c-0.657-2.174-1.333-4.387-2.6-6.24
				c-1.241-1.817-2.712-3.575-4.729-4.312c-0.013,1.173-0.495,2.957-1.525,3.431c-0.814,0.374-5.591,0.244-6.256,0.858
				c-0.447,0.413,1.46,7.992,0.246,11.251c0,0-4.353,3.438-6.598,5.091c-0.916,0.671-1.823,1.41-2.404,2.409
				c-0.583,0.999-0.779,2.316-0.229,3.334c0.053,0.099,0.121,0.163,0.181,0.246l16.589-3.17l2.261-0.927
				c0.181-0.812,0.278-1.652,0.372-2.479c0.331-2.969,0.662-5.936,0.994-8.901c1.867,2.764,3.336,5.82,4.352,9.031l2.007-0.822
				C185.582,281.378,184.695,278.446,183.808,275.511z"/>
			<g>
				<path fill="#F4A086" d="M198.099,50.977c-0.809-1.588-9.67,3.176-10.196,4.317s-1.085,14.054-2.979,22.115
					c-0.41,1.739,16.121-3.587,14.946-5.693C197.966,68.301,196.022,55.278,198.099,50.977z"/>
				<path fill="#F7B690" d="M172.553,39.338c3.063-13.244,20.434-10.452,24.56-9.13c4.125,1.32,4.23,7.408,4.629,11.89
					c0.246,2.766-0.715,5.517-2.294,7.712c-1.516,2.112-8.123,5.291-8.498,5.375c-2.45,4.407-6.438,9.449-10.491,9.386
					c-1.826-0.027-3.482-1.249-4.555-2.79c-1.072-1.542-1.661-3.384-2.232-5.192C171.898,50.974,171.227,45.086,172.553,39.338z"/>
				<path fill-rule="evenodd" clip-rule="evenodd" fill="#222B56" d="M202.622,47.036c1.513-1.906,2.694-4.17,2.991-6.625
					c0.354-2.904-0.574-5.872-2.142-8.3c-2.796-4.337-10.021-9.935-15.86-10.058c-6.236-0.132-16.948,6.345-15.933,14.394
					c0.306,2.408,1.573,2.425,3.781,3.194c2.91,1.013,6.816,1.714,9.23,3.688c2.885,2.363,1.602,8.061,7.511,9.913
					c1.909,0.599,3.872,4.116,5.142,6.853C198.851,58.307,201.158,48.879,202.622,47.036z"/>
				<path fill-rule="evenodd" clip-rule="evenodd" fill="#222B56" d="M211.383,63.628c0.556,2.481-0.284,5.069-0.148,7.613
					c0.313,5.915,5.615,10.193,7.386,15.82c0.681,2.167,0.795,4.621-0.17,6.667c-0.965,2.046-3.175,3.526-5.327,3.12
					c-2.373-0.446-3.91-2.86-4.8-5.199c-0.891-2.337-1.479-4.914-3.142-6.736c-2.566-2.814-7.012-3.071-9.484-5.975
					c-2.383-2.8-4.157-10.574-4.157-16.313c0-11.061,3.4-21.153,8.488-19.562c3.037,0.949,3.914,6.716,4.721,9.251
					C206.12,56.619,210.402,59.257,211.383,63.628z"/>
				<path fill="#F7B690" d="M194.765,48.051c0.311,0.301,0.469,0.733,0.565,1.163c0.304,1.347,0.063,2.818-0.65,3.986
					c-0.713,1.167-1.891,2.015-3.189,2.297c-0.516,0.112-1.085,0.128-1.532-0.158c-1.548-0.983-0.763-4.405-0.021-5.731
					C190.709,48.23,193.448,46.773,194.765,48.051z"/>
			</g>
			<g>
				<path fill-rule="evenodd" clip-rule="evenodd" fill="#FDD247" d="M207.393,96.373c-1.604-5.416-4.475-10.597-8.904-13.881
					c-1.089-0.806-2.488-1.513-3.716-0.963c-1.154,0.517-1.652,1.917-1.958,3.186c-2.007,8.341-0.871,17.072,0.546,25.585
					l16.057-2.622C209.033,103.85,208.48,100.045,207.393,96.373z"/>
				<path fill="#F7B690" d="M209.891,113.142c-0.143-1.818-0.29-3.643-0.474-5.463l-16.057,2.622
					c0.135,0.814,0.271,1.627,0.409,2.436c1.451,8.515,2.9,17.025,4.352,25.538c0.544,3.193,0.467,7.033,3.224,9.11
					c1.978,1.491,4.877,1.843,6.969,0.408c1.813-1.241,2.869-3.434,3.27-5.656c0.402-2.226,0.228-4.514,0.052-6.768
					C211.052,127.959,210.471,120.551,209.891,113.142z"/>
				<path fill="#F7B690" d="M167.93,167.489c-1.514,1.192-5.03,4.09-3.96,5.724c0.832,1.268,4.639,0.12,5.963-0.55
					c9.175-4.657,37.262-23.717,38.716-25.678c2.399-3.235-1.106-12.704-6.49-11.326C196.698,137.06,181.695,156.646,167.93,167.489
					z"/>
				<path fill="#F7B690" d="M162.327,168.745c-2.671,1.381-5.344,2.765-8.016,4.145c-0.318,0.589,0.403,1.281,1.054,1.254
					c0.647-0.027,1.218-0.444,1.843-0.628c0.624-0.186,1.478,0.009,1.605,0.674c0.127,0.665-0.556,1.167-1.139,1.471
					c-2.688,1.405-5.375,2.811-8.064,4.218c0.175,2.464,2.413,4.368,4.752,4.753c2.339,0.388,4.711-0.437,6.836-1.528
					c2.955-1.522,5.648-3.594,7.915-6.09c1.31-1.44,2.533-3.177,2.565-5.161C171.76,166.798,165.159,167.282,162.327,168.745z"/>
			</g>
		</g>
	</g>
</g>
<g id="Layer_3">
	<g>
		<path fill="#6A60D1" d="M144.261,227.645h6.539c0,0-4.024,26.896-5.364,35.86c-0.636,4.257-0.636,8.62,0,12.875
			c0.804,5.378,3.217,29.284,3.217,29.284h-4.392c0,0-3.404-22.81-4.536-27.824c-1.178-5.193-1.376-10.66-0.582-15.968
			C140.422,253.317,144.261,227.645,144.261,227.645z"/>
		<path fill="#6A60D1" d="M197.738,227.645h6.207c0,0-3.819,26.896-5.091,35.86c-0.606,4.257-0.606,8.62,0,12.875
			c0.764,5.378,3.056,29.284,3.056,29.284h-4.172c0,0-3.23-22.81-4.308-27.824c-1.116-5.193-1.304-10.66-0.55-15.968
			C194.093,253.317,197.738,227.645,197.738,227.645z"/>
		<path fill="#6A60D1" d="M75.333,227.645h-6.538c0,0,4.021,26.896,5.363,35.86c0.637,4.257,0.637,8.62,0,12.875
			c-0.807,5.378-3.218,29.284-3.218,29.284h4.393c0,0,3.402-22.81,4.537-27.824c1.175-5.193,1.375-10.66,0.581-15.968
			C79.17,253.317,75.333,227.645,75.333,227.645z"/>
		<path fill="#6A60D1" d="M129.115,227.594h-6.535c0,0,4.022,26.896,5.362,35.863c0.638,4.254,0.638,8.618,0,12.872
			c-0.804,5.381-3.22,29.284-3.22,29.284h4.393c0,0,3.406-22.81,4.54-27.824c1.174-5.193,1.374-10.657,0.58-15.965
			C132.957,253.267,129.115,227.594,129.115,227.594z"/>
		<polygon fill="#6A60D1" points="139.541,230.183 71.79,230.183 22.314,78.806 81.626,78.806 		"/>
		
			<linearGradient id="SVGID_1_" gradientUnits="userSpaceOnUse" x1="-227.6812" y1="210.5029" x2="-162.7275" y2="210.5029" gradientTransform="matrix(-1.056 0.0815 0.0781 1.0125 -94.5454 -10.246)">
			<stop  offset="0" style="stop-color:#0A3C5F"/>
			<stop  offset="1" style="stop-color:#051F30"/>
		</linearGradient>
		<path fill="url(#SVGID_1_)" d="M131.126,161.253c3.432,1.81,6.57,4.322,10.388,5.053c5.156,0.985,15.189,0.756,18.678,5.27
			c3.638,4.714-0.319,10.615-3.49,14.259c-4.128,4.709-8.084,9.539-12.429,14.043c-5.321,5.517-14.051,15.813-22.493,15.558
			c-7.813-0.237-19.289-7.928-23.562-14.454c-3.986-6.08-6.836-18.055-3.045-24.925c3.354-6.072,14.208-7.202,19.622-11.771
			c3.447-2.912,4.873-5.237,10.044-4.972C127.143,159.429,129.182,160.229,131.126,161.253z"/>
		<path fill="#F7B690" d="M230.547,291.736c0.233,0.998,0.508,2.066,1.258,2.717c0.905,0.782,2.207,0.717,3.378,0.611
			c2.671-0.242,5.343-0.483,8.014-0.726c0.821-0.073,1.779-0.235,2.182-1.001c0.363-0.689,0.093-1.54-0.183-2.268
			c-0.877-2.334-1.757-4.67-2.637-7.005c-0.773-2.058-1.609-4.206-3.227-5.602c-2.336-2.014-8.881-2.906-10.771,0.364
			C226.818,281.841,229.84,288.733,230.547,291.736z"/>
		<path fill-rule="evenodd" clip-rule="evenodd" fill="#0A3C5F" d="M273.197,302.581c0.21-2.249-1.795-4.112-3.867-4.634
			c-2.07-0.521-4.246-0.121-6.379-0.143c-6.086-0.068-11.967-3.923-14.717-9.643c-0.376-0.786-0.743-1.656-1.468-2.088
			c-0.969-0.576-2.232-0.145-3.097,0.604c-0.869,0.748-1.483,1.771-2.277,2.605c-1.422,1.498-3.439,2.33-5.431,2.303
			c-1.671-0.026-3.528-1.373-5.141-0.479c-1.421,0.789-1.82,2.863-2.189,4.343c-0.637,2.55-1.218,5.114-1.824,7.673
			c-0.137,0.566-0.269,1.157-0.314,1.74l11.599-0.014c0.544-0.804,1.004-3.145,1.241-4.109c0.03,0.99,0.385,3.343,0.974,4.105
			l31.872-0.037C272.732,304.186,273.119,303.425,273.197,302.581z"/>
		<path fill-rule="evenodd" clip-rule="evenodd" fill="#0A3C5F" d="M248.492,273.659c2.406-0.965,4.463-2.721,6.828-3.796
			c4.603-2.092,9.915-1.427,14.702-2.979c5.153-1.674,9.466-6.039,11.274-11.409c0.387-1.153,0.638-2.527-0.035-3.519
			c-0.632-0.93-1.837-1.16-2.919-1.215c-8.33-0.436-10.383,3.107-18.688,3.949c-2.216,0.226-11.535-0.863-16.19,1.158
			c-5.046,2.191-4.42,4.479-4.525,6.563c-0.112,2.098,0.475,9.002,2.238,10.448C243.174,274.499,246.222,274.567,248.492,273.659z"
			/>
		<path fill="#F4A086" d="M239.025,254.457c-0.239-0.996-0.471-2.077-0.099-3.03c0.446-1.15,1.619-1.754,2.696-2.257
			c2.453-1.145,4.908-2.292,7.365-3.438c0.755-0.352,1.667-0.694,2.36-0.228c0.627,0.426,0.766,1.31,0.849,2.094
			c0.264,2.501,0.525,5.007,0.791,7.511c0.233,2.206,0.453,4.523-0.352,6.576c-1.16,2.962-6.515,7.074-9.629,5.155
			C240.137,265.074,239.735,257.465,239.025,254.457z"/>
		<path fill="#0A3C5F" d="M239.898,178.829c-1.147-4.101-2.529-8.387-4.908-11.742l-20.583,29.112
			c5.056,1.501,8.215,6.717,10.844,15.708c9.528,32.593,12.864,44.729,15.124,47.848c1.723,2.381,12.616,0.4,13.49-2.672
			C256.296,248.556,245.625,199.229,239.898,178.829z"/>
		<path fill="#222B54" d="M110.311,223.922c5.594,3.852,34.197,3.336,40.837,2.479c9.751-1.258,19.501-2.517,29.254-3.775
			c4.648-0.601,16.006-5.271,19.859-2.478c5.24,3.8,22.553,57.331,27.324,64.034c1.584,2.224,13.951,2.896,15.179-1.267
			c1.224-4.159-7.374-46.986-10.821-64.033c-1.32-6.541-2.659-13.132-5.194-19.256c-2.537-6.123-6.392-11.82-11.779-15.311
			c-7.572-4.908-79,1.711-82.332,3.801C127.942,191.065,104.428,219.87,110.311,223.922z"/>
		<path fill="#0A3C5F" d="M98.287,171.361c-4.185,2.023-7.456,5.805-9.685,10.063c-5.974,11.404-4.382,26.692,3.796,36.395
			c8.179,9.702,33.567,14.19,49.952,4.824c10.846-6.201,2.979-14.669,2.354-27.669c-0.318-6.53-2.912-13.326-8.193-16.713
			c-6.662-4.274-14.546-1.706-21.63-4.031C108.694,172.199,105.601,167.825,98.287,171.361z"/>
		<path fill="#0A3C5F" d="M231.412,163.432c-14.557-10.296-92.953,3.185-108.491,25.2c-5.098,7.223-3.076,16.906-0.011,24.637
			c4.824,12.165,16.456,10.969,26.55,7.453c16.075-5.595,31.784-12.368,46.981-20.259c7.943-4.122,23.714-12.93,27.821-5.901
			l10.728-27.475C233.99,165.68,232.823,164.43,231.412,163.432z"/>
		<path fill="#7B81E8" d="M20.73,78.806c-1.782,0-2.803,1.36-2.267,3.021c0,0,46.21,144.04,47.466,147.059
			c1.256,3.022,2.434,3.022,4.213,3.022h1.428c1.782,0,2.803-1.36,2.267-3.022L26.373,81.827c-0.535-1.661-2.436-3.021-4.215-3.021
			H20.73z"/>
		<path fill="#7B81E8" d="M150.294,228.956c0,1.855,1.344,3.372,2.987,3.372H203.3c1.645,0,2.989-1.517,2.989-3.372v-1.485
			c0-1.855-1.345-3.374-2.989-3.374h-50.019c-1.644,0-2.987,1.519-2.987,3.374V228.956z"/>
		<path fill="#7B81E8" d="M66.538,228.956c0,1.855,1.501,3.372,3.336,3.372h83.829c1.837,0,3.339-1.517,3.339-3.372v-1.485
			c0-1.855-1.502-3.374-3.339-3.374H69.875c-1.835,0-3.336,1.519-3.336,3.374V228.956z"/>
		<path fill="#F59D83" d="M135.885,111.715c1.569,1.748,12.792,37.25,42.591,38.094c29.801,0.842-15.601,14.477-20.521,14.477
			s-35.957-21.766-41.186-40.483C111.54,105.089,135.885,111.715,135.885,111.715z"/>
		<path fill="#F59D83" d="M100.43,52.256c1.685,1.37,2.718,8.548,2.309,9.44c-0.415,0.892-7.582,4.685,3.275,11.749
			c10.86,7.064-20.663,7.909-29.201-2.107c-1.16-1.37,13.458-8.54,14.194-26.153C91.321,37.68,100.43,52.256,100.43,52.256z"/>
		<path fill="#F7B690" d="M110.865,21.611c4.779-0.111,16.867,9.842,16.867,14.479s-8.994,27.974-18.836,27.974
			c-9.838,0-13.915-16.026-13.915-16.026s-4.708-0.49-4.708-6.254c0-5.765,4.92-6.602,7.519-4.569
			C97.792,35.334,104.821,21.752,110.865,21.611z"/>
		
			<linearGradient id="SVGID_2_" gradientUnits="userSpaceOnUse" x1="-223.0278" y1="31.4868" x2="-167.9053" y2="31.4868" gradientTransform="matrix(-1 0 0 1 -80.7461 0)">
			<stop  offset="0" style="stop-color:#000203"/>
			<stop  offset="1" style="stop-color:#0A4063"/>
		</linearGradient>
		<path fill="url(#SVGID_2_)" d="M110.865,10.296c4.005,0,8.855,1.898,12.018,3.162c3.164,1.266,14.973-2.952,14.973,9.278
			c0,4.218,4.427,4.428,4.427,10.332c0,5.904-19.001,16.262-19.001,16.262s4.07-8.293,3.943-10.311
			c-0.123-2.017-12.142-12.207-15.306-12.558c-3.164-0.352-9.275,1.617-9.417,5.833c-0.142,4.218-1.759,9.419-4.71,4.92
			c-2.953-4.499-7.729,7.732-7.519,10.685c0.21,2.952-1.054,4.779-1.054,4.779s-5.272-18.274,1.054-30.504
			C96.598,9.944,110.865,10.296,110.865,10.296z"/>
		<path fill="#45D8F9" d="M105.135,72.854c4.185,1.471,6.01,1.049,8.822,4.143c2.812,3.09,21.647,30.36,25.583,36.264
			c-6.327,0.844-14.479-0.561-15.885,5.762c-1.405,6.326-12.721-15.181-14.654-18.413C107.071,97.377,105.135,72.854,105.135,72.854
			z"/>
		<path fill="#45D8F9" d="M95.123,76.433c5.343,0,9.907-0.132,10.013-3.579c0.106-3.45,16.693,32.677,18.102,37.314
			c1.404,4.639,9.275,25.301,11.104,34.579c1.825,9.277,2.669,15.183,10.261,18.836c7.588,3.655-37.324,10.755-44.597,17.606
			c-7.273,6.854-12.745,24.034-12.113,29.41c-6.958-8.54-28.051-62.197-24.467-75.692c3.584-13.493,5.482-18.555,5.06-23.824
			c-0.42-5.272-22.349-6.748-24.667,2.529c-3.586-19.818,11.807-39.006,17.921-42.38c6.114-3.375,17.224-2.57,17.224-2.57
			S85.706,76.433,95.123,76.433z"/>
		<path fill="#F7B690" d="M67.853,107.608c1.476,15.813,12.439,38.686,66.489,37.139c10.261,0,8.992,8.717,4.357,10.825
			c-4.64,2.107-86.516,42.828-94.881-41.96C42.129,96.518,67.853,107.608,67.853,107.608z"/>
		<path fill="#F7B690" d="M136.121,144.93c3.341-1.469,10.264,1.387,13.41,2.416c4.103,1.342,9.29,3.123,11.394,7.261
			c4.173,8.217-15.872,1.612-18.672,1.246c-3.104-0.41-5.162,1.808-8.169,1.975C132.75,157.895,129.676,147.761,136.121,144.93z"/>
		<path fill="#F6A000" d="M164.386,153.156c-0.899,3.601,1.391,6.295,5.09,5.987l47.348-3.945c3.697-0.309,7.458-3.506,8.355-7.107
			l16.402-65.719c0.9-3.599-1.39-6.293-5.087-5.985l-47.348,3.943c-3.697,0.309-7.458,3.505-8.358,7.107L164.386,153.156z"/>
		<path fill="#FEC700" d="M149.842,163.882c-0.176-2.077,1.582-3.935,3.898-4.127l67.805-5.648c2.319-0.192,4.356,1.35,4.531,3.427
			l0.212,2.542c0.175,2.077-1.585,3.937-3.901,4.13l-67.802,5.646c-2.321,0.195-4.356-1.348-4.532-3.425L149.842,163.882z"/>
		<path fill="#F6A000" d="M124.378,168.565c0.175,2.077,2.017,3.634,4.094,3.462l26.047-2.171c2.077-0.172,3.635-2.014,3.464-4.089
			l-0.213-2.545c-0.172-2.077-2.014-3.635-4.093-3.464l-26.049,2.172c-2.077,0.172-3.634,2.015-3.462,4.09L124.378,168.565z"/>
		<path fill="#FEC700" d="M170.199,152.671c-0.896,3.602,1.394,6.295,5.091,5.987l47.348-3.943c3.699-0.308,7.46-3.508,8.359-7.106
			l16.402-65.719c0.898-3.602-1.392-6.296-5.089-5.987l-47.348,3.945c-3.699,0.308-7.46,3.505-8.358,7.104L170.199,152.671z"/>
		<path fill="#6A60D1" d="M205.239,116.88c-0.923,5.042,0.772,8.924,3.791,8.675c3.017-0.253,6.212-4.545,7.137-9.584
			c0.926-5.042-0.773-8.925-3.791-8.673C209.358,107.547,206.165,111.839,205.239,116.88z"/>
	</g>
</g>
<g id="Layer_4" display="none">
	<g display="inline">
		<path fill="#F59D83" d="M99.665,191.687c-1.201,2.463,2.405,22.472,4.983,26.228c2.579,3.758,10.735-3.544,11.508-9.729
			c0.775-6.187-1.799-15.209-2.571-18.302C112.812,186.791,99.665,191.687,99.665,191.687z"/>
		<path fill="#F59D83" d="M170.504,187.028c-1.833,2.036-3.412,25.599-1.963,29.92c1.446,4.321,10.386-3.71,11.738-9.794
			c1.289-5.802,3.999-14.854,4.104-18.041C184.49,185.928,170.504,187.028,170.504,187.028z"/>
		<polygon fill="#006AB0" points="112.295,246.848 95.639,273.176 153.28,284.998 195.038,270.82 176.462,240.921 		"/>
		<path fill="#F59D83" d="M129.91,119.516c-0.846,1.205,2.234,6.529,2.063,8.764c-0.173,2.233-1.376,5.843-1.892,7.216
			c-0.515,1.375-2.749,12.2,4.812,12.372c7.561,0.173,11.209-10.197,9.494-13.059c-1.676-2.795-1.589-5.154-1.589-8.077
			c0-2.92,0.687-5.843,0.516-8.249C143.141,116.078,133.517,114.359,129.91,119.516z"/>
		<path fill="#F7B690" d="M135.579,78.444c-12.028,0-16.151,16.496-16.151,21.309c0,4.812,7.904,24.059,16.151,24.059
			c8.249,0,19.246-15.123,19.246-18.902C154.825,93.609,146.234,78.444,135.579,78.444z"/>
		<path fill="#FEC700" d="M136.267,141.683c-4.468,0.019-7.755-0.96-6.187-6.188c-6.572,2.192-23.644,11.249-28.524,15.467
			c-4.537,3.918-7.529,22.495-4.984,42.789c8.335,2.062,15.481,0.365,19.434-0.922c0-3.609-0.433-12.74-0.433-12.74
			s4.822,44.245,7.636,45.581c13.214,6.273,38.022,8.194,41.283-3.477c3.134-11.214,0.645-39.27,1.16-42.362
			c1.5,3.146,1.097,7.012,4.149,9.027c2.723,1.796,12.861,4.117,14.925,1.283c2.063-2.837,3.865-31.446-6.96-39.438
			s-27.709-14.306-33.38-15.896C140.848,139.318,138.929,141.67,136.267,141.683z"/>
		<path fill="#222B56" d="M127.2,83.45c0.086,5.068,2.421,9.895,16.338,12.473c13.92,2.578,3.971,17.913,6.368,19.782
			c2.397,1.87,25.596-1.48,26.109-21.071c0.517-19.588-2.317-38.406-14.692-42.014c-12.372-3.608-18.609-8.249-30.183-6.445
			c-11.572,1.806-22.658,11.086-28.843,19.849c-6.188,8.764-11.858,30.675,1.289,40.469c13.145,9.794,16.834,10.909,20.531,6.613
			C119.568,105.718,119.208,87.832,127.2,83.45z"/>
		<path fill="#0092DF" d="M187.561,251.487c0,4.537-3.712,8.249-8.247,8.249H106.11c-4.537,0-8.249-3.712-8.249-8.249v-37.89
			c0-4.537,3.712-8.249,8.249-8.249h73.204c4.535,0,8.247,3.712,8.247,8.249V251.487z"/>
		<path fill="#006AB0" d="M187.561,262.657c0,1.797-1.856,3.265-4.124,3.265h-81.453c-2.268,0-4.123-1.468-4.123-3.265
			c0-1.795,1.855-3.265,4.123-3.265h81.453C185.705,259.393,187.561,260.862,187.561,262.657z"/>
		<path fill="#0086DE" d="M169.095,290.896c-1.484,1.814-1.36,3.341-5.731,1.814c-4.373-1.568-16.498-4.124-21.858-4.124
			c-5.28,0-43.592,0.741-55.883-1.196c-0.206,0-0.411-0.042-0.619-0.084c-11.59-2.063-21.898-10.847-21.898-21.94
			c0-10.888,27.3-6.515,32.828-5.689c0.082,0,0.164,0.04,0.248,0.04c9.401,1.362,45.53,16.991,47.057,18.808
			c0.783,0.906,2.31,0.411,4.123,0.039c0.454-0.123,0.949-0.205,1.484-0.247c1.445-0.206,3.011-0.082,4.456,0.991
			C157.176,282.151,170.58,289.079,169.095,290.896z"/>
		<path fill="#F59D83" d="M169.095,290.896c-1.484,1.814-1.36,3.341-5.731,1.814c-4.373-1.568-16.498-4.124-21.858-4.124
			c-5.28,0-43.592,0.741-55.883-1.196c5.196-6.105,9.156-18.848,10.311-27.714c0.082,0,0.164,0.04,0.248,0.04
			c9.401,1.362,45.53,16.991,47.057,18.808c0.783,0.906,2.31,0.411,4.123,0.039c0.454,0,0.949-0.081,1.484-0.247
			c1.445-0.206,3.011-0.082,4.456,0.991C157.176,282.151,170.58,289.079,169.095,290.896z"/>
		<path fill="#0086DE" d="M204.934,279.346c-0.701,0.414-1.36,0.743-1.938,1.033c-9.443,4.619-58.274,18.806-63.595,20.661
			c-5.362,1.856-18.146,9.32-20.703,5.979c-2.476-3.216,7.63-12.33,9.815-13.98c0.082-0.082,0.163-0.124,0.205-0.166
			c0.414-0.287,0.867-0.493,1.445-0.741c0.081,0,0.123-0.042,0.205-0.082c0.206-0.084,0.496-0.123,0.825-0.165
			c2.104-0.206,6.062,0.247,9.773-1.774c0.084-0.04,0.208-0.124,0.33-0.206c0.247-0.082,0.455-0.166,0.661-0.287
			c4.866-2.6,21.444-19.343,32.498-29.034c2.598-2.228,4.867-4.084,6.639-5.28c1.484-0.989,3.383-2.144,5.568-3.299
			c11.547-6.312,30.972-14.104,38.313-13.487c4.372,0.372,8.123,1.774,10.557,9.487
			C237.804,255.221,215.493,273.324,204.934,279.346z"/>
		<path fill="#F7B690" d="M204.934,279.346c-0.701,0.414-1.36,0.743-1.938,1.033c-9.443,4.619-58.274,18.806-63.595,20.661
			c-5.362,1.856-18.146,9.32-20.703,5.979c-2.476-3.216,7.63-12.33,9.815-13.98c0.495-0.29,1.072-0.577,1.65-0.907
			c0.081,0,0.123-0.042,0.205-0.082c0.206-0.084,0.496-0.123,0.825-0.165c2.104-0.33,6.433-0.248,10.104-1.98
			c0.247-0.082,0.455-0.166,0.661-0.287c4.866-2.6,21.444-19.343,32.498-29.034c2.598-2.228,4.867-4.084,6.639-5.28
			c1.484-0.989,3.383-2.144,5.568-3.299C195.449,254.809,205.677,270.604,204.934,279.346z"/>
		<path fill="#EBF7F7" d="M149.584,232.544c0,3.796-3.078,6.873-6.874,6.873s-6.873-3.077-6.873-6.873
			c0-3.799,3.077-6.874,6.873-6.874S149.584,228.745,149.584,232.544z"/>
	</g>
</g>
</svg>
