<?xml version="1.0" encoding="utf-8"?>
<!-- Generator: Adobe Illustrator 16.0.0, SVG Export Plug-In . SVG Version: 6.00 Build 0)  -->
<!DOCTYPE svg PUBLIC "-//W3C//DTD SVG 1.1//EN" "http://www.w3.org/Graphics/SVG/1.1/DTD/svg11.dtd">
<svg version="1.1" id="Layer_1" xmlns="http://www.w3.org/2000/svg" xmlns:xlink="http://www.w3.org/1999/xlink" x="0px" y="0px"
	 width="743px" height="560px" viewBox="0 0 743 560" enable-background="new 0 0 743 560" xml:space="preserve">
<g>
	<g>
		<g>
			<rect x="4.772" y="487.018" fill="#E6E6E6" width="732.456" height="0.366"/>
			<rect x="139.111" y="509.179" fill="#E6E6E6" width="48.521" height="0.366"/>
			<rect x="95.64" y="509.179" fill="#E6E6E6" width="28.117" height="0.366"/>
			<rect x="285.101" y="514.571" fill="#E6E6E6" width="28.115" height="0.366"/>
			<rect x="396.524" y="522.75" fill="#E6E6E6" width="63.274" height="0.366"/>
			<rect x="374.205" y="522.75" fill="#E6E6E6" width="9.277" height="0.366"/>
			<rect x="531.653" y="514.571" fill="#E6E6E6" width="137.227" height="0.366"/>
			<g>
				<path fill="#E6E6E6" d="M351.976,421.684H69.104c-4.61,0-8.362-3.751-8.362-8.362V15.699c0-4.61,3.751-8.361,8.362-8.361
					h282.873c4.609,0,8.361,3.751,8.361,8.361v397.623C360.337,417.933,356.585,421.684,351.976,421.684z M69.104,7.704
					c-4.409,0-7.996,3.586-7.996,7.995v397.623c0,4.41,3.586,7.996,7.996,7.996h282.873c4.408,0,7.995-3.586,7.995-7.996V15.699
					c0-4.409-3.587-7.995-7.995-7.995H69.104z"/>
				<path fill="#E6E6E6" d="M668.832,421.684H385.959c-4.608,0-8.36-3.751-8.36-8.362V15.699c0-4.61,3.752-8.361,8.36-8.361h282.873
					c4.611,0,8.361,3.751,8.361,8.361v397.623C677.193,417.933,673.443,421.684,668.832,421.684z M385.959,7.704
					c-4.407,0-7.994,3.586-7.994,7.995v397.623c0,4.41,3.587,7.996,7.994,7.996h282.873c4.408,0,7.995-3.586,7.995-7.996V15.699
					c0-4.409-3.587-7.995-7.995-7.995H385.959z"/>
			</g>
		</g>
		<g>
			<rect x="364.276" y="361.883" fill="#E0E0E0" width="32.212" height="127.79"/>
			<polygon fill="#FAFAFA" points="390.37,489.673 396.488,489.673 396.488,472.271 383.956,472.271 			"/>
			<rect x="223.124" y="361.883" fill="#E0E0E0" width="32.212" height="127.79"/>
			<rect x="249.997" y="361.883" fill="#FAFAFA" width="146.491" height="117.111"/>
			<path fill="#E0E0E0" d="M391.178,367.639v30.984h-135.87v-30.984H391.178 M391.741,367.072H254.743v32.117h136.999V367.072
				L391.741,367.072z"/>
			<polygon fill="#FAFAFA" points="256.115,489.673 249.997,489.673 249.997,472.271 262.529,472.271 			"/>
			<circle fill="#E6E6E6" cx="323.243" cy="383.132" r="3.24"/>
			<path fill="#E0E0E0" d="M391.178,404.946v30.984h-135.87v-30.984H391.178 M391.741,404.38H254.743v32.116h136.999V404.38
				L391.741,404.38z"/>
			<circle fill="#E6E6E6" cx="323.243" cy="420.438" r="3.24"/>
			<path fill="#E0E0E0" d="M391.178,442.253v30.984h-135.87v-30.984H391.178 M391.741,441.688H254.743v32.116h136.999V441.688
				L391.741,441.688z"/>
			<circle fill="#E6E6E6" cx="323.243" cy="457.746" r="3.24"/>
		</g>
		<g>
			<rect x="203.445" y="287.669" fill="#E0E0E0" width="32.212" height="202.004"/>
			<polygon fill="#FAFAFA" points="229.539,489.673 235.657,489.673 235.657,472.271 223.124,472.271 			"/>
			<rect x="83.055" y="287.669" fill="#E0E0E0" width="32.212" height="202.004"/>
			<rect x="109.927" y="287.669" fill="#FAFAFA" width="125.73" height="191.325"/>
			<path fill="#E0E0E0" d="M230.243,293.085v43.317H115.341v-43.317H230.243 M230.91,292.418H114.673v44.652H230.91V292.418
				L230.91,292.418z"/>
			<path fill="#E0E0E0" d="M230.243,341.668V456.57h-54.73V341.668H230.243 M230.91,341h-56.064v116.237h56.064V341L230.91,341z"/>
			<path fill="#E0E0E0" d="M170.072,341.668V456.57h-54.73V341.668H170.072 M170.739,341h-56.066v116.237h56.066V341L170.739,341z"
				/>
			<polygon fill="#FAFAFA" points="116.045,489.673 109.927,489.673 109.927,472.271 122.461,472.271 			"/>
			<circle fill="#E6E6E6" cx="172.792" cy="314.744" r="3.24"/>
			<circle fill="#E6E6E6" cx="184.392" cy="396.378" r="3.24"/>
			<circle fill="#E6E6E6" cx="161.192" cy="396.378" r="3.24"/>
		</g>
		<path fill="#E0E0E0" d="M154.303,231.346h-13.589c0,0,2.358,12.561,2.358,19.953s-10.336,36.37,4.436,36.37
			s4.436-28.979,4.436-36.37S154.303,231.346,154.303,231.346z"/>
		<path fill="#F5F5F5" d="M102.633,261.054v8.829c0,9.782,8.003,17.786,17.785,17.786h8.829c9.782,0,17.785-8.004,17.785-17.786
			v-8.829H102.633z"/>
		<path fill="#E0E0E0" d="M291.406,343.259c0,10.243,11.473,18.624,25.494,18.624h12.656c14.021,0,25.494-8.381,25.494-18.624
			H291.406z"/>
		<g>
			<path fill="#E0E0E0" d="M626.783,328.266c-7.677,6.266-18.27,17.739-27.979,33.88c-6.465,10.75-10.361,22.013-12.073,36.896
				c0.036-16.846,0.089-34.945,0.147-52.026c1.951-4.396,6.403-14.526,9.599-22.53c10.658-26.707,14.63-33.273,24.219-56.31
				c12.786-30.725,25.89-67.183,22.14-64.27c-7.646,5.937-36.945,60.8-40.112,68.653c-10.894,27.013-13.929,46.702-15.814,65.704
				c0.061-16.042,0.124-30.774,0.184-42.14c0.195-37.075,0.826-49.04,1.134-52.731c1.187-1.875,2.587-4.061,3.4-5.239
				c6.884-9.951,9.536-18.428,16.021-33.27c9.189-21.032,17.104-58.373,14.79-56.488c-9.633,7.841-17.231,24.7-27.216,46.183
				c-9.984,21.482-7.13,33.837-9.11,52.185c-0.416,3.6-0.733,17.188-0.963,36.019c-2.59-20.063-7.449-33.283-16.312-45.297
				c-10.899-14.776-21.447-24.759-29.186-29.971s13.361,31.085,23.452,46.928c8.986,14.109,17.264,26.558,21.93,38.82
				c-0.246,25.521-0.36,57.84-0.362,87.924c-2.313-13.691-6.094-28.434-11.137-39.85c-6.059-13.717-15.38-34.751-22.799-41.889
				c-1.782-1.715,7.758,39.201,13.88,50.082c6.124,10.879,10.618,21.132,14.473,27.3c0.898,1.439,3.881,6.987,5.585,10.179
				c0.018,36.726,0.203,69.131,0.521,80.163h1.589c-0.109-2.847-0.126-21.528-0.092-46.255c3.82-13.426,12.558-28.745,19.77-42.725
				C614.332,362.938,634.459,322,626.783,328.266z"/>
			<g>
				<polygon fill="#F0F0F0" points="608.961,489.673 563.045,489.673 559.58,444.666 612.428,444.666 				"/>
				<polygon fill="#F5F5F5" points="615.85,449.91 556.158,449.91 554.449,434.725 617.558,434.725 				"/>
			</g>
		</g>
		<g>
			<rect x="104.69" y="37.434" fill="#E0E0E0" width="82.111" height="90.164"/>
			<rect x="110.88" y="37.434" fill="#F5F5F5" width="84.814" height="90.164"/>
			<rect x="117.985" y="44.539" fill="#FFFFFF" width="70.604" height="75.954"/>
			<rect x="135.098" y="62.949" fill="#F5F5F5" width="36.377" height="39.133"/>
		</g>
		<g>
			<g>
				<rect x="529.182" y="47.944" fill="#E0E0E0" width="76.278" height="83.759"/>
				<rect x="534.934" y="47.944" fill="#F5F5F5" width="78.788" height="83.759"/>
				<rect x="541.533" y="54.545" fill="#FFFFFF" width="65.588" height="70.558"/>
			</g>
			<circle fill="#F5F5F5" cx="574.327" cy="89.824" r="20.462"/>
		</g>
		<g>
			<g>
				<rect x="211.191" y="91.195" fill="#E0E0E0" width="60.912" height="66.885"/>
				<rect x="215.784" y="91.195" fill="#F5F5F5" width="62.917" height="66.885"/>
				<rect x="221.055" y="96.466" fill="#FFFFFF" width="52.375" height="56.344"/>
				<polygon fill="#F5F5F5" points="247.242,110.395 232.918,135.206 261.566,135.206 				"/>
			</g>
		</g>
	</g>
	<ellipse fill="#F5F5F5" cx="371" cy="536.589" rx="284.03" ry="16.588"/>
	<g>
		<path fill="#E58A7B" d="M516.386,166.25l-14.529-5.892c0,0-19.176,34.972-24.669,36.736c-7.474,2.402-22.93,9.082-32.113,10.333
			c-1.239,1.447-3.28,6.013-3.086,7.675c12.323,4.11,39.394-1.347,45.189-5.65C500.388,199.639,516.386,166.25,516.386,166.25z"/>
		<g>
			<path fill="#407BFF" d="M520.86,158.315c2.704,10.018-11.975,30.143-11.975,30.143l-19.281-10.815c0,0,3.596-8.272,7.996-16.697
				C504.706,147.339,517.775,146.881,520.86,158.315z"/>
			<path opacity="0.2" d="M520.86,158.315c2.704,10.018-11.975,30.143-11.975,30.143l-19.281-10.815c0,0,3.596-8.272,7.996-16.697
				C504.706,147.339,517.775,146.881,520.86,158.315z"/>
		</g>
		<path opacity="0.2" d="M497.293,181.948l7.571,4.245l1.326-23.243C501.794,166.338,498.678,176.529,497.293,181.948z"/>
		<g>
			<path fill="#407BFF" d="M508.207,150.768c0,0-14.972,33.306-6.243,95.332c17.774,0,50.344,0,58.992,0
				c0.938-9.056-2.163-53.231,9.073-95.9c0,0-9.992-2.029-19.602-2.493c-7.516-0.364-18.415-0.605-25.077,0
				C516.566,148.503,508.207,150.768,508.207,150.768z"/>
			<path opacity="0.2" d="M508.207,150.768c0,0-14.972,33.306-6.243,95.332c17.774,0,50.344,0,58.992,0
				c0.938-9.056-2.163-53.231,9.073-95.9c0,0-9.992-2.029-19.602-2.493c-7.516-0.364-18.415-0.605-25.077,0
				C516.566,148.503,508.207,150.768,508.207,150.768z"/>
		</g>
		<path fill="#E8ECF1" d="M494.526,537.912c-0.093,1.574,22.274,2.849,49.955,2.849c27.684,0,50.198-1.274,50.291-2.849
			c0.093-1.571-22.273-2.849-49.956-2.849C517.133,535.063,494.617,536.341,494.526,537.912z"/>
		<polygon fill="#E58A7B" points="544.33,521.734 533.832,525.78 524.813,502.421 535.311,498.375 		"/>
		<polygon fill="#E58A7B" points="580.557,526.65 569.528,526.65 565.481,501.11 576.512,501.11 		"/>
		<path fill="#263238" d="M568.819,525.374h12.392c0.45,0,0.822,0.313,0.894,0.753l1.604,9.804c0.167,1.019-0.688,1.979-1.73,1.962
			c-4.321-0.074-6.407-0.327-11.855-0.327c-3.354,0-10.281,0.347-14.911,0.347c-4.526,0-4.965-4.577-3.045-4.992
			c8.606-1.858,11.959-4.422,14.823-6.868C567.505,525.61,568.159,525.374,568.819,525.374z"/>
		<path fill="#263238" d="M532.1,521.512l11.751-3.416c0.439-0.127,0.892,0.063,1.088,0.457l4.354,8.783
			c0.451,0.91-0.083,2.053-1.104,2.332c-4.256,1.16-7.116,1.889-12.444,3.437c-3.681,1.069-7.424,2.813-11.063,3.973
			c-2.52,0.802-8.434,0.835-11.495,0.835c-4.528,0-5.537-4.773-3.598-4.992c4.912-0.551,5.571-0.295,8.282-1.655
			c4.481-2.249,7.951-4.112,11.831-8.177C530.381,522.38,531.172,521.782,532.1,521.512z"/>
		<path fill="#E58A7B" d="M446.931,207.322l-12.138-5.106l-4.994,13.445c0,0,7.004,1.27,15.002,0L446.931,207.322z"/>
		<polygon fill="#E58A7B" points="425.773,201.886 425.453,210.831 429.799,215.661 434.793,202.216 		"/>
		<g>
			<polygon fill="#CF6F64" points="524.817,502.427 529.465,514.469 539.967,510.422 535.319,498.38 			"/>
			<polygon fill="#CF6F64" points="576.514,501.116 565.481,501.116 567.571,514.282 578.605,514.282 			"/>
		</g>
		<path opacity="0.2" d="M500.092,229.322c0.213,2.649,0.469,5.36,0.783,8.145l43.867-14.241c6.85-2.047,12.811-6.352,16.875-12.238
			c0.166-3.915,0.391-8.024,0.723-12.314c0.15-2.093,0.332-4.23,0.526-6.398c0.212-2.257,0.452-4.561,0.724-6.88L500.092,229.322z"
			/>
		<path fill="#FFFFFF" d="M514.415,181.274l-1.494-0.178c0.87-7.309,6.327-13.087,12.093-12.95l-0.045,1.505
			C519.992,169.508,515.196,174.719,514.415,181.274z"/>
		<path fill="#FFFFFF" d="M522.219,194.801c-0.081,0-0.164-0.001-0.247-0.003l0.045-1.506c5.038,0.185,9.771-5.066,10.555-11.622
			l1.493,0.177C533.206,189.054,527.922,194.801,522.219,194.801z"/>
		<path fill="#E58A7B" d="M549.6,119.468c-2.056,8.069-4.501,22.853,0.828,28.238c0,0-3.723,8.185-18.715,8.185
			c-13.701,0-6.362-8.184-6.362-8.184c9.125-2.148,9.283-8.824,8.083-15.094L549.6,119.468z"/>
		<path fill="#CF6F64" d="M543.008,124.832l-9.567,7.774c0.289,1.484,0.494,2.988,0.513,4.451c2.797,2.786,8.41-4.269,8.985-7.869
			C543.226,127.393,543.251,125.668,543.008,124.832z"/>
		<path fill="#CF6F64" d="M516.999,119.369c1.402,2.512,3.876,4.074,6.214,4.594c3.519,0.783,5.285-2.453,4.314-5.708
			c-0.872-2.932-3.753-6.871-7.288-6.195C516.757,112.725,515.396,116.497,516.999,119.369z"/>
		<path fill="#263238" d="M522.803,93.544c-5.479,2.509-7.408,24.275-0.521,27.493C529.17,124.254,533.182,88.79,522.803,93.544z"/>
		<path fill="#E58A7B" d="M551.27,107.326c-1.31,10.926-1.524,17.354-7.371,22.962c-8.795,8.435-21.988,3.431-23.955-7.474
			c-1.771-9.817,0.672-26.034,11.62-30.382C542.351,88.148,552.582,96.4,551.27,107.326z"/>
		<path fill="#263238" d="M533.273,99.206c8.104-2.074,14.067-3.485,11.939,3.28c-2.836,9.012-6.236,17.744-1.674,18.149
			c2.774,0.247,15.082-4.975,13.52-10.255c-1.363-4.599,4.358-5.84,5.413-8.185c3.799-8.447-7.056-7.35-5.123-12.461
			c1.882-4.977-8.744-13.387-14.631-9.278c-9.53,6.651-25.907,6.556-17.298-4.354c6.167-7.814-4.836-6.209-4.836-6.209
			s6.646,3.941-4.539,10.036C504.188,86.388,515.042,103.869,533.273,99.206z"/>
		<path fill="#E58A7B" d="M555.499,119.369c-1.697,2.512-4.354,4.074-6.754,4.594c-3.61,0.783-4.997-2.453-3.646-5.708
			c1.216-2.932,4.562-6.871,8.017-6.195C556.519,112.725,557.44,116.497,555.499,119.369z"/>
		<path fill="#407BFF" d="M501.964,246.099c0,0-9.901,88.623-10.673,122.257c-0.805,34.984,33.558,144.14,33.558,144.14
			l17.595-7.389c0,0-20.488-99.723-17.642-134.081c3.103-37.456,15.94-124.927,15.94-124.927H501.964z"/>
		<path opacity="0.2" d="M526.573,270.434c-7.889,16.378-2.575,48.76,1.7,67.952c1.625-13.548,3.553-28.256,5.389-41.864
			C533.481,275.597,531.855,259.444,526.573,270.434z"/>
		<path fill="#407BFF" d="M541.648,499.361c0.081-0.035,2.085,5.607,2.085,5.607l-20.28,8.518l-3.194-5.942L541.648,499.361z"/>
		<path fill="#407BFF" d="M522.892,246.099c0,0,7.574,84.289,12.595,115.867c5.498,34.58,27.094,149.767,27.094,149.767h20.202
			c0,0-12.105-112.396-14.391-146.632c-2.482-37.16-7.436-119.001-7.436-119.001H522.892z"/>
		<path fill="#407BFF" d="M583.091,506.469c0.086,0,0.675,5.645,0.675,5.645h-22.204l-1.585-6.482L583.091,506.469z"/>
		<path opacity="0.2" d="M575.351,499.796c-0.096,0-0.176-0.071-0.186-0.167c-0.11-1.021-11.025-102.495-13.079-133.255
			c-2.229-33.382-6.71-107.396-6.756-108.14c-0.006-0.104,0.072-0.193,0.177-0.2c0.003,0,0.009,0,0.012,0
			c0.098,0,0.182,0.077,0.188,0.177c0.045,0.744,4.525,74.758,6.756,108.135c2.052,30.754,12.967,132.221,13.076,133.242
			c0.012,0.103-0.063,0.196-0.166,0.206C575.364,499.796,575.356,499.796,575.351,499.796z"/>
		<path fill="#263238" d="M534.52,110.379c-0.052,0.89-0.565,1.611-1.147,1.611c-0.581,0-1.011-0.721-0.959-1.611
			c0.052-0.889,0.567-1.61,1.148-1.61C534.144,108.769,534.572,109.49,534.52,110.379z"/>
		<path fill="#263238" d="M524.464,110.379c-0.052,0.89-0.564,1.611-1.147,1.611c-0.581,0-1.01-0.721-0.958-1.611
			c0.053-0.889,0.566-1.61,1.147-1.61S524.517,109.49,524.464,110.379z"/>
		<path fill="#DF5753" d="M527.635,110.823c0,0-2.324,5.132-4.695,7.608c1.487,1.469,4.202,0.797,4.202,0.797L527.635,110.823z"/>
		<path fill="#263238" d="M527.89,122.96c-0.143,0-0.255-0.117-0.246-0.261c0.009-0.145,0.133-0.262,0.278-0.262
			c3.904,0,5.887-2.728,5.906-2.755c0.087-0.12,0.252-0.155,0.366-0.076c0.116,0.079,0.141,0.24,0.056,0.361
			C534.162,120.09,532.076,122.96,527.89,122.96z"/>
		<path fill="#263238" d="M536.308,107.674c-0.149,0.058-0.322,0.05-0.461-0.04c-1.923-1.209-3.714-0.399-3.732-0.389
			c-0.245,0.126-0.571,0.016-0.683-0.245c-0.109-0.26,0.02-0.573,0.287-0.699c0.094-0.044,2.338-1.063,4.723,0.439
			c0.238,0.15,0.297,0.472,0.133,0.717C536.508,107.56,536.412,107.633,536.308,107.674z"/>
		<path fill="#263238" d="M520.577,104.752c-0.073-0.02-0.142-0.058-0.2-0.112c-0.203-0.191-0.205-0.521,0-0.737
			c2.045-2.161,4.416-1.832,4.515-1.817c0.278,0.031,0.465,0.308,0.405,0.595c-0.059,0.284-0.336,0.48-0.616,0.439l0,0
			c-0.079-0.012-1.931-0.247-3.564,1.477C520.972,104.75,520.759,104.804,520.577,104.752z"/>
		<path fill="#E58A7B" d="M575.691,164.617l-15.24-4.057c0,0-14.942,36.78-20.22,39.182c-7.181,3.269-25.368,14.572-33.096,20.022
			c-0.428,1.821-0.092,6.68,0.881,8.003c13.142-2.389,38.424-12.109,43.696-17.048C563.735,199.455,575.691,164.617,575.691,164.617
			z"/>
		<path fill="#407BFF" d="M565.059,527.299c-0.839,0-1.615-0.143-2.09-0.561c-0.378-0.333-0.531-0.798-0.461-1.382
			c0.054-0.435,0.297-0.641,0.491-0.738c1.245-0.625,4.686,1.559,5.075,1.81c0.084,0.057,0.126,0.162,0.103,0.266
			c-0.023,0.103-0.106,0.186-0.209,0.211C567.191,527.089,566.078,527.299,565.059,527.299z M563.555,525.018
			c-0.137,0-0.253,0.021-0.344,0.065c-0.073,0.037-0.158,0.105-0.182,0.307c-0.051,0.416,0.047,0.727,0.298,0.948
			c0.571,0.51,2.01,0.576,3.903,0.198C566.028,525.815,564.398,525.018,563.555,525.018z"/>
		<path fill="#407BFF" d="M567.905,526.912c-0.042,0-0.085-0.011-0.122-0.03c-1.105-0.622-3.17-3.038-2.864-4.269
			c0.055-0.221,0.242-0.606,0.872-0.684c0.411-0.052,0.776,0.063,1.093,0.336c1.22,1.046,1.298,4.229,1.299,4.364
			c0.003,0.096-0.049,0.188-0.132,0.238C568.007,526.897,567.957,526.912,567.905,526.912z M565.942,522.441
			c-0.039,0-0.078,0.004-0.118,0.007c-0.343,0.042-0.381,0.198-0.396,0.263c-0.183,0.727,1.116,2.554,2.201,3.415
			c-0.075-0.931-0.317-2.785-1.101-3.456C566.352,522.517,566.158,522.441,565.942,522.441z"/>
		<path fill="#407BFF" d="M526.159,525.478c-1.078,0.261-2.106,0.338-2.763-0.019c-0.418-0.226-0.658-0.604-0.712-1.118
			c-0.034-0.307,0.068-0.575,0.298-0.775c1.18-1.052,5.958,0.077,6.5,0.21c0.105,0.025,0.181,0.117,0.185,0.228
			c0.006,0.112-0.061,0.216-0.164,0.265C528.615,524.672,527.356,525.188,526.159,525.478z M523.777,523.736
			c-0.2,0.049-0.358,0.117-0.462,0.209c-0.092,0.083-0.126,0.176-0.112,0.312c0.039,0.349,0.19,0.592,0.464,0.741
			c0.778,0.422,2.585,0.088,4.909-0.886C526.941,523.771,524.806,523.486,523.777,523.736z"/>
		<path fill="#407BFF" d="M529.454,524.283c-0.038,0.009-0.073,0.009-0.111,0.004c-1.418-0.263-4.45-1.947-4.478-3.21
			c-0.008-0.294,0.13-0.698,0.825-0.938c0.503-0.188,1.022-0.151,1.509,0.088c1.591,0.785,2.423,3.598,2.459,3.718
			c0.024,0.088,0,0.183-0.063,0.255C529.557,524.242,529.507,524.271,529.454,524.283z M525.99,520.584
			c-0.05,0.012-0.102,0.028-0.152,0.046c-0.455,0.158-0.451,0.345-0.449,0.406c0.017,0.757,2.123,2.147,3.608,2.616
			c-0.296-0.809-1.008-2.44-2.051-2.953C526.631,520.543,526.316,520.504,525.99,520.584z"/>
		<path fill="#E58A7B" d="M508.377,218.9l-15.275,7.031l-1.773,4.311l5.646,3.798c0,0,10.536-1.146,13.537-7.917L508.377,218.9z"/>
		<path fill="#263238" d="M509.026,228.017c-0.956-5.675-2.821-8.264-2.839-8.29l2.408-1.806c0.095,0.124,2.31,3.113,3.401,9.595
			L509.026,228.017z"/>
		
			<ellipse transform="matrix(0.9271 -0.3748 0.3748 0.9271 -46.1279 206.9436)" fill="#263238" cx="508.954" cy="222.059" rx="2.886" ry="2.393"/>
		<polygon fill="#E58A7B" points="482.778,231.609 484.808,233.665 498.515,227.802 493.102,225.931 		"/>
		<path opacity="0.2" d="M541.648,499.361c0.081-0.035,2.085,5.607,2.085,5.607l-20.28,8.518l-3.194-5.942L541.648,499.361z"/>
		<path opacity="0.2" d="M583.091,506.469c0.086,0,0.675,5.645,0.675,5.645h-22.204l-1.585-6.482L583.091,506.469z"/>
		<g>
			<path fill="#407BFF" d="M579.664,160.401c4.031,12.99-11.661,30.734-11.661,30.734l-21.75-8.877c0,0,3.066-9.438,8.897-22.08
				C561.779,145.808,575.596,147.292,579.664,160.401z"/>
			<path opacity="0.2" d="M579.664,160.401c4.031,12.99-11.661,30.734-11.661,30.734l-21.75-8.877c0,0,3.066-9.438,8.897-22.08
				C561.779,145.808,575.596,147.292,579.664,160.401z"/>
		</g>
	</g>
	<g>
		<rect x="354.135" y="30.215" fill="#407BFF" width="9.357" height="1.505"/>
		
			<rect x="484.112" y="89.953" transform="matrix(0.999 0.0455 -0.0455 0.999 5.1633 -21.939)" fill="#407BFF" width="1.504" height="25.162"/>
		<polygon fill="#407BFF" points="481.766,36.989 308.909,36.989 292.817,396.946 465.674,396.946 		"/>
		<polygon opacity="0.56" fill="#FAFAFA" points="476.604,41.929 303.748,41.929 287.657,401.886 460.514,401.886 		"/>
		<polygon opacity="0.07" fill="#407BFF" points="471.445,46.868 298.588,46.868 282.497,406.824 455.354,406.824 		"/>
		<polygon fill="#FFFFFF" points="451.77,203.86 304.228,203.86 302.996,231.41 450.539,231.41 		"/>
		<polygon fill="#407BFF" points="385.377,183.768 305.125,183.768 304.575,196.094 384.826,196.094 		"/>
		<polygon fill="#FFFFFF" points="448.446,278.195 300.904,278.195 299.673,305.744 447.216,305.744 		"/>
		<polygon opacity="0.47" fill="#407BFF" points="421.391,342.925 322.173,342.925 320.697,375.942 419.914,375.942 		"/>
		<path fill="#FFFFFF" d="M414.753,381.058h-99.215c-0.047,0-0.093-0.021-0.126-0.056c-0.032-0.034-0.05-0.08-0.048-0.127
			l1.477-33.02c0.003-0.093,0.081-0.167,0.173-0.167h99.215c0.048,0,0.094,0.021,0.128,0.055c0.032,0.034,0.051,0.081,0.046,0.128
			l-1.476,33.018C414.925,380.984,414.846,381.058,414.753,381.058z M315.72,380.708h98.867l1.461-32.669h-98.869L315.72,380.708z"
			/>
		<polygon fill="#407BFF" points="368.038,258.103 301.802,258.103 301.252,270.428 367.486,270.428 		"/>
		<path fill="#FFFFFF" d="M419.497,114.9c-0.37,8.25-3.36,15.867-8.152,22.053c-7.238,9.379-18.575,15.476-31.054,15.476
			c-12.48,0-23.257-6.097-29.657-15.476c-4.239-6.187-6.549-13.804-6.18-22.053c0.926-20.729,18.477-37.529,39.19-37.529
			C404.374,77.371,420.424,94.171,419.497,114.9z"/>
		<path fill="#407BFF" d="M423.027,85.228c-0.099,2.191-0.894,4.216-2.168,5.86c-1.922,2.492-4.935,4.112-8.251,4.112
			c-3.315,0-6.179-1.62-7.879-4.112c-1.126-1.644-1.74-3.668-1.644-5.86c0.246-5.508,4.91-9.972,10.415-9.972
			C419.009,75.255,423.273,79.719,423.027,85.228z"/>
		<path fill="#263238" d="M320.116,217.635c-0.108,2.438-2.174,4.415-4.611,4.415c-2.438,0-4.326-1.976-4.217-4.415
			c0.109-2.438,2.174-4.414,4.612-4.414C318.337,213.221,320.226,215.197,320.116,217.635z"/>
		<path fill="#263238" d="M339.874,217.635c-0.108,2.438-2.173,4.415-4.611,4.415c-2.439,0-4.326-1.976-4.218-4.415
			c0.109-2.438,2.174-4.414,4.611-4.414C338.095,213.221,339.983,215.197,339.874,217.635z"/>
		<path fill="#263238" d="M359.632,217.635c-0.109,2.438-2.174,4.415-4.611,4.415c-2.438,0-4.326-1.976-4.217-4.415
			c0.108-2.438,2.173-4.414,4.612-4.414C357.853,213.221,359.74,215.197,359.632,217.635z"/>
		<path fill="#263238" d="M316.793,291.969c-0.108,2.438-2.174,4.415-4.611,4.415s-4.326-1.977-4.217-4.415
			c0.11-2.438,2.174-4.415,4.612-4.415C315.014,287.554,316.903,289.53,316.793,291.969z"/>
		<path fill="#263238" d="M336.551,291.969c-0.109,2.438-2.174,4.415-4.611,4.415c-2.439,0-4.326-1.977-4.218-4.415
			c0.109-2.438,2.174-4.415,4.612-4.415S336.66,289.53,336.551,291.969z"/>
		<path fill="#263238" d="M356.309,291.969c-0.109,2.438-2.174,4.415-4.611,4.415c-2.438,0-4.326-1.977-4.217-4.415
			s2.173-4.415,4.612-4.415C354.53,287.554,356.418,289.53,356.309,291.969z"/>
		<path fill="#263238" d="M376.066,291.969c-0.109,2.438-2.174,4.415-4.612,4.415s-4.326-1.977-4.217-4.415
			c0.109-2.438,2.174-4.415,4.611-4.415C374.288,287.554,376.177,289.53,376.066,291.969z"/>
		<path fill="#263238" d="M395.824,291.969c-0.11,2.438-2.174,4.415-4.611,4.415c-2.438,0-4.327-1.977-4.217-4.415
			c0.108-2.438,2.172-4.415,4.611-4.415C394.045,287.554,395.934,289.53,395.824,291.969z"/>
		<g>
			<path fill="#407BFF" d="M397.715,102.356c-0.376,8.383-7.475,15.179-15.856,15.179c-8.384,0-14.875-6.795-14.501-15.179
				c0.375-8.382,7.474-15.179,15.857-15.179C391.598,87.178,398.09,93.974,397.715,102.356z"/>
			<path fill="#407BFF" d="M411.345,136.954c-7.238,9.379-18.575,15.476-31.054,15.476c-12.48,0-23.257-6.097-29.657-15.476
				c7.121-7.09,18.392-11.696,30.871-11.696C393.999,125.257,404.857,129.864,411.345,136.954z"/>
			<path opacity="0.1" fill="#FFFFFF" d="M397.715,102.356c-0.376,8.383-7.475,15.179-15.856,15.179
				c-8.384,0-14.875-6.795-14.501-15.179c0.375-8.382,7.474-15.179,15.857-15.179C391.598,87.178,398.09,93.974,397.715,102.356z"/>
			<path opacity="0.1" fill="#FFFFFF" d="M411.345,136.954c-7.238,9.379-18.575,15.476-31.054,15.476
				c-12.48,0-23.257-6.097-29.657-15.476c7.121-7.09,18.392-11.696,30.871-11.696C393.999,125.257,404.857,129.864,411.345,136.954z
				"/>
		</g>
	</g>
	<g>
		<g>
			<path fill="#E58A7B" d="M195.808,238.047c-1.388,3.042-2.847,6.391-4.13,9.656c-1.292,3.296-2.581,6.595-3.705,9.94
				c-2.183,6.69-4.23,13.445-5.236,20.216l-0.334,2.157c-0.025,0.259-0.006,0.628,0.107,1.091c0.215,0.931,0.795,2.175,1.61,3.398
				c1.649,2.471,3.987,4.974,6.508,7.297c2.517,2.361,5.248,4.617,8.086,6.761c2.812,2.161,5.776,4.279,8.678,6.263l-2.73,5.14
				c-6.97-3.046-13.461-6.69-19.748-11.262c-3.09-2.356-6.144-4.893-8.848-8.32c-1.333-1.729-2.644-3.681-3.502-6.257
				c-0.417-1.288-0.706-2.743-0.708-4.315c0.01-0.362,0.029-0.87,0.054-1.114l0.073-0.728l0.146-1.456
				c0.796-7.765,2.517-15.229,4.783-22.468c1.142-3.615,2.362-7.193,3.754-10.706c1.42-3.536,2.823-6.928,4.599-10.486
				L195.808,238.047z"/>
			<path fill="#E58A7B" d="M205.338,303.953l10.352-5.251l-2.675,11.377c0,0-7.107,1.984-10.413-1.465L205.338,303.953z"/>
			<polygon fill="#E58A7B" points="225.17,300.568 222.416,309.973 213.015,310.079 215.69,298.702 			"/>
			<path fill="#DF5753" d="M239.792,183.198c0,0,0.898,3.302,2.322,5.792c-1.224,1.142-2.322,0.745-2.322,0.745V183.198z"/>
			<ellipse fill="#263238" cx="239.485" cy="181.605" rx="1.097" ry="1.679"/>
			<path fill="#263238" d="M239.217,179.978l2.227-0.642C241.444,179.336,240.301,181.076,239.217,179.978z"/>
			<path fill="#E58A7B" d="M211.174,193.942c1.336,6.82,2.67,19.315-2.1,23.866c0,0,1.864,6.917,14.536,6.917
				c13.934,0,6.659-6.917,6.659-6.917c-7.605-1.816-7.408-7.458-6.083-12.757L211.174,193.942z"/>
			<path fill="#E58A7B" d="M207.476,178.423c0.699,11.385,0.752,16.218,6.502,22.062c8.649,8.79,22.479,5.442,25.196-5.923
				c2.445-10.229,0.891-27.128-10.252-31.659C217.941,158.439,206.777,167.039,207.476,178.423z"/>
			<path fill="#263238" d="M208.598,165.542c-5.709,2.081-13.325,0.532-10.336,18.154c3.165,18.657-1.707,24.796-1.707,24.796
				s21.668,4.617,43.789-0.276c0,0-6.753-11.811-4.858-20.428c2.417-10.992,0.502-15.054,0.502-15.054
				S216.626,162.615,208.598,165.542z"/>
			<path fill="#E58A7B" d="M232.771,184.357c-0.023,2.255,0.768,4.528,1.793,6.106c1.543,2.375,3.374,1.407,3.833-1.058
				c0.412-2.218,0.106-6.126-1.87-7.642C234.581,180.271,232.798,181.778,232.771,184.357z"/>
			<path fill="#263238" d="M203.64,167.534c-1.648-4.606,6.18-11.693,22.73-8.746c16.549,2.947,17.276,16.712,17.276,16.712
				l-3.35-3.974l0.151,4.186l-17.009,3.268L203.64,167.534z"/>
			<g>
				<path fill="#407BFF" d="M205.042,218.583L205.042,218.583c-0.229-1.408,0.717-2.734,2.124-2.966
					c5.155-0.851,16.867-2.575,22.764-1.758c4.38,0.607,5.538,3.165,5.723,5.256c0.137,1.552-1.146,2.859-2.701,2.789l-25.474-1.151
					C206.255,220.698,205.238,219.792,205.042,218.583z"/>
				<path opacity="0.6" d="M205.042,218.583L205.042,218.583c-0.229-1.408,0.717-2.734,2.124-2.966
					c5.155-0.851,16.867-2.575,22.764-1.758c4.38,0.607,5.538,3.165,5.723,5.256c0.137,1.552-1.146,2.859-2.701,2.789l-25.474-1.151
					C206.255,220.698,205.238,219.792,205.042,218.583z"/>
			</g>
			<polygon fill="#E58A7B" points="219.764,474.511 229.204,481.065 245.013,459.641 235.572,453.087 			"/>
			<polygon fill="#E58A7B" points="197.723,474.078 207.71,479.766 221.703,457.106 211.716,451.418 			"/>
			<g>
				<polygon fill="#CF6F64" points="245.006,459.645 236.86,470.689 227.415,464.133 235.563,453.088 				"/>
				<polygon fill="#CF6F64" points="211.709,451.424 221.701,457.113 214.483,468.79 204.492,463.101 				"/>
			</g>
			<g>
				<path fill="#407BFF" d="M227.728,290.118c0,0,36.888,46.489,29.967,90.944c-5.589,35.907-37.959,84.529-37.959,84.529
					l-15.221-7.564c0,0,16.537-32.313,27.396-66.568c4.553-14.363,2.612-30.189-5.901-42.624
					c-18.685-27.292-48.62-11.053-28.483-58.717H227.728z"/>
				<path opacity="0.6" d="M227.728,290.118c0,0,36.888,46.489,29.967,90.944c-5.589,35.907-37.959,84.529-37.959,84.529
					l-15.221-7.564c0,0,16.537-32.313,27.396-66.568c4.553-14.363,2.612-30.189-5.901-42.624
					c-18.685-27.292-48.62-11.053-28.483-58.717H227.728z"/>
			</g>
			<path opacity="0.4" d="M245.822,319.99l-5.36-5.329c0,0.421,10.388,64.534,13.308,82.555c1.761-5.525,3.116-10.975,3.929-16.153
				C261.087,359.295,253.966,337.031,245.822,319.99z"/>
			<g>
				<path fill="#407BFF" d="M244.203,290.118c0,0,44.415,58.42,45.664,93.453c1.046,29.354-48.38,86.057-48.38,86.057l-14.349-9.283
					c0,0,28.901-40.311,36.177-73.261c-2.774-32.616-62.32-96.966-62.32-96.966H244.203z"/>
				<path opacity="0.6" d="M244.203,290.118c0,0,44.415,58.42,45.664,93.453c1.046,29.354-48.38,86.057-48.38,86.057l-14.349-9.283
					c0,0,28.901-40.311,36.177-73.261c-2.774-32.616-62.32-96.966-62.32-96.966H244.203z"/>
			</g>
			<path fill="#407BFF" d="M189.252,220.42c-4.756,1.123-9.302,18.389-9.302,18.389l18.55,12.383c0,0,6.182-13.647,4.023-19.626
				C200.276,225.34,195.259,219.003,189.252,220.42z"/>
			<path opacity="0.2" d="M192.883,231.53l-1.296,15.042l6.907,4.622c0,0,3.236-7.15,4.2-13.382L192.883,231.53z"/>
			<path fill="#407BFF" d="M249.695,220.752c0,0,5.475,1.93-5.492,69.366c-18.522,0-37.664,0-46.676,0
				c0.783-18.998,0.806-30.712-8.275-69.698c0,0,9.781-2.128,19.822-2.612c7.854-0.378,14.29-0.629,21.194,0.001
				C239.372,218.64,249.695,220.752,249.695,220.752z"/>
			<path fill="#E58A7B" d="M254.436,231.461c1.058,2.923,2.176,6.083,3.34,9.12c1.117,3.082,2.279,6.155,3.475,9.218l3.592,9.202
				l0.908,2.3l0.457,1.149l0.228,0.574c0.04,0.104,0.032,0.094,0.017,0.083c-0.063-0.027-0.117-0.318-1.025-0.914
				c-0.446-0.276-1.192-0.543-1.913-0.559c-0.725-0.026-1.3,0.15-1.629,0.295c-0.66,0.315-0.671,0.45-0.656,0.429
				c0.042-0.022,0.178-0.153,0.329-0.333c0.64-0.769,1.413-2.095,2.093-3.414c0.693-1.343,1.347-2.779,2-4.234
				c1.296-2.921,2.476-5.966,3.676-9.019c1.187-3.06,2.304-6.165,3.412-9.28l3.334-9.349l5.645,1.423
				c-1.117,6.688-2.56,13.237-4.282,19.811c-0.84,3.292-1.813,6.559-2.926,9.855c-0.554,1.651-1.174,3.298-1.886,4.977
				c-0.74,1.692-1.474,3.359-2.784,5.298c-0.343,0.491-0.735,1.008-1.277,1.581c-0.575,0.562-1.239,1.242-2.669,1.884
				c-0.712,0.307-1.703,0.578-2.845,0.532c-1.138-0.033-2.292-0.436-3.09-0.931c-1.624-1.037-2.185-2.025-2.665-2.767
				c-0.223-0.372-0.414-0.756-0.544-1.033l-0.279-0.568l-0.556-1.137l-1.108-2.275c-1.447-3.048-2.866-6.113-4.21-9.213
				c-1.33-3.104-2.626-6.228-3.883-9.376c-1.205-3.194-2.393-6.289-3.451-9.688L254.436,231.461z"/>
			<path fill="#407BFF" d="M249.695,220.752c5.611,1.337,11.915,17.913,11.915,17.913l-16.673,14.208c0,0-10.806-18.075-8.62-24.043
				C238.592,222.614,242.367,219.006,249.695,220.752z"/>
			<path fill="#E58A7B" d="M278.675,221.562l5.852-4.895l4.071,6.342l-2.999,5.296c0,0-4.775,4.37-9.004,2.147l0,0
				C275.232,227.355,276.08,223.732,278.675,221.562z"/>
			<polygon fill="#E58A7B" points="295.149,216.682 294.711,218.277 285.441,219.833 284.526,216.667 			"/>
			<polygon fill="#407BFF" points="242.677,470.397 225.949,459.577 228.944,454.368 247.744,465.924 			"/>
			<path fill="#263238" d="M214.23,479c-1.33,0-3.082-0.844-4.141-1.434c-0.095-0.054-0.149-0.157-0.139-0.266
				c0.01-0.107,0.085-0.199,0.188-0.232c0.451-0.143,4.419-1.358,5.543-0.415c0.177,0.15,0.375,0.425,0.312,0.883
				c-0.083,0.609-0.36,1.037-0.826,1.27C214.897,478.941,214.579,479,214.23,479z M210.936,477.401
				c1.82,0.926,3.284,1.268,3.989,0.917c0.299-0.149,0.473-0.429,0.532-0.855c0.031-0.229-0.05-0.33-0.125-0.392
				C214.742,476.574,212.541,476.96,210.936,477.401z"/>
			<path fill="#263238" d="M210.221,477.601c-0.073,0-0.144-0.03-0.195-0.083c-0.068-0.069-0.093-0.17-0.066-0.264
				c0.039-0.134,0.953-3.315,2.457-4.041c0.401-0.191,0.809-0.203,1.207-0.037c0.634,0.267,0.695,0.729,0.675,0.982
				c-0.103,1.317-2.788,3.135-4.011,3.434C210.265,477.599,210.243,477.601,210.221,477.601z M213.061,473.604
				c-0.135,0-0.271,0.034-0.409,0.101c-0.896,0.432-1.649,2.149-2.009,3.192c1.289-0.542,3.049-1.979,3.112-2.782
				c0.01-0.13-0.02-0.301-0.343-0.435C213.295,473.629,213.177,473.604,213.061,473.604z"/>
			<path fill="#263238" d="M235.157,485.33c-1.649,0-3.95-2.119-5.209-3.423c-0.081-0.083-0.1-0.208-0.048-0.311
				c0.053-0.104,0.185-0.162,0.278-0.149c0.579,0.075,5.674,0.763,6.395,2.202c0.138,0.276,0.127,0.574-0.034,0.856
				c-0.269,0.476-0.661,0.747-1.16,0.811C235.306,485.325,235.231,485.33,235.157,485.33z M230.912,482.104
				c1.851,1.8,3.47,2.795,4.399,2.67c0.325-0.039,0.571-0.216,0.754-0.537c0.071-0.123,0.077-0.23,0.02-0.343
				C235.693,483.109,232.974,482.435,230.912,482.104z"/>
			<path fill="#263238" d="M231.072,482.059c-0.376,0-0.712-0.023-0.979-0.073c-0.094-0.018-0.172-0.085-0.206-0.173
				c-0.032-0.092-0.016-0.192,0.046-0.268c0.083-0.102,2.065-2.49,3.938-2.655c0.586-0.046,1.081,0.11,1.506,0.474
				c0.577,0.493,0.536,0.933,0.401,1.213C235.315,481.554,232.784,482.059,231.072,482.059z M230.695,481.509
				c1.637,0.092,4.253-0.452,4.594-1.166c0.029-0.06,0.116-0.24-0.263-0.566c-0.316-0.27-0.683-0.384-1.105-0.345
				C232.689,479.541,231.318,480.846,230.695,481.509z"/>
			<path fill="#407BFF" d="M210.624,476.059l-12.425-3.513c-0.452-0.127-0.908,0.082-1.096,0.506l-4.194,9.43
				c-0.436,0.979,0.169,2.191,1.217,2.469c4.352,1.149,6.512,1.486,11.976,3.03c3.361,0.95,8.174,2.688,12.816,4.001
				c4.54,1.283,6.187-3.21,4.371-4.171c-8.14-4.314-8.783-7.271-11.009-10.551C211.878,476.669,211.285,476.246,210.624,476.059z"/>
			<path fill="#407BFF" d="M230.287,480.197l-10.606-7.363c-0.386-0.27-0.885-0.217-1.201,0.121l-7.034,7.553
				c-0.729,0.784-0.553,2.127,0.348,2.729c3.742,2.503,5.675,3.523,10.338,6.763c2.87,1.991,8.599,6.41,12.561,9.161
				c3.876,2.691,6.894-1.021,5.491-2.521c-6.293-6.729-7.682-10.944-8.721-14.769C231.274,481.183,230.851,480.59,230.287,480.197z"
				/>
			<polygon fill="#407BFF" points="221.688,466.563 202.562,457.056 204.542,451.882 224.957,461.888 			"/>
			<g>
				<path fill="#407BFF" d="M196.828,287.378l-1.618,4.18c-0.164,0.323,0.22,0.654,0.759,0.654h48.465
					c0.42,0,0.77-0.205,0.796-0.472l0.421-4.178c0.028-0.289-0.336-0.535-0.796-0.535h-47.267
					C197.24,287.027,196.933,287.171,196.828,287.378z"/>
				<path opacity="0.4" fill="#FFFFFF" d="M196.828,287.378l-1.618,4.18c-0.164,0.323,0.22,0.654,0.759,0.654h48.465
					c0.42,0,0.77-0.205,0.796-0.472l0.421-4.178c0.028-0.289-0.336-0.535-0.796-0.535h-47.267
					C197.24,287.027,196.933,287.171,196.828,287.378z"/>
			</g>
			<g>
				<path fill="#407BFF" d="M204.451,292.664h-1.266c-0.252,0-0.444-0.13-0.427-0.289l0.594-5.428
					c0.018-0.16,0.238-0.288,0.489-0.288h1.266c0.253,0,0.444,0.128,0.427,0.288l-0.594,5.428
					C204.923,292.534,204.702,292.664,204.451,292.664z"/>
				<path fill="#407BFF" d="M234.344,292.664h-1.266c-0.251,0-0.443-0.13-0.426-0.289l0.593-5.428
					c0.017-0.16,0.238-0.288,0.49-0.288h1.266c0.251,0,0.444,0.128,0.426,0.288l-0.594,5.428
					C234.816,292.534,234.597,292.664,234.344,292.664z"/>
			</g>
		</g>
		<g>
			<g>
				<path fill="#F5F5F5" d="M164.089,537.912c-0.073,1.572,17.44,2.849,39.116,2.85c21.674,0.002,39.305-1.272,39.376-2.845
					c0.072-1.574-17.44-2.85-39.116-2.851C181.791,535.063,164.161,536.339,164.089,537.912z"/>
				<path fill="#E0E0E0" d="M227.252,533.896c-6.944-2.016-14.586-4.613-19.315-7.375c-0.132-0.077-0.27-0.132-0.404-0.2V494.93
					H221.5c2.31,0,4.182-1.873,4.182-4.183s-1.872-4.182-4.182-4.182h-13.966V343.264h-8.363v143.302h-13.967
					c-2.31,0-4.182,1.872-4.182,4.182s1.872,4.183,4.182,4.183h13.967v31.389c-0.134,0.071-0.273,0.126-0.405,0.203
					c-4.729,2.762-12.37,5.359-19.315,7.375c-2.277,0.662-1.797,4.016,0.576,4.016h23.326h23.326
					C229.05,537.912,229.531,534.559,227.252,533.896z"/>
			</g>
			<g>
				<path fill="#407BFF" d="M229.401,359.348h-52.099c-4.174,0-7.588-3.415-7.588-7.589v-15.488c0-4.174,3.414-7.589,7.588-7.589
					h52.099c4.173,0,7.588,3.415,7.588,7.589v15.488C236.99,355.933,233.575,359.348,229.401,359.348z"/>
				<g>
					<path fill="#407BFF" d="M176.822,359.348v2.665c0,2.199,2.393,3.996,5.315,3.996h42.429c2.923,0,5.314-1.797,5.314-3.996
						v-2.665H176.822z"/>
					<path opacity="0.3" fill="#FFFFFF" d="M176.822,359.348v2.665c0,2.199,2.393,3.996,5.315,3.996h42.429
						c2.923,0,5.314-1.797,5.314-3.996v-2.665H176.822z"/>
				</g>
			</g>
		</g>
	</g>
</g>
</svg>
