<?xml version="1.0" encoding="utf-8"?>
<!-- Generator: Adobe Illustrator 16.0.0, SVG Export Plug-In . SVG Version: 6.00 Build 0)  -->
<!DOCTYPE svg PUBLIC "-//W3C//DTD SVG 1.1//EN" "http://www.w3.org/Graphics/SVG/1.1/DTD/svg11.dtd">
<svg version="1.1" id="Layer_1" xmlns="http://www.w3.org/2000/svg" xmlns:xlink="http://www.w3.org/1999/xlink" x="0px" y="0px"
	 width="942.542px" height="607px" viewBox="0 0 942.542 607" enable-background="new 0 0 942.542 607" xml:space="preserve">
<g>
	<g>
		<path fill="none" stroke="#9DD4F9" stroke-linejoin="round" stroke-miterlimit="10" stroke-dasharray="3.5" d="M899.261,249.823
			c-15.245-13.006-35.277-21.818-58.827-24.996c-48.01-6.481-90.869,24.135-138.366,18.589
			c-34.501-4.03-55.991-22.594-66.517-52.295c-26.613-75.09-72.863-103.821-124.275-107.338
			c-17.353-1.187-42.399,6.897-60.494,18.938c-22.178,14.76-38.347,10.688-62.028,4.221
			c-49.456-13.505-100.786-27.551-148.437-0.108c-39.408,22.694-44.31,57.716-47.7,99.783
			c-3.246,40.256-27.753,69.576-58.711,93.188C104.31,322.38,64.003,341.552,44,374.101c-31.047,50.52,5.762,115.679,57.237,134.116
			c72.909,26.116,131.128,11.756,205.631-0.617c29.628-4.922,60.405-8.405,90.17-2.581c28.653,5.604,55.784,21.066,85.824,17.229
			c32.452-4.146,53.443-37.067,83.943-48.901c28.766-11.158,58.872-1.586,87.398,5.121c59.049,13.883,142.75-3.118,196.018-33.216
			c36.229-20.47,67.43-52.954,77.729-94.18C938.356,309.43,926.399,272.978,899.261,249.823z"/>
		<g>
			
				<line fill="none" stroke="#9DD4F9" stroke-linejoin="round" stroke-miterlimit="10" x1="855.718" y1="194.013" x2="855.718" y2="200.609"/>
			
				<line fill="none" stroke="#9DD4F9" stroke-linejoin="round" stroke-miterlimit="10" x1="859.017" y1="197.311" x2="852.42" y2="197.311"/>
		</g>
		<g>
			
				<line fill="none" stroke="#9DD4F9" stroke-linejoin="round" stroke-miterlimit="10" x1="909.996" y1="479.095" x2="909.996" y2="485.69"/>
			
				<line fill="none" stroke="#9DD4F9" stroke-linejoin="round" stroke-miterlimit="10" x1="913.293" y1="482.392" x2="906.698" y2="482.392"/>
		</g>
		<g>
			
				<line fill="none" stroke="#9DD4F9" stroke-linejoin="round" stroke-miterlimit="10" x1="727.753" y1="420.38" x2="727.753" y2="426.977"/>
			
				<line fill="none" stroke="#9DD4F9" stroke-linejoin="round" stroke-miterlimit="10" x1="731.051" y1="423.679" x2="724.455" y2="423.679"/>
		</g>
		<g>
			
				<line fill="none" stroke="#9DD4F9" stroke-linejoin="round" stroke-miterlimit="10" x1="349.936" y1="149.235" x2="349.936" y2="155.832"/>
			
				<line fill="none" stroke="#9DD4F9" stroke-linejoin="round" stroke-miterlimit="10" x1="353.233" y1="152.533" x2="346.637" y2="152.533"/>
		</g>
		<g>
			
				<line fill="none" stroke="#9DD4F9" stroke-linejoin="round" stroke-miterlimit="10" x1="208.194" y1="94.641" x2="208.194" y2="101.237"/>
			
				<line fill="none" stroke="#9DD4F9" stroke-linejoin="round" stroke-miterlimit="10" x1="211.492" y1="97.938" x2="204.896" y2="97.938"/>
		</g>
		<g>
			
				<line fill="none" stroke="#9DD4F9" stroke-linejoin="round" stroke-miterlimit="10" x1="26.419" y1="274.922" x2="26.419" y2="281.519"/>
			
				<line fill="none" stroke="#9DD4F9" stroke-linejoin="round" stroke-miterlimit="10" x1="29.717" y1="278.22" x2="23.121" y2="278.22"/>
		</g>
		<g>
			
				<line fill="none" stroke="#9DD4F9" stroke-linejoin="round" stroke-miterlimit="10" x1="62.457" y1="516.176" x2="62.457" y2="522.772"/>
			
				<line fill="none" stroke="#9DD4F9" stroke-linejoin="round" stroke-miterlimit="10" x1="65.755" y1="519.475" x2="59.159" y2="519.475"/>
		</g>
		<g>
			
				<line fill="none" stroke="#9DD4F9" stroke-linejoin="round" stroke-miterlimit="10" x1="467.132" y1="95.556" x2="467.132" y2="102.152"/>
			
				<line fill="none" stroke="#9DD4F9" stroke-linejoin="round" stroke-miterlimit="10" x1="470.431" y1="98.854" x2="463.833" y2="98.854"/>
		</g>
		<circle fill="none" stroke="#9DD4F9" stroke-linejoin="round" stroke-miterlimit="10" cx="341.798" cy="36.667" r="3.149"/>
		<circle fill="none" stroke="#9DD4F9" stroke-linejoin="round" stroke-miterlimit="10" cx="625.45" cy="72.33" r="3.149"/>
		<circle fill="none" stroke="#9DD4F9" stroke-linejoin="round" stroke-miterlimit="10" cx="160.954" cy="183.532" r="3.15"/>
		<circle fill="none" stroke="#9DD4F9" stroke-linejoin="round" stroke-miterlimit="10" cx="780.479" cy="159.029" r="3.149"/>
		<circle fill="none" stroke="#9DD4F9" stroke-linejoin="round" stroke-miterlimit="10" cx="894.031" cy="285.617" r="3.149"/>
		<circle fill="none" stroke="#9DD4F9" stroke-linejoin="round" stroke-miterlimit="10" cx="3.15" cy="370.613" r="3.15"/>
		<circle fill="none" stroke="#9DD4F9" stroke-linejoin="round" stroke-miterlimit="10" cx="238.808" cy="315.933" r="3.149"/>
		<g>
			
				<line fill="none" stroke="#9DD4F9" stroke-linejoin="round" stroke-miterlimit="10" x1="62.457" y1="197.311" x2="98.028" y2="197.311"/>
			
				<line fill="none" stroke="#9DD4F9" stroke-linejoin="round" stroke-miterlimit="10" x1="108.862" y1="197.311" x2="124.738" y2="197.311"/>
		</g>
		<g>
			
				<line fill="none" stroke="#9DD4F9" stroke-linejoin="round" stroke-miterlimit="10" x1="716.598" y1="203.656" x2="752.17" y2="203.656"/>
			
				<line fill="none" stroke="#9DD4F9" stroke-linejoin="round" stroke-miterlimit="10" x1="763.004" y1="203.656" x2="778.879" y2="203.656"/>
		</g>
		<g>
			
				<line fill="none" stroke="#9DD4F9" stroke-linejoin="round" stroke-miterlimit="10" x1="306.636" y1="59.785" x2="282.476" y2="59.785"/>
			
				<line fill="none" stroke="#9DD4F9" stroke-linejoin="round" stroke-miterlimit="10" x1="274.494" y1="59.785" x2="261.473" y2="59.785"/>
		</g>
		
			<line fill="none" stroke="#9DD4F9" stroke-linejoin="round" stroke-miterlimit="10" x1="684.212" y1="167.97" x2="710.213" y2="167.97"/>
		
			<line fill="none" stroke="#9DD4F9" stroke-linejoin="round" stroke-miterlimit="10" x1="875.506" y1="337.987" x2="901.509" y2="337.987"/>
		
			<line fill="none" stroke="#9DD4F9" stroke-linejoin="round" stroke-miterlimit="10" x1="894.03" y1="328.55" x2="911.125" y2="328.55"/>
	</g>
	<g>
		<g>
			<path fill="#CFE7FF" d="M664.158,249.667c2.349-4.134,4.27-8.596,5.655-13.362s2.152-9.563,2.387-14.313l-13.07-1.81
				c0.107-4.41-0.396-8.752-1.437-12.932l12.374-4.622c-2.583-9.38-7.349-18.048-13.882-25.257l-10.535,7.971
				c-2.97-3.12-6.367-5.872-10.146-8.144l5.476-12.004c-4.135-2.349-8.597-4.271-13.363-5.656
				c-4.764-1.385-9.563-2.154-14.313-2.386l-1.809,13.07c-4.408-0.108-8.752,0.394-12.932,1.438l-4.622-12.375
				c-9.381,2.584-18.049,7.348-25.257,13.884l7.971,10.533c-3.121,2.97-5.872,6.367-8.145,10.147l-12.004-5.476
				c-2.349,4.135-4.271,8.596-5.656,13.363c-1.385,4.766-2.152,9.563-2.385,14.313l13.068,1.81
				c-0.105,4.409,0.396,8.751,1.438,12.932l-12.375,4.621c2.585,9.382,7.347,18.049,13.883,25.258l10.534-7.971
				c2.969,3.12,6.368,5.872,10.146,8.143l-5.475,12.004c4.135,2.35,8.597,4.271,13.362,5.657c4.766,1.385,9.563,2.154,14.313,2.386
				l1.811-13.07c4.408,0.108,8.751-0.395,12.93-1.438l4.623,12.375c9.38-2.583,18.047-7.348,25.256-13.884l-7.971-10.534
				c3.119-2.969,5.87-6.367,8.144-10.146L664.158,249.667z M601.611,249.036c-16.58-4.816-26.113-22.161-21.295-38.739
				c4.816-16.578,22.161-26.111,38.738-21.294c16.578,4.817,26.112,22.162,21.295,38.739S618.189,253.854,601.611,249.036z
				 M603.902,241.155c-12.228-3.552-19.258-16.341-15.705-28.567c3.552-12.225,16.345-19.255,28.567-15.704
				c12.225,3.553,19.255,16.343,15.703,28.568C628.914,237.677,616.125,244.707,603.902,241.155z"/>
		</g>
		<g>
			<path fill="#CFE7FF" d="M689.147,119.818c-0.215-2.458-0.71-4.932-1.522-7.377c-0.813-2.444-1.9-4.721-3.2-6.819l-6.119,3.081
				c-1.254-1.916-2.748-3.623-4.426-5.102l3.925-5.623c-3.87-3.247-8.461-5.545-13.38-6.699l-2.149,6.512
				c-2.189-0.458-4.453-0.632-6.737-0.488l-1.199-6.744c-2.459,0.215-4.934,0.71-7.378,1.523c-2.444,0.813-4.721,1.9-6.818,3.201
				l3.08,6.118c-1.916,1.253-3.623,2.749-5.102,4.427l-5.623-3.925c-3.246,3.87-5.546,8.461-6.7,13.379l6.515,2.15
				c-0.46,2.189-0.633,4.452-0.489,6.737l-6.743,1.2c0.214,2.459,0.708,4.931,1.523,7.377c0.813,2.444,1.897,4.72,3.2,6.818
				l6.117-3.08c1.254,1.916,2.749,3.624,4.427,5.102l-3.926,5.624c3.871,3.246,8.462,5.544,13.38,6.699l2.149-6.512
				c2.19,0.458,4.454,0.631,6.739,0.488l1.198,6.743c2.459-0.215,4.932-0.708,7.377-1.522c2.445-0.813,4.721-1.899,6.819-3.201
				l-3.081-6.118c1.915-1.254,3.624-2.749,5.102-4.427l5.623,3.925c3.247-3.87,5.547-8.461,6.698-13.379l-6.512-2.15
				c0.459-2.189,0.632-4.453,0.488-6.738L689.147,119.818z M661.426,135.55c-7.157,2.381-14.889-1.49-17.271-8.646
				c-2.38-7.156,1.49-14.887,8.647-17.268c7.156-2.382,14.885,1.49,17.268,8.646C672.453,125.438,668.581,133.17,661.426,135.55z"/>
		</g>
		<g>
			<path fill="#CFE7FF" d="M620.533,99.259c-0.329-3.765-1.087-7.549-2.33-11.291c-1.246-3.742-2.907-7.226-4.9-10.437l-9.362,4.715
				c-1.921-2.932-4.207-5.545-6.775-7.808l6.008-8.606c-5.924-4.969-12.95-8.487-20.479-10.252l-3.291,9.967
				c-3.349-0.702-6.812-0.967-10.31-0.747l-1.835-10.322c-3.765,0.33-7.549,1.086-11.291,2.331s-7.226,2.906-10.437,4.898
				l4.714,9.364c-2.933,1.918-5.546,4.207-7.809,6.774l-8.605-6.007c-4.968,5.924-8.486,12.95-10.252,20.476l9.966,3.292
				c-0.701,3.351-0.967,6.813-0.746,10.311l-10.322,1.835c0.329,3.764,1.087,7.549,2.331,11.292c1.245,3.741,2.907,7.226,4.9,10.436
				l9.361-4.714c1.92,2.931,4.208,5.544,6.775,7.808l-6.007,8.606c5.924,4.969,12.95,8.487,20.477,10.252l3.292-9.966
				c3.35,0.701,6.813,0.967,10.31,0.747l1.836,10.321c3.763-0.329,7.548-1.085,11.292-2.33c3.741-1.245,7.225-2.908,10.436-4.899
				l-4.715-9.363c2.933-1.92,5.546-4.207,7.809-6.776l8.606,6.006c4.969-5.922,8.486-12.949,10.253-20.476l-9.967-3.291
				c0.7-3.351,0.966-6.814,0.746-10.311L620.533,99.259z M578.103,123.336c-10.951,3.645-22.785-2.28-26.429-13.232
				s2.279-22.784,13.233-26.428c10.95-3.645,22.783,2.279,26.427,13.232C594.979,107.859,589.054,119.692,578.103,123.336z"/>
		</g>
		<g>
			<path fill="#CFE7FF" d="M422.261,278.091c1.399-2.462,2.544-5.12,3.369-7.958c0.824-2.838,1.282-5.696,1.421-8.524l-7.784-1.078
				c0.064-2.626-0.236-5.212-0.856-7.702l7.37-2.752c-1.539-5.588-4.376-10.75-8.269-15.043l-6.274,4.748
				c-1.768-1.858-3.792-3.498-6.043-4.851l3.261-7.148c-2.462-1.4-5.119-2.544-7.958-3.37c-2.838-0.825-5.695-1.282-8.524-1.421
				l-1.079,7.784c-2.625-0.064-5.212,0.235-7.701,0.856l-2.752-7.37c-5.587,1.539-10.75,4.377-15.043,8.269l4.748,6.274
				c-1.858,1.769-3.497,3.792-4.85,6.043l-7.149-3.262c-1.399,2.462-2.545,5.12-3.37,7.959c-0.825,2.838-1.283,5.695-1.42,8.524
				l7.783,1.078c-0.064,2.625,0.235,5.212,0.856,7.702l-7.37,2.752c1.538,5.587,4.376,10.75,8.268,15.044l6.274-4.748
				c1.769,1.858,3.792,3.498,6.043,4.85l-3.261,7.149c2.462,1.399,5.119,2.543,7.958,3.369c2.838,0.826,5.696,1.282,8.524,1.42
				l1.079-7.783c2.626,0.066,5.212-0.235,7.702-0.856l2.752,7.372c5.587-1.54,10.75-4.376,15.043-8.269l-4.748-6.274
				c1.858-1.77,3.497-3.792,4.85-6.043L422.261,278.091z M385.009,277.716c-9.873-2.87-15.552-13.199-12.683-23.073
				c2.869-9.874,13.199-15.551,23.072-12.682c9.874,2.869,15.552,13.198,12.683,23.072
				C405.212,274.906,394.882,280.584,385.009,277.716z M386.373,273.021c-7.281-2.116-11.468-9.733-9.353-17.014
				c2.116-7.281,9.734-11.469,17.015-9.353c7.28,2.116,11.467,9.733,9.353,17.015C401.271,270.95,393.653,275.137,386.373,273.021z"
				/>
		</g>
	</g>
	<g>
		<g>
			<path fill="#FFFFFF" stroke="#418BE5" stroke-linejoin="round" stroke-miterlimit="10" d="M750.856,504.659h-90.553
				c-2.555,0-4.625-2.07-4.625-4.626v-35.909c0-2.553,2.07-4.624,4.625-4.624h90.553c2.555,0,4.626,2.071,4.626,4.624v35.909
				C755.482,502.589,753.411,504.659,750.856,504.659z"/>
			<g>
				<path fill="none" stroke="#77BAFC" stroke-linejoin="round" stroke-miterlimit="10" d="M673.093,472.86
					c0,1.863-1.509,3.37-3.368,3.37c-1.861,0-3.368-1.507-3.368-3.37c0-1.858,1.507-3.367,3.368-3.367
					C671.584,469.493,673.093,471.002,673.093,472.86z"/>
				<path fill="none" stroke="#77BAFC" stroke-linejoin="round" stroke-miterlimit="10" d="M691.689,472.86
					c0,1.863-1.508,3.37-3.369,3.37c-1.859,0-3.369-1.507-3.369-3.37c0-1.858,1.51-3.367,3.369-3.367
					C690.181,469.493,691.689,471.002,691.689,472.86z"/>
				<path fill="none" stroke="#77BAFC" stroke-linejoin="round" stroke-miterlimit="10" d="M710.285,472.86
					c0,1.863-1.51,3.37-3.368,3.37c-1.862,0-3.37-1.507-3.37-3.37c0-1.858,1.508-3.367,3.37-3.367
					C708.775,469.493,710.285,471.002,710.285,472.86z"/>
				<path fill="none" stroke="#77BAFC" stroke-linejoin="round" stroke-miterlimit="10" d="M728.879,472.86
					c0,1.863-1.507,3.37-3.368,3.37c-1.86,0-3.368-1.507-3.368-3.37c0-1.858,1.508-3.367,3.368-3.367
					C727.373,469.493,728.879,471.002,728.879,472.86z"/>
				<path fill="none" stroke="#77BAFC" stroke-linejoin="round" stroke-miterlimit="10" d="M747.475,472.86
					c0,1.863-1.508,3.37-3.368,3.37c-1.861,0-3.369-1.507-3.369-3.37c0-1.858,1.508-3.367,3.369-3.367
					C745.967,469.493,747.475,471.002,747.475,472.86z"/>
			</g>
			<path fill="none" stroke="#77BAFC" stroke-linejoin="round" stroke-miterlimit="10" d="M487.561,307.994v193.328
				c0,10.025,8.127,18.152,18.151,18.152h220.244c10.024,0,18.151-8.127,18.151-18.152l0,0V472.86"/>
			<path fill="none" stroke="#77BAFC" stroke-linejoin="round" stroke-miterlimit="10" d="M476.373,307.994v218.557
				c0,10.023,8.126,18.151,18.151,18.151h175.644c10.025,0,18.152-8.128,18.152-18.151v-53.69"/>
			<path fill="#FFFFFF" stroke="#418BE5" stroke-linejoin="round" stroke-miterlimit="10" d="M427.788,361.547h-74.63
				c-2.554,0-4.625-2.071-4.625-4.625v-36.98c0-2.557,2.071-4.626,4.625-4.626h74.63c2.554,0,4.625,2.069,4.625,4.626v36.98
				C432.413,359.476,430.342,361.547,427.788,361.547z"/>
			<g>
				<circle fill="none" stroke="#77BAFC" stroke-linejoin="round" stroke-miterlimit="10" cx="362.58" cy="338.31" r="3.369"/>
				<circle fill="none" stroke="#77BAFC" stroke-linejoin="round" stroke-miterlimit="10" cx="381.175" cy="338.31" r="3.369"/>
				<circle fill="none" stroke="#77BAFC" stroke-linejoin="round" stroke-miterlimit="10" cx="399.77" cy="338.31" r="3.368"/>
				<circle fill="none" stroke="#77BAFC" stroke-linejoin="round" stroke-miterlimit="10" cx="418.366" cy="338.31" r="3.369"/>
			</g>
			<path fill="#FFFFFF" stroke="#418BE5" stroke-linejoin="round" stroke-miterlimit="10" d="M276.123,410.127h-74.63
				c-2.554,0-4.625-2.072-4.625-4.625V368.52c0-2.556,2.07-4.625,4.625-4.625h74.63c2.554,0,4.624,2.069,4.624,4.625v36.982
				C280.747,408.055,278.677,410.127,276.123,410.127z"/>
			<g>
				<circle fill="none" stroke="#77BAFC" stroke-linejoin="round" stroke-miterlimit="10" cx="210.914" cy="386.889" r="3.368"/>
				<circle fill="none" stroke="#77BAFC" stroke-linejoin="round" stroke-miterlimit="10" cx="229.51" cy="386.889" r="3.369"/>
				<circle fill="none" stroke="#77BAFC" stroke-linejoin="round" stroke-miterlimit="10" cx="248.105" cy="386.889" r="3.369"/>
				<circle fill="none" stroke="#77BAFC" stroke-linejoin="round" stroke-miterlimit="10" cx="266.701" cy="386.889" r="3.369"/>
			</g>
			<path fill="none" stroke="#77BAFC" stroke-linejoin="round" stroke-miterlimit="10" d="M450.782,303.164V454.71
				c0,10.025-8.126,18.15-18.152,18.15H229.066c-10.025,0-18.151-8.125-18.151-18.15v-67.821"/>
			<path fill="none" stroke="#77BAFC" stroke-linejoin="round" stroke-miterlimit="10" d="M399.771,338.31v102.974
				c0,10.024,8.127,18.15,18.151,18.15h27.101c10.024,0,18.152-8.126,18.152-18.15V308.007"/>
		</g>
		<g>
			<path fill="#FDD305" d="M365.917,123.16c0-57.202,46.371-103.573,103.572-103.573S573.062,65.958,573.062,123.16
				c0,22.802-7.373,43.878-19.859,60.986h0.001c-14.785,22.278-53.199,47.431-53.199,62.5v17.216c0,3.437-2.787,6.223-6.223,6.223
				h-16.645h-15.295h-16.645c-3.437,0-6.223-2.786-6.223-6.223v-17.216c0-15.069-38.415-40.222-53.199-62.5l0,0
				C373.291,167.038,365.917,145.962,365.917,123.16z"/>
			<path fill="none" stroke="#FFFFFF" stroke-width="2" stroke-miterlimit="10" d="M484.542,297.245
				c0,0-4.566-126.12,20.189-151.397c9.696-9.903,18.504-2.065,18.265,4.959c-0.442,12.966-11.795,29.248-28.971,35.407
				c-18.386,6.595-34.156-14.386-40.92-35.404c-5.683-17.658-1.426-40.743,16.386-40.743h-0.006
				c17.812,0,22.069,23.084,16.388,40.743c-6.764,21.018-22.535,41.999-40.92,35.404c-17.174-6.159-28.527-22.441-28.971-35.407
				c-0.239-7.024,8.567-14.862,18.264-4.959c24.756,25.278,20.19,151.397,20.19,151.397"/>
			
				<path fill="none" stroke="#FFEE99" stroke-width="5.5" stroke-linecap="round" stroke-linejoin="bevel" stroke-miterlimit="10" d="
				M490.744,39.466c37.401,9.469,65.074,43.349,65.074,83.693"/>
			<circle fill="#FFEE99" cx="473.436" cy="36.667" r="5.942"/>
			<path opacity="0.55" fill="#FFC043" d="M572.863,129.284c-5.717,42.468-40.006,86.438-103.374,86.438
				c-63.369,0-96.377-46.025-103.374-86.438c1.193,20.444,8.301,39.297,19.66,54.862l0,0c14.784,22.278,53.199,47.431,53.199,62.5
				v17.216c0,3.437,2.786,6.223,6.223,6.223h16.645h15.295h16.645c3.436,0,6.223-2.786,6.223-6.223v-17.216
				c0-15.069,38.414-40.222,53.199-62.5h-0.001C564.561,168.581,571.669,149.728,572.863,129.284z"/>
			<path fill="#28364C" d="M502.453,253.997h-65.926v31.42c0,5.131,1.46,10.156,4.209,14.489l0,0
				c5.198,8.188,14.222,13.148,23.92,13.148h9.666c9.699,0,18.723-4.961,23.92-13.148l0,0c2.749-4.333,4.21-9.358,4.21-14.489
				V253.997z"/>
			<g>
				<g>
					<path fill="#475577" d="M502.458,277.167c-0.188,0-0.378-0.013-0.571-0.039l-65.924-9.136c-2.25-0.312-3.822-2.39-3.51-4.641
						c0.312-2.25,2.394-3.823,4.64-3.509l65.927,9.136c2.25,0.312,3.82,2.389,3.509,4.64
						C506.243,275.677,504.48,277.167,502.458,277.167z"/>
				</g>
			</g>
			<g>
				<g>
					<path fill="#475577" d="M502.458,291.548c-0.188,0-0.378-0.012-0.571-0.041l-65.924-9.135c-2.25-0.312-3.822-2.389-3.51-4.641
						c0.312-2.25,2.394-3.82,4.64-3.509l65.927,9.136c2.25,0.311,3.82,2.389,3.509,4.64
						C506.243,290.058,504.48,291.548,502.458,291.548z"/>
				</g>
			</g>
			<g>
				<g>
					<path fill="#475577" d="M499.825,305.69c-0.188,0-0.378-0.014-0.571-0.04l-62.488-8.659c-2.25-0.312-3.821-2.389-3.511-4.641
						c0.313-2.25,2.396-3.824,4.641-3.51l62.49,8.661c2.249,0.312,3.822,2.388,3.509,4.639
						C503.611,304.199,501.846,305.69,499.825,305.69z"/>
				</g>
			</g>
		</g>
	</g>
	<g>
		<g>
			<g>
				<g>
					<g>
						
							<line fill="none" stroke="#418BE5" stroke-linejoin="round" stroke-miterlimit="10" x1="343.27" y1="454.654" x2="320.534" y2="581.551"/>
						
							<line fill="none" stroke="#418BE5" stroke-linejoin="round" stroke-miterlimit="10" x1="261.543" y1="454.654" x2="238.807" y2="581.552"/>
						
							<line fill="none" stroke="#418BE5" stroke-linejoin="round" stroke-miterlimit="10" x1="340.007" y1="472.86" x2="258.281" y2="472.86"/>
						
							<line fill="none" stroke="#418BE5" stroke-linejoin="round" stroke-miterlimit="10" x1="335.69" y1="496.962" x2="253.963" y2="496.962"/>
						
							<line fill="none" stroke="#418BE5" stroke-linejoin="round" stroke-miterlimit="10" x1="331.372" y1="521.063" x2="249.646" y2="521.063"/>
						
							<line fill="none" stroke="#418BE5" stroke-linejoin="round" stroke-miterlimit="10" x1="327.053" y1="545.163" x2="245.328" y2="545.163"/>
						
							<line fill="none" stroke="#418BE5" stroke-linejoin="round" stroke-miterlimit="10" x1="322.735" y1="569.265" x2="241.009" y2="569.265"/>
					</g>
				</g>
				<g>
					<g>
						
							<line fill="none" stroke="#418BE5" stroke-linejoin="round" stroke-miterlimit="10" x1="261.543" y1="454.654" x2="284.28" y2="581.551"/>
						
							<line fill="none" stroke="#418BE5" stroke-linejoin="round" stroke-miterlimit="10" x1="343.27" y1="454.654" x2="366.005" y2="581.552"/>
						
							<line fill="none" stroke="#418BE5" stroke-linejoin="round" stroke-miterlimit="10" x1="264.806" y1="472.86" x2="346.532" y2="472.86"/>
						
							<line fill="none" stroke="#418BE5" stroke-linejoin="round" stroke-miterlimit="10" x1="269.124" y1="496.962" x2="350.85" y2="496.962"/>
						
							<line fill="none" stroke="#418BE5" stroke-linejoin="round" stroke-miterlimit="10" x1="273.442" y1="521.063" x2="355.168" y2="521.063"/>
						
							<line fill="none" stroke="#418BE5" stroke-linejoin="round" stroke-miterlimit="10" x1="277.761" y1="545.163" x2="359.486" y2="545.163"/>
						
							<line fill="none" stroke="#418BE5" stroke-linejoin="round" stroke-miterlimit="10" x1="282.079" y1="569.265" x2="363.804" y2="569.265"/>
					</g>
				</g>
			</g>
			<rect x="243.626" y="450.113" fill="#418BE5" width="117.561" height="6.274"/>
		</g>
		<g>
			<g>
				<g>
					<g>
						<g>
							<path fill="#FFDAC5" d="M305.536,395.031l5.017,37.816l-0.333,12.407l48.637-0.249c1.187-0.008,2.144-0.976,2.137-2.162l0,0
								c-0.004-0.891-0.556-1.685-1.387-1.999l-20.976-9.646l-3.099-39.415"/>
							<path fill="#FF5E4D" d="M363.123,444.482c-0.497-1.56-1.41-3.308-2.329-3.706l-22.24-9.577
								c-12.26,4.968-28.128,1.171-28.128,1.171l-2.831,16.745c0.003,0.554,0.455,0.999,1.008,0.998l54.147-0.276
								C363.839,449.829,363.138,444.53,363.123,444.482z"/>
							<path fill="none" stroke="#313131" stroke-width="0.75" stroke-miterlimit="10" d="M343.367,432.156
								c-1.247,1.626-2.3,3.397-3.136,5.267"/>
							<path fill="none" stroke="#313131" stroke-width="0.75" stroke-miterlimit="10" d="M346.167,433.831
								c-1.291,1.789-1.806,2.821-2.578,4.478"/>
							<path fill="none" stroke="#313131" stroke-width="0.75" stroke-miterlimit="10" d="M348.533,435.054
								c-0.876,1.179-1.737,2.808-2.417,4.107"/>
						</g>
						
							<line fill="none" stroke="#313131" stroke-width="0.75" stroke-miterlimit="10" x1="307.88" y1="446.498" x2="363.352" y2="446.215"/>
						<path fill="none" stroke="#313131" stroke-width="0.75" stroke-miterlimit="10" d="M309.421,438.309
							c0,0,13.031,0.266,14.152,8.115"/>
						<path fill="none" stroke="#313131" stroke-width="0.75" stroke-miterlimit="10" d="M356.235,438.814
							c0,0-3.593,5.105-4.301,7.461"/>
					</g>
				</g>
				<g>
					<g>
						<g>
							<path fill="#FFDAC5" d="M257.138,395.031l-4.33,37.816l-0.333,12.407l48.636-0.249c1.187-0.008,2.144-0.976,2.138-2.162l0,0
								c-0.004-0.891-0.556-1.685-1.388-1.999l-20.976-9.646l6.247-39.415"/>
							<path fill="#FF5E4D" d="M305.378,444.482c-0.497-1.56-1.41-3.308-2.329-3.706l-22.24-9.577
								c-12.26,4.968-28.127,1.171-28.127,1.171l-2.831,16.745c0.002,0.554,0.455,0.999,1.008,0.998l54.147-0.276
								C306.095,449.829,305.394,444.53,305.378,444.482z"/>
							<path fill="none" stroke="#313131" stroke-width="0.75" stroke-miterlimit="10" d="M285.622,432.156
								c-1.246,1.626-2.301,3.397-3.135,5.267"/>
							<path fill="none" stroke="#313131" stroke-width="0.75" stroke-miterlimit="10" d="M288.422,433.831
								c-1.292,1.789-1.808,2.821-2.577,4.478"/>
							<path fill="none" stroke="#313131" stroke-width="0.75" stroke-miterlimit="10" d="M290.789,435.054
								c-0.877,1.179-1.737,2.808-2.417,4.107"/>
						</g>
						
							<line fill="none" stroke="#313131" stroke-width="0.75" stroke-miterlimit="10" x1="250.136" y1="446.498" x2="305.607" y2="446.215"/>
						<path fill="none" stroke="#313131" stroke-width="0.75" stroke-miterlimit="10" d="M251.677,438.309
							c0,0,13.031,0.266,14.152,8.115"/>
						<path fill="none" stroke="#313131" stroke-width="0.75" stroke-miterlimit="10" d="M298.49,438.814
							c0,0-3.592,5.105-4.302,7.461"/>
					</g>
				</g>
				<path fill="#313131" d="M302.407,238.737l-13.264,186.185h-37.769l8.911-147.555c0,0-5.131-9.946-2.718-34.692"/>
				
					<line fill="none" stroke="#696C70" stroke-width="0.75" stroke-miterlimit="10" x1="283.061" y1="424.922" x2="295.263" y2="268.9"/>
				<path fill="#313131" d="M328.663,238.737l14.339,186.185h-37.769L289.669,284.46c-0.406-4.093-0.089-7.972-2.301-11.438
					c-3.08-4.824-7.296-14.321-7.518-30.347"/>
				<path fill="none" stroke="#696C70" stroke-width="0.75" stroke-miterlimit="10" d="M330.209,424.922
					c0,0-12.712-162.887-14.917-186.185"/>
				<path fill="none" stroke="#696C70" stroke-width="0.75" stroke-miterlimit="10" d="M295.263,334.941l-5.986-53.436
					c-0.25-2.532-1.148-4.953-2.645-7.008c-1.992-2.737-4.887-7.808-6.739-15.918"/>
				
					<line fill="none" stroke="#696C70" stroke-width="0.75" stroke-miterlimit="10" x1="290.725" y1="256.288" x2="303.212" y2="255.062"/>
				
					<line fill="none" stroke="#696C70" stroke-width="0.75" stroke-miterlimit="10" x1="257.032" y1="259.976" x2="265.917" y2="259.244"/>
				<path fill="none" stroke="#696C70" stroke-width="0.75" stroke-miterlimit="10" d="M316.754,255.675
					c0,0,7.536-2.438,8.523-8.759"/>
			</g>
			<g>
				<g>
					<path fill="#FFDAC5" d="M310.517,146.412c0,0,29.067-31.304,61.435-60.126l-15.176-14.142
						c-33.557,24.132-68.621,62.048-68.621,62.048"/>
					<path fill="#1465DB" d="M255.828,172.97c3.97-22.58,15.393-33.831,55.61-63.131l18.977,19.55l-24.419,24.016"/>
					
						<line fill="none" stroke="#1135CC" stroke-width="0.75" stroke-miterlimit="10" x1="306.243" y1="113.344" x2="326.234" y2="133.5"/>
					<g>
						<path fill="#FFDAC5" d="M367.309,90.416c5.378-5.414,23.536-18.539,23.095-20.038c-0.441-1.5-6.888,3.033-7.02,1.734
							c-0.132-1.297,9.316-8.944,8.476-10.324c-1.139-1.87-10.396,6.478-10.396,6.478s9.684-9.649,8.227-10.986
							c-1.032-0.947-8.762,6.079-12.052,8.392c3.247-2.96,7.939-8.383,6.847-9.344c-1.084-0.952-6.447,3.718-10.748,7.077
							c2.488-2.348,6.785-6.863,5.817-7.797c-0.965-0.932-18.116,11.125-32.332,24.025"/>
					</g>
				</g>
				<path fill="#FFDAC5" d="M318.49,162.406c0,0,15.337,13.288,31.842,22.225c7.3,3.953,40.991-0.299,40.991-0.299
					s10.593,10.095,7.708,19.397c-6.149,2.067-44.406,8.571-56.029,3.344c-21.986-9.887-44.228-28.523-44.228-28.523"/>
				<g>
					<path fill="#FFDAC5" d="M383.754,185.152c7.593-0.764,31.223-6.406,32.108-5.118c0.887,1.287-6.696,3.436-5.771,4.357
						c0.924,0.92,12.816-1.595,13.358-0.074c0.733,2.063-11.583,3.988-11.583,3.988s13.596-1.436,13.714,0.538
						c0.085,1.398-10.241,2.97-14.111,4.066c4.345-0.654,11.513-0.879,11.57,0.574c0.056,1.442-6.95,2.663-12.269,3.884
						c3.392-0.452,9.605-0.941,9.721,0.399c0.116,1.335-16.321,6.245-37,8.918"/>
				</g>
				<g>
					<path fill="#FFDAC5" d="M279.723,128.806l-3.806,19.139c0,0,10.717,10.849,21.942,0.75l-0.126-12.832L279.723,128.806z"/>
					<path fill="#FFDAC5" d="M300.007,110.769c0,0,9.147,18.3,3.483,24.351c-2.944,3.146-7.257,4.343-11.143,1.409
						c-2.884-2.176-13.938-15.297-12.404-17.783C285.803,109.245,300.007,110.769,300.007,110.769z"/>
					<path fill="#FFDAC5" d="M303.653,121.081c0,0,3.375,3.362,3.375,5.588c0,0.985-3.375,1.135-3.375,1.135"/>
					<path fill="#FFFFFF" d="M303.49,129.679l-5.945-0.874C297.256,131.06,301.684,136.681,303.49,129.679z"/>
					<g>
						<g>
							<path fill="#00276F" d="M299.277,120.818c-0.078,0.562,0.016,1.224,0.487,1.586c0.159,0.122,0.432-0.042,0.412-0.236
								c-0.047-0.454-0.254-0.892-0.333-1.35C299.795,120.542,299.317,120.533,299.277,120.818L299.277,120.818z"/>
						</g>
					</g>
					
						<path fill="none" stroke="#00276F" stroke-width="0.5" stroke-linecap="round" stroke-linejoin="round" stroke-miterlimit="10" d="
						M296.294,119.679c0.624-0.949,1.698-1.584,2.83-1.676c0.486-0.04,1.008,0.029,1.387,0.335"/>
					<g>
						<path fill="#0B0B3A" d="M277.813,112.136c-0.574-0.143,1.596-3.735,1.88-4.026c1.11-1.137,2.604-1.792,4.125-2.179
							c2.121-0.539,4.354-0.6,6.53-0.529c1.385,0.045,2.768,0.16,4.146,0.31c1.514,0.165,2.696,0.742,4.09,1.362
							c0.382,0.17,0.769,0.342,1.111,0.582c0.949,0.662,1.481,1.765,1.879,2.849c0.576,1.569,0.932,3.851-0.922,4.604
							c-1.752,0.713-3.745,0.229-5.519,0.868c-3.313,1.19-1.674,4.381-3.431,6.717c-2.92,3.883-0.989,9.601-5.803,12.564
							c-2.744,1.688-6.249,1.206-9.417,0.615c-0.385-0.071-0.788-0.151-1.096-0.393c-1.088-0.851-0.649-3.824-0.967-5.107
							c-1.022-4.122-1.825-10.101-1.464-14.342C274.93,111.529,276.459,111.765,277.813,112.136z"/>
					</g>
					<g>
						<path fill="#BA3E35" d="M290.194,112.468c0,0,3.413,3.623,7.961,4.213c2.835,0.369,11.61,0.164,13.933-1.672
							c1.083-0.856-7.229-2.629-7.229-2.629l-10.841-2.525"/>
						
							<ellipse transform="matrix(0.951 0.3091 -0.3091 0.951 45.7723 -83.428)" fill="#BA3E35" cx="286.145" cy="102.721" rx="1.346" ry="1.413"/>
						<path fill="#FF5E4D" d="M272.953,116.031l31.906-3.651c0,0-2.85-9.467-15.888-9.885
							C274.969,102.046,272.953,116.031,272.953,116.031z"/>
					</g>
					<path fill="#FFDAC5" d="M291.823,123.607c-0.648-3.82-3.494-2.498-4.519-1.16c-1.368,1.786,0.692,5.929,1.753,6.699
						c2.151,1.561,4.003,1.581,4.34-0.249"/>
					<path fill="none" stroke="#F2A486" stroke-width="0.75" stroke-linejoin="round" stroke-miterlimit="10" d="M297.545,138.467
						c-4.148-1.289-6.742-3.348-6.742-3.348"/>
				</g>
				<g>
					<path fill="#437CF9" d="M275.82,142.092c0,0-14.869,4.619-19.992,30.877c-2.28,11.681,0.345,76.924,0.348,76.872
						c35.978,7.018,74.719-3.345,74.719-3.345s-6.815-52.431-8.838-67.855c-4.667-35.588-26.805-35.415-26.805-35.415
						L275.82,142.092z"/>
				</g>
				<path fill="#437CF9" d="M288.907,142.856c16.434-0.764,19.684,6.285,27.524,12.246c9.161,6.966,24.92,20,24.92,20
					l-18.906,25.921l-31.641-21.166"/>
				
					<line fill="none" stroke="#1135CC" stroke-width="0.75" stroke-miterlimit="10" x1="322.444" y1="201.023" x2="296.296" y2="183.532"/>
				
					<line fill="none" stroke="#1135CC" stroke-width="0.75" stroke-miterlimit="10" x1="336.619" y1="171.977" x2="317.606" y2="197.282"/>
				<path fill="none" stroke="#1135CC" stroke-width="0.75" stroke-miterlimit="10" d="M255.828,245.397
					c0,0,27.449,6.882,74.381-2.723"/>
			</g>
		</g>
	</g>
	<g>
		<path fill="#FFFFFF" stroke="#77BAFC" stroke-linejoin="round" stroke-miterlimit="10" d="M197.77,581.747
			c0,0-34.1-61.602-24.513-84.785c7.446-18.004,27.557-14.191,37.32-2.33c20.448,24.843,20.448,87.115,20.448,87.115"/>
		<path fill="none" stroke="#77BAFC" stroke-linejoin="round" stroke-miterlimit="10" d="M185.61,485.106
			c0,0,15.999,21.489,29.574,96.445"/>
		<path fill="#FFFFFF" stroke="#77BAFC" stroke-linejoin="round" stroke-miterlimit="10" d="M246.31,581.747
			c0,0,22.746-48.878,12.523-67.273c-7.94-14.285-23.519-11.26-29.961-1.848c-13.497,19.71-6.53,69.121-6.53,69.121"/>
		<path fill="none" stroke="#77BAFC" stroke-linejoin="round" stroke-miterlimit="10" d="M247.675,505.067
			c0,0-13.18,17.051-15.601,76.524"/>
		<path fill="#FFFFFF" stroke="#77BAFC" stroke-linejoin="round" stroke-miterlimit="10" d="M771.952,581.747
			c0,0,28.09-50.741,20.19-69.838c-6.134-14.831-22.698-11.689-30.738-1.92c-16.843,20.462-16.843,71.758-16.843,71.758"/>
		<path fill="none" stroke="#77BAFC" stroke-linejoin="round" stroke-miterlimit="10" d="M781.968,502.145
			c0,0-13.178,17.699-24.361,79.44"/>
		<path fill="#FFFFFF" stroke="#77BAFC" stroke-linejoin="round" stroke-miterlimit="10" d="M722.753,581.747
			c0,0-28.226-60.656-15.54-83.483c9.854-17.729,29.186-13.974,37.182-2.296c16.749,24.462,8.104,85.779,8.104,85.779"/>
		<path fill="none" stroke="#77BAFC" stroke-linejoin="round" stroke-miterlimit="10" d="M721.059,486.59
			c0,0,16.357,21.16,19.36,94.965"/>
		<path fill="#FFFFFF" stroke="#77BAFC" stroke-linejoin="round" stroke-miterlimit="10" d="M677.986,581.747
			c0,0-21.262-45.686-11.705-62.879c7.422-13.354,21.981-10.525,28.005-1.729c12.614,18.424,6.104,64.607,6.104,64.607"/>
		<path fill="none" stroke="#77BAFC" stroke-linejoin="round" stroke-miterlimit="10" d="M676.71,510.076
			c0,0,12.317,15.938,14.58,71.526"/>
		<path fill="#FFFFFF" stroke="#77BAFC" stroke-linejoin="round" stroke-miterlimit="10" d="M395.684,581.747
			c0,0-28.422-60.979-16.924-83.93c8.931-17.823,28.508-14.05,37.145-2.308c18.09,24.592,12.697,86.237,12.697,86.237"/>
		<path fill="none" stroke="#77BAFC" stroke-linejoin="round" stroke-miterlimit="10" d="M392.016,486.082
			c0,0,13.977,21.273,20.923,95.472"/>
		<path fill="#FFFFFF" stroke="#77BAFC" stroke-linejoin="round" stroke-miterlimit="10" d="M469.937,581.747
			c0,0,42.52-91.371,23.409-125.757c-14.843-26.705-43.964-21.049-56.009-3.458c-25.227,36.849-12.207,129.215-12.207,129.215"/>
		<path fill="none" stroke="#77BAFC" stroke-linejoin="round" stroke-miterlimit="10" d="M472.488,438.405
			c0,0-24.638,31.875-29.163,143.052"/>
		<path fill="#FFFFFF" stroke="#77BAFC" stroke-linejoin="round" stroke-miterlimit="10" d="M495.422,581.747
			c0,0,41.587-66.676,31.616-91.767c-7.744-19.489-29.648-15.362-40.471-2.523c-22.669,26.888-23.843,94.29-23.843,94.29"/>
		<path fill="none" stroke="#77BAFC" stroke-linejoin="round" stroke-miterlimit="10" d="M516.632,478.287
			c0,0-28.393,34.622-40.598,103.248"/>
		<path fill="#FFFFFF" stroke="#77BAFC" stroke-linejoin="round" stroke-miterlimit="10" d="M521,581.747
			c0,0,34.438-40.261,26.181-55.412c-6.413-11.769-22.948-11.481-33.513-1.525c-14.96,14.1-19.744,56.938-19.744,56.938"/>
		<path fill="none" stroke="#77BAFC" stroke-linejoin="round" stroke-miterlimit="10" d="M538.564,519.272
			c0,0-23.512,20.906-33.619,62.347"/>
	</g>
	
		<line fill="none" stroke="#77BAFC" stroke-linejoin="round" stroke-miterlimit="10" x1="50.224" y1="581.552" x2="888.755" y2="581.552"/>
	<g>
		<g>
			<path fill="#F9C5AC" d="M809.733,326.622c0,0-16.372,12.646-31.039,16.356c-24.291,6.142-49.328,5.568-49.328,5.568
				l-5.803-19.207c0,0,16.302,0.7,40.592-5.441c14.668-3.709,31.04-16.357,31.04-16.357"/>
			<g>
				<path fill="#F9C5AC" d="M736.525,328.874c-6.804,0.604-28.526-0.392-29.09,0.888c-0.564,1.278,6.464,1.896,5.805,2.862
					c-0.656,0.966-11.534,0.749-11.757,2.176c-0.3,1.938,10.854,1.563,10.854,1.563s-12.194,1.021-11.969,2.774
					c0.162,1.243,9.756,1.084,13.342,1.399c-3.931,0.153-11.088,0.365-10.895,1.652c0.192,1.278,7.276,2.343,12.157,2.526
					c-3.057,0.171-8.755,0.216-8.631,1.413c0.122,1.193,15.761,3.527,35.423,2.128"/>
			</g>
			<path fill="#1465DB" d="M816.243,287.375c-8.485,3.03-27.761,23.074-27.761,23.074l19.342,23.188l24.28-20.084"/>
		</g>
		<g>
			<path fill="#FFFFFF" stroke="#418BE5" stroke-linejoin="round" stroke-miterlimit="10" d="M642.996,386.261
				c-29.265-13.377-42.146-47.943-28.771-77.209c13.376-29.265,47.941-42.146,77.209-28.771
				c11.665,5.332,20.724,14.033,26.558,24.421l0,0c7.939,12.771,11.826,38.308,19.536,41.831l8.808,4.025
				c1.759,0.804,2.533,2.88,1.729,4.639l-3.894,8.515l-3.575,7.826l-3.892,8.517c-0.804,1.759-2.882,2.531-4.64,1.729l-8.809-4.025
				c-7.708-3.523-29.561,10.248-44.414,12.603l0,0C667.169,392.747,654.664,391.593,642.996,386.261z"/>
			<path fill="none" stroke="#418BE5" stroke-linejoin="round" stroke-miterlimit="10" d="M759.8,366.275
				c0,0-65.593-27.155-72.738-45.729c-2.798-7.277,3.272-9.95,6.81-8.186c6.529,3.259,12.206,12.874,11.342,23.102
				c-0.927,10.948-15.349,14.111-27.685,12.656c-10.362-1.222-21.176-8.797-17.01-17.91l-0.004,0.003
				c4.165-9.112,16.972-5.895,24.678,1.143c9.172,8.376,16.218,21.35,8.544,29.214c-7.166,7.347-18.152,9.348-24.888,6.543
				c-3.65-1.521-5.601-7.859,1.731-10.504c18.723-6.755,82.181,25.071,82.181,25.071"/>
			<path fill="#28364C" d="M741.861,347l-15.415,33.728l16.075,7.349c2.625,1.199,5.536,1.626,8.396,1.232l0,0
				c5.404-0.743,10.053-4.201,12.32-9.164l2.261-4.943c2.267-4.963,1.839-10.739-1.135-15.313l0,0
				c-1.572-2.419-3.802-4.344-6.428-5.542L741.861,347z"/>
			<g>
				<g>
					<path fill="#475577" d="M753.717,352.414c-0.043,0.099-0.097,0.19-0.153,0.284l-20.09,31.593
						c-0.686,1.078-2.117,1.396-3.195,0.711c-1.077-0.688-1.395-2.121-0.71-3.194l20.09-31.594c0.686-1.08,2.116-1.396,3.194-0.71
						C753.839,350.13,754.19,351.381,753.717,352.414z"/>
				</g>
			</g>
			<g>
				<g>
					<path fill="#475577" d="M761.076,355.778c-0.046,0.096-0.096,0.189-0.154,0.281l-20.09,31.593
						c-0.688,1.078-2.116,1.397-3.195,0.711s-1.395-2.117-0.71-3.195l20.089-31.593c0.685-1.077,2.117-1.396,3.194-0.709
						C761.198,353.493,761.547,354.744,761.076,355.778z"/>
				</g>
			</g>
			<g>
				<g>
					<path fill="#475577" d="M767.695,360.432c-0.044,0.096-0.097,0.19-0.155,0.282l-19.043,29.946
						c-0.685,1.078-2.114,1.396-3.193,0.711c-1.077-0.687-1.396-2.122-0.71-3.194l19.041-29.947
						c0.687-1.077,2.117-1.396,3.194-0.711C767.818,358.147,768.167,359.397,767.695,360.432z"/>
				</g>
			</g>
		</g>
		<g>
			<g>
				<g>
					<g>
						<g>
							<path fill="#FFDAC5" d="M618.428,537.964l5.283,37.815l0.332,12.405l-48.636-0.247c-1.188-0.007-2.144-0.977-2.139-2.163l0,0
								c0.006-0.891,0.556-1.685,1.389-1.999l20.975-9.646l-9.604-39.414"/>
							<path fill="#FF5E4D" d="M571.141,587.412c0.496-1.557,1.409-3.307,2.33-3.703l22.242-9.579
								c12.259,4.97,28.125,1.172,28.125,1.172l2.831,16.745c-0.003,0.555-0.454,1.002-1.01,0.998l-54.145-0.276
								C570.425,592.762,571.125,587.462,571.141,587.412z"/>
							<path fill="none" stroke="#313131" stroke-width="0.75" stroke-miterlimit="10" d="M590.898,575.091
								c1.247,1.622,2.301,3.395,3.135,5.263"/>
							<path fill="none" stroke="#313131" stroke-width="0.75" stroke-miterlimit="10" d="M588.097,576.764
								c1.291,1.787,1.808,2.819,2.578,4.476"/>
							<path fill="none" stroke="#313131" stroke-width="0.75" stroke-miterlimit="10" d="M585.73,577.986
								c0.876,1.177,1.737,2.808,2.417,4.106"/>
						</g>
						
							<line fill="none" stroke="#313131" stroke-width="0.75" stroke-miterlimit="10" x1="626.384" y1="589.431" x2="570.913" y2="589.146"/>
						<path fill="none" stroke="#313131" stroke-width="0.75" stroke-miterlimit="10" d="M624.842,581.239
							c0,0-13.031,0.266-14.152,8.116"/>
						<path fill="none" stroke="#313131" stroke-width="0.75" stroke-miterlimit="10" d="M578.03,581.747
							c0,0,3.592,5.104,4.301,7.459"/>
					</g>
				</g>
				<path fill="#313131" d="M560.201,378.805c0,0,10.212,119.274,27.659,188.206h40.941
					c-16.383-84.245-22.531-154.657-22.531-154.657s2.769-20.913-2.535-33.549"/>
				<path fill="none" stroke="#696C70" stroke-width="0.75" stroke-miterlimit="10" d="M598.649,567.215
					c0,0-20.619-99.423-25.474-141.13"/>
				<g>
					<g>
						<g>
							<path fill="#FFDAC5" d="M557.599,537.964l-7.476,37.815l0.331,12.405l-48.636-0.247c-1.186-0.007-2.144-0.977-2.138-2.163
								l0,0c0.005-0.891,0.556-1.685,1.389-1.999l20.975-9.646l3.156-39.414"/>
							<path fill="#FF5E4D" d="M497.552,587.412c0.498-1.557,1.41-3.307,2.33-3.703l22.242-9.579
								c12.259,4.97,28.126,1.172,28.126,1.172l2.83,16.745c-0.003,0.555-0.454,1.002-1.009,0.998l-54.146-0.276
								C496.837,592.762,497.539,587.462,497.552,587.412z"/>
							<path fill="none" stroke="#313131" stroke-width="0.75" stroke-miterlimit="10" d="M517.309,575.091
								c1.247,1.622,2.301,3.395,3.136,5.263"/>
							<path fill="none" stroke="#313131" stroke-width="0.75" stroke-miterlimit="10" d="M514.509,576.764
								c1.291,1.787,1.807,2.819,2.578,4.476"/>
							<path fill="none" stroke="#313131" stroke-width="0.75" stroke-miterlimit="10" d="M512.143,577.986
								c0.877,1.177,1.735,2.808,2.417,4.106"/>
						</g>
						
							<line fill="none" stroke="#313131" stroke-width="0.75" stroke-miterlimit="10" x1="552.795" y1="589.431" x2="497.324" y2="589.146"/>
						<path fill="none" stroke="#313131" stroke-width="0.75" stroke-miterlimit="10" d="M551.255,581.239
							c0,0-13.03,0.266-14.152,8.116"/>
						<path fill="none" stroke="#313131" stroke-width="0.75" stroke-miterlimit="10" d="M504.441,581.747
							c0,0,3.595,5.104,4.302,7.459"/>
					</g>
				</g>
				<path fill="#313131" d="M538.142,378.805c0,0-11.331,86.531-20.136,188.206h41.202c6.958-71.063,15.858-151.993,15.858-151.993
					s10.523-11.294,8.551-33.984"/>
				<path fill="none" stroke="#696C70" stroke-width="0.75" stroke-miterlimit="10" d="M569.725,464.571l4.453-41.3
					c0.368-3.433,1.525-6.722,3.362-9.646c2.703-4.302,6.401-11.074,6.323-15.795"/>
				
					<line fill="none" stroke="#696C70" stroke-width="0.75" stroke-miterlimit="10" x1="528.639" y1="567.011" x2="550.935" y2="379.151"/>
				<path fill="none" stroke="#696C70" stroke-width="0.75" stroke-miterlimit="10" d="M562.103,398.743c0,0,8.449,0.589,13.558,0"
					/>
				<path fill="none" stroke="#696C70" stroke-width="0.75" stroke-miterlimit="10" d="M596.093,397.83c0,0,7.413,0.463,10.878,0"/>
			</g>
			<g>
				<path fill="#FFDAC5" d="M631.927,385.658c0,0,7.745,8.836,15.503,10.374c7.758,1.539,21.045-1.538,21.045-3.076
					c0-2.31-4.599-2.122-8.275-2.693c-3.373-0.524-5.961-2.854-5.961-2.854s-5.386-8.433-10.578-9.839"/>
				<path fill="#437CF9" d="M579.443,286.86l-19.242-1.676c0,0-16.562,6.646-19.768,30.441c-3.374,25.038-4.867,71.504-4.867,71.504
					c34.125,6.365,72.446,1.742,72.446,1.742C604.079,340.732,605.949,303.046,579.443,286.86z"/>
				<path fill="#437CF9" d="M565.174,285.617c12.827,0,20.777,0.638,32.818,14.021c8.145,9.049,22.609,27.866,28.684,37.512
					c11.915,18.924,23.526,42.339,23.526,42.339l-20.998,14.228l-26.998-44.948l-32.773-35.975"/>
				<polyline fill="none" stroke="#1135CC" stroke-width="0.75" stroke-miterlimit="10" points="606.183,355.387 602.207,348.768 
					569.433,312.793 				"/>
				<path fill="none" stroke="#1135CC" stroke-width="0.75" stroke-miterlimit="10" d="M556.591,287.229
					c0,0,10.881,3.983,24.896,0.247"/>
			</g>
			<g>
				<path fill="#FFDAC5" d="M581.817,265.71l-2.374,21.15c0,0-10.612,1.561-19.242-1.676l1.851-10.853L581.817,265.71z"/>
				<path fill="#FFDAC5" d="M564.206,251.196c0,0-12.259,15.823-7.975,22.707c2.228,3.579,6.14,5.548,10.428,3.471
					c3.179-1.541,16.283-12.029,15.285-14.707C578.125,252.435,564.206,251.196,564.206,251.196z"/>
				<path fill="#FFDAC5" d="M558.746,260.398c0,0-3.879,2.585-4.302,4.722c-0.188,0.945,3.023,1.731,3.023,1.731"/>
				<path fill="#FFFFFF" d="M557.265,268.683l5.872,0.292C562.986,271.191,557.667,275.745,557.265,268.683z"/>
				<g>
					<g>
						<path fill="#00276F" d="M562.427,260.923c-0.157,0.398-0.435,0.757-0.553,1.162c-0.072,0.246,0.195,0.409,0.401,0.309
							c0.483-0.234,0.697-0.89,0.727-1.393C563.023,260.646,562.54,260.636,562.427,260.923L562.427,260.923z"/>
					</g>
				</g>
				
					<path fill="none" stroke="#00276F" stroke-width="0.5" stroke-linecap="round" stroke-linejoin="round" stroke-miterlimit="10" d="
					M566.073,260.453c-0.417-1.029-1.327-1.845-2.397-2.146c-0.458-0.131-0.971-0.164-1.393,0.058"/>
				<g>
					<path fill="#0B0B3A" d="M586.737,255.05c-0.146-0.125-0.302-0.248-0.464-0.367c-1.204-0.889-1.127-2.37-2.181-3.398
						c-0.536-0.525-1.272-0.786-1.893-1.212c-0.803-0.552-1.383-1.362-2.081-2.041c-1.548-1.502-3.679-2.326-5.828-2.512
						c-2.148-0.187-4.317,0.233-6.349,0.962c-1.519,0.544-3.002,1.284-4.134,2.433c-1.602,1.624-2.396,4.347-0.891,6.305
						c1.22,1.585,3.519,1.885,4.717,3.517c1.362,1.852,0.455,4.444,1.327,6.541c0.624,1.5,2.102,2.604,2.608,4.14
						c0.329,0.996,0.213,2.078,0.537,3.075c1.019,3.121,5.176,5.004,8.311,4.922c1.563-0.041,1.894-0.75,2.694-2.006
						c1.81-2.835,3.472-5.793,4.546-8.971c0.872-2.578,1.59-5.561,0.975-8.274C588.334,256.854,587.704,255.879,586.737,255.05z"/>
				</g>
				<g>
					<path fill="#BA3E35" d="M573.895,254.313c0,0-4.417,2.988-8.824,1.72c-2.748-0.79-11.157-3.597-12.558-6.206
						c-0.654-1.216,7.963-1.429,7.963-1.429l10.95,1.997"/>
					
						<ellipse transform="matrix(-0.9955 -0.0945 0.0945 -0.9955 1137.042 547.7941)" fill="#BA3E35" cx="581.488" cy="246.981" rx="1.346" ry="1.413"/>
					<path fill="#FF5E4D" d="M588.295,264.44l-27.819-16.043c0,0,6.463-7.756,18.509-2.749
						C594.084,251.925,588.295,264.44,588.295,264.44z"/>
				</g>
				<path fill="#FFDAC5" d="M568.431,266.275c1.049-2.65,4.452-1.567,4.71,0.106c0.304,1.959-1.612,5.009-2.664,5.492
					c-2.126,0.98-3.731,0.681-3.709-0.959"/>
				<path fill="none" stroke="#F2A486" stroke-width="0.75" stroke-linejoin="round" stroke-miterlimit="10" d="M561.517,278.284
					c4.525,1.139,7.313-1.202,7.313-1.202"/>
			</g>
		</g>
		<g>
			<g>
				<g>
					<g>
						<g>
							<path fill="#FFDAC5" d="M817.715,537.964l-7.477,37.815l0.332,12.405l-48.635-0.247c-1.187-0.007-2.144-0.977-2.138-2.163
								l0,0c0.003-0.891,0.555-1.685,1.387-1.999l20.975-9.646l3.156-39.414"/>
							<path fill="#FF5E4D" d="M757.668,587.412c0.497-1.557,1.41-3.307,2.33-3.703l22.241-9.579
								c12.259,4.97,28.126,1.172,28.126,1.172l2.83,16.745c-0.002,0.555-0.454,1.002-1.007,0.998l-54.147-0.276
								C756.953,592.762,757.654,587.462,757.668,587.412z"/>
							<path fill="none" stroke="#313131" stroke-width="0.75" stroke-miterlimit="10" d="M777.425,575.091
								c1.247,1.622,2.302,3.395,3.136,5.263"/>
							<path fill="none" stroke="#313131" stroke-width="0.75" stroke-miterlimit="10" d="M774.625,576.764
								c1.292,1.787,1.808,2.819,2.578,4.476"/>
							<path fill="none" stroke="#313131" stroke-width="0.75" stroke-miterlimit="10" d="M772.257,577.986
								c0.878,1.177,1.739,2.808,2.417,4.106"/>
						</g>
						
							<line fill="none" stroke="#313131" stroke-width="0.75" stroke-miterlimit="10" x1="812.911" y1="589.431" x2="757.44" y2="589.146"/>
						<path fill="none" stroke="#313131" stroke-width="0.75" stroke-miterlimit="10" d="M811.37,581.239
							c0,0-13.029,0.266-14.15,8.116"/>
						<path fill="none" stroke="#313131" stroke-width="0.75" stroke-miterlimit="10" d="M764.558,581.747
							c0,0,3.592,5.104,4.299,7.459"/>
					</g>
				</g>
				<path fill="#313131" d="M798.256,378.805c0,0-11.33,86.531-20.135,188.206h41.204c6.956-71.063,15.858-151.993,15.858-151.993
					s10.521-11.294,8.55-33.984"/>
				
					<line fill="none" stroke="#696C70" stroke-width="0.75" stroke-miterlimit="10" x1="812.911" y1="567.011" x2="830.297" y2="418.747"/>
				<g>
					<g>
						<g>
							<path fill="#FFDAC5" d="M896.973,511.134l21.378,32.869l6.896,10.317l-41.277,25.724c-1.007,0.628-2.333,0.319-2.961-0.688
								l0,0c-0.471-0.756-0.426-1.724,0.107-2.433l12.602-19.344l-25.885-31.917"/>
							<path fill="#FF5E4D" d="M880.082,581.876c-0.409-1.583-0.571-3.55-0.005-4.375l13.708-19.962
								c13.021-2.334,24.42-14.007,24.42-14.007l11.322,12.656c0.294,0.468,0.148,1.087-0.319,1.38l-45.956,28.64
								C882.327,586.783,880.093,581.925,880.082,581.876z"/>
							<path fill="none" stroke="#313131" stroke-width="0.75" stroke-miterlimit="10" d="M890.223,560.916
								c1.92,0.711,3.758,1.646,5.461,2.783"/>
							<path fill="none" stroke="#313131" stroke-width="0.75" stroke-miterlimit="10" d="M888.747,563.826
								c2.045,0.822,3.032,1.422,4.569,2.412"/>
							<path fill="none" stroke="#313131" stroke-width="0.75" stroke-miterlimit="10" d="M887.397,566.121
								c1.369,0.53,2.966,1.449,4.234,2.188"/>
						</g>
						
							<line fill="none" stroke="#313131" stroke-width="0.75" stroke-miterlimit="10" x1="927.891" y1="554.126" x2="880.813" y2="583.466"/>
						<path fill="none" stroke="#313131" stroke-width="0.75" stroke-miterlimit="10" d="M922.221,548.021
							c0,0-10.885,7.17-7.646,14.41"/>
						<path fill="none" stroke="#313131" stroke-width="0.75" stroke-miterlimit="10" d="M882.886,573.409
							c0,0,5.763,2.403,7.617,4.019"/>
					</g>
				</g>
				<path fill="#313131" d="M820.318,378.805c0,0,0.609,54.92,16.995,105.2c6.667,20.455,43.727,68.788,43.727,68.788l32.786-18.077
					c0,0-22.704-37.46-34.115-59.295c-9.203-17.614-13.323-63.067-13.323-63.067s2.768-20.913-2.538-33.549"/>
				<path fill="none" stroke="#696C70" stroke-width="0.75" stroke-miterlimit="10" d="M907.875,538.236
					c0,0-22.702-37.46-34.114-59.295c-8.344-15.966-12.509-54.809-13.215-61.936c-0.072-0.721-0.069-1.436,0.009-2.159
					c0.471-4.347,1.951-21.552-2.655-32.52"/>
				<path fill="none" stroke="#696C70" stroke-width="0.75" stroke-miterlimit="10" d="M830.297,460.283
					c0,0-8.304-45.445-9.633-68.551"/>
				<path fill="none" stroke="#696C70" stroke-width="0.75" stroke-miterlimit="10" d="M861.141,405.171
					c0,0-16.718-2.851-21.84-10.82"/>
				<path fill="none" stroke="#696C70" stroke-width="0.75" stroke-miterlimit="10" d="M815.276,395.188
					c0,0,0.76,15.507,2.128,16.874c1.367,1.368,5.527,1.663,5.527,1.663"/>
				<path fill="none" stroke="#696C70" stroke-width="0.75" stroke-miterlimit="10" d="M795.453,401.212
					c0,0,10.55-2.531,12.07-6.861"/>
			</g>
			<g>
				<path fill="#437CF9" d="M820.244,282.2l-4.001,5.176c0,0-20.401,17.883-20.401,41.198c0,23.316-0.389,66.358-0.389,66.358
					s37.278,6.52,75.584,0c0,0-6.304-42.893-13.324-76.862c-4.49-21.725-22.273-32.824-22.273-32.824"/>
				<path fill="#FFDAC5" d="M819.667,331.48c0,0-12.423,16.544-25.58,24.015c-21.784,12.372-46.076,18.47-46.076,18.47
					l-10.693-16.976c0,0,15.9-3.654,37.686-16.026c13.157-7.472,25.58-24.015,25.58-24.015"/>
				<g>
					<path fill="#FFDAC5" d="M749.689,353.098c-6.399,2.389-27.606,7.199-27.811,8.584c-0.204,1.383,6.738,0.112,6.359,1.216
						c-0.38,1.106-10.924,3.786-10.758,5.223c0.227,1.946,10.877-1.376,10.877-1.376s-11.484,4.22-10.802,5.854
						c0.487,1.156,9.693-1.546,13.236-2.194c-3.75,1.191-10.594,3.295-10.066,4.485c0.526,1.18,7.638,0.329,12.395-0.794
						c-2.904,0.978-8.385,2.534-7.949,3.657c0.435,1.119,16.132-0.786,34.717-7.359"/>
				</g>
				<polyline fill="#437CF9" points="814.088,293.116 794.884,321.535 819.691,338.752 837.764,312.94 				"/>
				<path fill="none" stroke="#1135CC" stroke-width="0.75" stroke-miterlimit="10" d="M798.508,316.175
					c-0.012,0.014,12.276-18.167,12.276-18.167"/>
				
					<line fill="none" stroke="#1135CC" stroke-width="0.75" stroke-miterlimit="10" x1="818.279" y1="337.771" x2="833.803" y2="315.484"/>
			</g>
			<g>
				<path fill="#FFDAC5" d="M809.395,260.559c0,0-3.296,3.294-3.291,5.472c0.001,0.963,3.303,1.106,3.303,1.106"/>
				<path fill="#FFDAC5" d="M833.061,261.244l2.378,24.001c0,0-10.103,3.612-19.196,2.13l-0.875-13.801L833.061,261.244z"/>
				<path fill="#FFDAC5" d="M812.946,250.465c0,0-8.918,17.917-3.369,23.828c2.887,3.073,7.108,4.237,10.904,1.36
					c2.818-2.135,13.611-14.988,12.106-17.418C826.838,248.95,812.946,250.465,812.946,250.465z"/>
				<g>
					<g>
						<path fill="#00276F" d="M813.118,260.294c-0.079,0.447-0.283,0.88-0.324,1.323c-0.018,0.194,0.251,0.358,0.411,0.236
							c0.466-0.353,0.557-1.009,0.478-1.56C813.641,260.009,813.167,260.017,813.118,260.294L813.118,260.294z"/>
					</g>
				</g>
				
					<path fill="none" stroke="#00276F" stroke-width="0.5" stroke-linecap="round" stroke-linejoin="round" stroke-miterlimit="10" d="
					M816.592,259.175c-0.612-0.927-1.665-1.548-2.771-1.634c-0.475-0.038-0.986,0.03-1.354,0.33"/>
				<g>
					<path fill="#0B0B3A" d="M838.149,262.342c1.763-4.595,1.16-10.235-2.19-13.839l-1.731,0.203
						c-0.562-0.683-0.936-1.514-1.763-2.052c-0.63-0.41-1.403-0.522-2.092-0.818c-0.896-0.384-1.625-1.066-2.442-1.593
						c-1.813-1.169-4.063-1.56-6.207-1.321c-2.145,0.239-4.189,1.075-6.036,2.188c-1.383,0.832-2.694,1.848-3.577,3.197
						c-1.422,2.165-1.779,5.643,0.882,7.032c1.467,0.766,3.287,0.694,4.767,1.477c2.154,1.138,1.19,3.604,2.597,5.249
						c0.841,0.983,2.344,1.222,3.128,2.251c0.632,0.834,0.637,1.965,0.806,2.998c0.164,1.015,0.524,2.021,1.19,2.803
						c0.666,0.784,1.669,1.319,2.695,1.268c0.364-0.018,0.726-0.106,1.088-0.079c1.021,0.08,1.74,1.021,2.666,1.455
						c0.935,0.439,2.091,0.322,2.959-0.239c0.867-0.56,1.442-1.528,1.592-2.551c0.126-0.858-0.028-1.732,0.018-2.598
						C836.592,265.601,837.512,263.999,838.149,262.342z"/>
				</g>
				<path fill="#FFDAC5" d="M821.12,264.422c0.509-2.804,4.06-2.408,4.642-0.818c0.681,1.862-0.603,5.227-1.537,5.908
					c-1.896,1.378-3.525,1.399-3.825-0.213"/>
				<g>
					<path fill="#BA3E35" d="M823.059,251.62c0,0-3.746,3.795-8.316,3.417c-2.85-0.236-11.646-1.34-13.53-3.624
						c-0.879-1.065,7.527-2.962,7.527-2.962l11.13-0.188"/>
					
						<ellipse transform="matrix(-0.9947 0.1024 -0.1024 -0.9947 1678.6616 399.674)" fill="#BA3E35" cx="829.067" cy="242.944" rx="1.346" ry="1.412"/>
					<path fill="#FF5E4D" d="M839.166,258.73l-30.426-10.279c0,0,4.817-8.872,17.612-6.323
						C842.387,245.322,839.166,258.73,839.166,258.73z"/>
				</g>
				<g>
					<path fill="#0B0B3A" d="M820.542,261.523c-0.295,1.237-0.638,2.553-1.588,3.399c-0.837,0.744-1.996,0.985-3.098,1.18
						c-2.595,0.454-5.208,0.801-7.83,1.037c-0.275,0.025-0.589,0.074-0.728,0.312c-0.063,0.11-0.074,0.241-0.084,0.368
						c-0.219,2.714-0.436,5.475,0.132,8.139c0.11,0.512,0.258,1.038,0.605,1.43c0.463,0.522,1.193,0.71,1.883,0.828
						c3.086,0.523,6.318,0.147,9.204-1.068c0.682-0.286,1.355-0.628,1.889-1.14c0.984-0.939,1.381-2.351,1.444-3.709
						c0.063-1.358-0.167-2.711-0.236-4.07c-0.123-2.346,0.231-4.718,1.038-6.925"/>
				</g>
				<path fill="#FFFFFF" d="M809.569,268.971l5.813-0.864C815.669,270.312,811.348,275.818,809.569,268.971z"/>
			</g>
		</g>
	</g>
	<g>
		<g>
			<g>
				<g>
					<g>
						<path fill="#FFDAC5" d="M133.075,537.964l2.816,37.815l-0.333,12.405l48.635-0.247c1.187-0.007,2.145-0.977,2.139-2.163l0,0
							c-0.005-0.891-0.557-1.685-1.388-1.999l-20.976-9.646l-0.897-39.414"/>
						<path fill="#FF5E4D" d="M188.46,587.412c-0.497-1.557-1.41-3.307-2.33-3.703l-22.24-9.579
							c-12.259,4.97-28.127,1.172-28.127,1.172l-2.831,16.745c0.003,0.555,0.454,1.002,1.008,0.998l54.147-0.276
							C189.177,592.762,188.476,587.462,188.46,587.412z"/>
						<path fill="none" stroke="#313131" stroke-width="0.75" stroke-miterlimit="10" d="M168.704,575.091
							c-1.246,1.622-2.301,3.395-3.135,5.263"/>
						<path fill="none" stroke="#313131" stroke-width="0.75" stroke-miterlimit="10" d="M171.504,576.764
							c-1.292,1.787-1.807,2.819-2.578,4.476"/>
						<path fill="none" stroke="#313131" stroke-width="0.75" stroke-miterlimit="10" d="M173.871,577.986
							c-0.876,1.177-1.737,2.808-2.417,4.106"/>
					</g>
					
						<line fill="none" stroke="#313131" stroke-width="0.75" stroke-miterlimit="10" x1="133.218" y1="589.431" x2="188.689" y2="589.146"/>
					<path fill="none" stroke="#313131" stroke-width="0.75" stroke-miterlimit="10" d="M134.759,581.239
						c0,0,13.032,0.266,14.153,8.116"/>
					<path fill="none" stroke="#313131" stroke-width="0.75" stroke-miterlimit="10" d="M181.572,581.747
						c0,0-3.593,5.104-4.301,7.459"/>
				</g>
			</g>
			<g>
				<g>
					<g>
						<path fill="#FFDAC5" d="M75.72,537.964l-6.128,37.815l-0.333,12.405l48.636-0.247c1.188-0.007,2.145-0.977,2.139-2.163l0,0
							c-0.005-0.891-0.557-1.685-1.389-1.999L97.67,574.13l8.044-39.414"/>
						<path fill="#FF5E4D" d="M122.162,587.412c-0.497-1.557-1.411-3.307-2.33-3.703l-22.24-9.579
							c-12.259,4.97-28.127,1.172-28.127,1.172l-2.831,16.745c0.002,0.555,0.455,1.002,1.008,0.998l54.147-0.276
							C122.879,592.762,122.178,587.462,122.162,587.412z"/>
						<path fill="none" stroke="#313131" stroke-width="0.75" stroke-miterlimit="10" d="M102.405,575.091
							c-1.246,1.622-2.3,3.395-3.135,5.263"/>
						<path fill="none" stroke="#313131" stroke-width="0.75" stroke-miterlimit="10" d="M105.206,576.764
							c-1.292,1.787-1.807,2.819-2.578,4.476"/>
						<path fill="none" stroke="#313131" stroke-width="0.75" stroke-miterlimit="10" d="M107.573,577.986
							c-0.877,1.177-1.737,2.808-2.417,4.106"/>
					</g>
					
						<line fill="none" stroke="#313131" stroke-width="0.75" stroke-miterlimit="10" x1="66.92" y1="589.431" x2="122.391" y2="589.146"/>
					<path fill="none" stroke="#313131" stroke-width="0.75" stroke-miterlimit="10" d="M68.461,581.239
						c0,0,13.03,0.266,14.151,8.116"/>
					<path fill="none" stroke="#313131" stroke-width="0.75" stroke-miterlimit="10" d="M115.274,581.747
						c0,0-3.593,5.104-4.301,7.459"/>
				</g>
			</g>
			<path fill="#313131" d="M153.233,382.341c0,0,13.903,91.579,17.431,183.158h-38.166c-6.621-91.431-22.043-181.405-23.793-183.158
				"/>
			<path fill="none" stroke="#696C70" stroke-width="0.75" stroke-miterlimit="10" d="M139.631,565.499
				c-6.621-91.431-22.043-181.405-23.794-183.158"/>
			<path fill="#313131" d="M129.449,382.827c-4.266,82.569-24.836,182.968-24.836,182.968H64.588
				c8.631-50.329,17.402-131.566,19.036-146.988c0.164-1.552,0.061-3.117-0.331-4.628c-1.207-4.654-3.516-16.766,0.031-31.838"/>
			<path fill="none" stroke="#696C70" stroke-width="0.75" stroke-miterlimit="10" d="M70.293,565.795
				c8.632-50.329,17.402-131.566,19.037-146.988c0.164-1.552,0.06-3.117-0.331-4.628c-1.207-4.654-3.515-16.766,0.031-31.838"/>
			<path fill="none" stroke="#696C70" stroke-width="0.75" stroke-miterlimit="10" d="M121.83,461.605c0,0,6.812-58.986,7.46-75.855
				"/>
			<path fill="none" stroke="#696C70" stroke-width="0.75" stroke-miterlimit="10" d="M87.174,396.515
				c0,0,15.707-0.619,19.962-10.765"/>
			<path fill="none" stroke="#696C70" stroke-width="0.75" stroke-miterlimit="10" d="M128.234,400.46c0,0,3.073,0.583,4.059-1.19
				c0.986-1.774,1.775-14.395,1.775-14.395"/>
			<path fill="none" stroke="#696C70" stroke-width="0.75" stroke-miterlimit="10" d="M143.927,384.875c0,0,2.74,8.597,10.933,8.833
				"/>
		</g>
		<g>
			<g>
				<path fill="#FFDAC5" d="M181.503,296.171c0,0,12.335-17.55,13.499-17.357c1.162,0.192-1.433,3.881-0.449,3.86
					c0.984-0.02,6.731-8.671,7.84-8.169c1.505,0.681-3.894,8.374-3.894,8.374s6.332-8.131,7.466-7.163
					c0.804,0.685-3.744,7.113-5.173,9.788c1.917-2.702,5.545-6.709,6.364-5.981c0.812,0.723-2.19,5.165-4.31,8.69
					c1.529-2.076,4.513-5.705,5.301-5.068c0.786,0.637-8.161,15.977-14.744,26.382"/>
			</g>
			<path fill="none" stroke="#F2A486" stroke-width="0.75" stroke-linejoin="round" stroke-miterlimit="10" d="M200.964,290.189
				c0,0-3.685,0.926-6.115,4.911"/>
			<path fill="#437CF9" d="M118.167,296.106c0,0,29.75,47.406,45.116,47.406c15.37,0,40.179-41.754,40.179-41.754l-19.428-13.724
				l-20.329,23.198c0,0-12.571-17.306-18.567-21.695c-6.605-4.837-13.561-8.59-26.952-8.096"/>
			
				<line fill="none" stroke="#1135CC" stroke-width="0.75" stroke-miterlimit="10" x1="200.964" y1="305.779" x2="181.255" y2="292.422"/>
			<path fill="none" stroke="#F2A486" stroke-width="0.75" stroke-linejoin="round" stroke-miterlimit="10" d="M193.94,284.739
				c0,0,1.548,3.949,0.909,7.266"/>
		</g>
		<g>
			<path fill="#437CF9" d="M146.234,309.526l-28.049-28.085l-17.021,0.193c0,0-3.412,0.424-8.367,2.378
				c-4.534,1.789-17.768,22.652-17.768,22.652s5.195,77.785,5.195,80.176c15.555,2.941,49.458,3.209,79.093,0
				C155.743,360.975,146.234,309.526,146.234,309.526z"/>
		</g>
		<path fill="none" stroke="#1135CC" stroke-width="0.75" stroke-miterlimit="10" d="M98.314,283.76c0,0,2.926,6.226,12.455,6.226
			s11.993-7.026,11.993-7.026"/>
		<g>
			<path fill="#FFFFFF" stroke="#418BE5" stroke-linejoin="round" stroke-miterlimit="10" d="M172.436,316.277
				c23.887,7.794,49.568-5.249,57.363-29.135c7.794-23.885-5.25-49.568-29.135-57.362c-9.522-3.107-19.328-2.899-28.173-0.017v0
				c-11.317,3.138-27.054,15.751-33.347,13.697l-7.189-2.346c-1.435-0.468-2.978,0.316-3.446,1.751l-2.269,6.95l-2.084,6.387
				l-2.268,6.95c-0.468,1.436,0.316,2.978,1.751,3.446l7.189,2.346c6.292,2.054,11.562,21.522,18.849,30.731l0,0
				C155.119,307.22,162.915,313.171,172.436,316.277z"/>
			<path fill="none" stroke="#418BE5" stroke-linejoin="round" stroke-miterlimit="10" d="M114.423,241.426
				c0,0,60.36,22.144,76.515,14.149c6.329-3.131,3.924-8.635,0.484-9.63c-6.35-1.834-16.03,1.09-21.727,8.435
				c-6.099,7.863,1.57,18.815,10.68,25.414c7.653,5.542,19.507,7.129,22.322-1.497l-0.002,0.003
				c2.815-8.627-7.692-14.337-17.143-14.375c-11.248-0.046-23.901,4.275-23.613,14.221c0.269,9.292,6.359,17.365,12.569,19.628
				c3.364,1.227,8.551-1.8,5.289-8.062c-8.331-15.985-70.134-33.707-70.134-33.707"/>
			<path fill="#28364C" d="M138.199,239.587l-10.419,31.928l-15.217-4.966c-2.485-0.811-4.688-2.313-6.351-4.329l0,0
				c-3.145-3.812-4.121-8.965-2.588-13.664l1.527-4.681c1.534-4.697,5.362-8.284,10.149-9.507l0,0
				c2.532-0.647,5.197-0.56,7.682,0.25L138.199,239.587z"/>
		</g>
		
			<line fill="none" stroke="#1135CC" stroke-width="0.75" stroke-miterlimit="10" x1="151.009" y1="337.153" x2="145.138" y2="303.181"/>
		<g>
			<path fill="#FFDAC5" d="M119.491,246.9c0,0,8.901,17.018,5.397,24.445c-1.822,3.861-10.058,5.747-14.351,3.951
				c-3.186-1.333-10.992-12.919-10.269-15.755C103.031,248.707,119.491,246.9,119.491,246.9z"/>
			<path fill="#FFDAC5" d="M103.604,271.137l-2.975,12.078c0,0,10.59,7.489,19.523-0.255l0.757-12.283L103.604,271.137z"/>
			<path fill="#212237" d="M97.713,268.339c-1.727-3.533-2.218-5.134-3.199-9.546c-1.025-4.609,2.395-6.28,2.395-6.28
				s-0.558,0.579,0.992-3.634c1.462-3.976,7.526-4.333,11.108-5.276c4.707-1.238,3.112-0.297,6.117,1.479
				c1.31,0.774,7.906,2.057,4.22,4.724c-2.106,1.525-0.249,3.41-2.78,4.071c-4.719,1.232-9.178,1.403-10.413,4.649
				c-0.66,1.735-0.442,2.313-0.174,3.789c0.116,0.64,0.546,1.963,0.68,2.389l-1.773,1.629c0.409,2.089,1.874,4.042,1.676,6.264
				c-0.104,1.163-3.984,2.7-3.984,2.7S99.591,272.181,97.713,268.339z"/>
			<path fill="#FFDAC5" d="M106.129,266.429c-2.369-2.193-3.822-1.478-4.392,0.103c-0.759,2.107,2.206,5.577,3.37,6.037
				c2.359,0.933,4.038,0.449,3.854-1.423"/>
			<path fill="none" stroke="#F2A486" stroke-width="0.75" stroke-linejoin="round" stroke-miterlimit="10" d="M120.152,275.297
				c-4.072,0.636-10.432,0.122-10.432,0.122"/>
			<path fill="none" stroke="#F2A486" stroke-width="0.75" stroke-linejoin="round" stroke-miterlimit="10" d="M118.35,259.431
				c0,0,3.244,3.96,3.113,5.176c-0.131,1.215-2.939,1.668-2.939,1.668"/>
			<path fill="#FFFFFF" d="M121.99,267.393l-7.586,1.929c0,0,1.91,3.814,6.002,2.469C123.325,270.833,121.99,267.393,121.99,267.393
				z"/>
			<g>
				<g>
					<path fill="#00276F" d="M121.204,258.017c0.097,0.333,0.208,0.664,0.34,0.984c0.189,0.461,0.947,0.268,0.761-0.21
						c-0.138-0.354-0.297-0.702-0.473-1.039C121.651,257.403,121.096,257.646,121.204,258.017L121.204,258.017z"/>
				</g>
			</g>
			
				<path fill="none" stroke="#00276F" stroke-width="0.5" stroke-linecap="round" stroke-linejoin="round" stroke-miterlimit="10" d="
				M119.909,256.201c0,0,1.007-1.721,2.853-0.66"/>
			<g>
				<g>
					<path fill="#00276F" d="M112.247,261.037c0.078,0.338,0.17,0.676,0.284,1.004c0.166,0.476,0.92,0.277,0.761-0.21
						c-0.118-0.36-0.262-0.713-0.417-1.059C112.71,260.402,112.164,260.674,112.247,261.037L112.247,261.037z"/>
				</g>
			</g>
			
				<path fill="none" stroke="#00276F" stroke-width="0.5" stroke-linecap="round" stroke-linejoin="round" stroke-miterlimit="10" d="
				M113.05,257.741c0,0-1.956-0.436-3.667,2.007"/>
		</g>
		<g>
			<g>
				<path fill="#FFDAC5" d="M135.804,305.995c0,0,17.79-16.049,18.931-15.755c1.14,0.294-1.769,3.74-0.787,3.807
					c0.982,0.066,7.468-8.044,8.528-7.448c1.438,0.811-4.615,7.998-4.615,7.998s7.024-7.542,8.067-6.479
					c0.74,0.752-4.356,6.756-6.016,9.293c2.148-2.521,6.114-6.195,6.866-5.397c0.745,0.792-2.636,4.953-5.058,8.278
					c1.706-1.934,4.998-5.287,5.727-4.583c0.727,0.704-9.535,15.196-17.007,24.983"/>
			</g>
			<path fill="#437CF9" d="M92.798,284.012c-7.758,2.691-18.794,7.749-21.615,16.257c-5.88,17.733,27.397,50.676,43.449,50.676
				c16.056,0,45.504-39.542,45.504-39.542l-14.802-14.53l-28.685,27.171l-20.03-18.216"/>
			<polyline fill="none" stroke="#1135CC" stroke-width="0.75" stroke-miterlimit="10" points="145.334,296.872 116.649,324.043 
				96.619,305.827 			"/>
			<path fill="none" stroke="#1135CC" stroke-width="0.75" stroke-miterlimit="10" d="M76.257,321.573
				c9.695,12.737,28.453,29.371,38.375,29.371c16.056,0,45.504-39.542,45.504-39.542"/>
			
				<line fill="none" stroke="#1135CC" stroke-width="0.75" stroke-miterlimit="10" x1="142.542" y1="299.52" x2="158.005" y2="314.658"/>
		</g>
		<g>
			<path fill="#BA3E35" d="M109.894,251.768c0,0,4.022,3.5,8.55,2.777c2.824-0.451,11.511-2.217,13.217-4.636
				c0.795-1.129-7.73-2.385-7.73-2.385l-11.113,0.653"/>
			
				<ellipse transform="matrix(0.9996 0.0267 -0.0267 0.9996 6.5337 -2.6673)" fill="#BA3E35" cx="103.245" cy="243.57" rx="1.345" ry="1.412"/>
			<path fill="#FF5E4D" d="M94.372,260.075l29.56-12.552c0,0-5.476-8.481-18.04-4.973C90.143,246.95,94.372,260.075,94.372,260.075z
				"/>
		</g>
	</g>
</g>
</svg>
