<?xml version="1.0" encoding="utf-8"?>
<!-- Generator: Adobe Illustrator 16.0.0, SVG Export Plug-In . SVG Version: 6.00 Build 0)  -->
<!DOCTYPE svg PUBLIC "-//W3C//DTD SVG 1.1//EN" "http://www.w3.org/Graphics/SVG/1.1/DTD/svg11.dtd">
<svg version="1.1" xmlns="http://www.w3.org/2000/svg" xmlns:xlink="http://www.w3.org/1999/xlink" x="0px" y="0px" width="300px"
	 height="315.959px" viewBox="0 0 300 315.959" enable-background="new 0 0 300 315.959" xml:space="preserve">
<g id="Layer_1">
	<g>
		<g>
			<g>
				<path fill="#F7B690" d="M63.724,188.557c-0.41,3.792-0.635,7.827,1.108,11.22c1.743,3.393,6.166,5.689,9.504,3.847
					c1.883-1.039,2.962-3.063,3.941-4.98c5.488-10.751,10.979-21.505,16.466-32.257c4.524-8.866,9.171-18.272,8.598-28.209
					c-0.267-4.592-1.707-9.171-4.482-12.837c-2.425-3.204-7.693-8.304-11.316-4.558c-3.609,3.729-6.086,10.237-8.371,14.852
					c-5.274,10.658-9.339,21.912-12.096,33.478C65.552,175.515,64.429,182.011,63.724,188.557z"/>
				<path fill-rule="evenodd" clip-rule="evenodd" fill="#7368E3" d="M103.297,140.284c-0.296-5.108-1.9-10.202-4.989-14.284
					c-2.696-3.563-4.274-12.519-8.308-8.352c-4.014,4.15-11.056,14.672-13.597,19.807c-3.344,6.759-6.235,13.738-8.686,20.868
					l26.313,12.757C98.97,161.389,103.923,151.122,103.297,140.284z"/>
				<path fill="#F7B690" d="M64.548,187.815c2.671-3.252,7.269-4.39,11.451-3.924c4.181,0.462,8.071,2.288,11.871,4.094
					c6.968,3.31,13.928,6.631,20.888,9.952c7.186,3.429,14.373,6.856,21.558,10.285c1.118,0.536,2.351,1.195,2.712,2.381
					c0.387,1.271-0.457,2.66-1.61,3.324c-1.15,0.663-2.529,0.771-3.856,0.84c-10.781,0.563-21.642-0.467-32.139-2.979
					c-5.303-1.271-10.514-2.916-15.581-4.928c-4.354-1.73-10.531-3.643-14.048-6.84C62.431,196.965,61.582,191.431,64.548,187.815z"
					/>
			</g>
			<g>
				<path fill-rule="evenodd" clip-rule="evenodd" fill="#222B54" d="M109.675,212.048c8.01-1.173,46.02-1.173,54.026,0
					c9.963,1.457,8.464,13.854,7.208,21.271c-1.369,8.092-3.044,16.781-8.992,22.436c-5.808,5.526-44.646,5.526-50.456,0
					c-5.947-5.654-7.623-14.344-8.991-22.436C101.214,225.901,99.715,213.505,109.675,212.048z"/>
				<path fill-rule="evenodd" clip-rule="evenodd" fill="#222B54" d="M249.153,246.039c4.18,4.613,6.907,12.176,3.283,16.967
					c-3.069,4.057-88.89-3.926-101.579-3.926c-9.018-11.495-8.662-28.948,14.447-40.714c4.944-2.516,10.374,0.13,15.744,1.259
					C196.595,222.896,238.766,234.587,249.153,246.039z"/>
				<path fill-rule="evenodd" clip-rule="evenodd" fill="#222B54" d="M63.589,164.129c-6.2-0.54-13.046,1.87-16.065,7.313
					c-2.469,4.451-1.94,10.078,0.141,14.722c2.08,4.646,5.528,8.52,8.922,12.312c49.071,54.816,49.865,57.301,58.069,59.501
					c13.981,3.749,30.861-0.059,18.468-32.165C131.125,220.638,78.991,165.468,63.589,164.129z"/>
				<path fill="#F7B690" d="M107.255,276.232c-3.267-1.906-9.746-10.325-17.327-21.415l14.27-5.03
					C108.865,266.344,110.678,278.231,107.255,276.232z"/>
				<path fill-rule="evenodd" clip-rule="evenodd" fill="#0A3C5F" d="M51.161,165.044c8.706-4.199,17.286-3.105,24.235,8.161
					c9.373,15.188,21.949,52.259,28.801,76.582l-16.372,7.42c-10.365-23.653-30.796-54.329-38.711-68.264
					C44.677,181.129,44.293,168.355,51.161,165.044z"/>
				<g>
					<path fill="#F7B690" d="M150.542,260.764l7.086,13.248c-10.586,0.699-19.104,0.818-22.694-0.67
						C131.324,271.845,138.533,266.566,150.542,260.764z"/>
					<path fill-rule="evenodd" clip-rule="evenodd" fill="#0A3C5F" d="M234.333,245.814c13.237,0,19.771,6.807,19.771,11.601
						c0,8.152-5.03,16.865-17.564,16.865c-15.939,0-55.877-0.542-80.372,1.13l-5.624-14.646
						C168.615,252.033,214.972,245.814,234.333,245.814z"/>
					<path fill-rule="evenodd" clip-rule="evenodd" fill="#0A3C5F" d="M129.692,271.483c0.483-0.302,4.13-5.677,6.509-6.63
						c1.381-0.55,3.243-1.428,4.724-0.703c1.678,0.82,1.755,3.151,2.753,4.558c0.747,1.054,1.77,1.919,2.933,2.494l2.315-3.111
						c8.197,3.783,1.685,13.311,9.906,17.232c1.985,0.945,4.15,1.61,5.854,3.003c1.702,1.394,2.779,3.935,1.646,5.819
						c-0.424,0.71-1.1,1.203-1.873,1.504l-26.483-12.85c0,0-0.159-5.357,0.599-5.96c-0.9,0.363-3.006,1.344-3.968,1.358
						L129.692,271.483z"/>
				</g>
				<path fill-rule="evenodd" clip-rule="evenodd" fill="#0A3C5F" d="M89.342,276.934c-0.086-2.189,0.829-4.006,1.77-4.516
					c0.94-0.51,2.408-4.183,4.354-9.557c0.893-2.459,5.856-3.147,8.333,1.085c0.804,1.373,1.552,2.266,2.455,2.236
					c0.756-0.027,1.602-1.342,2.331-0.473c0.64,0.769,0.812,2.788,0.976,4.229c0.279,2.483,0.533,4.982,0.8,7.472
					c0.061,0.553,0.117,1.128,0.136,1.694h-20.7C89.547,278.498,89.375,277.759,89.342,276.934z"/>
			</g>
			<g>
				<path fill="#F7B690" d="M209.657,188.557c0.407,3.792,0.636,7.827-1.108,11.22c-1.743,3.393-6.165,5.689-9.507,3.847
					c-1.882-1.039-2.961-3.063-3.938-4.98c-5.488-10.751-10.979-21.505-16.467-32.257c-4.524-8.866-9.173-18.272-8.598-28.209
					c0.265-4.592,1.707-9.171,4.482-12.837c2.425-3.204,7.69-8.304,11.316-4.558c3.609,3.729,6.087,10.237,8.371,14.852
					c5.273,10.658,9.339,21.912,12.093,33.478C207.828,175.515,208.951,182.011,209.657,188.557z"/>
				<path fill-rule="evenodd" clip-rule="evenodd" fill="#7368E3" d="M170.042,140.284c0.298-5.108,1.902-10.202,4.988-14.284
					c2.698-3.563,4.275-12.519,8.309-8.352c4.016,4.15,11.056,14.672,13.599,19.807c3.342,6.759,6.235,13.738,8.684,20.868
					L179.31,171.08C174.372,161.389,169.417,151.122,170.042,140.284z"/>
				<path fill="#F7B690" d="M208.128,189.694c-2.669-3.252-7.269-4.392-11.449-3.926c-4.18,0.464-8.072,2.291-11.873,4.094
					c-6.966,3.31-13.928,6.631-20.886,9.952c-7.188,3.429-14.373,6.856-21.56,10.287c-1.119,0.534-2.352,1.193-2.713,2.381
					c-0.387,1.271,0.46,2.658,1.61,3.322c1.15,0.663,2.53,0.772,3.856,0.84c10.785,0.563,21.645-0.467,32.142-2.978
					c5.304-1.271,10.515-2.918,15.581-4.93c4.353-1.73,10.531-3.641,14.048-6.84C210.249,198.845,211.097,193.31,208.128,189.694z"
					/>
			</g>
			<path fill-rule="evenodd" clip-rule="evenodd" fill="#7368E3" d="M88.928,118.837c2.565-3.105,6.427-4.8,10.206-6.185
				c11.108-4.075,36.592-14.734,37.556-14.713c0.961-0.021,26.445,10.638,37.556,14.713c3.779,1.385,7.641,3.08,10.204,6.185
				c3.422,4.141,3.867,10.09,2.637,15.32c-1.23,5.228-3.913,9.975-6.254,14.81c-2.921,6.03-5.34,12.304-7.237,18.73
				c-3.427,11.608-5.158,23.72-5.106,35.826c0.018,3.71,1.99,9.987,0.849,13.489c-1.432,4.398-9.016,5.396-12.845,5.887
				c-6.562,0.847-13.193,1.126-19.803,0.851c-6.609,0.275-13.242-0.004-19.803-0.851c-3.832-0.491-11.413-1.488-12.845-5.887
				c-1.142-3.502,0.83-9.779,0.846-13.489c0.055-12.106-1.678-24.218-5.104-35.826c-1.898-6.427-4.316-12.7-7.237-18.73
				c-2.343-4.835-5.024-9.582-6.254-14.81C85.063,128.927,85.508,122.978,88.928,118.837z"/>
			<g>
				<path fill="#F4A086" d="M128.313,96.641c1.035-3.334,1.591-9.567,3.652-11.785c1.237-1.331,7.695-1.331,8.932,0
					c2.062,2.217,2.618,8.451,3.653,11.785c1.161,3.733,2.171,8.213,0.96,11.907c-0.849,2.586-2.644,4.138-4.464,4.661
					c-1.521,0.437-7.71,0.437-9.229,0c-1.82-0.522-3.615-2.074-4.464-4.661C126.142,104.854,127.152,100.374,128.313,96.641z"/>
				<path fill="#F7B690" d="M122.755,68.564c2.078-6.055,25.273-6.055,27.353,0c1.652,4.818,1.888,10.256,0.946,15.329
					c-0.888,4.791-2.823,9.131-5.536,12.729c-1.852,2.452-4.26,6.067-6.956,7.287H134.3c-2.695-1.22-5.104-4.835-6.956-7.287
					c-2.712-3.599-4.647-7.938-5.536-12.729C120.868,78.82,121.103,73.383,122.755,68.564z"/>
				<path fill-rule="evenodd" clip-rule="evenodd" fill="#0A3C5F" d="M123.455,84.628c-0.288-1.432-0.918-2.78-1.197-4.214
					s-0.791-3.082,0.252-4.107c0.951,4.395,2.81,8.734,4.252,12.994c0.313,0.922,0.655,1.873,1.337,2.565
					c0.838,0.853,2.06,1.19,3.235,1.398c1.292,0.227,4.703-1.226,5.098-1.203c0.395-0.023,3.807,1.43,5.098,1.203
					c1.176-0.208,2.397-0.546,3.235-1.398c0.683-0.692,1.024-1.644,1.338-2.565c1.442-4.26,2.643-8.6,3.594-12.994
					c1.042,1.025,1.188,2.673,0.909,4.107s-0.909,2.782-1.196,4.214c-0.023,0.113-0.042,0.227-0.061,0.34
					c-0.141,0.938-0.107,1.948,0.283,2.828c0.176,0.401,0.415,0.662,0.43,1.104c0.013,0.409-0.163,0.917-0.243,1.323
					c-0.38,1.944-0.944,3.853-1.671,5.696c-0.729,1.843-1.621,3.622-2.66,5.31c-0.521,0.844-1.079,1.667-1.669,2.463
					c-0.248,0.334-1.409,2.221-1.8,2.221l-4.53,1.295h-2.112l-4.531-1.295c-0.388,0-1.551-1.887-1.799-2.221
					c-0.59-0.796-1.148-1.619-1.667-2.463c-1.041-1.688-1.934-3.466-2.662-5.31c-0.727-1.843-1.291-3.752-1.672-5.696
					c-0.079-0.405-0.256-0.914-0.243-1.323c0.015-0.443,0.254-0.704,0.431-1.104c0.391-0.88,0.424-1.89,0.283-2.828
					C123.499,84.854,123.477,84.741,123.455,84.628z"/>
				<path fill-rule="evenodd" clip-rule="evenodd" fill="#0A3C5F" d="M113.719,56.02c2.821-3.748,8.021-5.215,12.193-3.406
					c1.756,0.761,3.332,2.034,5.19,2.423c2.169,0.454,4.377-0.363,6.445-1.197c2.07-0.833,4.243-1.711,6.431-1.377
					c2.19,0.333,4.323,2.364,4.04,4.706c2.951-1.164,6.533-0.19,8.604,2.342c2.07,2.531,2.494,6.453,1.019,9.421
					c-0.893,1.793-2.388,3.227-3.038,5.133c-0.743,2.182,0.113,7.416-2.484,8.417c-2.007,0.773-3.124-15.182-8.753-15.583
					c-2.987,3.191-7.961,4.006-11.706,1.919c-1.405-0.783-2.894-1.967-4.405-1.457c-1.01,0.342-2.251,0.827-2.901,1.726
					c-1.57,2.169-1.11,12.045-3.277,13.674c-1.157-3.489-1.612-7.237-1.36-10.928c-0.98,0.025-1.966-0.132-2.881-0.506
					c-2.658-1.087-4.642,0.118-5.192-2.868C111.094,65.476,111.934,58.389,113.719,56.02z"/>
				<path fill="#F7B690" d="M153.674,83.504c0.559-1.035,1.021-2.213,0.865-3.397s-1.136-2.307-2.246-2.171
					c-0.687,0.084-1.269,0.617-1.621,1.25c-0.353,0.634-0.517,1.364-0.674,2.083c-0.275,1.251-0.55,2.505-0.827,3.756
					c-0.231,1.054-0.369,2.392,0.466,3.002C151.166,89.148,153.066,84.63,153.674,83.504z"/>
				<path fill="#F7B690" d="M119.367,83.504c-0.559-1.035-1.022-2.213-0.867-3.397s1.138-2.307,2.248-2.171
					c0.687,0.084,1.267,0.617,1.621,1.25c0.353,0.634,0.515,1.364,0.674,2.083c0.275,1.251,0.551,2.505,0.827,3.756
					c0.231,1.054,0.37,2.392-0.466,3.002C121.875,89.148,119.977,84.63,119.367,83.504z"/>
			</g>
			<path fill="#BEE3ED" d="M102.191,218.381h70.346c3.288,0,6.03-2.522,6.308-5.8l3.648-43.47c0.311-3.691-2.602-6.857-6.305-6.857
				H98.54c-3.706,0-6.618,3.166-6.307,6.857l3.651,43.47C96.159,215.858,98.901,218.381,102.191,218.381z"/>
			<path fill="#3C79A6" d="M182.337,170.971c-0.668-2.752-3.149-4.833-6.149-4.833H98.54c-3.002,0-5.481,2.081-6.151,4.833
				l-0.155-1.859c-0.311-3.691,2.601-6.857,6.307-6.857h77.648c3.703,0,6.615,3.166,6.305,6.857L182.337,170.971z"/>
		</g>
		<g>
			<g>
				<path fill="#BEE3ED" d="M203.853,21.188c-13.38,3.483-21.78,16.406-19.958,29.772c-6.097,5.504-17.048,19.718-10.703,39.033
					c0,0,7.898-20.336,17.065-24.961c6.521,7.51,16.938,11.146,27.216,8.47c14.446-3.76,23.109-18.52,19.347-32.966
					C233.062,26.09,218.302,17.427,203.853,21.188z"/>
			</g>
			<g>
				<g>
					<path fill="#FFFFFF" d="M194.002,40.302h35.604c1.006,0,1.82-0.815,1.82-1.819c0-1.006-0.814-1.819-1.82-1.819h-35.604
						c-1.004,0-1.818,0.813-1.818,1.819C192.184,39.487,192.999,40.302,194.002,40.302z"/>
				</g>
				<g>
					<path fill="#FFFFFF" d="M194.002,48.866h35.604c1.006,0,1.82-0.815,1.82-1.819c0-1.005-0.814-1.819-1.82-1.819h-35.604
						c-1.004,0-1.818,0.814-1.818,1.819C192.184,48.051,192.999,48.866,194.002,48.866z"/>
				</g>
				<g>
					<path fill="#FFFFFF" d="M194.002,57.431h35.604c1.006,0,1.82-0.815,1.82-1.819c0-1.006-0.814-1.82-1.82-1.82h-35.604
						c-1.004,0-1.818,0.814-1.818,1.82C192.184,56.616,192.999,57.431,194.002,57.431z"/>
				</g>
			</g>
		</g>
	</g>
</g>
<g id="Layer_2" display="none">
	<g display="inline">
		<g>
			<path fill="#0092DF" d="M226.347,110.081l-0.008,0.076c-0.311-0.046-0.626-0.076-0.951-0.076c-3.27,0-6.005,2.397-6.313,5.539
				l-10.752,109.012c-0.216,2.242-2.139,3.93-4.474,3.93h-67.997c-3.502,0-6.343,2.742-6.343,6.12c0,3.38,2.841,6.12,6.343,6.12
				h67.997c5.196,0,9.878-2.244,13.042-5.807c3.739,0.269,18.229,1.465,18.229,1.465l14.844-4.558l13.489-121.821H226.347z"/>
			<path fill="#42BEFF" d="M241.914,228.561c2.332,0,4.256-1.688,4.474-3.93l10.75-109.012c0.311-3.141,3.044-5.539,6.315-5.539
				c3.739,0,6.668,3.105,6.313,6.697l-10.748,108.993c-0.825,8.518-8.236,15.03-17.106,15.03h-67.995
				c-3.505,0-6.345-2.74-6.345-6.12c0-3.378,2.84-6.12,6.345-6.12H241.914z"/>
			<rect x="193.11" y="240.801" fill="#839BAA" width="10.315" height="92.503"/>
			<path fill="#3C79A6" d="M235.029,333.304c0-5.496-4.616-9.952-10.314-9.952h-52.892c-5.698,0-10.316,4.456-10.316,9.952H235.029z
				"/>
			<path fill="#3C79A6" d="M193.559,250.32h9.417c3.216,0,6.21-1.579,7.948-4.187l3.555-5.333h-32.421l3.555,5.333
				C187.351,248.741,190.345,250.32,193.559,250.32z"/>
		</g>
		<g>
			<path fill="#F4A086" d="M58.715,317.521c-1.131,1.772-2.641,3.746-4.676,3.695c-3.512-0.084-3.766-5.312-2.889-8.83
				c0.949-3.799,1.898-7.595,2.847-11.391l11.031,3.361C63.824,309.132,60.855,314.175,58.715,317.521z"/>
			<path fill-rule="evenodd" clip-rule="evenodd" fill="#6A60D1" d="M86.528,207.597c8.877-10.225,64.356-22.935,90.447-31.26
				c19.485-6.219,39.536-9.712,42.503,17.732c1.28,11.842-4.497,24.002-14.223,30.231c-10.592,6.783-23.907,6.149-36.309,5.293
				c-23.647-1.634-38.146-2.635-61.793-4.267c-2.262,32.274-28.56,43.83-40.334,79.578l-17.688-3.762
				C59.856,284.312,82.119,213.49,86.528,207.597z"/>
			<path fill="#F7B690" d="M179.969,300.852c0.905,1.906,1.791,4.258,0.732,6.071c-1.828,3.129-6.296,0.748-8.778-1.808
				c-2.679-2.756-5.355-5.511-8.034-8.266l10.823-6.743C176.499,293.669,178.26,297.246,179.969,300.852z"/>
			<path fill-rule="evenodd" clip-rule="evenodd" fill="#7B81E8" d="M223.897,224.301c-10.592,6.783-23.907,6.149-36.309,5.293
				c-24.487-1.692-48.974-3.383-73.46-5.072c-3.907-0.269-8.293-0.79-10.732-3.987c-2.848-3.735-1.468-9.571,1.771-12.938
				c3.242-3.367,7.802-4.877,12.177-6.273c26.091-8.328,52.182-16.661,78.272-24.986c19.486-6.219,39.536-9.712,42.503,17.732
				C239.398,205.911,233.621,218.071,223.897,224.301z"/>
			<path fill-rule="evenodd" clip-rule="evenodd" fill="#7B81E8" d="M101.951,214.637c5.396-17.42,39.041,16.96,44.913,26.215
				c10.08,15.876,19.372,32.328,27.849,49.255l-13.133,11.213c-8.614-18.102-25.797-33.382-39.852-47.837
				c-4.618-4.754-9.33-9.642-12.149-15.81C106.759,231.504,100.99,217.742,101.951,214.637z"/>
			<g>
				<path fill-rule="evenodd" clip-rule="evenodd" fill="#E0B605" d="M189.871,111.966c2.198-8.007,3.884-17.136,1.346-25.285
					c-0.794-2.549-0.947-2.954-3.131-1.688c-1.717,0.998-3.289,2.822-4.644,4.285c-2.768,2.992-5.116,6.393-7.132,9.973
					c-2.108,3.744-3.857,7.682-5.468,11.688l16.607,8.919C188.332,117.252,189.142,114.622,189.871,111.966z"/>
				<path fill="#F4A086" d="M170.842,110.939c-1.066,2.654-2.072,5.337-3.073,8.016c-5.501,14.729-11.002,29.458-16.503,44.188
					c-0.519,1.39-1.045,2.91-0.645,4.342c0.639,2.276,3.443,3.229,5.623,2.558c2.179-0.676,3.84-2.486,5.346-4.262
					c11.346-13.383,20.163-29.077,25.859-45.923L170.842,110.939z"/>
				<path fill="#F7B690" d="M142.208,116.058c0.311-1.572,0.995-3.456,2.525-3.636c1.453-0.17,2.515,1.35,3.217,2.689
					c5.912,11.313,13.497,47.987,10.313,52.727c-2.971,4.426-6.591,4.645-9.372,0.133
					C143.227,158.789,140.956,122.352,142.208,116.058z"/>
				<g>
					<path fill="#A2D1EB" d="M163.639,116.686h-12.184c-0.723,0-1.47-0.609-1.671-1.36l-7.443-26.975
						c-0.201-0.752,0.219-1.363,0.94-1.363h12.184c0.723,0,1.47,0.611,1.672,1.363l7.442,26.975
						C164.781,116.077,164.359,116.686,163.639,116.686z"/>
					<path fill="#3C79A6" d="M164.58,115.325l-7.442-26.975c-0.202-0.752-0.949-1.363-1.672-1.363h-1.297
						c0.72,0,1.467,0.611,1.671,1.363l7.44,26.975c0.202,0.751-0.218,1.36-0.94,1.36h1.3
						C164.361,116.686,164.781,116.077,164.58,115.325z"/>
				</g>
				<path fill="#F7B690" d="M141.306,112.251c-0.336-3.412,0.42-7.111,2.751-9.534c1.87-1.944,4.541-2.859,7.172-3.099
					c1.142-0.103,2.589,0.115,2.939,1.253c0.313,1.014-0.483,1.988-0.893,2.966c-0.933,2.222,0.159,4.739,0.422,7.149
					c0.292,2.671-0.513,5.451-2.171,7.508c-1.318,1.634-5.028,4.552-7.187,3.093C142.337,120.236,141.531,114.523,141.306,112.251z"
					/>
			</g>
			<path fill-rule="evenodd" clip-rule="evenodd" fill="#FFC300" d="M223.375,108.942c-1.335,10.393-5.162,20.471-5.001,30.955
				c0.162,10.498,4.552,20.857,11.888,28.046c4.521,4.435,10.729,9.465,9.109,15.713c-1.457,5.62-8.194,7.285-13.739,7.942
				c-12.095,1.434-25.891,2.32-34.789-6.343c-5.446-5.308-7.804-13.151-9.538-20.71c-3.071-13.395-4.871-27.103-5.366-40.863
				c-0.422-11.719,0.33-24.213,6.788-33.813c6.435-9.564,13.657-15.907,24.188-12.535C218.888,89.587,224.7,98.636,223.375,108.942z
				"/>
			<path fill-rule="evenodd" clip-rule="evenodd" fill="#222B54" d="M63.71,309.528c-0.687,1.254-3.851,1.842-5.156,1.895
				c-1.033,0.044-5.753-2.2-6.773-1.833c-0.734,0.265-3.473,10.544-6.874,12.723c-3.403,2.18-7.176,3.383-10.793,5.004
				c-1.262,0.564-2.541,1.207-3.558,2.215c-1.018,1.003-1.731,2.456-1.511,3.73c0.021,0.124,0.071,0.212,0.105,0.321h22.252
				c0.646-0.794,1.229-1.654,1.795-2.498c2.035-3.038,4.071-6.076,6.104-9.114c0.643,3.319,1.197,7.212,1.813,11.612h2.485
				C64.393,330.043,66.586,313.205,63.71,309.528z"/>
			<path fill-rule="evenodd" clip-rule="evenodd" fill="#0A3C5F" d="M188.39,312.365c-0.758-2.507-1.537-5.06-2.998-7.197
				c-1.432-2.096-3.128-4.123-5.454-4.972c-0.015,1.353-0.571,3.41-1.76,3.956c-0.938,0.432-6.447,0.281-7.214,0.99
				c-0.517,0.477,1.684,9.217,0.283,12.976c0,0-5.02,3.964-7.608,5.87c-1.057,0.774-2.104,1.627-2.773,2.779
				c-0.672,1.151-0.898,2.671-0.263,3.845c0.061,0.113,0.139,0.188,0.208,0.283l19.131-3.655l2.607-1.068
				c0.208-0.937,0.321-1.906,0.429-2.859c0.382-3.423,0.764-6.845,1.146-10.265c2.153,3.187,3.848,6.712,5.02,10.415l2.313-0.948
				C190.435,319.132,189.413,315.75,188.39,312.365z"/>
			<g>
				<path fill="#F4A086" d="M204.872,53.418c-0.933-1.832-11.152,3.664-11.76,4.979c-0.606,1.315-1.251,16.208-3.435,25.504
					c-0.473,2.005,18.592-4.137,17.237-6.566C204.718,73.397,202.476,58.379,204.872,53.418z"/>
				<path fill="#F7B690" d="M175.411,39.996c3.532-15.274,23.565-12.053,28.323-10.53c4.757,1.523,4.879,8.544,5.339,13.712
					c0.283,3.19-0.825,6.362-2.646,8.895c-1.749,2.436-9.368,6.102-9.801,6.199c-2.826,5.083-7.424,10.897-12.1,10.825
					c-2.105-0.031-4.016-1.44-5.253-3.217c-1.236-1.778-1.915-3.902-2.574-5.988C174.655,53.416,173.88,46.625,175.411,39.996z"/>
				<path fill-rule="evenodd" clip-rule="evenodd" fill="#222B56" d="M210.086,48.874c1.745-2.198,3.107-4.81,3.45-7.641
					c0.407-3.35-0.662-6.772-2.47-9.573c-3.225-5.002-11.558-11.457-18.291-11.6c-7.192-0.152-19.546,7.318-18.375,16.601
					c0.353,2.777,1.814,2.797,4.361,3.684c3.356,1.168,7.86,1.977,10.645,4.254c3.327,2.725,1.848,9.296,8.662,11.433
					c2.202,0.69,4.466,4.747,5.93,7.903C205.739,61.872,208.399,50.999,210.086,48.874z"/>
				<path fill-rule="evenodd" clip-rule="evenodd" fill="#222B56" d="M220.192,68.008c0.641,2.861-0.328,5.846-0.172,8.78
					c0.36,6.821,6.477,11.755,8.518,18.245c0.785,2.499,0.917,5.329-0.195,7.688c-1.113,2.36-3.662,4.067-6.144,3.599
					c-2.737-0.515-4.51-3.298-5.536-5.996c-1.026-2.696-1.705-5.667-3.622-7.769c-2.96-3.246-8.087-3.542-10.938-6.891
					c-2.748-3.229-4.795-12.195-4.795-18.813c0-12.756,3.922-24.396,9.79-22.56c3.502,1.095,4.514,7.745,5.444,10.669
					C214.122,59.925,219.06,62.968,220.192,68.008z"/>
				<path fill="#F7B690" d="M201.027,50.044c0.357,0.347,0.54,0.845,0.651,1.341c0.351,1.554,0.073,3.25-0.75,4.597
					c-0.822,1.346-2.181,2.323-3.678,2.649c-0.595,0.129-1.252,0.148-1.768-0.182c-1.785-1.134-0.88-5.08-0.023-6.61
					C196.349,50.25,199.507,48.571,201.027,50.044z"/>
			</g>
			<g>
				<path fill-rule="evenodd" clip-rule="evenodd" fill="#FDD247" d="M215.589,105.772c-1.85-6.246-5.16-12.222-10.269-16.009
					c-1.256-0.93-2.87-1.745-4.285-1.11c-1.331,0.596-1.906,2.211-2.259,3.674c-2.313,9.62-1.004,19.689,0.63,29.506l18.518-3.023
					C217.481,114.395,216.843,110.007,215.589,105.772z"/>
				<path fill="#F7B690" d="M218.47,125.111c-0.164-2.097-0.334-4.201-0.546-6.301l-18.518,3.023
					c0.155,0.938,0.313,1.877,0.472,2.809c1.674,9.819,3.345,19.635,5.019,29.452c0.628,3.683,0.539,8.11,3.718,10.506
					c2.28,1.72,5.625,2.125,8.037,0.471c2.091-1.432,3.309-3.96,3.771-6.523c0.464-2.565,0.263-5.205,0.06-7.804
					C219.81,142.199,219.14,133.656,218.47,125.111z"/>
				<path fill="#F7B690" d="M170.079,187.788c-1.745,1.375-5.802,4.716-4.566,6.601c0.959,1.462,5.35,0.139,6.876-0.634
					c10.581-5.371,42.973-27.353,44.65-29.614c2.767-3.73-1.276-14.65-7.485-13.061
					C203.255,152.694,185.953,175.283,170.079,187.788z"/>
				<path fill="#F7B690" d="M163.616,189.236c-3.08,1.592-6.162,3.188-9.244,4.779c-0.367,0.68,0.466,1.478,1.216,1.446
					c0.747-0.031,1.404-0.513,2.125-0.725c0.72-0.214,1.704,0.011,1.852,0.777c0.146,0.768-0.641,1.346-1.313,1.696
					c-3.101,1.62-6.199,3.241-9.301,4.864c0.201,2.841,2.782,5.037,5.479,5.481c2.698,0.447,5.434-0.504,7.884-1.763
					c3.408-1.756,6.515-4.145,9.129-7.023c1.51-1.661,2.921-3.663,2.958-5.952C174.496,186.99,166.882,187.549,163.616,189.236z"/>
			</g>
		</g>
	</g>
</g>
<g id="Layer_3" display="none">
	<g display="inline">
		<path fill="#6A60D1" d="M144.633,234.692h5.432c0,0-3.343,22.343-4.456,29.79c-0.528,3.536-0.528,7.161,0,10.695
			c0.668,4.468,2.673,24.327,2.673,24.327h-3.648c0,0-2.828-18.948-3.769-23.114c-0.979-4.314-1.143-8.855-0.483-13.265
			C141.444,256.02,144.633,234.692,144.633,234.692z"/>
		<path fill="#6A60D1" d="M189.057,234.692h5.156c0,0-3.173,22.343-4.229,29.79c-0.504,3.536-0.504,7.161,0,10.695
			c0.634,4.468,2.538,24.327,2.538,24.327h-3.466c0,0-2.684-18.948-3.578-23.114c-0.928-4.314-1.083-8.855-0.457-13.265
			C186.03,256.02,189.057,234.692,189.057,234.692z"/>
		<path fill="#6A60D1" d="M87.373,234.692h-5.431c0,0,3.34,22.343,4.455,29.79c0.529,3.536,0.529,7.161,0,10.695
			c-0.67,4.468-2.673,24.327-2.673,24.327h3.649c0,0,2.826-18.948,3.769-23.114c0.976-4.314,1.142-8.855,0.483-13.265
			C90.56,256.02,87.373,234.692,87.373,234.692z"/>
		<path fill="#6A60D1" d="M132.05,234.65h-5.429c0,0,3.342,22.343,4.455,29.792c0.529,3.534,0.529,7.159,0,10.693
			c-0.668,4.47-2.675,24.327-2.675,24.327h3.648c0,0,2.83-18.948,3.771-23.114c0.976-4.314,1.142-8.854,0.482-13.263
			C135.242,255.978,132.05,234.65,132.05,234.65z"/>
		<polygon fill="#6A60D1" points="140.711,236.801 84.429,236.801 43.329,111.05 92.601,111.05 		"/>
		
			<linearGradient id="SVGID_1_" gradientUnits="userSpaceOnUse" x1="-224.1084" y1="224.417" x2="-170.1499" y2="224.417" gradientTransform="matrix(-1.056 0.0815 0.0781 1.0125 -94.5454 -10.246)">
			<stop  offset="0" style="stop-color:#0A3C5F"/>
			<stop  offset="1" style="stop-color:#051F30"/>
		</linearGradient>
		<path fill="url(#SVGID_1_)" d="M133.722,179.54c2.851,1.503,5.458,3.59,8.629,4.197c4.283,0.818,12.618,0.628,15.516,4.377
			c3.022,3.916-0.265,8.818-2.899,11.846c-3.429,3.911-6.715,7.924-10.324,11.665c-4.421,4.583-11.673,13.137-18.686,12.925
			c-6.491-0.197-16.023-6.586-19.574-12.008c-3.311-5.051-5.679-14.998-2.53-20.705c2.786-5.045,11.804-5.983,16.301-9.779
			c2.863-2.419,4.048-4.351,8.344-4.13C130.413,178.024,132.107,178.689,133.722,179.54z"/>
		<path fill="#F7B690" d="M216.313,287.935c0.193,0.829,0.422,1.717,1.045,2.257c0.752,0.65,1.833,0.596,2.806,0.508
			c2.219-0.201,4.438-0.401,6.657-0.603c0.683-0.061,1.479-0.195,1.813-0.831c0.302-0.573,0.077-1.279-0.151-1.884
			c-0.729-1.939-1.46-3.88-2.19-5.819c-0.643-1.709-1.337-3.494-2.681-4.653c-1.94-1.673-7.378-2.414-8.948,0.303
			C213.214,279.715,215.725,285.44,216.313,287.935z"/>
		<path fill-rule="evenodd" clip-rule="evenodd" fill="#0A3C5F" d="M251.743,296.943c0.174-1.868-1.491-3.416-3.213-3.849
			c-1.72-0.433-3.527-0.101-5.299-0.119c-5.056-0.057-9.941-3.259-12.226-8.01c-0.313-0.653-0.617-1.376-1.22-1.734
			c-0.805-0.479-1.854-0.12-2.572,0.502c-0.722,0.621-1.232,1.472-1.892,2.164c-1.182,1.245-2.857,1.936-4.512,1.913
			c-1.388-0.021-2.931-1.141-4.271-0.397c-1.18,0.655-1.512,2.379-1.818,3.607c-0.529,2.118-1.012,4.249-1.516,6.374
			c-0.113,0.471-0.223,0.962-0.261,1.446l9.635-0.012c0.452-0.668,0.834-2.612,1.031-3.414c0.025,0.823,0.319,2.777,0.809,3.411
			l26.477-0.031C251.356,298.276,251.677,297.645,251.743,296.943z"/>
		<path fill-rule="evenodd" clip-rule="evenodd" fill="#0A3C5F" d="M231.219,272.918c1.999-0.802,3.708-2.261,5.673-3.153
			c3.823-1.738,8.236-1.186,12.213-2.475c4.281-1.391,7.863-5.017,9.366-9.478c0.321-0.958,0.529-2.1-0.029-2.923
			c-0.525-0.772-1.526-0.964-2.425-1.01c-6.92-0.361-8.625,2.582-15.524,3.281c-1.841,0.188-9.582-0.718-13.449,0.962
			c-4.192,1.82-3.672,3.721-3.76,5.452c-0.093,1.743,0.395,7.479,1.859,8.68C226.802,273.615,229.334,273.672,231.219,272.918z"/>
		<path fill="#F4A086" d="M223.355,256.966c-0.198-0.827-0.391-1.726-0.082-2.517c0.371-0.956,1.346-1.457,2.24-1.875
			c2.038-0.951,4.077-1.904,6.118-2.855c0.627-0.292,1.385-0.577,1.961-0.189c0.521,0.354,0.636,1.088,0.705,1.739
			c0.219,2.078,0.437,4.159,0.657,6.239c0.193,1.833,0.376,3.758-0.292,5.463c-0.964,2.461-5.412,5.877-7.999,4.283
			C224.279,265.786,223.945,259.465,223.355,256.966z"/>
		<path fill="#0A3C5F" d="M224.081,194.141c-0.953-3.406-2.102-6.967-4.077-9.755l-17.099,24.185
			c4.199,1.247,6.824,5.58,9.008,13.049c7.915,27.075,10.687,37.157,12.563,39.748c1.432,1.978,10.48,0.333,11.207-2.22
			C237.703,252.063,228.838,211.088,224.081,194.141z"/>
		<path fill="#222B54" d="M116.43,231.6c4.646,3.2,28.408,2.771,33.924,2.06c8.101-1.045,16.2-2.091,24.302-3.137
			c3.861-0.499,13.297-4.379,16.498-2.058c4.353,3.156,18.734,47.626,22.698,53.194c1.316,1.847,11.59,2.405,12.609-1.053
			c1.017-3.455-6.126-39.032-8.989-53.193c-1.097-5.434-2.209-10.909-4.315-15.996c-2.107-5.087-5.31-9.819-9.785-12.719
			c-6.29-4.077-65.627,1.421-68.395,3.157C131.077,204.306,111.542,228.234,116.43,231.6z"/>
		<path fill="#0A3C5F" d="M106.44,187.937c-3.477,1.682-6.193,4.822-8.045,8.359c-4.963,9.474-3.64,22.174,3.154,30.233
			c6.794,8.061,27.885,11.789,41.497,4.008c9.01-5.151,2.476-12.186,1.955-22.985c-0.265-5.425-2.419-11.07-6.807-13.884
			c-5.534-3.551-12.083-1.417-17.968-3.349C115.086,188.633,112.517,184.999,106.44,187.937z"/>
		<path fill="#0A3C5F" d="M217.031,181.35c-12.093-8.553-77.218,2.646-90.126,20.935c-4.234,6-2.556,14.044-0.009,20.466
			c4.008,10.105,13.67,9.112,22.056,6.191c13.354-4.647,26.403-10.274,39.028-16.829c6.599-3.425,19.699-10.741,23.111-4.902
			l8.912-22.824C219.172,183.217,218.203,182.179,217.031,181.35z"/>
		<path fill="#7B81E8" d="M42.013,111.05c-1.48,0-2.329,1.13-1.883,2.509c0,0,38.388,119.656,39.431,122.165
			c1.043,2.511,2.022,2.511,3.5,2.511h1.186c1.48,0,2.328-1.13,1.883-2.511L46.701,113.559c-0.445-1.379-2.024-2.509-3.502-2.509
			H42.013z"/>
		<path fill="#7B81E8" d="M149.645,235.782c0,1.541,1.116,2.801,2.481,2.801h41.552c1.366,0,2.483-1.26,2.483-2.801v-1.234
			c0-1.541-1.117-2.803-2.483-2.803h-41.552c-1.365,0-2.481,1.262-2.481,2.803V235.782z"/>
		<path fill="#7B81E8" d="M80.066,235.782c0,1.541,1.247,2.801,2.771,2.801h69.639c1.526,0,2.773-1.26,2.773-2.801v-1.234
			c0-1.541-1.247-2.803-2.773-2.803H82.838c-1.524,0-2.771,1.262-2.771,2.803V235.782z"/>
		<path fill="#F59D83" d="M137.675,138.388c1.304,1.452,10.626,30.944,35.381,31.645c24.756,0.699-12.96,12.026-17.048,12.026
			s-29.87-18.081-34.214-33.63C117.451,132.883,137.675,138.388,137.675,138.388z"/>
		<path fill="#F59D83" d="M108.221,88.995c1.4,1.138,2.259,7.101,1.919,7.842c-0.345,0.741-6.299,3.892,2.721,9.76
			c9.021,5.868-17.166,6.57-24.258-1.751c-0.964-1.138,11.18-7.094,11.791-21.726C100.654,76.885,108.221,88.995,108.221,88.995z"/>
		<path fill="#F7B690" d="M116.89,63.537c3.97-0.092,14.012,8.176,14.012,12.028s-7.472,23.238-15.647,23.238
			c-8.173,0-11.56-13.313-11.56-13.313s-3.911-0.407-3.911-5.195c0-4.789,4.087-5.484,6.246-3.796
			C106.029,74.937,111.87,63.654,116.89,63.537z"/>
		
			<linearGradient id="SVGID_2_" gradientUnits="userSpaceOnUse" x1="-223.7349" y1="71.7407" x2="-177.9429" y2="71.7407" gradientTransform="matrix(-1 0 0 1 -80.7461 0)">
			<stop  offset="0" style="stop-color:#000203"/>
			<stop  offset="1" style="stop-color:#0A4063"/>
		</linearGradient>
		<path fill="url(#SVGID_2_)" d="M116.89,54.137c3.327,0,7.356,1.577,9.983,2.626c2.628,1.052,12.438-2.452,12.438,7.708
			c0,3.504,3.678,3.678,3.678,8.583c0,4.905-15.784,13.509-15.784,13.509s3.381-6.889,3.275-8.565
			c-0.103-1.675-10.086-10.141-12.715-10.432c-2.628-0.292-7.705,1.343-7.822,4.846c-0.118,3.504-1.461,7.825-3.914,4.087
			c-2.453-3.737-6.42,6.424-6.246,8.876s-0.875,3.97-0.875,3.97s-4.38-15.181,0.875-25.34
			C105.038,53.845,116.89,54.137,116.89,54.137z"/>
		<path fill="#45D8F9" d="M112.13,106.105c3.477,1.222,4.992,0.872,7.329,3.441c2.335,2.567,17.982,25.221,21.252,30.125
			c-5.256,0.701-12.028-0.466-13.195,4.787c-1.168,5.255-10.567-12.611-12.174-15.296
			C113.739,126.477,112.13,106.105,112.13,106.105z"/>
		<path fill="#45D8F9" d="M103.812,109.079c4.438,0,8.23-0.109,8.318-2.973c0.088-2.866,13.867,27.145,15.037,30.998
			c1.167,3.854,7.705,21.018,9.225,28.725c1.517,7.707,2.218,12.612,8.524,15.647c6.303,3.036-31.006,8.934-37.048,14.626
			c-6.042,5.693-10.588,19.966-10.063,24.432c-5.78-7.095-23.303-51.669-20.325-62.879c2.977-11.209,4.554-15.414,4.203-19.792
			c-0.349-4.38-18.566-5.605-20.491,2.101C58.212,123.5,71,107.561,76.08,104.758c5.079-2.803,14.308-2.135,14.308-2.135
			S95.989,109.079,103.812,109.079z"/>
		<path fill="#F7B690" d="M81.158,134.976c1.226,13.136,10.334,32.137,55.234,30.852c8.524,0,7.471,7.241,3.62,8.992
			c-3.854,1.751-71.871,35.578-78.82-34.856C59.789,125.763,81.158,134.976,81.158,134.976z"/>
		<path fill="#F7B690" d="M137.871,165.979c2.775-1.22,8.526,1.152,11.14,2.007c3.408,1.115,7.718,2.595,9.465,6.032
			c3.467,6.825-13.185,1.339-15.511,1.035c-2.579-0.341-4.288,1.501-6.786,1.64C135.07,176.75,132.517,168.331,137.871,165.979z"/>
		<path fill="#F6A000" d="M161.351,172.813c-0.747,2.991,1.155,5.229,4.229,4.974l39.333-3.277c3.071-0.256,6.195-2.912,6.94-5.904
			l13.626-54.593c0.748-2.99-1.154-5.228-4.226-4.972l-39.333,3.275c-3.071,0.256-6.195,2.912-6.943,5.904L161.351,172.813z"/>
		<path fill="#FEC700" d="M149.269,181.724c-0.146-1.726,1.314-3.269,3.239-3.429l56.326-4.692c1.927-0.159,3.619,1.121,3.765,2.847
			l0.176,2.112c0.146,1.726-1.316,3.27-3.241,3.431l-56.324,4.69c-1.928,0.162-3.619-1.119-3.765-2.845L149.269,181.724z"/>
		<path fill="#F6A000" d="M128.116,185.614c0.146,1.726,1.676,3.019,3.401,2.876l21.638-1.804c1.726-0.143,3.02-1.673,2.877-3.396
			l-0.177-2.114c-0.143-1.726-1.673-3.02-3.399-2.877l-21.64,1.804c-1.726,0.143-3.019,1.674-2.876,3.397L128.116,185.614z"/>
		<path fill="#FEC700" d="M166.18,172.41c-0.745,2.992,1.157,5.229,4.229,4.974l39.333-3.275c3.073-0.256,6.197-2.914,6.944-5.903
			l13.626-54.594c0.746-2.992-1.156-5.23-4.228-4.974l-39.333,3.277c-3.073,0.256-6.197,2.912-6.943,5.902L166.18,172.41z"/>
		<path fill="#6A60D1" d="M195.289,142.679c-0.767,4.188,0.642,7.413,3.149,7.206c2.506-0.21,5.16-3.775,5.929-7.962
			c0.769-4.188-0.643-7.415-3.149-7.205C198.71,134.925,196.057,138.491,195.289,142.679z"/>
	</g>
</g>
<g id="Layer_4" display="none">
	<g display="inline">
		<path fill="#F59D83" d="M99.665,191.687c-1.201,2.463,2.405,22.472,4.983,26.228c2.579,3.758,10.735-3.544,11.508-9.729
			c0.775-6.187-1.799-15.209-2.571-18.302C112.812,186.791,99.665,191.687,99.665,191.687z"/>
		<path fill="#F59D83" d="M170.504,187.028c-1.833,2.036-3.412,25.599-1.963,29.92c1.446,4.321,10.386-3.71,11.738-9.794
			c1.289-5.802,3.999-14.854,4.104-18.041C184.49,185.928,170.504,187.028,170.504,187.028z"/>
		<polygon fill="#006AB0" points="112.295,246.848 95.639,273.176 153.28,284.998 195.038,270.82 176.462,240.921 		"/>
		<path fill="#F59D83" d="M129.91,119.516c-0.846,1.205,2.234,6.529,2.063,8.764c-0.173,2.233-1.376,5.843-1.892,7.216
			c-0.515,1.375-2.749,12.2,4.812,12.372c7.561,0.173,11.209-10.197,9.494-13.059c-1.676-2.795-1.589-5.154-1.589-8.077
			c0-2.92,0.687-5.843,0.516-8.249C143.141,116.078,133.517,114.359,129.91,119.516z"/>
		<path fill="#F7B690" d="M135.579,78.444c-12.028,0-16.151,16.496-16.151,21.309c0,4.812,7.904,24.059,16.151,24.059
			c8.249,0,19.246-15.123,19.246-18.902C154.825,93.609,146.234,78.444,135.579,78.444z"/>
		<path fill="#FEC700" d="M136.267,141.683c-4.468,0.019-7.755-0.96-6.187-6.188c-6.572,2.192-23.644,11.249-28.524,15.467
			c-4.537,3.918-7.529,22.495-4.984,42.789c8.335,2.062,15.481,0.365,19.434-0.922c0-3.609-0.433-12.74-0.433-12.74
			s4.822,44.245,7.636,45.581c13.214,6.273,38.022,8.194,41.283-3.477c3.134-11.214,0.645-39.27,1.16-42.362
			c1.5,3.146,1.097,7.012,4.149,9.027c2.723,1.796,12.861,4.117,14.925,1.283c2.063-2.837,3.865-31.446-6.96-39.438
			s-27.709-14.306-33.38-15.896C140.848,139.318,138.929,141.67,136.267,141.683z"/>
		<path fill="#222B56" d="M127.2,83.45c0.086,5.068,2.421,9.895,16.338,12.473c13.92,2.578,3.971,17.913,6.368,19.782
			c2.397,1.87,25.596-1.48,26.109-21.071c0.517-19.588-2.317-38.406-14.692-42.014c-12.372-3.608-18.609-8.249-30.183-6.445
			c-11.572,1.806-22.658,11.086-28.843,19.849c-6.188,8.764-11.858,30.675,1.289,40.469c13.145,9.794,16.834,10.909,20.531,6.613
			C119.568,105.718,119.208,87.832,127.2,83.45z"/>
		<path fill="#0092DF" d="M187.561,251.487c0,4.537-3.712,8.249-8.247,8.249H106.11c-4.537,0-8.249-3.712-8.249-8.249v-37.89
			c0-4.537,3.712-8.249,8.249-8.249h73.204c4.535,0,8.247,3.712,8.247,8.249V251.487z"/>
		<path fill="#006AB0" d="M187.561,262.657c0,1.797-1.856,3.265-4.124,3.265h-81.453c-2.268,0-4.123-1.468-4.123-3.265
			c0-1.795,1.855-3.265,4.123-3.265h81.453C185.705,259.393,187.561,260.862,187.561,262.657z"/>
		<path fill="#0086DE" d="M169.095,290.896c-1.484,1.814-1.36,3.341-5.731,1.814c-4.373-1.568-16.498-4.124-21.858-4.124
			c-5.28,0-43.592,0.741-55.883-1.196c-0.206,0-0.411-0.042-0.619-0.084c-11.59-2.063-21.898-10.847-21.898-21.94
			c0-10.888,27.3-6.515,32.828-5.689c0.082,0,0.164,0.04,0.248,0.04c9.401,1.362,45.53,16.991,47.057,18.808
			c0.783,0.906,2.31,0.411,4.123,0.039c0.454-0.123,0.949-0.205,1.484-0.247c1.445-0.206,3.011-0.082,4.456,0.991
			C157.176,282.151,170.58,289.079,169.095,290.896z"/>
		<path fill="#F59D83" d="M169.095,290.896c-1.484,1.814-1.36,3.341-5.731,1.814c-4.373-1.568-16.498-4.124-21.858-4.124
			c-5.28,0-43.592,0.741-55.883-1.196c5.196-6.105,9.156-18.848,10.311-27.714c0.082,0,0.164,0.04,0.248,0.04
			c9.401,1.362,45.53,16.991,47.057,18.808c0.783,0.906,2.31,0.411,4.123,0.039c0.454,0,0.949-0.081,1.484-0.247
			c1.445-0.206,3.011-0.082,4.456,0.991C157.176,282.151,170.58,289.079,169.095,290.896z"/>
		<path fill="#0086DE" d="M204.934,279.346c-0.701,0.414-1.36,0.743-1.938,1.033c-9.443,4.619-58.274,18.806-63.595,20.661
			c-5.362,1.856-18.146,9.32-20.703,5.979c-2.476-3.216,7.63-12.33,9.815-13.98c0.082-0.082,0.163-0.124,0.205-0.166
			c0.414-0.287,0.867-0.493,1.445-0.741c0.081,0,0.123-0.042,0.205-0.082c0.206-0.084,0.496-0.123,0.825-0.165
			c2.104-0.206,6.062,0.247,9.773-1.774c0.084-0.04,0.208-0.124,0.33-0.206c0.247-0.082,0.455-0.166,0.661-0.287
			c4.866-2.6,21.444-19.343,32.498-29.034c2.598-2.228,4.867-4.084,6.639-5.28c1.484-0.989,3.383-2.144,5.568-3.299
			c11.547-6.312,30.972-14.104,38.313-13.487c4.372,0.372,8.123,1.774,10.557,9.487
			C237.804,255.221,215.493,273.324,204.934,279.346z"/>
		<path fill="#F7B690" d="M204.934,279.346c-0.701,0.414-1.36,0.743-1.938,1.033c-9.443,4.619-58.274,18.806-63.595,20.661
			c-5.362,1.856-18.146,9.32-20.703,5.979c-2.476-3.216,7.63-12.33,9.815-13.98c0.495-0.29,1.072-0.577,1.65-0.907
			c0.081,0,0.123-0.042,0.205-0.082c0.206-0.084,0.496-0.123,0.825-0.165c2.104-0.33,6.433-0.248,10.104-1.98
			c0.247-0.082,0.455-0.166,0.661-0.287c4.866-2.6,21.444-19.343,32.498-29.034c2.598-2.228,4.867-4.084,6.639-5.28
			c1.484-0.989,3.383-2.144,5.568-3.299C195.449,254.809,205.677,270.604,204.934,279.346z"/>
		<path fill="#EBF7F7" d="M149.584,232.544c0,3.796-3.078,6.873-6.874,6.873s-6.873-3.077-6.873-6.873
			c0-3.799,3.077-6.874,6.873-6.874S149.584,228.745,149.584,232.544z"/>
	</g>
</g>
</svg>
