<?xml version="1.0" encoding="utf-8"?>
<!-- Generator: Adobe Illustrator 16.0.0, SVG Export Plug-In . SVG Version: 6.00 Build 0)  -->
<!DOCTYPE svg PUBLIC "-//W3C//DTD SVG 1.1//EN" "http://www.w3.org/Graphics/SVG/1.1/DTD/svg11.dtd">
<svg version="1.1" id="Layer_1" xmlns="http://www.w3.org/2000/svg" xmlns:xlink="http://www.w3.org/1999/xlink" x="0px" y="0px"
	 width="737.637px" height="540.688px" viewBox="0 0 737.637 540.688" enable-background="new 0 0 737.637 540.688"
	 xml:space="preserve">
<g>
	<g>
		<g>
			<path opacity="0.38" fill="#DEE2E7" d="M142.801,539.173c0,0-126.03-87.417-60.592-170.191
				c65.44-82.775,195.105-53.38,323.561-103.664c128.454-50.284,178.26-69.326,225.138-24.927
				c45.816,43.395-39.728,127.17,19.652,199.889c64.229,78.656-17.525,92.956-33.006,98.894H142.801z"/>
		</g>
		<g>
			<g>
				<g>
					
						<path fill="none" stroke="#80A5F9" stroke-width="1.0183" stroke-linecap="round" stroke-linejoin="round" stroke-miterlimit="10" stroke-dasharray="2.0366,7.128" d="
						M273.879,280.782c-30.375,21.033-46.097,34.048-48.88,2.067c-6.867-78.892-74.744-120.345-124.185-120.327"/>
					<g>
						<path fill="#5B84F8" d="M75.454,148.707c-0.18-0.134,12.561,0.17,12.561,0.17l6.812,17.161l-11.494-9.081l-13.421,4.785
							l-26.696-6.078L75.454,148.707z"/>
						<polygon fill="#4174E5" points="43.215,155.664 94.826,166.038 83.333,156.958 						"/>
						<polygon fill="#80A5F9" points="43.215,155.664 93.583,138.881 88.014,148.877 43.215,155.664 83.333,156.958 74.111,174.383 
													"/>
					</g>
				</g>
				<g>
					<g>
						<path fill="#06D2FF" d="M527.618,71.94h-41.224c-5.504,0-9.966-4.462-9.966-9.964l0,0c0-5.504,4.462-9.964,9.966-9.964h41.224
							c5.502,0,9.966,4.46,9.966,9.964l0,0C537.584,67.479,533.12,71.94,527.618,71.94z"/>
					</g>
					<g>
						<circle fill="#FFFFFF" cx="496.071" cy="62.01" r="2.549"/>
						<circle fill="#FFFFFF" cx="507.006" cy="61.976" r="2.55"/>
						<circle fill="#FFFFFF" cx="517.941" cy="61.942" r="2.549"/>
					</g>
				</g>
				<g>
					<circle fill="#06D2FF" cx="97.189" cy="259.196" r="46.804"/>
					<g>
						<g>
							<polygon fill="#FFFFFF" points="78.053,270.498 88.747,259.804 78.053,251.854 							"/>
							<polygon fill="#FFFFFF" points="102.851,261.761 97.117,266.026 91.276,261.685 81.208,271.951 112.976,271.951 							"/>
							<polygon fill="#FFFFFF" points="105.485,259.802 116.171,270.488 116.171,251.854 							"/>
							<polygon fill="#FFFFFF" points="97.193,262.406 116.249,248.234 116.249,243.604 78.13,243.604 78.13,248.233 							"/>
						</g>
					</g>
				</g>
				<g>
					<g>
						<g>
							<g>
								<g>
									<g>
										<g>
											<path fill="#FFD943" d="M625.113,192.557h-74.698c-7.256,0-13.137-5.882-13.137-13.138v-69.445
												c0-5.502,4.458-9.961,9.96-9.961h77.875c5.501,0,9.959,4.459,9.959,9.961v72.623
												C635.072,188.097,630.614,192.557,625.113,192.557z"/>
										</g>
									</g>
								</g>
							</g>
						</g>
					</g>
					<g>
						<g>
							
								<polyline fill="none" stroke="#FFFFFF" stroke-width="1.4507" stroke-linecap="round" stroke-linejoin="round" stroke-miterlimit="10" points="
								600.631,118.713 609.329,120.004 584.597,136.043 579.987,129.787 561.514,140.539 							"/>
							
								<line fill="none" stroke="#FFFFFF" stroke-width="1.4507" stroke-linecap="round" stroke-linejoin="round" stroke-miterlimit="10" x1="606.229" y1="128.435" x2="609.329" y2="120.004"/>
						</g>
						<rect x="563.506" y="152.879" fill="#FFFFFF" width="8.691" height="17.235"/>
						<rect x="575.641" y="147.814" fill="#FFFFFF" width="8.691" height="22.3"/>
						<rect x="588.073" y="142.45" fill="#FFFFFF" width="8.69" height="27.665"/>
						<rect x="600.637" y="137.884" fill="#FFFFFF" width="8.692" height="32.23"/>
					</g>
				</g>
				<g>
					<g>
						<circle fill="#5B84F8" cx="666.076" cy="287.563" r="42.867"/>
					</g>
					<path fill="#FFFFFF" d="M682.837,284.27l-2.778-0.486c-0.325-1.214-0.808-2.377-1.435-3.462l1.619-2.312
						c0.598-0.849,0.495-2.003-0.238-2.734l-1.665-1.664c-0.743-0.72-1.896-0.803-2.734-0.195l-2.312,1.62
						c-1.085-0.625-2.248-1.109-3.461-1.434l-0.477-2.842c-0.175-1.008-1.04-1.751-2.063-1.771h-2.398
						c-1.04-0.001-1.93,0.746-2.109,1.771l-0.484,2.771c-1.214,0.324-2.375,0.807-3.462,1.434l-2.301-1.549
						c-0.849-0.595-2.003-0.494-2.736,0.239l-1.664,1.665c-0.732,0.731-0.834,1.885-0.238,2.734l1.62,2.312
						c-0.628,1.085-1.109,2.248-1.434,3.461l-2.771,0.485c-1.025,0.178-1.772,1.066-1.771,2.106v2.356
						c-0.001,1.04,0.746,1.93,1.771,2.106l2.771,0.487c0.324,1.211,0.806,2.375,1.434,3.462l-1.62,2.31
						c-0.596,0.849-0.494,2.003,0.238,2.736l1.664,1.663c0.733,0.733,1.888,0.835,2.736,0.239l2.31-1.62
						c1.086,0.627,2.25,1.107,3.461,1.434l0.487,2.771c0.177,1.026,1.066,1.773,2.106,1.771h2.391
						c1.04,0.002,1.93-0.745,2.107-1.771l0.487-2.771c1.211-0.326,2.374-0.807,3.459-1.434l2.258,1.583
						c0.85,0.596,2.003,0.496,2.734-0.239l1.665-1.663c0.733-0.733,0.836-1.888,0.238-2.736l-1.619-2.328
						c0.627-1.085,1.109-2.248,1.435-3.461l2.778-0.485c1.026-0.177,1.773-1.068,1.771-2.106v-2.356
						C684.606,285.33,683.859,284.445,682.837,284.27z M666.071,293.9c-3.51,0-6.355-2.846-6.355-6.356
						c0-3.51,2.846-6.355,6.355-6.355s6.355,2.846,6.355,6.355c0,0.013,0,0.024,0,0.035
						C672.409,291.077,669.568,293.9,666.071,293.9z"/>
				</g>
				<g>
					<g>
						<g>
							<g>
								<g>
									<g>
										<g>
											<path fill="#5B84F8" d="M256.652,133.491h-92.486c-7.231,0-13.096-5.863-13.096-13.096V53.169
												c0-5.483,4.444-9.929,9.929-9.929h95.653c5.483,0,9.927,4.445,9.927,9.929v70.393
												C266.579,129.046,262.135,133.491,256.652,133.491z"/>
										</g>
									</g>
								</g>
							</g>
						</g>
					</g>
					<g>
						<path fill="#FFFFFF" d="M237.599,66.325l-5.145-1.029c-0.151-0.031-0.294-0.175-0.325-0.325l-1.028-5.143
							c-0.119-0.597-0.564-0.732-0.995-0.301l-7.406,7.405c-0.215,0.214-0.341,0.631-0.28,0.929l0.735,3.682l-17.568,17.286
							c-0.754,0.754-0.754,1.975,0,2.73c0.753,0.751,1.972,0.751,2.728,0l17.568-17.288l3.681,0.736
							c0.299,0.059,0.715-0.067,0.93-0.281l7.406-7.406C238.331,66.889,238.194,66.444,237.599,66.325z"/>
						<path fill="#FFFFFF" d="M212.897,78.915l3.232-3.23c0.118-0.12,0.099-0.289-0.047-0.375c-2.74-1.613-5.824-2.422-8.907-2.422
							c-4.501,0-9.003,1.718-12.438,5.152c-6.87,6.869-6.87,18.004,0,24.874c3.435,3.435,7.936,5.152,12.438,5.151
							c4.499,0,9.002-1.718,12.437-5.151c5.787-5.787,6.693-14.602,2.73-21.342c-0.085-0.146-0.254-0.167-0.376-0.047l-3.229,3.23
							c-0.122,0.12-0.158,0.34-0.087,0.495c0.741,1.621,1.143,3.392,1.143,5.229c0,3.37-1.312,6.539-3.697,8.921
							c-2.382,2.383-5.551,3.696-8.921,3.696c-3.37,0-6.539-1.313-8.922-3.696c-4.919-4.92-4.919-12.925-0.002-17.844
							c2.385-2.384,5.554-3.697,8.924-3.697c1.836,0,3.607,0.402,5.228,1.144C212.558,79.071,212.777,79.034,212.897,78.915z"/>
						<path fill="#FFFFFF" d="M231.298,77.817l-3.285,3.284c-0.12,0.12-0.161,0.34-0.094,0.496c1.187,2.77,1.814,5.775,1.814,8.88
							c0,6.025-2.346,11.69-6.607,15.951s-9.925,6.608-15.951,6.608c-6.027,0-11.69-2.345-15.952-6.607
							c-8.797-8.797-8.797-23.109,0-31.904c4.259-4.261,9.925-6.609,15.952-6.608c3.101-0.001,6.11,0.629,8.878,1.816
							c0.154,0.066,0.375,0.024,0.496-0.094l3.284-3.286c0.12-0.119,0.096-0.28-0.055-0.356c-3.943-2.033-8.273-3.05-12.604-3.051
							c-7.047,0-14.093,2.688-19.468,8.064c-10.751,10.752-10.751,28.183,0,38.933c5.376,5.377,12.421,8.064,19.468,8.064
							c7.044,0,14.091-2.688,19.465-8.063c8.682-8.68,10.351-21.714,5.014-32.071C231.576,77.721,231.416,77.698,231.298,77.817z"/>
					</g>
				</g>
			</g>
			<g>
				<path fill="#4084FB" d="M120.331,432.479h-7.823c-2.056,0-3.721-1.667-3.721-3.724v-7.343c0-2.056,1.666-3.721,3.721-3.721
					h7.823c2.056,0,3.722,1.665,3.722,3.721v7.343C124.053,430.813,122.387,432.479,120.331,432.479z"/>
				<path fill="#FFD943" d="M689.139,419.973h-85.451c-2.057,0-3.726-1.667-3.726-3.725l0,0c0-2.058,1.669-3.725,3.726-3.725h85.451
					c2.055,0,3.726,1.667,3.726,3.725l0,0C692.864,418.306,691.193,419.973,689.139,419.973z"/>
				<path opacity="0.38" fill="#DEE2E7" d="M493.619,138.852h-36.925c-3.184,0-5.765-2.581-5.765-5.764l0,0
					c0-3.183,2.581-5.764,5.765-5.764h36.925c3.186,0,5.765,2.581,5.765,5.764l0,0C499.384,136.271,496.805,138.852,493.619,138.852
					z"/>
				<path opacity="0.38" fill="#DEE2E7" d="M279.506,194.896h-53.455c-3.183,0-5.764-2.581-5.764-5.765l0,0
					c0-3.183,2.581-5.764,5.764-5.764h53.455c3.185,0,5.764,2.581,5.764,5.764l0,0C285.27,192.315,282.69,194.896,279.506,194.896z"
					/>
				<path fill="#FFD943" d="M103.666,372.836H42.985c-1.944,0-3.519,1.576-3.519,3.521v0.41c0,1.944,1.575,3.521,3.519,3.521h60.681
					c1.944,0,3.519-1.576,3.519-3.521v-0.41C107.185,374.412,105.61,372.836,103.666,372.836z"/>
				<path fill="#5B84F8" d="M648.539,379.238H617.51c-1.941,0-3.518,1.575-3.518,3.519v0.413c0,1.943,1.576,3.518,3.518,3.518
					h31.029c1.945,0,3.519-1.574,3.519-3.518v-0.413C652.058,380.813,650.484,379.238,648.539,379.238z"/>
				<circle fill="#FFD943" cx="692.844" cy="188.353" r="6.127"/>
				<circle fill="#5B84F8" cx="425.573" cy="10.847" r="6.127"/>
				
					<circle opacity="0.38" fill="none" stroke="#CED3D8" stroke-width="2.0366" stroke-miterlimit="10" cx="668.9" cy="60.418" r="8.5"/>
				
					<circle opacity="0.38" fill="none" stroke="#CED3D8" stroke-width="2.0366" stroke-miterlimit="10" cx="13.9" cy="437.47" r="8.499"/>
				<circle opacity="0.38" fill="#DEE2E7" cx="85.22" cy="82.663" r="6.987"/>
				<circle opacity="0.38" fill="#DEE2E7" cx="723.144" cy="364.408" r="6.987"/>
			</g>
		</g>
	</g>
	<g>
		<g>
			<g>
				<g>
					<path fill="#0066DE" d="M576.447,538.762l-393.02,0.307c-14.887,0.014-26.963-12.044-26.975-26.931l0,0l446.926-0.35l0,0
						C603.392,526.675,591.332,538.75,576.447,538.762z"/>
					<path fill="#4084FB" d="M576.44,529.481L183.42,529.79c-11.619,0.009-21.499-7.351-25.292-17.652h-1.676
						c0.012,14.887,12.088,26.944,26.975,26.931l393.02-0.307c14.885-0.012,26.944-12.087,26.932-26.974l-1.674,0.001
						C597.926,522.099,588.06,529.474,576.44,529.481z"/>
					<path fill="#0042B6" d="M405.313,520.967l-50.779,0.038c-4.982,0.005-9.025-4.032-9.029-9.014l0,0l68.823-0.056l0,0
						C414.332,516.919,410.295,520.963,405.313,520.967z"/>
				</g>
				<g>
					<path fill="#4084FB" d="M580.38,511.807l-400.927,0.313l-0.189-241.995c-0.01-13.882,11.235-25.146,25.118-25.157
						l350.649-0.274c13.884-0.011,25.146,11.235,25.159,25.119L580.38,511.807z"/>
					<rect x="200.227" y="265.738" fill="#FFFFFF" width="359.169" height="225.319"/>
					<rect x="200.307" y="469.517" opacity="0.16" fill="#D3D4DD" width="359.169" height="21.54"/>
					<rect x="200.144" y="265.738" opacity="0.16" fill="#D3D4DD" width="359.167" height="10.691"/>
					<g opacity="0.8">
						<polygon opacity="0.38" fill="#DEE2E7" points="319.923,265.785 200.234,385.664 200.315,491.197 200.575,491.197 
							425.716,265.703 						"/>
						<polygon opacity="0.38" fill="#DEE2E7" points="233.792,491.171 299.499,491.12 524.64,265.624 458.936,265.676 						"/>
						<polygon opacity="0.38" fill="#DEE2E7" points="517.236,490.949 559.451,448.669 559.398,382.962 451.53,491 						"/>
					</g>
				</g>
			</g>
			
				<line fill="none" stroke="#243853" stroke-width="0.8763" stroke-miterlimit="10" x1="25.815" y1="539.068" x2="737.637" y2="539.068"/>
		</g>
		<g>
			<g>
				<polygon fill="#06D2FF" points="351.854,321.172 353.089,337.36 398.478,337.36 400.93,321.789 				"/>
				<g>
					<defs>
						<path id="XMLID_11_" d="M329.407,179.906l-21.612,31.833c-7.776,11.454-11.954,24.967-12.001,38.81l-0.173,52.458
							l45.781-48.512L329.407,179.906z"/>
					</defs>
					<use xlink:href="#XMLID_11_"  overflow="visible" fill="#0042B6"/>
					<clipPath id="XMLID_2_">
						<use xlink:href="#XMLID_11_"  overflow="visible"/>
					</clipPath>
					<path opacity="0.63" clip-path="url(#XMLID_2_)" fill="#E2E2E2" d="M329.07,169.066c0,0-22.346,70.762-10.658,122.155
						l23.833-28.47l-6.884-87.818L329.07,169.066z"/>
				</g>
				<g>
					<defs>
						<path id="XMLID_10_" d="M422.952,180.214l21.402,31.974c7.701,11.503,11.79,25.045,11.746,38.888l-0.174,52.459
							l-45.459-48.813L422.952,180.214z"/>
					</defs>
					<use xlink:href="#XMLID_10_"  overflow="visible" fill="#0042B6"/>
					<clipPath id="XMLID_3_">
						<use xlink:href="#XMLID_10_"  overflow="visible"/>
					</clipPath>
					<path opacity="0.63" clip-path="url(#XMLID_3_)" fill="#E2E2E2" d="M418.233,156.016c0,0,25.13,78.598,16.581,135.834
						l-30.822-40.514l13.1-75.561L418.233,156.016z"/>
				</g>
				<g>
					<defs>
						<path id="XMLID_8_" d="M373.961,23.587c0,0-26.951,48.399-41.505,135.848c-14.554,87.448-1.8,138.253-1.8,138.253h92.003
							C422.659,297.688,445.288,141.105,373.961,23.587z"/>
					</defs>
					<use xlink:href="#XMLID_8_"  overflow="visible" fill="#06D2FF"/>
					<clipPath id="XMLID_4_">
						<use xlink:href="#XMLID_8_"  overflow="visible"/>
					</clipPath>
					<polygon clip-path="url(#XMLID_4_)" fill="#00BDE6" points="373.525,14.907 372.665,309.72 465.69,312.226 431.751,25.32 					
						"/>
					<g clip-path="url(#XMLID_4_)">
						<defs>
							<polygon id="XMLID_12_" points="412.521,59.966 342.805,58.519 372.577,15.87 							"/>
						</defs>
						<use xlink:href="#XMLID_12_"  overflow="visible" fill="#0042B6"/>
						<clipPath id="XMLID_5_">
							<use xlink:href="#XMLID_12_"  overflow="visible"/>
						</clipPath>
						<polygon clip-path="url(#XMLID_5_)" fill="#00378C" points="374.482,5.151 373.365,69.639 404.573,63.341 						"/>
					</g>
				</g>
				<g>
					<circle fill="#FFFFFF" cx="375.512" cy="161.556" r="29.368"/>
					<circle fill="#0042B6" cx="375.002" cy="161.554" r="19.163"/>
					
						<linearGradient id="SVGID_1_" gradientUnits="userSpaceOnUse" x1="528.209" y1="135.2236" x2="566.5361" y2="135.2236" gradientTransform="matrix(-0.6123 -0.7906 0.7906 -0.6123 603.2499 677.1068)">
						<stop  offset="0.142" style="stop-color:#001274"/>
						<stop  offset="0.3221" style="stop-color:#001777;stop-opacity:0.6855"/>
						<stop  offset="0.5457" style="stop-color:#002781;stop-opacity:0.295"/>
						<stop  offset="0.7146" style="stop-color:#00378C;stop-opacity:0"/>
					</linearGradient>
					<circle opacity="0.46" fill="url(#SVGID_1_)" cx="375.001" cy="161.555" r="19.162"/>
				</g>
				<g>
					<defs>
						<polygon id="XMLID_9_" points="349.139,297.569 403.96,297.567 408.19,325.498 344.908,325.315 						"/>
					</defs>
					<use xlink:href="#XMLID_9_"  overflow="visible" fill="#0042B6"/>
					<clipPath id="XMLID_6_">
						<use xlink:href="#XMLID_9_"  overflow="visible"/>
					</clipPath>
					<polygon clip-path="url(#XMLID_6_)" fill="#00378C" points="372.689,294.911 373.816,333.097 420.919,329.861 413.7,297.888 
											"/>
				</g>
			</g>
			<g>
				<g>
					<g>
						<g>
							<polygon fill="#FFD943" points="353.004,337.36 315.507,491.111 436.05,490.965 398.392,337.36 							"/>
							<polygon fill="#FFE083" points="362.941,337.36 344.822,491.197 406.943,490.981 388.081,337.36 							"/>
						</g>
						<g>
							<path fill="#FF9600" d="M363.518,337.36c0,0-22.002,41.74,12.494,76.92c0,0,32.396-25.202,12.445-76.92H363.518z"/>
							<path fill="#FFD943" d="M367.052,337.36c0,0-14.06,30.407,9.43,51.367c0,0,20.354-16.301,8.469-51.367H367.052z"/>
							<path fill="#FF9600" d="M370.063,337.36c0,0-8.603,18.603,5.771,31.424c0,0,12.452-9.971,5.18-31.424H370.063z"/>
						</g>
					</g>
				</g>
				<g>
					<circle fill="#FFD943" cx="289.362" cy="454.5" r="10.139"/>
					<circle fill="#FFD943" cx="450.835" cy="442.433" r="7.318"/>
					<circle fill="#FFD943" cx="303.158" cy="470.929" r="3.958"/>
					<circle fill="#FFD943" cx="446.877" cy="468.845" r="3.958"/>
					<circle fill="#FFD943" cx="477.209" cy="467.131" r="3.93"/>
					<circle fill="#FFD943" cx="271.827" cy="478.228" r="3.958"/>
				</g>
			</g>
		</g>
	</g>
</g>
</svg>
