<?xml version="1.0" encoding="utf-8"?>
<!-- Generator: Adobe Illustrator 16.0.0, SVG Export Plug-In . SVG Version: 6.00 Build 0)  -->
<!DOCTYPE svg PUBLIC "-//W3C//DTD SVG 1.1//EN" "http://www.w3.org/Graphics/SVG/1.1/DTD/svg11.dtd">
<svg version="1.1" id="Layer_3" xmlns="http://www.w3.org/2000/svg" xmlns:xlink="http://www.w3.org/1999/xlink" x="0px" y="0px"
	 width="743px" height="560px" viewBox="0 0 743 560" enable-background="new 0 0 743 560" xml:space="preserve">
<g>
	<g>
		<g>
			<g>
				<g>
					<rect x="4.414" y="490.031" fill="#D1E3FF" width="734.793" height="0.367"/>
					<rect x="500.916" y="506.438" fill="#D1E3FF" width="15.403" height="0.367"/>
					<rect x="99.837" y="499.09" fill="#D1E3FF" width="59.155" height="0.368"/>
					<rect x="188.383" y="500.173" fill="#D1E3FF" width="86.931" height="0.367"/>
					<rect x="374.7" y="500.173" fill="#D1E3FF" width="25.032" height="0.367"/>
					<rect x="579.675" y="502.499" fill="#D1E3FF" width="80.242" height="0.366"/>
					<rect x="307.476" y="508.551" fill="#D1E3FF" width="33.146" height="0.367"/>
					<rect x="668.485" y="502.683" fill="#D1E3FF" width="21.033" height="0.367"/>
					<path fill="#D1E3FF" d="M352.726,424.49H68.951c-4.626,0-8.388-3.764-8.388-8.389V17.209c0-4.625,3.762-8.388,8.388-8.388
						h283.775c4.624,0,8.387,3.763,8.387,8.388v398.892C361.113,420.727,357.35,424.49,352.726,424.49z M68.951,9.189
						c-4.423,0-8.021,3.598-8.021,8.02v398.892c0,4.424,3.598,8.021,8.021,8.021h283.775c4.422,0,8.02-3.598,8.02-8.021V17.209
						c0-4.422-3.598-8.02-8.02-8.02H68.951z"/>
					<path fill="#D1E3FF" d="M670.593,424.49H386.818c-4.625,0-8.387-3.764-8.387-8.389V17.209c0-4.625,3.762-8.388,8.387-8.388
						h283.774c4.625,0,8.388,3.763,8.388,8.388v398.892C678.98,420.727,675.218,424.49,670.593,424.49z M386.818,9.189
						c-4.423,0-8.021,3.598-8.021,8.02v398.892c0,4.424,3.598,8.021,8.021,8.021h283.774c4.424,0,8.021-3.598,8.021-8.021V17.209
						c0-4.422-3.598-8.02-8.021-8.02H386.818z"/>
				</g>
			</g>
		</g>
		<g>
			<g>
				<g>
					<rect x="111.419" y="36.271" fill="#D1E3FF" width="200.276" height="233.365"/>
					<rect x="105.977" y="36.271" fill="#F3F8FF" width="203.174" height="233.365"/>
					<rect x="111.419" y="269.637" fill="#D1E3FF" width="200.276" height="13.074"/>
					<rect x="81.092" y="269.637" fill="#F3F8FF" width="191.263" height="13.074"/>
					<rect x="113.597" y="46.17" fill="#F5FCFF" width="187.933" height="213.567"/>
					<polygon fill="#FFFFFF" points="274.491,259.737 229.764,46.17 171.132,46.17 215.859,259.737 					"/>
					<polygon fill="#FFFFFF" points="206.371,259.737 161.644,46.17 135.165,46.17 179.892,259.737 					"/>
					<rect x="113.597" y="44.832" fill="#D1E3FF" width="0.967" height="192.557"/>
				</g>
				<g>
					<path fill="#D1E3FF" d="M317.413,35.935v83.086h-21.983c0,0-39.496-25.764-48.473-78.763c-0.91-5.382,3.21-10.305,8.668-10.305
						h55.807C314.735,29.953,317.413,32.631,317.413,35.935z"/>
					<path fill="#D1E3FF" d="M317.413,252.214V125.729h-21.983c0,0-12.638,25.532-25.241,54.899
						C255.647,214.507,280.545,252.214,317.413,252.214L317.413,252.214z"/>
					<path fill="#F3F8FF" d="M296.076,125.729h20.53c1.215,0,2.201-0.986,2.201-2.202v-2.303c0-1.216-0.986-2.202-2.201-2.202
						h-20.53c-1.215,0-2.202,0.986-2.202,2.202v2.303C293.874,124.742,294.861,125.729,296.076,125.729z"/>
				</g>
				<g>
					<path fill="#D1E3FF" d="M99.751,35.935v83.086h21.984c0,0,39.498-25.764,48.473-78.763c0.912-5.382-3.21-10.305-8.667-10.305
						h-55.807C102.43,29.953,99.751,32.631,99.751,35.935z"/>
					<path fill="#D1E3FF" d="M99.751,252.214V125.729h21.984c0,0,12.638,25.532,25.242,54.899
						C161.517,214.507,136.62,252.214,99.751,252.214L99.751,252.214z"/>
					<path fill="#F3F8FF" d="M121.088,125.729H100.56c-1.217,0-2.203-0.986-2.203-2.202v-2.303c0-1.216,0.986-2.202,2.203-2.202
						h20.529c1.216,0,2.202,0.986,2.202,2.202v2.303C123.291,124.742,122.305,125.729,121.088,125.729z"/>
				</g>
			</g>
			<g>
				<rect x="547.228" y="64.921" fill="#D1E3FF" width="88.221" height="159.058"/>
				<rect x="537.343" y="64.921" fill="#F3F8FF" width="95.846" height="159.058"/>
				<rect x="547.228" y="74.807" fill="#FFFFFF" width="76.075" height="139.287"/>
				<g>
					<rect x="573.809" y="102.91" fill="#F3F8FF" width="22.916" height="20.595"/>
					<rect x="573.809" y="134.153" fill="#F3F8FF" width="22.916" height="20.595"/>
					<rect x="573.809" y="165.396" fill="#F3F8FF" width="22.916" height="20.595"/>
				</g>
			</g>
			<g>
				<path fill="#D1E3FF" d="M452.874,186.768c26.648,0,48.251-21.604,48.251-48.252s-21.603-48.253-48.251-48.253h-2.969v96.505
					H452.874z"/>
				<circle fill="#F3F8FF" cx="449.906" cy="138.516" r="48.252"/>
				<circle fill="#FFFFFF" cx="449.905" cy="138.516" r="36.381"/>
				<polygon fill="#D1E3FF" points="434.855,152.038 432.021,147.972 447.149,137.417 442.158,113.116 447.015,112.119 
					452.661,139.615 				"/>
			</g>
			<g>
				<g>
					<rect x="215.3" y="324.858" fill="#D1E3FF" width="63.06" height="170.38"/>
					<polygon fill="#F3F8FF" points="232.14,495.238 215.3,495.238 215.3,467.02 249.794,467.02 					"/>
					<rect x="593.361" y="324.858" fill="#D1E3FF" width="63.06" height="170.38"/>
					<rect x="215.3" y="324.858" fill="#F3F8FF" width="392.756" height="160.667"/>
					<polygon fill="#F3F8FF" points="591.217,495.238 608.057,495.238 608.057,467.02 573.562,467.02 					"/>
					<rect x="228.363" y="338.673" fill="#E3EEFF" width="366.631" height="59.141"/>
					<rect x="228.363" y="412.1" fill="#E3EEFF" width="366.631" height="59.14"/>
				</g>
				<g>
					<g>
						<circle fill="#F3F8FF" cx="498.045" cy="295.047" r="13.164"/>
						<circle fill="#F3F8FF" cx="517.621" cy="301.322" r="10.29"/>
						<circle fill="#F3F8FF" cx="475.512" cy="301.322" r="13.164"/>
						<circle fill="#F3F8FF" cx="453.924" cy="297.455" r="13.164"/>
						<path fill="#D1E3FF" d="M553.876,299.174c0,0-1.808,25.685-71.099,25.685c-69.292,0-71.1-25.685-71.1-25.685H553.876z"/>
					</g>
				</g>
			</g>
		</g>
	</g>
	<g>
		<ellipse fill="#F0F6FF" cx="371.811" cy="539.763" rx="284.936" ry="16.64"/>
		<g>
			<g>
				<polygon fill="#CE7A63" points="225.397,509.816 234.034,517.545 250.469,500.428 241.833,492.698 				"/>
				<polygon fill="#CE7A63" points="254.979,525.906 265.874,525.906 267.289,500.675 256.394,500.675 				"/>
				<path fill="#0F264C" d="M266.445,524.645h-12.239c-0.446,0-0.782,0.309-0.809,0.743l-0.593,9.685
					c-0.062,1.004,0.881,1.955,1.907,1.938c4.261-0.073,6.297-0.324,11.679-0.324c3.313,0,17.391,0.344,21.963,0.344
					c4.472,0,4.443-4.521,2.504-4.932c-8.69-1.836-19.46-4.367-22.536-6.782C267.767,524.878,267.097,524.645,266.445,524.645z"/>
				<path fill="#0F264C" d="M236.416,514.443l-10.499-7.069c-0.393-0.265-0.893-0.25-1.201,0.034l-8.025,8.1
					c-0.713,0.658-0.48,1.789,0.387,2.456c6.698,5.159,11.538,9.052,15.349,13.343c4.458,5.016,6.797,5.723,17.084,5.723
					c4.759,0,7.451-4.008,5.511-4.621c-17.144-5.429-12.56-7.79-16.725-15.737C237.845,515.807,237.248,515.002,236.416,514.443z"/>
				<path fill="#CE7A63" d="M307.582,164.142c0.201,0.643,0.531,1.626,0.827,2.458l0.941,2.624c0.652,1.75,1.355,3.489,2.107,5.201
					c1.496,3.425,3.12,6.777,4.934,9.946c3.611,6.323,8.005,12.039,13.182,15.702l0.912,0.627c0.012,0.02,0,0.05-0.006,0.06
					c-0.02,0.032-0.005,0.099,0.212,0.128c0.433,0.083,1.582-0.154,2.839-0.767c2.566-1.244,5.521-3.48,8.229-5.981
					c2.772-2.491,5.443-5.298,8.063-8.196c2.626-2.872,5.192-5.977,7.621-8.96l7.002,4.231c-3.718,7.674-7.989,14.784-13.615,21.569
					c-2.895,3.328-5.961,6.664-10.442,9.47c-2.259,1.364-4.951,2.71-8.577,3.132c-1.802,0.187-3.84,0.049-5.792-0.531
					c-0.976-0.281-1.913-0.681-2.793-1.14l-1.682-0.956c-4.274-2.516-7.922-5.69-11.049-9.11c-3.162-3.408-5.822-7.09-8.167-10.875
					c-2.359-3.783-4.363-7.698-6.128-11.693c-0.873-2.003-1.685-4.024-2.441-6.075c-0.376-1.026-0.75-2.056-1.089-3.107
					c-0.346-1.09-0.642-2.036-0.999-3.341L307.582,164.142z"/>
				<path fill="#0053CC" d="M322.777,190.107l-18.797,10.405c0,0-0.557-0.808-1.469-2.204c-0.661-1.029-1.513-2.381-2.498-3.968
					c-5.525-8.98-14.667-25.38-12.3-32.273c3.659-10.698,17.149-10.522,23.779,1.881c3.423,6.407,6.51,13.755,8.596,19.017
					c0.69,1.734,1.263,3.247,1.705,4.424C322.424,189.093,322.777,190.107,322.777,190.107z"/>
				<path fill="#004DAA" d="M321.793,187.389l-19.282,10.919c-0.661-1.029-1.513-2.381-2.498-3.968l20.075-11.375
					C320.778,184.699,321.351,186.211,321.793,187.389z"/>
				<path fill="#004DAA" d="M287.43,163.295c4.202-2.023,9.05-0.331,14.139,7.72c5.026,7.968,9.44,21.508,9.917,25.345l-7.51,4.154
					C303.976,200.515,285.881,174.008,287.43,163.295z"/>
				<path fill="#CE7A63" d="M356.198,178.769l3.747-11.982l9.73,7.13c0,0-5.313,10.677-8.916,9.709L356.198,178.769z"/>
				<polygon fill="#CE7A63" points="370.197,162.2 375.674,168.914 369.675,173.917 359.945,166.787 				"/>
				<g>
					<polygon fill="#BC6753" points="250.464,500.431 241.993,509.255 233.352,501.522 241.822,492.698 					"/>
					<polygon fill="#BC6753" points="256.391,500.682 267.292,500.682 266.557,513.687 255.656,513.687 					"/>
				</g>
				<path fill="#0053CC" d="M304.862,249.331h-58.268c-0.412-5.203,0.792-22.132-0.103-43.69
					c-0.603-14.476-2.162-31.039-5.791-47.526c-0.264-1.177-0.53-2.337-0.808-3.512c0,0,2.953-0.604,7.187-1.221
					c3.512-0.514,7.92-1.044,12.242-1.249c7.436-0.353,18.206-0.588,24.762,0c3.806,0.353,7.522,0.985,10.492,1.558
					c3.792,0.764,6.378,1.469,6.378,1.469S314.959,188.065,304.862,249.331z"/>
				<path fill="#004DAA" d="M246.491,205.646c-0.603-14.476-2.162-31.039-5.79-47.526c3.894-0.338,10.551,0.043,11.653,6.334
					C253.545,171.213,252.045,187.114,246.491,205.646z"/>
				<path fill="#0F264C" d="M304.305,248.775c0,0,11.477,79.442,15.395,122.688c3.143,34.687-71.879,138.188-71.879,138.188
					l-14.513-13.657c0,0,54.798-92.747,50.579-131.364c-4.084-37.406-17.935-115.854-17.935-115.854H304.305z"/>
				<path fill="#0A1B35" d="M283.879,364.626c-2.101-19.267-6.804-49.453-10.846-74.171c2.117-4.145,8.05-12.53,8.05-12.53
					c5.32,18.384,16.884,87.687,0.385,181.282c-17.193,27.718-33.653,50.437-33.653,50.437l-2.249-35.74
					C261.454,444.012,286.804,391.357,283.879,364.626z"/>
				<polygon fill="#9FC6FF" points="232.423,495.165 248.701,510.48 253.942,504.854 235.326,487.892 				"/>
				<path fill="#0F264C" d="M283.583,248.775c0,0,1.036,83.26-0.729,114.453c-1.936,34.157-11.625,147.32-11.625,147.32h-19.956
					c0,0,0.596-110.404-0.607-144.226c-1.305-36.704-4.685-117.548-4.685-117.548H283.583z"/>
				<polygon fill="#9FC6FF" points="250.469,510.549 272.034,510.549 273.23,502.976 249.43,504.159 				"/>
				<path fill="#CE7A63" d="M250.458,170.423l-2.583,4.458c-0.875,1.527-1.728,3.076-2.557,4.634
					c-1.671,3.111-3.289,6.244-4.825,9.395c-1.507,3.158-2.954,6.334-4.245,9.519c-1.231,3.187-2.46,6.393-3.307,9.556l-0.175,0.597
					l-0.089,0.299c-0.028,0.1-0.011,0.039-0.025,0.066c-0.029,0.014-0.052,0.131-0.083,0.264c-0.047,0.301-0.047,0.795,0.004,1.366
					c0.094,1.157,0.411,2.604,0.863,4.084c0.927,2.977,2.224,6.18,3.725,9.32c2.968,6.311,6.507,12.74,10.072,18.948l-6.444,5.037
					c-5.379-5.524-10.177-11.313-14.519-17.823c-2.12-3.284-4.193-6.67-5.87-10.603c-0.841-1.971-1.614-4.067-2.146-6.547
					c-0.255-1.247-0.438-2.598-0.447-4.141c0.009-0.787,0.044-1.593,0.187-2.486l0.102-0.614l0.075-0.374l0.151-0.749
					c1.54-8.042,4.216-15.434,7.284-22.552c1.548-3.552,3.236-7.018,5.038-10.417c0.908-1.696,1.84-3.377,2.801-5.049
					c0.963-1.703,1.926-3.271,3.08-5.05L250.458,170.423z"/>
				<path fill="#0053CC" d="M254.353,174.442c-2.454,7.288-6.481,16.018-9.449,22.117c-0.779,1.617-1.499,3.057-2.087,4.217
					c-1.029,2.043-1.676,3.278-1.676,3.278l-22.072-12.228c0,0,0.279-0.925,0.779-2.483c0.382-1.177,0.882-2.719,1.499-4.498
					c3.674-10.478,11.184-29.171,18.547-30.243C250.9,153,258.82,161.229,254.353,174.442z"/>
				<path fill="#004DAA" d="M244.904,196.559c-0.779,1.617-1.499,3.057-2.087,4.217l-22.97-11.432
					c0.382-1.177,0.882-2.719,1.499-4.498L244.904,196.559z"/>
				<path fill="#004DAA" d="M294.149,160.612c-1.176,3.896-4.468,9.097-13.447,11.756l-2.351,0.707l-2.395-0.426
					c-18.443-3.307-25.233-13.197-26.408-15.152l-2.468-4.115c3.512-0.514,7.92-1.044,12.242-1.249
					c7.436-0.353,18.206-0.588,24.762,0c3.806,0.353,7.522,0.985,10.492,1.558C294.943,155.866,294.87,158.217,294.149,160.612z"/>
				<path fill="#CE7A63" d="M277.766,162.516c-14.779-2.648-19.4-10.324-19.4-10.324c5.394-5.319,3.321-19.854,1.484-27.833
					l6.627,5.496l9.024,7.494c-0.266,1.22-0.471,2.455-0.574,3.646c-0.485,4.893,0.78,9.346,7.979,11.05
					C282.906,152.044,288.868,159.215,277.766,162.516z"/>
				<path fill="#BC6753" d="M275.501,137.348c-0.266,1.22-0.471,2.455-0.574,3.646c-3.365-0.677-7.861-4.263-8.333-7.701
					c-0.176-1.292-0.205-2.542-0.117-3.439L275.501,137.348z"/>
				<path fill="#0F264C" d="M281.623,96.516c5.371,2.427,8.361,17.556,1.524,20.809C276.311,120.578,271.451,91.918,281.623,96.516z
					"/>
				<path fill="#CE7A63" d="M257.117,112.881c2.303,10.594,3.113,16.893,9.37,21.728c9.413,7.272,21.887,0.813,22.802-10.146
					c0.822-9.863-3.083-25.532-14.228-28.532C264.08,92.976,254.812,102.286,257.117,112.881z"/>
				<path fill="#0F264C" d="M244.816,102.367c-5.145,2.288-2.221,9.341,1.279,13.824c4.865,6.229,10.008,9.14,13.517,6.268
					c3.146-1.578,5.217-10.843,2.473-16.565c4.845-3.177,14.879,0.753,18.011-4.438c3.129-5.192,5.357-4.726,10.874-1.321
					c5.517,3.405,9.921-10.066-4.436-12.572c7.939,3.562,6.112,10.521,0.304,3.393c-4.1-5.033-13.923-10.583-20.759-3.087
					C261.063,93.371,243.356,84.918,244.816,102.367z"/>
				<path fill="#CE7A63" d="M254.676,123.937c1.893,2.277,4.502,3.62,6.724,3.999c3.341,0.57,4.093-2.525,2.395-5.515
					c-1.528-2.692-5.107-6.23-8.093-5.441C252.763,117.757,252.51,121.333,254.676,123.937z"/>
				<path fill="#0F264C" d="M273.832,113.932c0.134,0.869,0.705,1.519,1.276,1.45c0.571-0.067,0.924-0.828,0.79-1.696
					c-0.134-0.869-0.705-1.519-1.275-1.45C274.051,112.303,273.699,113.063,273.832,113.932z"/>
				<path fill="#0F264C" d="M283.696,112.758c0.133,0.87,0.705,1.519,1.274,1.451c0.571-0.068,0.924-0.827,0.791-1.697
					c-0.133-0.869-0.705-1.518-1.275-1.451C283.916,111.13,283.561,111.889,283.696,112.758z"/>
				<path fill="#BA4D3C" d="M280.627,113.563c0,0,2.757,4.777,5.313,6.938c-1.322,1.618-4.047,1.274-4.047,1.274L280.627,113.563z"
					/>
				<path fill="#0F264C" d="M278.69,124.54c-3.463,0-5.399-2.159-5.485-2.259c-0.094-0.107-0.083-0.27,0.023-0.364
					c0.106-0.094,0.27-0.083,0.365,0.024c0.02,0.023,2.227,2.482,6.059,2.025c0.141-0.021,0.269,0.085,0.286,0.227
					c0.017,0.141-0.085,0.27-0.225,0.286C279.357,124.521,279.017,124.54,278.69,124.54z"/>
				<path fill="#0F264C" d="M270.292,111.122c-0.083,0-0.169-0.021-0.25-0.064c-0.248-0.139-0.338-0.453-0.201-0.702
					c1.369-2.465,3.76-2.609,3.861-2.614c0.279-0.024,0.526,0.205,0.539,0.491c0.014,0.284-0.204,0.525-0.488,0.54l0,0
					c-0.077,0.005-1.926,0.135-3.008,2.084C270.65,111.027,270.474,111.122,270.292,111.122z"/>
				<path fill="#0F264C" d="M287.416,108.877c-0.167,0-0.327-0.079-0.428-0.225c-1.322-1.94-3.242-1.974-3.26-1.974
					c-0.286-0.001-0.516-0.234-0.514-0.519c0.003-0.284,0.232-0.513,0.517-0.513c0.035-0.026,2.476,0.025,4.11,2.424
					c0.161,0.235,0.101,0.557-0.135,0.717C287.616,108.849,287.515,108.877,287.416,108.877z"/>
				<path fill="#407BFF" d="M270.306,526.542c-1.005,0-2.119-0.207-2.902-0.389c-0.097-0.023-0.172-0.102-0.192-0.2
					c-0.017-0.098,0.023-0.197,0.105-0.256c0.348-0.24,3.438-2.342,4.762-1.828c0.309,0.12,0.514,0.369,0.593,0.72
					c0.129,0.576,0.021,1.04-0.319,1.377C271.919,526.395,271.151,526.542,270.306,526.542z M268.102,525.785
					c1.949,0.385,3.384,0.326,3.893-0.18c0.211-0.208,0.271-0.505,0.18-0.905c-0.04-0.185-0.129-0.3-0.28-0.357
					C271.178,524.068,269.364,524.98,268.102,525.785z"/>
				<path fill="#407BFF" d="M267.461,526.16c-0.041,0-0.081-0.01-0.116-0.028c-0.078-0.04-0.129-0.119-0.137-0.204
					c-0.011-0.134-0.255-3.269,0.844-4.327c0.297-0.285,0.66-0.409,1.076-0.354c0.502,0.06,0.83,0.333,0.922,0.768
					c0.25,1.188-1.375,3.464-2.46,4.109C267.55,526.147,267.507,526.16,267.461,526.16z M268.95,521.743
					c-0.211,0-0.389,0.074-0.544,0.223c-0.657,0.634-0.747,2.427-0.716,3.462c0.947-0.801,2.028-2.529,1.864-3.308
					c-0.031-0.149-0.115-0.326-0.485-0.37C269.028,521.746,268.988,521.743,268.95,521.743z"/>
				<path fill="#407BFF" d="M243.473,520.349c-1.6,0-4.008-1.256-5.438-2.095c-0.096-0.056-0.144-0.168-0.119-0.276
					c0.024-0.107,0.118-0.186,0.228-0.194c0.584-0.045,5.745-0.391,6.731,0.794c0.175,0.209,0.23,0.46,0.161,0.726
					c-0.115,0.439-0.375,0.744-0.777,0.91C244.031,520.308,243.766,520.349,243.473,520.349z M239.035,518.239
					c2.35,1.287,4.204,1.853,5.031,1.504c0.248-0.103,0.405-0.288,0.479-0.57c0.029-0.106,0.012-0.188-0.06-0.272
					C243.946,518.252,241.141,518.15,239.035,518.239z"/>
				<path fill="#407BFF" d="M238.163,518.289c-0.086,0-0.167-0.044-0.214-0.115c-0.047-0.076-0.053-0.169-0.015-0.249
					c0.082-0.169,2.052-4.164,4.561-2.965c0.693,0.329,0.767,0.741,0.705,1.025c-0.254,1.182-3.53,2.27-5.032,2.304
					C238.167,518.289,238.164,518.289,238.163,518.289z M241.563,515.249c-1.346,0-2.491,1.702-2.954,2.497
					c1.564-0.201,3.947-1.174,4.095-1.866c0.033-0.156-0.11-0.312-0.426-0.464C242.033,515.301,241.795,515.249,241.563,515.249z"/>
				<path fill="#CE7A63" d="M244.318,240.518l10.847-1.89l-5.565,12.556c0,0-9.902-0.057-9.449-5.161L244.318,240.518z"/>
				<polygon fill="#CE7A63" points="263.259,244.938 258.163,255.082 249.6,251.184 255.165,238.627 				"/>
			</g>
			<g>
				<path opacity="0.9" fill="#9FC6FF" d="M440.789,278.905L440.789,278.905c2.538-6.386,8.979-10.912,15.531-10.912h129.563
					c7.768,0,13.011,6.296,11.71,14.064l-40.938,244.693c-1.298,7.769-8.649,14.064-16.416,14.064h-324.87
					c-7.768,0-13.011-6.296-11.711-14.064l34.851-208.299c1.299-7.768,8.649-14.065,16.417-14.065h149.588
					C419.817,304.387,434.862,293.818,440.789,278.905z"/>
				<g>
					<path opacity="0.9" fill="#DCE9FF" d="M389.219,61.639l-98.023,340.653l224.252,64.528l98.023-340.653L389.219,61.639z"/>
					<path fill="#407BFF" d="M422.66,181.165c-21.454-6.173-33.844-28.577-27.671-50.03c6.176-21.462,28.575-33.845,50.029-27.672
						c21.462,6.176,33.847,28.569,27.671,50.03C466.518,174.947,444.122,187.34,422.66,181.165z"/>
					<path fill="#FFFFFF" d="M424.982,173.095c-17-4.891-26.815-22.641-21.925-39.639c4.893-17.004,22.642-26.815,39.639-21.925
						c17.006,4.894,26.817,22.636,21.925,39.64C459.73,168.169,441.985,177.988,424.982,173.095z"/>
					<g>
						
							<rect x="374.289" y="196.245" transform="matrix(0.961 0.2765 -0.2765 0.961 72.6222 -105.7972)" fill="#407BFF" width="74.269" height="16.69"/>
						
							<rect x="329.425" y="325.709" transform="matrix(0.961 0.2765 -0.2765 0.961 112.6798 -82.7879)" fill="#407BFF" width="40.942" height="64.892"/>
						
							<rect x="468.652" y="365.773" transform="matrix(0.961 0.2765 -0.2765 0.961 129.1868 -119.7247)" fill="#407BFF" width="40.942" height="64.891"/>
						
							<rect x="399.038" y="345.74" transform="matrix(0.961 0.2765 -0.2765 0.961 120.9301 -101.2544)" fill="#407BFF" width="40.943" height="64.892"/>
						
							<rect x="455.524" y="216.164" transform="matrix(0.961 0.2766 -0.2766 0.961 80.8337 -124.1673)" fill="#407BFF" width="50.246" height="16.69"/>
						
							<rect x="363.485" y="246.428" transform="matrix(0.961 0.2765 -0.2765 0.961 86.8524 -116.1898)" fill="#FFFFFF" width="183.852" height="6.875"/>
						
							<rect x="361.244" y="247.695" transform="matrix(0.961 0.2765 -0.2765 0.961 85.3146 -102.7419)" fill="#FFFFFF" width="91.42" height="6.876"/>
						
							<rect x="464.723" y="273.116" transform="matrix(0.961 0.2765 -0.2765 0.961 95.7936 -126.1853)" fill="#FFFFFF" width="61.154" height="6.875"/>
						
							<rect x="356.119" y="269.423" transform="matrix(0.961 0.2765 -0.2765 0.961 92.2054 -108.1576)" fill="#FFFFFF" width="146.973" height="6.876"/>
						
							<rect x="351.649" y="286.508" transform="matrix(0.961 0.2765 -0.2765 0.961 97.1848 -109.2931)" fill="#FFFFFF" width="168.938" height="6.876"/>
						
							<rect x="350.52" y="279.896" transform="matrix(0.961 0.2766 -0.2766 0.961 92.4201 -88.5949)" fill="#FFFFFF" width="19.522" height="6.875"/>
						
							<rect x="383.015" y="298.842" transform="matrix(0.961 0.2765 -0.2765 0.961 100.2004 -106.0454)" fill="#FFFFFF" width="86.229" height="6.877"/>
						
							<rect x="343.274" y="316.665" transform="matrix(0.961 0.2765 -0.2765 0.961 105.4909 -107.8654)" fill="#FFFFFF" width="183.853" height="6.876"/>
					</g>
					<path opacity="0.9" fill="#DCE9FF" d="M384.876,76.731l-93.68,325.561l216.626,62.335l87.803-336.95L384.876,76.731z"/>
				</g>
				<g>
					<path opacity="0.9" fill="#DCE9FF" d="M363.125,73.508l-86.184,343.84l226.349,56.735l86.185-343.839L363.125,73.508z"/>
					<path fill="#407BFF" d="M400.68,191.805c-21.653-5.428-34.812-27.389-29.384-49.043c5.429-21.662,27.388-34.813,49.042-29.384
						c21.662,5.429,34.814,27.38,29.386,49.042C444.295,184.075,422.342,197.235,400.68,191.805z"/>
					<path fill="#FFFFFF" d="M402.722,183.661c-17.157-4.301-27.583-21.701-23.282-38.857c4.302-17.164,21.699-27.583,38.856-23.282
						c17.165,4.302,27.585,21.694,23.282,38.857C437.279,177.536,419.885,187.962,402.722,183.661z"/>
					<g>
						
							<rect x="353.125" y="207.261" transform="matrix(0.97 0.2431 -0.2431 0.97 64.1342 -88.4184)" fill="#407BFF" width="74.27" height="16.689"/>
						
							<rect x="313.608" y="338.76" transform="matrix(0.97 0.2431 -0.2431 0.97 100.2711 -70.0838)" fill="#407BFF" width="40.943" height="64.893"/>
						
							<rect x="454.138" y="373.985" transform="matrix(0.97 0.2431 -0.2431 0.97 113.0511 -103.1923)" fill="#407BFF" width="40.943" height="64.892"/>
						
							<rect x="383.873" y="356.373" transform="matrix(0.97 0.2431 -0.2431 0.97 106.6639 -86.6396)" fill="#407BFF" width="40.942" height="64.893"/>
						
							<rect x="435.008" y="224.774" transform="matrix(0.97 0.2431 -0.2431 0.97 70.4898 -104.8824)" fill="#407BFF" width="50.247" height="16.689"/>
						
							<rect x="343.859" y="255.897" transform="matrix(0.97 0.2431 -0.2431 0.97 76.1305 -98.1734)" fill="#FFFFFF" width="183.854" height="6.874"/>
						
							<rect x="341.693" y="258.837" transform="matrix(0.97 0.2431 -0.2431 0.97 75.3929 -86.3207)" fill="#FFFFFF" width="91.421" height="6.875"/>
						
							<rect x="446" y="281.188" transform="matrix(0.97 0.2431 -0.2431 0.97 83.498 -107.326)" fill="#FFFFFF" width="61.153" height="6.876"/>
						
							<rect x="337.305" y="279.768" transform="matrix(0.97 0.2431 -0.2431 0.97 81.1832 -91.3786)" fill="#FFFFFF" width="146.973" height="6.877"/>
						
							<rect x="333.422" y="296.618" transform="matrix(0.97 0.2431 -0.2431 0.97 85.4925 -92.5989)" fill="#FFFFFF" width="168.938" height="6.876"/>
						
							<rect x="332.11" y="292.632" transform="matrix(0.97 0.2431 -0.2431 0.97 82.2261 -74.2244)" fill="#FFFFFF" width="19.524" height="6.877"/>
						
							<rect x="365.22" y="309.293" transform="matrix(0.97 0.2431 -0.2431 0.97 88.2862 -89.8942)" fill="#FFFFFF" width="86.229" height="6.874"/>
						
							<rect x="326.09" y="326.788" transform="matrix(0.97 0.2431 -0.2431 0.97 92.8329 -91.725)" fill="#FFFFFF" width="183.854" height="6.875"/>
					</g>
				</g>
				<path opacity="0.7" fill="#9FC6FF" d="M354.27,329.984L354.27,329.984c0.267-5.508,5.099-9.413,11.652-9.413h129.563
					c7.767,0,15.25,5.434,16.713,12.134l38.864,195.977c1.465,6.702-3.647,12.134-11.415,12.134h-324.87
					c-7.767,0-15.25-5.432-16.712-12.134l-32.012-164.576c-1.463-6.702,3.648-12.135,11.416-12.135h149.586
					C342.361,351.971,353.647,342.853,354.27,329.984z"/>
			</g>
		</g>
	</g>
</g>
</svg>
