<?xml version="1.0" encoding="utf-8"?>
<!-- Generator: Adobe Illustrator 16.0.0, SVG Export Plug-In . SVG Version: 6.00 Build 0)  -->
<!DOCTYPE svg PUBLIC "-//W3C//DTD SVG 1.1//EN" "http://www.w3.org/Graphics/SVG/1.1/DTD/svg11.dtd">
<svg version="1.1" id="Layer_1" xmlns="http://www.w3.org/2000/svg" xmlns:xlink="http://www.w3.org/1999/xlink" x="0px" y="0px"
	 width="1000px" height="1000px" viewBox="0 0 1000 1000" enable-background="new 0 0 1000 1000" xml:space="preserve">
<g id="XMLID_67_">
	<g id="XMLID_1_">
		<g id="XMLID_2_">
			<polygon id="XMLID_25_" fill="#D3C2BE" points="393.317,934.453 147.088,934.453 147.088,351.593 162.113,351.593 
				162.113,354.641 150.137,354.641 150.137,931.405 393.317,931.405 			"/>
			<rect id="XMLID_51_" x="169.448" y="331.961" fill="#D3C2BE" width="194.956" height="209.64"/>
			<polygon id="XMLID_53_" fill="#DB7D7D" points="185.586,567.519 185.586,575.142 185.586,585.306 196.004,585.306 
				165.511,950.239 169.83,950.239 173.006,950.239 182.535,950.239 193.97,950.239 224.463,585.306 235.391,585.306 
				235.391,575.142 235.391,567.519 			"/>
			<polygon id="XMLID_46_" fill="#DB7D7D" points="497.757,567.519 497.757,575.142 497.757,585.306 487.337,585.306 
				517.832,950.239 513.514,950.239 510.332,950.239 500.806,950.239 489.371,950.239 458.878,585.306 447.953,585.306 
				447.953,575.142 447.953,567.519 			"/>
			<g id="XMLID_3_">
				<polygon id="XMLID_20_" fill="#1B1B35" points="414.876,887.363 410.215,898.51 378.42,908.061 334.938,909.539 
					362.456,937.005 430.389,950.239 434.666,913.574 440.765,901.713 				"/>
				<path id="XMLID_18_" fill="#773A18" d="M674.104,617.833l-166.44,82.334l-99.86,191.088l34.558,12.198
					c0,0,78.263-45.739,112.825-137.219l198.204-82.328L674.104,617.833z"/>
				<polygon id="XMLID_11_" fill="#1B1B35" points="649.712,878.55 654.287,889.729 638.528,918.95 608.804,950.72 647.679,950.72 
					705.109,912.091 682.239,883.125 678.171,870.419 				"/>
				<path id="XMLID_12_" fill="#914E23" d="M864.183,600.552c0,0,18.289,54.89-12.203,80.301
					c-30.493,25.411-204.301,17.28-204.301,17.28s46.753,89.445,36.589,174.827l-36.333,10.165c0,0-73.947-149.417-90.721-183.978
					c-10.73-22.117-2.028-49.803,25.411-58.952c27.449-9.15,121.972-39.644,121.972-39.644H864.183z"/>
				<path id="XMLID_4_" fill="#F6CBC5" d="M662.797,290.033c0,0-14.478,70.136,13.346,75.472
					c27.824,5.336,26.297-4.193,37.732,10.292l47.645-17.534c0,0-9.017-10.164-9.4-22.234c-0.353-11.21,4.826-41.039,5.21-57.81
					c0.379-16.773-9.15-40.404-41.549-41.546C683.382,235.528,670.805,249.632,662.797,290.033z"/>
				<path id="XMLID_5_" fill="#F6CBC5" d="M662.23,298.42c0,0-10.105,10.671-11.627,14.104c-1.526,3.43,10.479,6.67,10.479,6.67
					L662.23,298.42z"/>
				<path id="XMLID_6_" fill="#1B1B35" d="M665.21,278.854c0,0-14.734-7.37-11.687-18.804c3.049-11.435,16.518-8.13,16.518-8.13
					s-12.449-13.979-4.575-23.633c9.449-11.582,33.798,1.524,33.798,1.524s48.531-6.353,58.951,22.87
					c10.421,29.222-6.224,79.28-6.224,79.28l-18.674-11.053c0,0,8.253-1.142,9.396-8.894c1.147-7.749-1.521-14.229-7.495-13.084
					c-5.969,1.143-6.604,7.623-6.604,7.623l-2.419,5.843l-7.11,1.777l2.028-21.089l-13.207-4.829l0.251-9.401
					C708.157,278.854,691.518,279.869,665.21,278.854z"/>
				<path id="XMLID_7_" fill="#1B1B35" d="M752.643,248.418c0,0,8.904-8.002,5.193-12.86c-3.71-4.855-7.649,0.734-5.797,3.219
					C754.361,241.892,752.643,248.418,752.643,248.418z"/>
				<path id="XMLID_8_" fill="#1B1B35" d="M752.749,248.25c0,0,8.114-5.656,11.322-1.759c3.209,3.899-2.033,6.014-3.678,4.057
					C758.322,248.095,752.749,248.25,752.749,248.25z"/>
				<path id="XMLID_14_" fill="#1B1B35" d="M900.772,552.784L900.772,552.784c-11.739,0-21.344-9.609-21.344-21.343V374.906
					c0-11.739,9.604-21.346,21.344-21.346l0,0c11.739,0,21.343,9.606,21.343,21.346v156.536
					C922.115,543.175,912.512,552.784,900.772,552.784z"/>
				<path id="XMLID_17_" fill="#1B1B35" d="M690.369,709.312L690.369,709.312c0-11.739,9.604-21.343,21.349-21.343h181.938
					c11.739,0,21.348,9.604,21.348,21.343l0,0c0,11.739-9.608,21.349-21.348,21.349H711.718
					C699.974,730.66,690.369,721.051,690.369,709.312z"/>
				<path id="XMLID_26_" fill="#1B1B35" d="M906.324,694.791l-7.549-7.543c42.525-42.526,97.33-106.769,82.425-173.45
					c-14.189-63.458-62.267-72.543-64.306-72.898l1.788-10.522c2.322,0.39,57.126,10.392,72.928,81.094
					C1007.668,583.288,950.622,650.487,906.324,694.791z"/>
				<path id="XMLID_19_" fill="#F6CBC5" d="M728.736,337.807c-6.139,16.709-28.442,28.665-29.905,29.436
					c6.139-0.168,8.424,0.171,15.044,8.555l9.476-3.489C731.16,357.874,728.736,337.807,728.736,337.807z"/>
				<path id="XMLID_10_" fill="#F4B0AF" d="M510.081,514.924l-2.056,7.698c-0.512,1.933,0.865,3.849,2.861,3.972l0,0
					c1.346,0.086,2.595-0.688,3.118-1.933l5.861-13.933L510.081,514.924z"/>
				<path id="XMLID_9_" fill="#F4B0AF" d="M534.253,498.815l-15.246-1.238l-10.479,5.146l-7.311,9.691
					c-0.817,1.078-0.635,2.616,0.411,3.47l0,0c0.822,0.684,1.98,0.77,2.896,0.225l8.766-5.189L534.253,498.815z"/>
				<path id="XMLID_13_" fill="#F6CBC5" d="M572.46,507.045c0,0-7.11-1.527-10.164-1.78c-3.043-0.254-23.884-7.37-32.015-6.606
					c-8.13,0.761-23.377,11.686-23.377,11.686l-9.147,14.996c0,0,2.095,2.92,4.764,2.541c2.667-0.379,10.101-12.391,10.101-12.391
					l15.817-6.481c0,0,6.097,11.057,14.104,16.581c8.002,5.531,14.862,4.768,18.866,6.289c4.004,1.526,9.528,4.389,9.528,4.389
					L572.46,507.045z"/>
				<path id="XMLID_15_" fill="#7771D5" d="M759.998,354.452c0,0,71.15,37.735,98.083,96.179
					c26.932,58.442,15.753,155.004,15.753,155.004H687.321c0,0,2.541-35.575,26.938-66.576c24.392-31,11.67-80.222-2.29-99.227
					c-13.72-18.676-7.874-40.022,0.251-51.203l-8.382-12.706L759.998,354.452z"/>
				<path id="XMLID_21_" fill="#7771D5" d="M774.717,388.813c0,0-34.679,10.944-45.297,45.277
					c-10.292,33.291-76.739,78.923-150.788,67.693c-3.865-0.584-7.495,2-8.109,5.859l-5.755,36.119
					c-0.518,3.268,1.276,6.449,4.351,7.672c18.92,7.527,85.98,30.605,145.653,6.924c70.317-27.914,99.123-111.839,95.984-130.868
					C807.606,408.463,801.296,389.96,774.717,388.813z"/>
				<path id="XMLID_22_" opacity="0.3" fill="#7771D5" d="M750.849,579.209c-1.015-21.343,77.759-48.787,77.759-126.037
					c0-39.216-23.89-46.756-23.89-46.756l-0.091,0.101c3.193,6.254,4.901,13.57,6.129,20.972
					c3.139,19.029-25.667,102.954-95.984,130.868c-5.093,2.018-10.25,3.678-15.417,5.061c-10.629,22.71-12.033,42.217-12.033,42.217
					h129.862C803.527,589.182,751.446,591.824,750.849,579.209z"/>
				<rect id="XMLID_23_" x="739.029" y="714.649" fill="#1B1B35" width="127.311" height="31.257"/>
				<rect id="XMLID_24_" x="774.86" y="906.752" fill="#1B1B35" width="55.647" height="18.551"/>
				<rect id="XMLID_28_" x="797.346" y="735.998" fill="#1B1B35" width="10.677" height="180.411"/>
				<polygon id="XMLID_63_" fill="#1B1B35" points="718.07,950.971 707.394,950.971 707.394,909.55 785.409,909.55 785.409,920.221 
					718.07,920.221 				"/>
				<path id="XMLID_27_" fill="#1B1B35" d="M727.723,941.82c0-8.205-6.652-14.867-14.862-14.867
					c-8.211,0-14.867,6.662-14.867,14.867c0,8.21,6.656,14.867,14.867,14.867C721.07,956.688,727.723,950.03,727.723,941.82z"/>
				<polygon id="XMLID_66_" fill="#1B1B35" points="897.468,950.971 886.796,950.971 886.796,920.221 819.457,920.221 
					819.457,909.55 897.468,909.55 				"/>
				<path id="XMLID_29_" fill="#1B1B35" d="M877.139,941.82c0-8.205,6.657-14.867,14.868-14.867c8.21,0,14.861,6.662,14.861,14.867
					c0,8.21-6.651,14.867-14.861,14.867C883.796,956.688,877.139,950.03,877.139,941.82z"/>
			</g>
			<rect id="XMLID_30_" x="127.521" y="541.601" fill="#F4B0AF" width="424.36" height="25.918"/>
			<rect id="XMLID_35_" x="413.902" y="541.601" opacity="0.5" fill="#F4B0AF" width="137.979" height="25.918"/>
			<rect id="XMLID_34_" x="139.465" y="541.601" opacity="0.5" fill="#F4B0AF" width="38.116" height="25.918"/>
			<g id="XMLID_31_">
				<rect id="XMLID_32_" x="147.596" y="567.519" fill="#F4B0AF" width="49.804" height="17.787"/>
				<rect id="XMLID_165_" x="151.69" y="567.519" opacity="0.5" fill="#F4B0AF" width="13.821" height="17.787"/>
				<polygon id="XMLID_33_" fill="#F4B0AF" points="155.982,950.239 127.521,950.239 158.013,585.306 186.475,585.306 				"/>
				<polygon id="XMLID_36_" opacity="0.5" fill="#F4B0AF" points="135.018,950.239 131.842,950.239 162.335,585.306 
					165.511,585.306 				"/>
				<polygon id="XMLID_37_" opacity="0.5" fill="#F4B0AF" points="155.982,950.239 144.547,950.239 175.04,585.306 186.475,585.306 
									"/>
				<polygon id="XMLID_38_" opacity="0.5" fill="#F4B0AF" points="185.349,598.774 186.475,585.306 158.013,585.306 156.89,598.774 
									"/>
				<rect id="XMLID_39_" x="147.596" y="567.519" opacity="0.5" fill="#F4B0AF" width="49.804" height="7.623"/>
			</g>
			<g id="XMLID_40_">
				<rect id="XMLID_45_" x="484.924" y="567.519" fill="#F4B0AF" width="49.805" height="17.787"/>
				<rect id="XMLID_166_" x="490.161" y="567.519" opacity="0.5" fill="#F4B0AF" width="16.392" height="17.787"/>
				<polygon id="XMLID_44_" fill="#F4B0AF" points="526.348,950.239 554.801,950.239 524.308,585.306 495.852,585.306 				"/>
				<polygon id="XMLID_43_" opacity="0.5" fill="#F4B0AF" points="530.474,950.239 533.65,950.239 503.157,585.306 499.981,585.306 
									"/>
				<polygon id="XMLID_42_" opacity="0.5" fill="#F4B0AF" points="543.179,950.239 554.614,950.239 524.121,585.306 
					512.687,585.306 				"/>
				<polygon id="XMLID_41_" opacity="0.5" fill="#F4B0AF" points="496.975,598.774 495.852,585.306 524.308,585.306 
					525.439,598.774 				"/>
				<rect id="XMLID_47_" x="484.924" y="567.519" opacity="0.5" fill="#F4B0AF" width="49.805" height="7.623"/>
			</g>
			<rect id="XMLID_50_" x="404.245" y="526.604" fill="#EFE7E5" width="123.496" height="14.996"/>
			<rect id="XMLID_52_" x="164.558" y="339.587" fill="#D3C2BE" width="4.89" height="27.061"/>
			<rect id="XMLID_56_" x="159.666" y="345.048" fill="#D3C2BE" width="4.893" height="16.135"/>
			<rect id="XMLID_57_" x="159.666" y="378.592" fill="#D3C2BE" width="4.893" height="16.136"/>
			<rect id="XMLID_55_" x="164.558" y="374.081" fill="#D3C2BE" width="4.89" height="27.063"/>
			<rect id="XMLID_62_" x="159.666" y="502.088" fill="#D3C2BE" width="4.893" height="16.136"/>
			<rect id="XMLID_61_" x="164.558" y="497.577" fill="#D3C2BE" width="4.89" height="27.063"/>
			<rect id="XMLID_54_" x="160.808" y="448.819" fill="#D3C2BE" width="8.64" height="3.846"/>
			<rect id="XMLID_59_" x="160.808" y="457.347" fill="#D3C2BE" width="8.64" height="3.847"/>
			<rect id="XMLID_60_" x="160.808" y="465.877" fill="#D3C2BE" width="8.64" height="3.844"/>
			<polygon id="XMLID_68_" fill="#D3C2BE" points="404.245,537.794 147.088,537.794 147.088,449.216 165.129,449.216 
				165.129,452.265 150.137,452.265 150.137,534.74 404.245,534.74 			"/>
			<g id="XMLID_48_">
				<rect id="XMLID_49_" x="313.783" y="282.413" fill="#EFE7E5" width="21.156" height="196.378"/>
				<rect id="XMLID_58_" x="299.553" y="339.587" fill="#EFE7E5" width="14.229" height="91.732"/>
				<polygon id="XMLID_64_" fill="#EFE7E5" points="262.961,526.284 278.715,526.284 313.783,371.348 298.026,371.348 				"/>
				<rect id="XMLID_65_" x="248.731" y="524.085" fill="#EFE7E5" width="130.609" height="17.516"/>
			</g>
			<polygon id="XMLID_72_" fill="#D3C2BE" points="204.516,530.929 141.942,530.929 141.942,457.747 165.129,457.747 
				165.129,460.795 144.99,460.795 144.99,527.881 204.516,527.881 			"/>
			<polygon id="XMLID_82_" fill="#D3C2BE" points="160.808,509.965 135.272,509.965 135.272,431.827 283.994,431.827 
				283.994,434.875 138.32,434.875 138.32,506.917 160.808,506.917 			"/>
		</g>
		<g id="XMLID_69_">
			<g id="XMLID_70_">
				<path id="XMLID_71_" fill="#F4B0AF" d="M129.133,748.138c0,0,22.488-47.267,17.152-78.518
					c-5.335-31.256-33.162-24.396-25.539-61.749c7.623-37.353,0.763-59.465-21.343-63.276c-22.109-3.812-22.87-22.356-38.116-47.642
					c-13.802-22.886-65.054-16.389-54.889,31.638c13.456,63.569,44.979,44.976,54.889,70.136c9.908,25.154-9.529,54.12,5.718,80.802
					S110.456,693.633,129.133,748.138z"/>
				<path id="XMLID_111_" fill="#1B1B35" d="M129.883,794.32l-3.024-0.379c0.043-0.363,4.444-37.311-4.201-89.114
					c-7.979-47.773-29.003-118.325-83.88-183.129l2.325-1.97c55.356,65.374,76.55,136.524,84.579,184.709
					C134.383,756.647,129.928,793.952,129.883,794.32z"/>
			</g>
			<g id="XMLID_81_">
				<path id="XMLID_83_" fill="#F15A3D" d="M147.39,755.345c0,0-18.965-39.856-14.464-66.218c4.5-26.355,27.965-20.574,21.535-52.07
					c-6.427-31.502-0.643-50.149,18.001-53.363c18.644-3.214,19.288-18.855,32.145-40.177
					c11.638-19.298,54.857-13.821,46.287,26.682c-11.347,53.608-37.929,37.929-46.287,59.144s8.034,45.644-4.823,68.146
					C186.926,719.982,163.141,709.381,147.39,755.345z"/>
				<path id="XMLID_145_" fill="#1B1B35" d="M146.757,794.293c-0.04-0.314-3.795-31.773,3.545-75.805
					c6.769-40.631,24.642-100.64,71.324-155.764l1.962,1.66c-46.279,54.648-64.01,114.146-70.734,154.435
					c-7.295,43.689-3.585,74.844-3.545,75.153L146.757,794.293z"/>
			</g>
			<polygon id="XMLID_73_" fill="#D3C2BE" points="202.055,953.709 72.855,953.709 46.47,774.199 228.443,774.199 			"/>
			<polygon id="XMLID_78_" opacity="0.5" fill="#D3C2BE" points="54.184,774.199 80.572,953.709 97.994,953.709 71.606,774.199 			
				"/>
			<polygon id="XMLID_76_" opacity="0.5" fill="#D3C2BE" points="228.443,774.199 202.055,953.709 167.102,953.709 193.487,774.199 
							"/>
			<polygon id="XMLID_79_" opacity="0.5" fill="#D3C2BE" points="223.7,806.454 225.325,795.404 49.585,795.404 51.21,806.454 			
				"/>
			<rect id="XMLID_74_" x="81.426" y="953.709" fill="#D3C2BE" width="112.062" height="11.691"/>
			<rect id="XMLID_75_" x="81.426" y="953.709" opacity="0.5" fill="#D3C2BE" width="112.062" height="5.851"/>
			<rect id="XMLID_77_" x="38.353" y="769.48" fill="#D3C2BE" width="198.204" height="25.924"/>
			<rect id="XMLID_80_" x="199.789" y="769.48" opacity="0.5" fill="#D3C2BE" width="36.768" height="25.924"/>
			<rect id="XMLID_84_" x="42.941" y="769.48" opacity="0.5" fill="#D3C2BE" width="24.586" height="25.924"/>
		</g>
	</g>
	<path id="XMLID_87_" fill="#E4E3F7" d="M296.446,34.505l101.341,3.198c2.773,0.109,5.053,1.086,6.836,2.925
		c1.783,1.836,2.776,4.06,2.974,6.667c0.2,2.608-0.584,4.943-2.352,7.009l-16.432,20.297l8.373,15.631
		c1.463,2.73,1.65,5.464,0.561,8.203c-1.086,2.738-2.952,4.695-5.595,5.872c-2.645,1.177-5.399,1.174-8.266-0.005l-13.981-6.878
		l-16.159,19.912c-0.918,0.969-1.997,1.786-3.238,2.45c-1.487,0.798-3.115,1.19-4.877,1.177c-3.213-0.035-5.832-1.348-7.855-3.935
		l-49.658-66.327c-1.633-2.157-2.298-4.517-1.994-7.074c0.307-2.56,1.425-4.716,3.36-6.47
		C291.42,35.402,293.74,34.519,296.446,34.505z M345.725,110.855l22.378-27.076l-46.289-23.823
		c-1.086-0.537-1.692-1.369-1.818-2.499c-0.125-1.129,0.224-2.117,1.052-2.957c0.825-0.844,1.871-1.124,3.139-0.844l57.708,13.394
		L397.51,47.91l-101.342-3.195L345.725,110.855z M388.253,95.019l-6.478-12.097l-5.389,6.481L388.253,95.019z"/>
	<path id="XMLID_91_" fill="#E4E3F7" d="M534.953,144.45c2.392,1.436,3.929,3.518,4.606,6.249l11.43,45.889
		c0.678,2.73,0.299,5.29-1.132,7.679c-1.441,2.389-3.523,3.924-6.257,4.604l-85.217,21.223c-2.73,0.681-5.293,0.304-7.679-1.132
		c-2.389-1.436-3.924-3.521-4.604-6.251l-14.694-59c-0.681-2.73-0.302-5.29,1.134-7.679c1.436-2.389,3.518-3.921,6.251-4.602
		l30.114-7.5c1.775-0.443,3.43-0.203,4.965,0.721l14.075,8.461l39.331-9.796C530.01,142.635,532.571,143.014,534.953,144.45z
		 M529.727,153.148l-40.767,10.154c-1.775,0.44-3.43,0.2-4.964-0.721l-14.075-8.461l-28.681,7.143l14.694,58.997l85.223-21.223
		L529.727,153.148z"/>
	<path id="XMLID_94_" fill="#E4E3F7" d="M726.654,157.892c1.554,1.97,2.541,3.097,2.958,3.377c0.704,0.705,1.132,1.548,1.271,2.533
		c0.139,0.988,0,1.9-0.427,2.747c-0.417,0.844-1.015,1.548-1.794,2.111c-0.769,0.561-1.655,0.844-2.638,0.844
		c-9.149,0-17.947-2.744-26.393-8.234c-4.218,0.985-8.44,1.479-12.663,1.479c-9.011,0-17.136-1.9-24.386-5.699
		c-7.249-3.801-12.556-8.798-15.94-14.99c-2.108-0.283-4.147-0.633-6.117-1.057c-8.307,5.491-17.104,8.234-26.394,8.234
		c-0.982,0-1.863-0.28-2.637-0.843c-0.774-0.563-1.372-1.268-1.794-2.111c-0.422-0.846-0.528-1.759-0.32-2.744
		c0.213-0.987,0.641-1.796,1.271-2.429c0.63-0.633,1.58-1.794,2.851-3.483c1.97-2.816,3.657-5.56,5.066-8.234
		c-6.192-6.051-9.289-12.948-9.289-20.689c0-6.051,1.97-11.681,5.909-16.888c3.94-5.208,9.257-9.326,15.94-12.351
		c6.684-3.027,14.04-4.54,22.059-4.54c9.012,0,17.174,1.9,24.493,5.701c7.318,3.798,12.668,8.795,16.047,14.988
		c6.897,0.846,13.191,2.851,18.893,6.019c5.696,3.166,10.17,7.14,13.404,11.926c3.235,4.786,4.858,9.924,4.858,15.412
		c0,7.741-3.097,14.638-9.289,20.689C722.998,152.332,724.69,155.076,726.654,157.892z M642.842,131.08
		c3.385,0.844,6.833,1.268,10.346,1.268c6.054,0,11.648-1.092,16.784-3.272c5.141-2.184,9.257-5.069,12.353-8.656
		c3.097-3.59,4.645-7.495,4.645-11.718s-1.548-8.128-4.645-11.715c-3.096-3.59-7.212-6.476-12.353-8.656
		c-5.136-2.183-10.73-3.272-16.784-3.272c-6.048,0-11.643,1.089-16.784,3.272c-5.135,2.181-9.251,5.066-12.348,8.656
		c-3.096,3.587-4.645,7.493-4.645,11.715c0,4.927,2.109,9.43,6.337,13.511l5.274,5.066l-3.374,6.756l-1.692,2.957
		c3.097-0.985,6.124-2.463,9.081-4.433l3.587-2.322L642.842,131.08z M720.75,128.861c0-4.994-2.252-9.569-6.758-13.72
		c-4.506-4.153-10.207-7.004-17.104-8.552l0.214,2.111c0,5.629-1.655,10.837-4.96,15.623c-3.304,4.786-7.847,8.76-13.618,11.929
		c-5.771,3.166-12.171,5.101-19.207,5.806c3.096,3.238,7.067,5.806,11.926,7.706c4.857,1.9,10.101,2.848,15.727,2.848
		c3.519,0,6.967-0.422,10.346-1.266l4.218-0.843l3.593,2.322c2.952,1.97,5.984,3.449,9.08,4.434l-1.691-3.168l-3.166-6.545
		l5.066-5.066C718.637,138.398,720.75,133.858,720.75,128.861z"/>
	<path id="XMLID_86_" fill="#E4E3F7" d="M168.69,238.083c-6.879-6.724-10.319-14.384-10.319-22.982
		c0-6.099,1.799-11.806,5.395-17.123c3.595-5.314,8.56-9.732,14.894-13.25c6.332-3.518,13.327-5.747,20.988-6.684
		c3.753-6.879,9.695-12.431,17.825-16.651c8.13-4.223,17.2-6.334,27.207-6.334c8.91,0,17.08,1.682,24.506,5.042
		c7.429,3.363,13.33,7.936,17.708,13.72c4.377,5.787,6.569,12.041,6.569,18.762c0,8.6-3.44,16.263-10.322,22.984
		c1.564,2.971,3.441,6.022,5.629,9.147c1.407,1.876,2.464,3.166,3.166,3.87c0.705,0.702,1.175,1.602,1.41,2.696
		c0.232,1.095,0.117,2.111-0.353,3.051c-0.47,0.937-1.134,1.719-1.994,2.343c-0.86,0.625-1.836,0.939-2.931,0.939
		c-10.319,0-20.094-3.051-29.318-9.147c-2.188,0.47-4.455,0.859-6.801,1.172c-3.75,6.881-9.654,12.43-17.705,16.653
		c-8.053,4.22-17.083,6.332-27.09,6.332c-4.69,0-9.379-0.547-14.072-1.642c-9.38,6.099-19.152,9.147-29.316,9.147
		c-1.095,0-2.071-0.313-2.931-0.94c-0.862-0.625-1.524-1.406-1.994-2.343c-0.47-0.939-0.625-1.957-0.47-3.051
		c0.157-1.095,0.625-2.031,1.407-2.813c0.47-0.313,1.564-1.564,3.283-3.753C165.252,244.104,167.126,241.053,168.69,238.083z
		 M260.86,216.507l3.988,2.579c3.283,2.188,6.644,3.83,10.084,4.925l-1.876-3.283l-3.753-7.503l5.864-5.629
		c4.689-4.535,7.036-9.537,7.036-15.011c0-4.69-1.719-9.027-5.159-13.015c-3.441-3.988-8.013-7.193-13.72-9.617
		c-5.707-2.421-11.923-3.633-18.645-3.633c-6.724,0-12.94,1.212-18.647,3.633c-5.707,2.424-10.279,5.629-13.72,9.617
		s-5.16,8.325-5.16,13.015c0,4.692,1.719,9.03,5.16,13.018s8.013,7.193,13.72,9.617c5.707,2.421,11.923,3.633,18.647,3.633
		c3.908,0,7.738-0.467,11.491-1.407L260.86,216.507z M176.666,230.11l5.627,5.629l-3.518,7.271l-1.876,3.516
		c3.44-1.095,6.804-2.736,10.087-4.925l3.985-2.579l4.692,0.937c3.753,0.939,7.583,1.409,11.491,1.409
		c6.254,0,12.078-1.057,17.473-3.168s9.812-4.962,13.252-8.56c-7.818-0.782-14.934-2.931-21.343-6.449
		c-6.412-3.518-11.454-7.936-15.126-13.25c-3.675-5.317-5.515-11.102-5.515-17.358l0.235-2.344
		c-7.661,1.719-13.992,4.885-18.997,9.497c-5.002,4.612-7.503,9.694-7.503,15.247C169.63,220.533,171.973,225.575,176.666,230.11z"
		/>
</g>
</svg>
