<?xml version="1.0" encoding="utf-8"?>
<!-- Generator: Adobe Illustrator 16.0.0, SVG Export Plug-In . SVG Version: 6.00 Build 0)  -->
<!DOCTYPE svg PUBLIC "-//W3C//DTD SVG 1.1//EN" "http://www.w3.org/Graphics/SVG/1.1/DTD/svg11.dtd">
<svg version="1.1" id="Layer_1" xmlns="http://www.w3.org/2000/svg" xmlns:xlink="http://www.w3.org/1999/xlink" x="0px" y="0px"
	 width="1000px" height="1000px" viewBox="0 0 1000 1000" enable-background="new 0 0 1000 1000" xml:space="preserve">
<g id="XMLID_294_">
	<g id="XMLID_286_">
		<g id="XMLID_283_">
			<rect id="XMLID_279_" x="642.982" y="712.841" fill="#E4E3F7" width="23.311" height="190.219"/>
			<rect id="XMLID_280_" x="666.293" y="712.841" fill="#F4F4FC" width="11.19" height="190.219"/>
			<rect id="XMLID_277_" x="584.24" y="689.535" fill="#F4F4FC" width="173.431" height="27.974"/>
			<rect id="XMLID_278_" x="584.24" y="689.535" fill="#E4E3F7" width="139.397" height="27.974"/>
			<g id="XMLID_276_">
				<polygon id="XMLID_274_" fill="#E4E3F7" points="709.188,682.539 669.096,682.539 691.933,511.904 732.031,511.904 				"/>
				<polygon id="XMLID_275_" fill="#F4F4FC" points="709.188,682.539 719.443,682.539 742.286,511.904 732.031,511.904 				"/>
			</g>
			<path id="XMLID_254_" fill="#F4F4FC" d="M787.744,564.119H604.521c-11.155,0-20.28-9.131-20.28-20.281V374.833
				c0-11.15,9.125-20.275,20.28-20.275h183.224c11.15,0,20.28,9.125,20.28,20.275v169.005
				C808.024,554.988,798.895,564.119,787.744,564.119z"/>
			<path id="XMLID_271_" fill="#E4E3F7" d="M764.199,564.119H604.521c-11.155,0-20.28-9.131-20.28-20.281V374.833
				c0-11.15,9.125-20.275,20.28-20.275h159.679c11.156,0,20.28,9.125,20.28,20.275v169.005
				C784.479,554.988,775.355,564.119,764.199,564.119z"/>
			<path id="XMLID_272_" fill="#F4F4FC" d="M796.834,701.188H536.683c-5.147,0-9.324-4.178-9.324-9.325v-22.38
				c0-5.147,4.177-9.325,9.324-9.325h260.151c5.153,0,9.324,4.178,9.324,9.325v22.38
				C806.158,697.011,801.987,701.188,796.834,701.188z"/>
			<path id="XMLID_273_" fill="#E4E3F7" d="M770.728,701.188H536.683c-5.147,0-9.324-4.178-9.324-9.325v-22.38
				c0-5.147,4.177-9.325,9.324-9.325h234.045c5.147,0,9.324,4.178,9.324,9.325v22.38
				C780.052,697.011,775.875,701.188,770.728,701.188z"/>
			<rect id="XMLID_281_" x="518.034" y="890.004" fill="#E4E3F7" width="279.73" height="17.724"/>
			<circle id="XMLID_282_" fill="#E4E3F7" cx="518.969" cy="937.093" r="19.116"/>
			<path id="XMLID_284_" fill="#E4E3F7" d="M676.086,937.093c0,10.558-8.561,19.117-19.117,19.117s-19.11-8.56-19.11-19.117
				c0-10.557,8.554-19.116,19.11-19.116S676.086,926.536,676.086,937.093z"/>
			<circle id="XMLID_285_" fill="#E4E3F7" cx="794.968" cy="937.093" r="19.117"/>
		</g>
		<g id="XMLID_224_">
			<polygon id="XMLID_176_" fill="#F15A3D" points="838.058,912.624 859.206,937.915 913.194,970.042 848.403,968.147 
				810.615,957.613 806.832,963.822 799.545,963.286 807.101,911.186 			"/>
			<polygon id="XMLID_202_" fill="#F6CBC5" points="838.058,912.624 807.101,911.186 803.859,933.532 816.014,945.471 
				839.764,949.248 859.206,937.915 			"/>
			<polygon id="XMLID_201_" fill="#F15A3D" points="695.23,912.841 710.633,940.654 755.885,980.941 694.877,967.314 
				661.015,950.435 656.301,955.616 649.499,953.779 666.18,905.822 			"/>
			<polygon id="XMLID_200_" fill="#F6CBC5" points="695.23,912.841 666.18,905.822 659.029,926.388 668.348,939.912 
				690.152,947.833 710.633,940.654 			"/>
			<path id="XMLID_182_" fill="#F6CBC5" d="M850.298,213.608c0,0,20.875,11.516,30.952,33.833
				c10.078,22.318,54.714,101.507,54.714,101.507l-32.755,21.234l-67.491-86.927L850.298,213.608z"/>
			<path id="XMLID_174_" fill="#F6CBC5" d="M691.02,220.627c0,0-18.357,18.894-25.377,35.095
				c-7.019,16.195-27.533,77.208-44.813,110.683l41.029-6.477l50.217-81.528L691.02,220.627z"/>
			<path id="XMLID_178_" fill="#6161C6" d="M854.646,458.238c0,0,25.907,144.148,24.292,221.893
				c-1.62,77.745-34.016,236.477-34.016,236.477l-40.698-3.983c0,0-17.816-97.729,0-196.53l-38.667-233.557L854.646,458.238z"/>
			<path id="XMLID_177_" fill="#7771D5" d="M827.621,499.764c0,0-14.038,247.281-131.74,414.663l-31.316-8.64
				c0,0,10.437-119.858,43.911-210.568c0,0-27.717-173.853-25.554-231.085l152.254,1.078L827.621,499.764z"/>
			<path id="XMLID_172_" fill="#F15A3D" d="M793.063,200.106c0,0,47.512,9.182,57.235,13.501
				c6.209,22.404-19.978,172.232-19.978,172.232H722.873c0,0-39.409-143.346-31.854-165.213
				c22.945-16.737,63.707-21.057,63.707-21.057L793.063,200.106z"/>
			<polygon id="XMLID_171_" fill="#1B1B35" points="704.521,104.181 696.954,197.048 807.643,197.048 796.304,92.306 			"/>
			<path id="XMLID_167_" fill="#F6CBC5" d="M750.229,186.063L750.229,186.063c-21.667,0-39.231-17.57-39.231-39.238V121.46h78.469
				v25.365C789.467,168.493,771.902,186.063,750.229,186.063z"/>
			<path id="XMLID_168_" fill="#F6CBC5" d="M789.467,119.303c0-21.673-17.564-39.238-39.237-39.238
				c-21.667,0-39.231,17.564-39.231,39.238c0,21.667,17.564,39.232,39.231,39.232C771.902,158.535,789.467,140.971,789.467,119.303z
				"/>
			<path id="XMLID_169_" fill="#F6CBC5" d="M784.138,131.35c0,0,9.609-12.309,14.654-3.139c5.044,9.165-5.569,22.734-15.808,17.245
				L784.138,131.35z"/>
			<path id="XMLID_170_" fill="#1B1B35" d="M795.768,124.992c0,0,1.255-17.21,0.536-32.687c-0.719-15.476-9.718-19.077-9.718-19.077
				s-1.353-14.038-22.946-14.038c-21.599,0-57.321,5.758-64.882,23.396c-7.556,17.639,12.24,34.552,12.24,34.552
				s0.542-5.221,1.979-9.535c0,0,13.673,19.795,45.892,22.495l-11.339-11.698c0,0,14.939,10.979,24.476,11.698
				c9.541,0.719,10.796,9.901,7.201,17.097c0,0,9.176-5.758,10.26-20.697C789.467,126.499,791.579,124.25,795.768,124.992z"/>
			<path id="XMLID_173_" fill="#F6CBC5" d="M789.821,145.576c0,0-3.955,35.637,3.96,59.033c0,0,5.764,23.396-14.757,27.357
				c-18.112,3.492-27.356-17.279-27.356-17.279s4.679-15.476,3.241-38.873L789.821,145.576z"/>
			<path id="XMLID_175_" fill="#F15A3D" d="M708.835,312.233c5.398,36.715-31.317,101.147-34.553,150.816
				c0,0,26.997,20.521,99.344,20.521s92.867-25.919,92.867-25.919s-6.482-74.509-30.233-134.98L708.835,312.233z"/>
			<path id="XMLID_349_" opacity="0.5" fill="#F15A3D" d="M730.851,480.825l86.088-130.707l-30.986-22.455l-82.715,28.064
				c-9.468,33.839-26.78,73.916-28.955,107.321C674.282,463.049,690.352,475.238,730.851,480.825z"/>
			<path id="XMLID_180_" fill="#F6CBC5" d="M668.159,335.629c20.589-0.588,73.973-7.561,98.448-20.515l8.103,32.03
				c0,0-41.04,15.122-70.914,26.278c-29.873,11.156-52.91,16.56-71.627,9.718C613.451,376.305,617.771,337.067,668.159,335.629z"/>
			<path id="XMLID_190_" fill="#F6CBC5" d="M904.27,324.137c8.549-18.74,25.822-69.728,24.983-97.41l32.321,6.854
				c0,0-4.52,43.495-7.675,75.229c-3.156,31.733-8.463,54.793-22.854,68.58C916.658,391.176,883.345,370,904.27,324.137z"/>
			<g id="XMLID_184_">
				<polygon id="XMLID_189_" fill="#1B1B35" points="763.332,295.302 817.349,287.273 816.162,279.324 762.145,287.358 				"/>
				<polygon id="XMLID_188_" fill="#1B1B35" points="768.976,286.343 809.337,280.339 808.572,275.187 768.205,281.189 				"/>
				<polygon id="XMLID_187_" fill="#FF9A5D" points="779.584,349.747 817.64,344.086 813.834,287.792 766.841,294.782 				"/>
				<polygon id="XMLID_186_" fill="#1B1B35" points="782.003,355.311 816.938,350.118 816.082,344.314 781.136,349.513 				"/>
				<polygon id="XMLID_185_" fill="#FFFFFF" points="776.04,334.465 769.746,307.302 814.701,300.614 816.584,328.439 				"/>
			</g>
			<path id="XMLID_181_" fill="#F6CBC5" d="M752.301,321.049c0,0,11.607-8.366,13.496-11.065c1.895-2.699,3.516-4.052,3.516-4.052
				s7.823,7.83,14.842,7.83c7.02,0,30.131-4.623,30.131-4.623c3.315-2.477,8.063-0.359,8.439,3.761l0,0
				c0.137,1.506-0.371,2.996-1.404,4.103l-9.09,4.497l0.268,7.11l-8.273,21.417l-51.655,4.771L752.301,321.049z"/>
			<path id="XMLID_183_" fill="#F6CBC5" d="M793.063,200.106l-38.336-0.536c0,0-11.858,1.261-26.387,5.044
				c4.234,19.556,17.233,64.066,47.991,64.066c28.578,0,38.701-40.881,42.113-63.353
				C805.188,202.452,793.063,200.106,793.063,200.106z"/>
			<g id="XMLID_179_">
				<path id="XMLID_198_" fill="#F6CBC5" d="M968.205,196.42l-7.847,45.669l-23.847-9.301c0,0-4.326-9.576-11.305-16.766
					l-0.907-12.703l33.508,5.604L968.205,196.42z"/>
				<polygon id="XMLID_197_" fill="#F6CBC5" points="912.419,186.223 929.19,231.15 944.895,230.322 932.129,194.611 
					918.251,185.321 				"/>
				<g id="XMLID_194_">
					<polygon id="XMLID_196_" fill="#EFE7E5" points="911.403,210.001 955.537,217.375 969.574,133.398 925.44,126.02 					"/>
					<polygon id="XMLID_195_" fill="#F4B0AF" points="918.045,211.114 959.503,218.042 973.535,134.06 932.083,127.132 					"/>
				</g>
				<path id="XMLID_193_" fill="#F6CBC5" d="M966.037,179.809l-18.284-9.969l-17.33-2.271c-1.923-0.251-3.681,1.107-3.932,3.024l0,0
					c-0.24,1.792,0.924,3.464,2.682,3.875l16.138,3.744l14.939,11.087l-14.061-4.941l-15.441,0.667
					c-1.444,0.063-2.568,1.272-2.511,2.716l0,0c0.04,1.215,0.907,2.237,2.1,2.482l13.912,2.836l14.443,10.58l2.277,5.609
					c0,0,4.941-6.283,7.235-12.828C968.205,196.42,972.496,186.422,966.037,179.809z"/>
				<path id="XMLID_192_" fill="#F6CBC5" d="M917.737,174.285l0.273,0.086c3.002,0.896,4.714,4.04,3.847,7.042l0,0
					c-0.611,2.134-2.408,3.721-4.6,4.063l-4.839,0.748L917.737,174.285z"/>
				<path id="XMLID_191_" fill="#F6CBC5" d="M969.05,185.024l-7.39-20.601l-12.709-9.461l-11.207-1.37
					c-1.666-0.206-3.185,0.976-3.401,2.636l0,0c-0.199,1.541,0.788,2.984,2.288,3.361l9.587,2.396l8.475,6.448l1.837,8.971
					L969.05,185.024z"/>
			</g>
		</g>
		<g id="XMLID_223_">
			<polygon id="XMLID_222_" fill="#DB7D7D" points="275.207,571.435 275.207,579.595 275.207,590.472 290.802,590.472 
				245.156,980.941 251.622,980.941 256.381,980.941 270.647,980.941 287.761,980.941 333.407,590.472 422.622,590.472 
				422.622,579.595 422.622,571.435 			"/>
			<polygon id="XMLID_221_" fill="#DB7D7D" points="815.392,571.435 815.392,579.595 815.392,590.472 799.796,590.472 
				845.447,980.941 838.977,980.941 834.223,980.941 819.957,980.941 802.844,980.941 757.191,590.472 740.837,590.472 
				740.837,579.595 740.837,571.435 			"/>
			<rect id="XMLID_220_" x="188.286" y="543.701" fill="#F4B0AF" width="708.132" height="27.733"/>
			<rect id="XMLID_219_" x="689.855" y="543.701" opacity="0.5" fill="#F4B0AF" width="206.563" height="27.733"/>
			<rect id="XMLID_218_" x="206.164" y="543.701" opacity="0.5" fill="#F4B0AF" width="57.065" height="27.733"/>
			<g id="XMLID_210_">
				<rect id="XMLID_217_" x="218.336" y="571.435" fill="#F4B0AF" width="74.561" height="19.037"/>
				<rect id="XMLID_216_" x="224.465" y="571.435" opacity="0.5" fill="#F4B0AF" width="20.691" height="19.037"/>
				<polygon id="XMLID_215_" fill="#F4B0AF" points="230.89,980.941 188.286,980.941 233.932,590.472 276.536,590.472 				"/>
				<polygon id="XMLID_214_" opacity="0.5" fill="#F4B0AF" points="199.51,980.941 194.751,980.941 240.403,590.472 
					245.156,590.472 				"/>
				<polygon id="XMLID_213_" opacity="0.5" fill="#F4B0AF" points="230.89,980.941 213.771,980.941 259.423,590.472 
					276.536,590.472 				"/>
				<polygon id="XMLID_212_" opacity="0.5" fill="#F4B0AF" points="274.858,604.886 276.536,590.472 233.932,590.472 
					232.249,604.886 				"/>
				<rect id="XMLID_211_" x="218.336" y="571.435" opacity="0.5" fill="#F4B0AF" width="74.561" height="8.16"/>
			</g>
			<g id="XMLID_199_">
				<rect id="XMLID_209_" x="796.184" y="571.435" fill="#F4B0AF" width="74.555" height="19.037"/>
				<rect id="XMLID_208_" x="804.024" y="571.435" opacity="0.5" fill="#F4B0AF" width="24.532" height="19.037"/>
				<polygon id="XMLID_207_" fill="#F4B0AF" points="858.19,980.941 900.795,980.941 855.148,590.472 812.538,590.472 				"/>
				<polygon id="XMLID_206_" opacity="0.5" fill="#F4B0AF" points="864.37,980.941 869.13,980.941 823.478,590.472 818.719,590.472 
									"/>
				<polygon id="XMLID_205_" opacity="0.5" fill="#F4B0AF" points="883.39,980.941 900.51,980.941 854.863,590.472 837.744,590.472 
									"/>
				<polygon id="XMLID_204_" opacity="0.5" fill="#F4B0AF" points="814.222,604.886 812.538,590.472 855.148,590.472 
					856.832,604.886 				"/>
				<rect id="XMLID_203_" x="796.184" y="571.435" opacity="0.5" fill="#F4B0AF" width="74.555" height="8.16"/>
			</g>
		</g>
		<g id="XMLID_235_">
			<rect id="XMLID_237_" x="573.854" y="527.837" fill="#EFE7E5" width="125.337" height="15.214"/>
			<rect id="XMLID_236_" x="298.751" y="527.837" fill="#EFE7E5" width="275.103" height="15.214"/>
		</g>
		<g id="XMLID_225_">
			<rect id="XMLID_234_" x="235.735" y="268.772" fill="#EFE7E5" width="335.289" height="198.18"/>
			<rect id="XMLID_233_" x="553.248" y="268.772" fill="#EFE7E5" width="17.775" height="198.18"/>
			<polygon id="XMLID_232_" fill="#EFE7E5" points="307.619,521.948 390.289,521.948 403.385,407.051 320.716,407.051 			"/>
			<polygon id="XMLID_231_" fill="#EFE7E5" points="377.849,521.948 390.289,521.948 403.385,407.051 390.939,407.051 			"/>
			<rect id="XMLID_230_" x="246.874" y="521.948" fill="#EFE7E5" width="209.125" height="21.022"/>
			<rect id="XMLID_229_" x="455.999" y="521.948" fill="#EFE7E5" width="15.801" height="21.022"/>
			<polygon id="XMLID_228_" opacity="0.5" fill="#EFE7E5" points="403.385,407.051 403.385,451.796 553.248,451.796 
				553.248,466.952 396.555,466.952 			"/>
			<polygon id="XMLID_227_" opacity="0.5" fill="#EFE7E5" points="320.716,407.051 298.751,466.952 313.891,466.952 			"/>
			<polygon id="XMLID_226_" opacity="0.5" fill="#EFE7E5" points="308.692,512.247 391.396,512.247 390.289,521.948 
				307.619,521.948 			"/>
		</g>
		<g id="XMLID_238_">
			<g id="XMLID_251_">
				<path id="XMLID_253_" fill="#F4B0AF" d="M136.254,748.7c0,0,24.042-50.525,18.335-83.931s-35.449-26.078-27.3-66.001
					c8.149-39.934,0.816-63.57-22.814-67.645c-23.636-4.074-24.447-23.898-40.744-50.927
					c-14.757-24.463-69.539-17.519-58.674,33.819c14.38,67.953,48.083,48.083,58.674,74.972
					c10.591,26.89-10.186,57.853,6.106,86.373C86.14,703.882,116.288,690.438,136.254,748.7z"/>
				<path id="XMLID_249_" fill="#1B1B35" d="M137.059,798.072l-3.236-0.411c0.046-0.388,4.753-39.876-4.491-95.264
					c-8.525-51.062-31.003-126.478-89.66-195.754l2.482-2.103c59.17,69.884,81.825,145.939,90.408,197.446
					C141.864,757.796,137.104,797.673,137.059,798.072z"/>
			</g>
			<g id="XMLID_248_">
				<path id="XMLID_250_" fill="#F15A3D" d="M155.771,756.404c0,0-20.275-42.604-15.459-70.783
					c4.805-28.167,29.891-21.993,23.02-55.661s-0.69-53.606,19.242-57.042c19.927-3.435,20.612-20.155,34.358-42.946
					c12.44-20.635,58.64-14.769,49.481,28.521c-12.132,57.305-40.55,40.55-49.481,63.217c-8.931,22.688,8.588,48.801-5.153,72.849
					C198.033,718.604,172.61,707.271,155.771,756.404z"/>
				<path id="XMLID_269_" fill="#1B1B35" d="M155.091,798.038c-0.04-0.331-4.052-33.965,3.789-81.031
					c7.236-43.427,26.341-107.579,76.244-166.504l2.094,1.78c-49.463,58.412-68.42,122.016-75.611,165.077
					c-7.795,46.701-3.829,80.005-3.789,80.335L155.091,798.038z"/>
			</g>
			<polygon id="XMLID_247_" fill="#D3C2BE" points="214.21,968.444 76.097,968.444 47.89,776.559 242.412,776.559 			"/>
			<polygon id="XMLID_246_" opacity="0.5" fill="#D3C2BE" points="56.141,776.559 84.343,968.444 102.969,968.444 74.762,776.559 
							"/>
			<polygon id="XMLID_245_" opacity="0.5" fill="#D3C2BE" points="242.412,776.559 214.21,968.444 176.844,968.444 205.046,776.559 
							"/>
			<polygon id="XMLID_244_" opacity="0.5" fill="#D3C2BE" points="237.344,811.037 239.079,799.225 51.222,799.225 52.957,811.037 
							"/>
			<rect id="XMLID_243_" x="85.256" y="968.444" fill="#D3C2BE" width="119.79" height="12.497"/>
			<rect id="XMLID_242_" x="85.256" y="968.444" opacity="0.5" fill="#D3C2BE" width="119.79" height="6.255"/>
			<rect id="XMLID_241_" x="39.216" y="771.515" fill="#D3C2BE" width="211.87" height="27.71"/>
			<rect id="XMLID_240_" x="211.779" y="771.515" opacity="0.5" fill="#D3C2BE" width="39.306" height="27.71"/>
			<rect id="XMLID_239_" x="44.124" y="771.515" opacity="0.5" fill="#D3C2BE" width="26.278" height="27.71"/>
		</g>
		<g id="XMLID_255_">
			<g id="XMLID_268_">
				<path id="XMLID_270_" fill="#F15A3D" d="M901.217,812.715c0,0,17.41-36.59,13.279-60.796
					c-4.132-24.196-25.68-18.889-19.773-47.81c5.906-28.92,0.588-46.039-16.525-48.983c-17.114-2.956-17.707-17.313-29.514-36.898
					c-10.688-17.713-50.371-12.691-42.496,24.504c10.414,49.212,34.82,34.82,42.496,54.303c7.675,19.47-7.379,41.908,4.428,62.565
					S886.757,770.521,901.217,812.715z"/>
				<path id="XMLID_266_" fill="#1B1B35" d="M901.799,848.472l-2.346-0.285c0.144-1.13,13.137-114.745-68.197-210.797l1.797-1.529
					c42.867,50.616,59.273,105.718,65.493,143.016C905.285,819.312,901.833,848.187,901.799,848.472z"/>
			</g>
			<g id="XMLID_265_">
				<path id="XMLID_267_" fill="#7771D5" d="M915.352,818.296c0,0-14.683-30.86-11.195-51.267
					c3.48-20.406,21.649-15.933,16.674-40.322c-4.977-24.389-0.502-38.826,13.936-41.314c14.437-2.488,14.934-14.597,24.892-31.111
					c9.01-14.939,42.473-10.694,35.836,20.657c-8.788,41.509-29.365,29.377-35.836,45.8c-6.472,16.424,6.22,35.346-3.732,52.762
					C945.967,790.928,927.553,782.711,915.352,818.296z"/>
				<path id="XMLID_300_" fill="#1B1B35" d="M914.861,848.461c-0.12-0.971-11.196-97.615,57.972-179.309l1.518,1.289
					c-68.608,81.032-57.629,176.81-57.515,177.768L914.861,848.461z"/>
			</g>
			<polygon id="XMLID_264_" fill="#D3C2BE" points="957.683,971.892 857.643,971.892 837.213,832.894 978.111,832.894 			"/>
			<polygon id="XMLID_263_" opacity="0.5" fill="#D3C2BE" points="843.188,832.894 863.617,971.892 877.107,971.892 
				856.678,832.894 			"/>
			<polygon id="XMLID_262_" opacity="0.5" fill="#D3C2BE" points="978.111,832.894 957.683,971.892 930.611,971.892 
				951.046,832.894 			"/>
			<polygon id="XMLID_261_" opacity="0.5" fill="#D3C2BE" points="974.437,857.876 975.697,849.316 839.627,849.316 
				840.883,857.876 			"/>
			<rect id="XMLID_260_" x="864.279" y="971.892" fill="#D3C2BE" width="86.767" height="9.05"/>
			<rect id="XMLID_259_" x="864.279" y="971.892" opacity="0.5" fill="#D3C2BE" width="86.767" height="4.53"/>
			<rect id="XMLID_258_" x="830.931" y="829.253" fill="#D3C2BE" width="153.464" height="20.063"/>
			<rect id="XMLID_257_" x="955.925" y="829.253" opacity="0.5" fill="#D3C2BE" width="28.47" height="20.063"/>
			<rect id="XMLID_256_" x="834.479" y="829.253" opacity="0.5" fill="#D3C2BE" width="19.037" height="20.063"/>
		</g>
	</g>
	<g id="XMLID_102_">
		<g id="XMLID_288_">
			<path id="XMLID_289_" fill="#E4E3F7" d="M430.634,174.273c0,2.294-0.828,4.308-2.477,6.049c-1.649,1.74-3.754,2.613-6.323,2.613
				H316.276c-2.562,0-4.667-0.873-6.323-2.613c-1.643-1.741-2.471-3.755-2.471-6.049c0-2.289,0.828-4.354,2.471-6.186l0.828-1.095
				c4.217-4.4,7.333-8.708,9.341-12.925c3.304-7.327,4.953-16.766,4.953-28.31c0-10.631,3.299-19.881,9.896-27.762
				c6.596-7.881,15.031-12.828,25.291-14.848v-5.77c0-2.385,0.867-4.445,2.613-6.186c1.735-1.741,3.801-2.614,6.18-2.614
				s4.445,0.873,6.186,2.614c1.741,1.74,2.608,3.8,2.608,6.186v5.77c10.266,2.02,18.694,6.967,25.291,14.848
				s9.895,17.131,9.895,27.762c0,11.544,1.655,20.983,4.954,28.31c2.014,4.217,5.13,8.525,9.347,12.925
				c0.365,0.547,0.639,0.913,0.821,1.095C429.806,169.919,430.634,171.985,430.634,174.273z M411.939,169.737
				c-8.063-10.814-12.098-25.382-12.098-43.706v-0.274c0-5.501-1.369-10.631-4.12-15.396c-2.751-4.765-6.506-8.52-11.271-11.27
				c-4.765-2.745-9.901-4.12-15.396-4.12c-5.496,0-10.631,1.375-15.39,4.12c-4.771,2.75-8.526,6.505-11.276,11.27
				c-2.745,4.765-4.12,9.895-4.12,15.396v0.274c0,18.324-4.028,32.892-12.098,43.706H411.939z M356.689,204.238
				c-3.481-3.39-5.228-7.561-5.228-12.508h35.186c0,4.947-1.74,9.119-5.221,12.508c-3.487,3.39-7.607,5.084-12.372,5.084
				C364.29,209.322,360.17,207.627,356.689,204.238z"/>
		</g>
		<path id="XMLID_109_" fill="#E4E3F7" d="M491.47,19.058l108.326,3.418c2.968,0.12,5.398,1.159,7.305,3.127
			c1.911,1.963,2.967,4.343,3.184,7.127c0.211,2.785-0.628,5.284-2.517,7.492l-17.564,21.696l8.954,16.708
			c1.563,2.916,1.757,5.838,0.593,8.765c-1.158,2.927-3.149,5.021-5.98,6.277c-2.818,1.261-5.769,1.255-8.833,0l-14.945-7.355
			l-17.273,21.285c-0.981,1.033-2.135,1.912-3.458,2.619c-1.593,0.851-3.333,1.272-5.216,1.255c-3.436-0.034-6.231-1.438-8.4-4.206
			l-53.081-70.897c-1.746-2.306-2.454-4.828-2.128-7.561c0.325-2.739,1.523-5.044,3.589-6.917
			C486.095,20.016,488.577,19.069,491.47,19.058z M544.146,100.671l23.922-28.943L518.582,46.26c-1.159-0.571-1.804-1.461-1.94-2.67
			c-0.138-1.204,0.239-2.26,1.124-3.162c0.885-0.896,2.003-1.198,3.355-0.901l61.687,14.317l16.691-20.458l-108.331-3.418
			L544.146,100.671z M589.604,83.74l-6.928-12.931l-5.758,6.928L589.604,83.74z"/>
		<path id="XMLID_85_" fill="#E4E3F7" d="M392.406,183.158c0-13.952,11.305-25.262,25.263-25.262
			c13.947,0,25.257,11.31,25.257,25.262c0,13.953-11.31,25.263-25.257,25.263C403.71,208.421,392.406,197.111,392.406,183.158z"/>
		<g id="XMLID_103_">
			<path id="XMLID_107_" fill="#FFFFFF" d="M422.354,170.729v24.19h-6.317v-19.014h-4.657v-5.176H422.354z"/>
		</g>
	</g>
</g>
</svg>
