<?xml version="1.0" encoding="utf-8"?>
<!-- Generator: Adobe Illustrator 16.0.0, SVG Export Plug-In . SVG Version: 6.00 Build 0)  -->
<!DOCTYPE svg PUBLIC "-//W3C//DTD SVG 1.1//EN" "http://www.w3.org/Graphics/SVG/1.1/DTD/svg11.dtd">
<svg version="1.1" id="Layer_1" xmlns="http://www.w3.org/2000/svg" xmlns:xlink="http://www.w3.org/1999/xlink" x="0px" y="0px"
	 width="200px" height="200px" viewBox="0 0 200 200" enable-background="new 0 0 200 200" xml:space="preserve">
<g>
	<g>
		<path fill="#0C5AE5" d="M70.759,169.878c0,0-19.728-11.287-23.129-19.794c19.04-13.704,25.631-17.519,25.631-17.519l10.974,21.695
			L70.759,169.878z"/>
		<path fill="#0C5AE5" d="M70.759,171.298c-0.244,0-0.486-0.061-0.708-0.188c-0.823-0.469-20.197-11.637-23.742-20.499
			c-0.244-0.604-0.039-1.298,0.488-1.681c18.885-13.587,25.481-17.435,25.753-17.592c0.333-0.201,0.738-0.247,1.115-0.134
			c0.375,0.11,0.688,0.372,0.863,0.722l10.977,21.694c0.258,0.513,0.183,1.132-0.194,1.569l-13.479,15.617
			C71.555,171.129,71.158,171.298,70.759,171.298z M49.416,150.546c3.656,6.758,17.22,15.216,21.043,17.507l12.081-14l-9.85-19.473
			C70.026,136.244,62.997,140.799,49.416,150.546z"/>
	</g>
	<g>
		<path fill="#0C5AE5" d="M86.39,178.74c0,0,19.766,9.453,33.63,1.784c13.857-7.67,49.064-27.165,49.064-27.165l-31.938-19.101
			l-14.796,12.965L86.39,178.74z"/>
		<path fill="#0C5AE5" d="M107.109,184.965c-10.825,0-20.745-4.662-21.333-4.942c-0.43-0.206-0.727-0.616-0.793-1.088
			c-0.066-0.475,0.111-0.948,0.472-1.262l50.752-44.482c0.467-0.408,1.138-0.466,1.664-0.15l31.945,19.102
			c0.433,0.261,0.699,0.731,0.688,1.243c-0.006,0.507-0.289,0.971-0.733,1.217l-49.064,27.165
			C116.441,184.127,111.692,184.965,107.109,184.965z M89.027,178.316c5.282,2.077,19.763,6.799,30.304,0.965l46.907-25.969
			l-28.938-17.304L89.027,178.316z"/>
	</g>
	<g>
		<g>
			<polygon fill="#D4E6FC" points="85.799,162.463 113.988,146.086 113.938,162.158 85.754,178.535 			"/>
			<path fill="#0C5AE5" d="M85.754,179.955c-0.244,0-0.488-0.063-0.71-0.191c-0.438-0.252-0.71-0.724-0.71-1.23l0.044-16.073
				c0.003-0.504,0.272-0.971,0.71-1.225l28.184-16.378c0.439-0.258,0.982-0.258,1.427,0c0.438,0.252,0.71,0.724,0.71,1.232
				l-0.05,16.071c0,0.504-0.267,0.971-0.705,1.227L86.47,179.764C86.248,179.892,86.004,179.955,85.754,179.955z M87.219,163.282
				l-0.036,12.781l25.341-14.724l0.034-12.782L87.219,163.282z"/>
		</g>
		<g>
			<path fill="#FFFFFF" d="M113.079,120.001c-1.909,0.038-4.916-1.136-9.022-3.507c-4.982-2.874-10.746-7.296-17.315-13.287
				c-1.57-1.435-3.112-2.885-4.629-4.351c-0.499-0.48-0.979-0.971-1.473-1.457c-1.007-0.991-2.012-1.98-2.994-2.985
				c-0.574-0.588-1.134-1.185-1.7-1.778c-0.876-0.916-1.748-1.831-2.602-2.757c-0.588-0.638-1.165-1.285-1.745-1.928
				c-1.04-1.159-2.083-2.316-3.093-3.492L40.32,100.841c0.488,0.568,0.979,1.138,1.479,1.7c0.527,0.604,1.082,1.195,1.618,1.792
				c0.58,0.644,1.15,1.29,1.739,1.925c0.857,0.93,1.731,1.848,2.607,2.764c0.566,0.591,1.124,1.187,1.698,1.775
				c0.982,1.004,1.986,1.993,2.996,2.984c0.491,0.485,0.971,0.977,1.47,1.456c1.517,1.465,3.057,2.916,4.633,4.35
				c6.563,5.988,12.333,10.413,17.309,13.287c4.105,2.372,7.118,3.545,9.026,3.506c0.55-0.011,1.021-0.13,1.415-0.357l28.185-16.38
				C114.1,119.869,113.628,119.989,113.079,120.001z"/>
			<path fill="#0C5AE5" d="M84.806,137.801c-2.186,0-5.343-1.209-9.647-3.698c-5.048-2.912-10.955-7.442-17.559-13.468
				c-1.581-1.442-3.132-2.901-4.66-4.377l-1.481-1.464c-1.012-0.996-2.024-1.994-3.012-3.005l-1.709-1.786
				c-0.882-0.921-1.764-1.847-2.624-2.782c-0.463-0.499-0.921-1.009-1.375-1.518l-0.965-1.07c-0.35-0.383-0.7-0.766-1.043-1.156
				c-0.497-0.563-0.993-1.138-1.486-1.709c-0.272-0.321-0.391-0.747-0.322-1.162c0.073-0.418,0.322-0.781,0.688-0.994l28.183-16.378
				c0.585-0.338,1.343-0.214,1.792,0.302c0.882,1.026,1.792,2.042,2.705,3.057l2.1,2.324c0.849,0.921,1.717,1.831,2.585,2.738
				l1.689,1.765c0.976,1.001,1.972,1.983,2.973,2.968l1.462,1.445c1.509,1.457,3.041,2.9,4.605,4.326
				c6.441,5.881,12.183,10.289,17.065,13.107c4.817,2.779,7.203,3.322,8.285,3.314l0,0c0.305-0.006,0.548-0.062,0.726-0.167l0,0
				c0.006,0,0.006,0,0.006,0c0.677-0.391,1.548-0.16,1.941,0.517c0.389,0.677,0.161,1.548-0.516,1.941h-0.005
				c0,0,0,0.003-0.006,0.003l-28.173,16.377c-0.607,0.35-1.315,0.533-2.103,0.55C84.883,137.801,84.844,137.801,84.806,137.801z
				 M42.515,101.207c0.116,0.133,0.233,0.264,0.349,0.394c0.331,0.38,0.666,0.749,1.004,1.118l0.982,1.088
				c0.45,0.499,0.894,0.995,1.348,1.486c0.854,0.927,1.723,1.836,2.591,2.746l1.687,1.765c0.977,0.998,1.975,1.98,2.974,2.965
				l1.465,1.445c1.506,1.456,3.037,2.898,4.599,4.325c6.452,5.883,12.194,10.294,17.065,13.106c4.815,2.778,7.221,3.32,8.286,3.314
				c0.305-0.006,0.552-0.062,0.735-0.167l24.118-14.016c-1.759-0.597-3.874-1.609-6.37-3.055
				c-5.06-2.918-10.965-7.447-17.559-13.467c-1.584-1.442-3.135-2.901-4.66-4.379l-1.487-1.464c-1.01-0.996-2.022-1.995-3.01-3.004
				l-1.711-1.789c-0.882-0.924-1.761-1.845-2.621-2.777l-2.125-2.353c-0.661-0.735-1.32-1.47-1.97-2.21L42.515,101.207z"/>
		</g>
		<g>
			<path fill="#D4E6FC" d="M144.246,127.775c-0.011-0.158-0.017-0.315-0.021-0.475c-0.039-0.712-0.095-1.423-0.167-2.133
				c-0.011-0.113-0.027-0.229-0.038-0.345c-0.073-0.646-0.156-1.292-0.256-1.936c-0.022-0.125-0.038-0.252-0.055-0.38
				c-0.117-0.702-0.25-1.403-0.395-2.103c-0.033-0.153-0.066-0.305-0.1-0.458c-0.15-0.685-0.316-1.37-0.5-2.056
				c-0.006-0.032-0.017-0.069-0.021-0.103c-0.194-0.707-0.405-1.415-0.633-2.119c-0.05-0.154-0.1-0.311-0.155-0.466
				c-0.228-0.696-0.472-1.387-0.732-2.077c-0.039-0.098-0.077-0.191-0.117-0.289c-0.243-0.633-0.51-1.265-0.781-1.897
				c-0.039-0.083-0.067-0.169-0.105-0.255c-0.022-0.045-0.044-0.089-0.067-0.137c-0.311-0.695-0.638-1.392-0.981-2.088
				c-0.071-0.142-0.144-0.286-0.217-0.428c-0.366-0.716-0.743-1.428-1.143-2.142c-0.321-0.567-0.659-1.142-1.01-1.722
				c-0.104-0.178-0.216-0.358-0.326-0.536c-0.262-0.416-0.522-0.837-0.795-1.259c-0.127-0.194-0.254-0.392-0.383-0.586
				c-0.305-0.463-0.615-0.929-0.937-1.397c-0.1-0.144-0.188-0.278-0.283-0.418c-0.422-0.604-0.86-1.218-1.31-1.833
				c-0.111-0.147-0.222-0.297-0.333-0.447c-0.354-0.477-0.715-0.957-1.087-1.442c-0.161-0.208-0.322-0.416-0.482-0.625
				c-0.355-0.455-0.717-0.913-1.082-1.37c-0.155-0.194-0.312-0.388-0.472-0.585c-0.521-0.646-1.06-1.296-1.614-1.95
				c-0.012-0.02-0.033-0.039-0.044-0.058c-0.544-0.639-1.1-1.285-1.664-1.931c-0.062-0.072-0.123-0.142-0.184-0.211
				c-0.105-0.119-0.217-0.238-0.317-0.354c-0.516-0.585-1.042-1.173-1.58-1.764c-0.167-0.183-0.333-0.364-0.499-0.546
				c-0.678-0.738-1.365-1.481-2.08-2.233c-0.134-0.139-0.267-0.28-0.4-0.419c-0.61-0.635-1.226-1.275-1.854-1.919
				c-0.205-0.211-0.415-0.418-0.621-0.63c-0.766-0.776-1.542-1.556-2.341-2.344c-4.971-4.818-8.854-8.769-11.655-11.861
				c-0.388-0.427-0.756-0.841-1.111-1.246c-0.236-0.266-0.461-0.527-0.684-0.782c-0.055-0.064-0.11-0.131-0.166-0.191
				c-0.277-0.325-0.541-0.638-0.795-0.946c-0.07-0.081-0.131-0.159-0.197-0.239c-0.184-0.225-0.361-0.444-0.533-0.658
				c-0.083-0.103-0.16-0.202-0.24-0.305c-0.145-0.183-0.287-0.364-0.42-0.541c-0.083-0.106-0.16-0.208-0.238-0.311
				c-0.128-0.169-0.25-0.335-0.366-0.496c-0.072-0.097-0.142-0.194-0.208-0.289c-0.119-0.169-0.23-0.33-0.342-0.494
				c-0.053-0.078-0.11-0.158-0.16-0.233c-0.155-0.233-0.3-0.458-0.43-0.674c-0.153-0.244-0.292-0.491-0.422-0.738
				c-0.042-0.081-0.08-0.161-0.119-0.241c-0.083-0.165-0.167-0.331-0.241-0.495c-0.031-0.073-0.061-0.143-0.091-0.215
				c-0.1-0.24-0.194-0.478-0.278-0.718c-0.025-0.074-0.053-0.148-0.077-0.222c-0.095-0.292-0.175-0.583-0.239-0.876
				c-0.011-0.047-0.017-0.094-0.028-0.142c-0.053-0.251-0.094-0.501-0.125-0.754c-0.009-0.079-0.02-0.158-0.025-0.237
				c-0.03-0.294-0.05-0.587-0.05-0.881c0.005-1.563,0.441-2.596,1.304-3.097L69.94,67.808c-0.862,0.502-1.295,1.534-1.301,3.099
				c0,0.294,0.017,0.588,0.044,0.882c0.011,0.078,0.02,0.155,0.028,0.236c0.034,0.25,0.072,0.502,0.125,0.754
				c0.009,0.047,0.017,0.094,0.025,0.142c0.066,0.291,0.149,0.583,0.244,0.876c0.022,0.075,0.05,0.147,0.078,0.222
				c0.083,0.239,0.172,0.48,0.277,0.718c0.017,0.044,0.03,0.092,0.05,0.136c0.011,0.027,0.028,0.053,0.039,0.077
				c0.075,0.167,0.155,0.331,0.241,0.497c0.042,0.081,0.078,0.161,0.12,0.241c0.133,0.248,0.271,0.492,0.421,0.738
				c0.133,0.216,0.278,0.441,0.433,0.674c0.05,0.075,0.105,0.152,0.155,0.23c0.111,0.164,0.225,0.327,0.344,0.5
				c0.067,0.091,0.139,0.188,0.208,0.285c0.119,0.161,0.241,0.325,0.366,0.494c0.078,0.105,0.159,0.208,0.236,0.313
				c0.136,0.178,0.278,0.355,0.422,0.538c0.078,0.103,0.161,0.205,0.244,0.311c0.166,0.21,0.344,0.424,0.521,0.643
				c0.072,0.086,0.136,0.167,0.208,0.252c0.252,0.305,0.519,0.619,0.793,0.94c0.058,0.067,0.12,0.139,0.181,0.208
				c0.188,0.219,0.377,0.438,0.577,0.666c0.027,0.031,0.061,0.067,0.089,0.101c0.357,0.405,0.727,0.82,1.115,1.248
				c2.801,3.093,6.68,7.043,11.656,11.862c0.798,0.788,1.575,1.567,2.341,2.341c0.205,0.213,0.411,0.422,0.616,0.632
				c0.629,0.645,1.248,1.279,1.85,1.914c0.136,0.144,0.274,0.288,0.407,0.429c0.713,0.75,1.404,1.492,2.081,2.23
				c0.167,0.184,0.331,0.364,0.494,0.544c0.541,0.594,1.068,1.182,1.584,1.765c0.166,0.188,0.335,0.38,0.499,0.565
				c0.569,0.648,1.124,1.295,1.662,1.934c0.017,0.017,0.033,0.039,0.05,0.055c0.555,0.658,1.09,1.308,1.615,1.953
				c0.157,0.194,0.311,0.389,0.465,0.582c0.372,0.461,0.732,0.919,1.088,1.373c0.16,0.209,0.322,0.417,0.482,0.625
				c0.371,0.485,0.732,0.966,1.088,1.442c0.107,0.149,0.222,0.3,0.329,0.446c0.453,0.616,0.886,1.227,1.307,1.834
				c0.1,0.139,0.188,0.274,0.284,0.413c0.323,0.472,0.639,0.938,0.943,1.398c0.128,0.196,0.256,0.394,0.378,0.588
				c0.277,0.424,0.538,0.844,0.799,1.26c0.104,0.178,0.216,0.357,0.327,0.531c0.35,0.58,0.688,1.157,1.01,1.726
				c0.399,0.71,0.776,1.427,1.138,2.142c0.071,0.143,0.149,0.286,0.216,0.428c0.35,0.693,0.677,1.39,0.987,2.089
				c0.056,0.13,0.111,0.261,0.173,0.394c0.271,0.63,0.531,1.262,0.782,1.897c0.032,0.095,0.077,0.189,0.11,0.283
				c0.267,0.693,0.51,1.384,0.738,2.08c0.05,0.156,0.1,0.311,0.149,0.466c0.228,0.705,0.444,1.409,0.633,2.117
				c0.011,0.035,0.017,0.071,0.027,0.105c0.184,0.685,0.345,1.37,0.499,2.058c0.033,0.15,0.067,0.303,0.1,0.453
				c0.146,0.701,0.278,1.402,0.389,2.104c0.022,0.128,0.039,0.253,0.056,0.377c0.101,0.646,0.189,1.294,0.255,1.939
				c0.018,0.116,0.028,0.23,0.045,0.344c0.072,0.71,0.122,1.42,0.16,2.134c0.012,0.157,0.018,0.315,0.023,0.475
				c0.032,0.729,0.055,1.461,0.055,2.196c-0.027,9.179-2.541,15.231-7.545,18.141l28.183-16.38c5.011-2.91,7.518-8.962,7.546-18.142
				C144.302,129.237,144.279,128.505,144.246,127.775z"/>
			<path fill="#0C5AE5" d="M108.568,165.914c-0.487,0-0.965-0.253-1.226-0.708c-0.399-0.677-0.167-1.548,0.51-1.941l0.011-0.006
				c4.506-2.627,6.802-8.315,6.83-16.909c0-0.716-0.022-1.427-0.05-2.134l-0.022-0.46c-0.039-0.688-0.089-1.376-0.161-2.063
				l1.37-0.488l-1.408,0.155c-0.067-0.627-0.15-1.251-0.25-1.878l1.348-0.591l-1.397,0.228c-0.111-0.685-0.239-1.364-0.383-2.044
				l-0.067-0.317c-0.178-0.79-0.332-1.453-0.51-2.118c-0.211-0.789-0.421-1.471-0.639-2.156l-0.149-0.451
				c-0.223-0.675-0.46-1.349-0.716-2.022l1.216-0.788l-1.327,0.513c-0.237-0.615-0.493-1.231-0.76-1.842l-0.166-0.383
				c-0.305-0.682-0.622-1.361-0.96-2.036l-0.205-0.404c-0.36-0.71-0.727-1.407-1.115-2.101c-0.316-0.554-0.648-1.12-0.987-1.686
				l-0.321-0.521c-0.256-0.406-0.512-0.819-0.777-1.234l-1.305-1.956c-0.003-0.003-0.278-0.404-0.278-0.404
				c-0.416-0.601-0.843-1.199-1.287-1.807l-1.875-2.478c-0.35-0.451-0.71-0.901-1.072-1.356l-0.461-0.577
				c-0.52-0.64-1.052-1.284-1.598-1.933c-0.583-0.688-1.134-1.326-1.695-1.97l-0.494-0.557c-0.514-0.58-1.038-1.162-1.57-1.754
				l-0.494-0.538c-0.671-0.732-1.354-1.47-2.058-2.211l-0.411-0.427c-0.599-0.633-1.212-1.262-1.836-1.902L89.2,99.022
				c-0.751-0.76-1.523-1.537-2.319-2.319c-4.957-4.804-8.898-8.815-11.711-11.919l-1.653-1.867l0.815-1.226l-1.071,0.929
				l-3.429-4.363c-0.002-0.005-0.244-0.363-0.25-0.369c-0.167-0.25-0.322-0.491-0.466-0.724c-0.164-0.269-0.316-0.538-0.46-0.813
				c-0.006-0.008-0.133-0.261-0.139-0.269l-0.264-0.55c-0.213-0.504-0.319-0.776-0.413-1.045c-0.194-0.597-0.289-0.926-0.361-1.256
				c-0.094-0.456-0.141-0.747-0.177-1.035c-0.064-0.616-0.083-0.957-0.083-1.295c0.005-2.094,0.682-3.548,2.008-4.322l28.177-16.375
				c0.005-0.001,0.005-0.001,0.005-0.001l0.003-0.001c0.671-0.394,1.545-0.167,1.938,0.513c0.395,0.678,0.167,1.548-0.51,1.942
				c-0.488,0.284-0.594,1.176-0.6,1.875c0,0.244,0.02,0.492,0.042,0.742c0.047,0.405,0.083,0.62,0.127,0.833
				c0.081,0.375,0.147,0.623,0.231,0.874c0.141,0.408,0.221,0.615,0.311,0.824l0.288,0.623c0.228,0.436,0.349,0.654,0.482,0.87
				c0.128,0.211,0.261,0.419,0.405,0.635l2.38,3.16l-0.856,1.193l1.092-0.907l2.717,3.118c2.758,3.046,6.652,7.012,11.59,11.795
				c0.815,0.802,1.598,1.586,2.363,2.369l2.724,2.81c0.888,0.935,1.588,1.684,2.27,2.427l0.505,0.555
				c0.538,0.591,1.071,1.185,1.592,1.775l0.328,0.369c0.748,0.854,1.309,1.506,1.853,2.15c0.61,0.722,1.154,1.378,1.681,2.034
				l0.339,0.421c0.505,0.629,0.877,1.096,1.231,1.559l0.488,0.627c0.377,0.494,0.743,0.982,1.104,1.465l0.178,0.238
				c0.615,0.838,1.059,1.459,1.486,2.072c0,0.003,0.283,0.421,0.289,0.424c0.326,0.478,0.643,0.953,0.954,1.425l1.53,2.428
				c0.361,0.591,0.711,1.179,1.032,1.761c0.41,0.728,0.799,1.459,1.171,2.192l0.222,0.435c0.355,0.717,0.694,1.432,1.01,2.145
				c0.011,0.02,0.128,0.291,0.139,0.312c0.322,0.742,0.588,1.395,0.844,2.044c0,0.003,0.116,0.294,0.116,0.294
				c0.271,0.713,0.521,1.423,0.755,2.139l0.161,0.478c0.232,0.726,0.448,1.453,0.648,2.185c0.216,0.811,0.383,1.516,0.538,2.223
				l0.105,0.472c0.149,0.721,0.283,1.445,0.399,2.166c0,0.006,0.062,0.389,0.062,0.394c0.1,0.663,0.188,1.329,0.26,1.995
				c0,0.003,0.039,0.349,0.045,0.352c0.072,0.735,0.127,1.469,0.166,2.203l0.018,0.374l-1.41,0.178l1.415-0.063
				c0.039,0.752,0.061,1.506,0.055,2.267c-0.027,9.683-2.802,16.198-8.249,19.364l-28.183,16.38
				C109.057,165.853,108.813,165.914,108.568,165.914z M72.173,76.648l3.167,4.036c0.003,0.003,0.183,0.214,0.188,0.219l1.745,1.973
				c2.771,3.06,6.671,7.026,11.592,11.794c0.813,0.801,1.592,1.583,2.363,2.363l0.627,0.641c0.63,0.646,1.251,1.287,1.858,1.925
				l0.411,0.427c0.715,0.759,1.415,1.509,2.097,2.251l0.494,0.544c0.549,0.603,1.079,1.195,1.598,1.783l0.505,0.569
				c0.574,0.657,1.138,1.313,1.681,1.955c0.61,0.722,1.148,1.376,1.682,2.028l0.318,0.399c0.525,0.654,0.891,1.121,1.252,1.58
				l0.49,0.636c0.375,0.488,0.741,0.974,1.099,1.457l0.178,0.24c0.614,0.838,1.058,1.459,1.485,2.076l1.487,2.208
				c0.421,0.656,0.693,1.087,0.954,1.511l0.332,0.542c0.361,0.599,0.71,1.187,1.038,1.77c0.41,0.726,0.793,1.462,1.165,2.194
				l0.222,0.435c0.355,0.713,0.693,1.429,1.015,2.147l0.167,0.386c0.288,0.665,0.561,1.314,0.81,1.969
				c0.007,0.003,0.117,0.289,0.117,0.291c0.271,0.714,0.521,1.427,0.761,2.139l0.154,0.478c0.233,0.728,0.455,1.453,0.649,2.181
				c0.216,0.815,0.389,1.523,0.543,2.23l0.1,0.461c0.156,0.729,0.289,1.453,0.406,2.177c0,0.006,0.055,0.383,0.055,0.386
				c0.105,0.666,0.194,1.334,0.267,2c0,0.006,0.038,0.352,0.038,0.354c0.078,0.733,0.134,1.465,0.173,2.197l0.021,0.494
				c0.034,0.752,0.057,1.506,0.057,2.263c-0.017,5.097-0.794,9.315-2.319,12.63l20.827-12.102c4.51-2.622,6.813-8.314,6.834-16.916
				c0.006-0.713-0.017-1.423-0.05-2.131v-0.003l-0.006-0.119l-0.017-0.329c-0.038-0.699-0.089-1.387-0.16-2.073l1.376-0.491
				l-1.415,0.156c-0.067-0.627-0.149-1.254-0.244-1.878l1.349-0.594l-1.404,0.228c-0.111-0.683-0.238-1.362-0.378-2.042
				l-0.065-0.285c-0.178-0.818-0.339-1.484-0.517-2.149c-0.211-0.788-0.416-1.471-0.638-2.155l-0.145-0.441
				c-0.228-0.688-0.461-1.359-0.721-2.028l1.214-0.796l-1.325,0.513c-0.238-0.615-0.494-1.228-0.76-1.845
				c-0.006-0.008-0.178-0.407-0.178-0.415c-0.288-0.642-0.61-1.318-0.949-1.998l-0.205-0.413c-0.36-0.701-0.726-1.395-1.114-2.091
				c-0.312-0.558-0.644-1.118-0.988-1.685l-1.471-2.33c-0.305-0.461-0.609-0.918-0.926-1.378l0.888-1.223l-1.165,0.814
				c-0.416-0.598-0.849-1.203-1.292-1.81l-0.334-0.446c-0.343-0.467-0.698-0.938-1.064-1.418l-0.478-0.613
				c-0.349-0.452-0.704-0.901-1.07-1.354l-0.467-0.583c-0.516-0.638-1.042-1.278-1.592-1.925c-0.582-0.69-1.132-1.332-1.698-1.969
				c0-0.006-0.182-0.219-0.188-0.222c-0.007-0.003-0.301-0.333-0.301-0.336c-0.521-0.585-1.042-1.167-1.575-1.753l-0.493-0.543
				c-0.666-0.732-1.354-1.47-2.063-2.216l-2.697-2.791c-0.915-0.929-1.686-1.703-2.485-2.485c-4.971-4.818-8.909-8.832-11.707-11.92
				l-2.799-3.212c-0.003-0.003-0.202-0.244-0.205-0.25l-2.427-3.199l-0.161-0.236c-0.167-0.25-0.322-0.491-0.461-0.724
				c-0.163-0.264-0.322-0.538-0.466-0.813c-0.006-0.009-0.127-0.261-0.133-0.27c-0.095-0.18-0.186-0.366-0.267-0.552
				c-0.219-0.512-0.324-0.782-0.416-1.053c-0.194-0.58-0.289-0.914-0.361-1.249c-0.092-0.448-0.139-0.738-0.174-1.026
				c-0.003-0.018-0.031-0.273-0.031-0.292c-0.028-0.287-0.05-0.581-0.053-0.876L70.653,69.037c-0.488,0.283-0.594,1.176-0.594,1.873
				c0,0.252,0.017,0.499,0.039,0.746c0.05,0.408,0.083,0.622,0.128,0.833c0.081,0.375,0.149,0.626,0.233,0.882
				c0.136,0.388,0.216,0.599,0.305,0.807l0.294,0.635c0.228,0.433,0.35,0.652,0.482,0.874c0.128,0.203,0.261,0.411,0.405,0.627
				l-0.943,1.14L72.173,76.648z"/>
		</g>
		<g>
			<defs>
				<path id="SVGID_1_" d="M46.886,38.83l28.183-16.38c0.371-0.216,0.76-0.411,1.162-0.584c5.138-2.205,12.827-0.958,23.073,3.73
					l-28.186,16.38c-10.247-4.688-17.936-5.937-23.073-3.729C47.644,38.42,47.258,38.614,46.886,38.83z"/>
			</defs>
			<defs>
				<path id="SVGID_2_" d="M71.119,43.396c-0.2,0-0.402-0.043-0.591-0.129c-9.822-4.493-17.198-5.742-21.922-3.715
					c-0.345,0.147-0.671,0.312-0.988,0.495l-0.02,0.011c-0.68,0.392-1.548,0.165-1.941-0.513c-0.394-0.678-0.164-1.548,0.513-1.942
					c0.006-0.002,0.009-0.005,0.014-0.008l28.172-16.372c0.424-0.244,0.857-0.464,1.312-0.66c5.576-2.394,13.498-1.167,24.227,3.742
					c0.483,0.22,0.802,0.692,0.827,1.222c0.027,0.53-0.244,1.03-0.705,1.297l-28.183,16.38
					C71.613,43.331,71.366,43.396,71.119,43.396z M54.947,35.788c4.433,0.232,9.764,1.758,16.092,4.593l25.134-14.607
					c-8.566-3.573-15.079-4.453-19.382-2.603c-0.347,0.15-0.685,0.321-1.009,0.508L54.947,35.788z"/>
			</defs>
			<use xlink:href="#SVGID_1_"  overflow="visible" fill="#FFFFFF"/>
			<use xlink:href="#SVGID_2_"  overflow="visible" fill="#0C5AE5"/>
			<clipPath id="SVGID_3_">
				<use xlink:href="#SVGID_1_"  overflow="visible"/>
			</clipPath>
			<clipPath id="SVGID_4_" clip-path="url(#SVGID_3_)">
				<use xlink:href="#SVGID_2_"  overflow="visible"/>
			</clipPath>
			<g clip-path="url(#SVGID_4_)">
				<path fill="#FFFFFF" d="M46.886,38.83l28.183-16.38c0.371-0.216,0.76-0.411,1.162-0.584c5.138-2.205,12.827-0.958,23.073,3.73
					l-28.186,16.38c-10.247-4.688-17.936-5.937-23.073-3.729C47.644,38.42,47.258,38.614,46.886,38.83L46.886,38.83z"/>
				<path fill="#0C5AE5" d="M71.119,43.396c-0.2,0-0.402-0.043-0.591-0.129c-9.822-4.493-17.198-5.742-21.922-3.715
					c-0.345,0.147-0.671,0.312-0.988,0.495l-0.02,0.011c-0.68,0.392-1.548,0.165-1.941-0.513c-0.394-0.678-0.164-1.548,0.513-1.942
					c0.006-0.002,0.009-0.005,0.014-0.008l28.172-16.372c0.424-0.244,0.857-0.464,1.312-0.66c5.576-2.394,13.498-1.167,24.227,3.742
					c0.483,0.22,0.802,0.692,0.827,1.222c0.027,0.53-0.244,1.03-0.705,1.297l-28.183,16.38
					C71.613,43.331,71.366,43.396,71.119,43.396z M54.947,35.788c4.433,0.232,9.764,1.758,16.092,4.593l25.134-14.607
					c-8.566-3.573-15.079-4.453-19.382-2.603c-0.347,0.15-0.685,0.321-1.009,0.508L54.947,35.788z"/>
			</g>
		</g>
		<g>
			<polygon fill="#FFFFFF" points="71.152,30.568 99.336,14.189 114.338,22.848 86.148,39.228 			"/>
			<path fill="#0C5AE5" d="M86.148,40.648c-0.244,0-0.488-0.063-0.709-0.189l-14.996-8.66c-0.438-0.254-0.71-0.722-0.71-1.229
				c0-0.506,0.269-0.975,0.707-1.229l28.184-16.379c0.44-0.259,0.984-0.258,1.423-0.003l15.002,8.659
				c0.438,0.254,0.705,0.721,0.711,1.229c0,0.506-0.272,0.975-0.711,1.229L86.864,40.455C86.642,40.584,86.398,40.648,86.148,40.648
				z M73.988,30.564l12.16,7.023l25.355-14.735L99.341,15.83L73.988,30.564z"/>
		</g>
		<g>
			<polygon fill="#D4E6FC" points="86.148,39.228 114.338,22.848 114.305,34.091 86.118,50.471 			"/>
			<path fill="#0C5AE5" d="M86.118,51.891c-0.248,0-0.492-0.064-0.71-0.19c-0.441-0.255-0.713-0.725-0.71-1.234l0.031-11.243
				C84.731,38.719,85,38.253,85.435,38l28.188-16.38c0.438-0.258,0.981-0.256,1.425-0.003c0.438,0.256,0.711,0.726,0.711,1.235
				l-0.034,11.242c0,0.505-0.271,0.971-0.704,1.224l-28.19,16.38C86.609,51.827,86.365,51.891,86.118,51.891z M87.568,40.046
				l-0.022,7.953l25.338-14.727l0.021-7.953L87.568,40.046z"/>
		</g>
		<g>
			<polygon fill="#D4E6FC" points="115.153,75.408 143.337,59.028 134.648,77.78 106.466,94.16 			"/>
			<path fill="#0C5AE5" d="M106.466,95.58c-0.345,0-0.689-0.125-0.959-0.372c-0.457-0.416-0.591-1.082-0.329-1.645l8.684-18.752
				c0.121-0.263,0.326-0.485,0.576-0.632l28.183-16.378c0.539-0.31,1.216-0.24,1.677,0.178c0.454,0.417,0.588,1.084,0.327,1.646
				l-8.688,18.752c-0.122,0.266-0.321,0.485-0.571,0.632l-28.183,16.38C106.954,95.516,106.709,95.58,106.466,95.58z
				 M116.252,76.412l-6.602,14.255l23.9-13.892l6.602-14.255L116.252,76.412z"/>
		</g>
		<g>
			<defs>
				<path id="SVGID_5_" d="M86.118,50.471l28.187-16.38c9.609,6.158,19.289,14.475,29.032,24.938l-28.184,16.38
					C105.404,64.945,95.727,56.629,86.118,50.471z"/>
			</defs>
			<defs>
				<path id="SVGID_6_" d="M115.153,76.829c-0.389,0-0.765-0.155-1.042-0.452c-9.622-10.333-19.3-18.648-28.762-24.71
					c-0.417-0.266-0.663-0.731-0.652-1.226c0.012-0.495,0.28-0.948,0.708-1.196l28.184-16.38c0.461-0.271,1.026-0.258,1.482,0.032
					c9.663,6.194,19.522,14.662,29.303,25.165c0.3,0.316,0.433,0.749,0.366,1.176c-0.061,0.427-0.316,0.802-0.688,1.021
					l-28.188,16.38C115.642,76.765,115.397,76.829,115.153,76.829z M88.819,50.544c8.785,5.888,17.719,13.635,26.595,23.07
					l25.664-14.916c-8.971-9.47-17.98-17.181-26.813-22.941L88.819,50.544z"/>
			</defs>
			<use xlink:href="#SVGID_5_"  overflow="visible" fill="#FFFFFF"/>
			<use xlink:href="#SVGID_6_"  overflow="visible" fill="#0C5AE5"/>
			<clipPath id="SVGID_7_">
				<use xlink:href="#SVGID_5_"  overflow="visible"/>
			</clipPath>
			<clipPath id="SVGID_8_" clip-path="url(#SVGID_7_)">
				<use xlink:href="#SVGID_6_"  overflow="visible"/>
			</clipPath>
			<g clip-path="url(#SVGID_8_)">
				<path fill="#FFFFFF" d="M86.118,50.471l28.187-16.38c9.609,6.158,19.289,14.475,29.032,24.938l-28.184,16.38
					C105.404,64.945,95.727,56.629,86.118,50.471L86.118,50.471z"/>
				<path fill="#0C5AE5" d="M115.153,76.829c-0.389,0-0.765-0.155-1.042-0.452c-9.622-10.333-19.3-18.648-28.762-24.71
					c-0.417-0.266-0.663-0.731-0.652-1.226c0.012-0.495,0.28-0.948,0.708-1.196l28.184-16.38c0.461-0.271,1.026-0.258,1.482,0.032
					c9.663,6.194,19.522,14.662,29.303,25.165c0.3,0.316,0.433,0.749,0.366,1.176c-0.061,0.427-0.316,0.802-0.688,1.021
					l-28.188,16.38C115.642,76.765,115.397,76.829,115.153,76.829z M88.819,50.544c8.785,5.888,17.719,13.635,26.595,23.07
					l25.664-14.916c-8.971-9.47-17.98-17.181-26.813-22.941L88.819,50.544z"/>
			</g>
		</g>
		<g>
			<path fill="#5F98ED" d="M86.148,39.228l-0.03,11.243c9.608,6.158,19.286,14.474,29.035,24.938l-8.688,18.751
				c-10.087-11.048-19.186-18.915-27.3-23.6c-3.864-2.23-6.582-3.259-8.158-3.082c-1.573,0.175-2.364,1.315-2.369,3.429
				c-0.005,1.831,0.555,3.673,1.692,5.52c1.132,1.853,3.099,4.322,5.892,7.403c2.801,3.093,6.68,7.043,11.656,11.862
				c10.081,9.938,17.315,18.797,21.699,26.58c4.383,7.784,6.557,15.812,6.535,24.081c-0.027,9.322-2.619,15.42-7.783,18.273
				c-5.164,2.858-12.67,2.137-22.531-2.163l-0.044,16.072l-14.996-8.657l0.044-15.573c-10.58-6.659-20.766-15.27-30.563-25.819
				l0.081-27.645c5.598,6.519,11.675,12.76,18.239,18.746c6.563,5.988,12.333,10.413,17.309,13.287
				c4.105,2.372,7.118,3.545,9.026,3.506c1.912-0.036,2.871-1.387,2.88-4.05c0.005-1.836-0.68-3.783-2.05-5.856
				c-1.375-2.074-3.664-4.842-6.876-8.307c-3.207-3.462-7.54-7.909-12.991-13.338c-6.125-6.153-11.07-11.939-14.83-17.36
				c-3.758-5.429-6.49-10.644-8.191-15.656c-1.703-5.016-2.546-10.521-2.53-16.519c0.025-9.16,2.602-14.842,7.739-17.048
				c5.137-2.207,12.826-0.958,23.073,3.729l0.033-11.408L86.148,39.228z"/>
			<path fill="#0C5AE5" d="M85.754,179.955c-0.244,0-0.488-0.063-0.71-0.191l-14.996-8.657c-0.444-0.252-0.713-0.724-0.71-1.23
				l0.039-14.791c-10.391-6.636-20.544-15.254-30.175-25.634c-0.247-0.264-0.383-0.61-0.383-0.969l0.081-27.645
				c0.003-0.595,0.372-1.124,0.929-1.329c0.549-0.215,1.182-0.045,1.57,0.404c5.504,6.415,11.601,12.678,18.114,18.626
				c6.452,5.883,12.194,10.294,17.065,13.106c4.815,2.778,7.221,3.32,8.286,3.314c0.518-0.008,1.481-0.027,1.489-2.635
				c0.006-1.534-0.604-3.241-1.814-5.069c-1.332-2.007-3.601-4.742-6.735-8.124c-3.19-3.442-7.547-7.917-12.949-13.295
				c-6.169-6.198-11.212-12.104-14.996-17.558c-3.822-5.518-6.635-10.904-8.369-16.011c-1.745-5.137-2.622-10.849-2.605-16.978
				c0.028-9.736,2.921-15.91,8.599-18.35c5.215-2.238,12.5-1.307,22.219,2.854l0.028-9.231c0-0.506,0.271-0.974,0.71-1.228
				c0.438-0.253,0.982-0.252,1.42,0.001l14.996,8.661c0.444,0.255,0.712,0.725,0.71,1.234l-0.027,10.466
				c9.447,6.153,19.086,14.473,28.65,24.742c0.394,0.421,0.493,1.04,0.25,1.564l-8.688,18.752c-0.2,0.433-0.6,0.735-1.071,0.807
				c-0.472,0.069-0.947-0.097-1.266-0.446c-9.942-10.891-19.013-18.738-26.959-23.329c-4.697-2.71-6.594-2.993-7.291-2.899
				c-0.413,0.044-1.101,0.123-1.106,2.02c-0.005,1.559,0.494,3.165,1.481,4.773c1.076,1.762,3.001,4.18,5.736,7.193
				c2.769,3.06,6.669,7.026,11.59,11.794c10.139,9.993,17.521,19.042,21.949,26.906c4.482,7.961,6.74,16.297,6.719,24.778
				c-0.028,9.843-2.896,16.408-8.517,19.515c-5.178,2.869-12.509,2.436-21.804-1.275l-0.039,13.944c0,0.508-0.271,0.977-0.709,1.229
				C86.245,179.892,85.999,179.955,85.754,179.955z M72.179,169.06l12.164,7.021l0.036-13.62c0.003-0.479,0.244-0.923,0.644-1.187
				c0.402-0.261,0.907-0.305,1.346-0.111c9.384,4.092,16.543,4.836,21.274,2.223c4.655-2.572,7.023-8.303,7.052-17.035
				c0.022-7.986-2.114-15.853-6.353-23.382c-4.301-7.63-11.519-16.468-21.46-26.265c-4.957-4.804-8.898-8.815-11.711-11.919
				c-2.891-3.19-4.871-5.681-6.05-7.617c-1.268-2.064-1.906-4.172-1.9-6.266c0.011-4,2.541-4.713,3.631-4.835
				c1.903-0.236,4.791,0.818,9.026,3.265c7.809,4.507,16.613,12.008,26.194,22.305l7.392-15.956
				c-9.411-10.011-18.864-18.087-28.112-24.014c-0.405-0.262-0.655-0.714-0.652-1.199l0.031-10.42l-12.161-7.022L72.54,41.98
				c0,0.482-0.25,0.932-0.655,1.191c-0.405,0.264-0.916,0.297-1.356,0.096c-9.822-4.493-17.198-5.742-21.922-3.715
				c-4.541,1.952-6.857,7.25-6.879,15.748c-0.017,5.813,0.81,11.216,2.455,16.057c1.645,4.857,4.341,10.005,8.014,15.304
				c3.687,5.317,8.621,11.093,14.668,17.169c5.426,5.401,9.809,9.903,13.026,13.373c3.237,3.492,5.598,6.35,7.018,8.488
				c1.523,2.305,2.292,4.541,2.286,6.646c-0.016,4.86-2.996,5.439-4.274,5.465c-2.247-0.03-5.379-1.165-9.761-3.698
				c-5.048-2.912-10.955-7.442-17.559-13.468c-5.634-5.143-10.96-10.521-15.87-16.027l-0.066,23.32
				c9.556,10.236,19.614,18.702,29.895,25.177c0.416,0.26,0.666,0.715,0.666,1.203L72.179,169.06z"/>
		</g>
	</g>
</g>
</svg>
