<?xml version="1.0" encoding="utf-8"?>
<!-- Generator: Adobe Illustrator 16.0.0, SVG Export Plug-In . SVG Version: 6.00 Build 0)  -->
<!DOCTYPE svg PUBLIC "-//W3C//DTD SVG 1.1//EN" "http://www.w3.org/Graphics/SVG/1.1/DTD/svg11.dtd">
<svg version="1.1" id="Layer_1" xmlns="http://www.w3.org/2000/svg" xmlns:xlink="http://www.w3.org/1999/xlink" x="0px" y="0px"
	 width="200px" height="200px" viewBox="0 0 200 200" enable-background="new 0 0 200 200" xml:space="preserve">
<g>
	<g>
		<g>
			<path fill="#0C5AE5" d="M138.165,145.218l-21.539-12.437c-4.609-2.658-12.071-2.658-16.651,0l-32.91,30.074
				c-4.58,2.661-7.223,11.322-2.329,14.781l8.442,5.012c4.612,2.661,12.65,2.661,17.23,0l47.813-27.785
				C142.801,152.203,142.776,147.881,138.165,145.218L138.165,145.218z"/>
		</g>
	</g>
	<g>
		<g>
			<path fill="#FFFFFF" d="M67.576,63.821L67.839,171.3c0.01,3.57,1.273,6.084,3.307,7.268l-7.958-4.626
				c-2.034-1.182-3.297-3.695-3.307-7.268L59.618,59.195L67.576,63.821z"/>
			<path fill="#0C5AE5" d="M71.146,179.825c-0.216,0-0.433-0.056-0.631-0.172l0,0c-0.002,0-0.007-0.002-0.01-0.005l-7.948-4.618
				c-2.525-1.47-3.924-4.433-3.934-8.354L58.36,59.199c0-0.451,0.238-0.869,0.629-1.093c0.393-0.224,0.877-0.224,1.26,0.002
				l7.958,4.625c0.388,0.225,0.626,0.638,0.626,1.083l0.263,107.478c0.008,2.988,0.961,5.185,2.681,6.185
				c0.602,0.349,0.806,1.118,0.457,1.72C72.001,179.6,71.579,179.825,71.146,179.825z M60.881,61.384l0.258,105.288
				c0.007,2.987,0.96,5.184,2.68,6.181l3.174,1.846c-0.268-1.024-0.41-2.165-0.413-3.396l-0.26-106.757L60.881,61.384z"/>
		</g>
		<g>
			<path fill="#FFFFFF" d="M108.156,18.176c3.152-1.819,6.005-1.987,8.066-0.79l7.958,4.624c-2.062-1.198-4.914-1.028-8.066,0.791
				L78.88,44.249l-7.958-4.625L108.156,18.176z"/>
			<path fill="#0C5AE5" d="M78.88,45.507c-0.219,0-0.438-0.057-0.631-0.171l-7.958-4.625c-0.388-0.225-0.626-0.64-0.626-1.089
				c0-0.449,0.241-0.864,0.629-1.087l37.234-21.447c3.457-1.997,6.77-2.275,9.326-0.788l7.958,4.624
				c0.603,0.349,0.807,1.118,0.457,1.718c-0.351,0.604-1.125,0.802-1.72,0.456c-1.739-1.01-4.159-0.733-6.806,0.792L79.509,45.338
				C79.313,45.45,79.097,45.507,78.88,45.507z M73.434,39.629l5.449,3.167l36.603-21.085c1.115-0.644,2.216-1.108,3.28-1.392
				l-3.175-1.845c-1.749-1.01-4.167-0.731-6.806,0.792l0,0L73.434,39.629z M108.156,18.176h0.025H108.156z"/>
		</g>
		<g>
			<path fill="#D4E6FC" d="M67.574,63.824l0.236,94.133l0.034,13.341c0.018,7.191,5.115,10.093,11.368,6.479l37.236-21.443
				c6.263-3.622,11.324-12.378,11.3-19.569l-0.034-13.349l-0.227-94.133c-0.017-7.191-5.115-10.093-11.37-6.48L78.883,44.248
				C72.62,47.86,67.557,56.625,67.574,63.824z"/>
			<path fill="#0C5AE5" d="M74.129,180.597c-1.3,0-2.509-0.31-3.587-0.929c-2.541-1.464-3.946-4.435-3.956-8.368l-0.27-107.472
				v-0.001c-0.018-7.588,5.336-16.86,11.938-20.668l37.234-21.446c3.437-1.988,6.741-2.275,9.302-0.8
				c2.54,1.463,3.945,4.434,3.955,8.367l0.261,107.482c0.029,7.571-5.321,16.839-11.929,20.657l-37.236,21.448
				C77.851,180.018,75.907,180.597,74.129,180.597z M68.832,63.821l0.271,107.474c0.007,2.998,0.963,5.196,2.695,6.191
				c1.745,1.008,4.155,0.723,6.786-0.801l37.236-21.443c5.909-3.415,10.695-11.705,10.671-18.474l-0.261-107.484
				c-0.008-2.997-0.963-5.195-2.695-6.191c-1.744-1.007-4.159-0.723-6.788,0.798L79.512,45.337
				C73.605,48.744,68.814,57.036,68.832,63.821L68.832,63.821z"/>
		</g>
		<g>
			<path fill="#FFFFFF" d="M76.433,45.974c-0.152,0.126-0.3,0.262-0.45,0.395c-0.238,0.21-0.477,0.424-0.71,0.648
				c-0.152,0.147-0.302,0.3-0.452,0.453c-0.223,0.228-0.442,0.458-0.658,0.697c-0.135,0.15-0.271,0.302-0.403,0.457
				c-0.327,0.379-0.644,0.771-0.951,1.174c-0.066,0.087-0.137,0.169-0.201,0.258c-0.366,0.49-0.712,0.997-1.044,1.514
				c-0.088,0.136-0.169,0.275-0.253,0.414c-0.248,0.399-0.486,0.805-0.712,1.216c-0.088,0.164-0.179,0.328-0.268,0.495
				c-0.248,0.474-0.484,0.954-0.703,1.438c-0.037,0.083-0.079,0.162-0.115,0.245c-0.032,0.072-0.059,0.146-0.091,0.22
				c-0.147,0.348-0.29,0.698-0.423,1.049c-0.051,0.134-0.098,0.268-0.147,0.403c-0.11,0.311-0.216,0.624-0.314,0.938
				c-0.037,0.123-0.079,0.244-0.115,0.367c-0.125,0.426-0.241,0.851-0.339,1.276c-0.012,0.045-0.017,0.091-0.029,0.136
				c-0.086,0.38-0.16,0.759-0.221,1.138c-0.022,0.13-0.042,0.259-0.059,0.388c-0.046,0.308-0.083,0.614-0.11,0.919
				c-0.012,0.125-0.027,0.25-0.037,0.375c-0.03,0.415-0.049,0.828-0.049,1.235l-7.958-4.625c0-0.407,0.02-0.818,0.049-1.233
				c0.01-0.125,0.024-0.25,0.037-0.375c0.03-0.305,0.064-0.611,0.111-0.918c0.017-0.13,0.037-0.258,0.059-0.388
				c0.061-0.378,0.135-0.758,0.221-1.139c0.013-0.045,0.02-0.09,0.03-0.135c0.098-0.425,0.213-0.851,0.339-1.276
				c0.037-0.123,0.079-0.246,0.116-0.369c0.098-0.313,0.204-0.625,0.317-0.938c0.046-0.132,0.093-0.267,0.145-0.4
				c0.132-0.351,0.272-0.701,0.422-1.05c0.032-0.072,0.062-0.146,0.091-0.22c0.01-0.019,0.017-0.038,0.025-0.057
				c0.029-0.063,0.063-0.124,0.091-0.187c0.219-0.485,0.454-0.966,0.705-1.441c0.086-0.166,0.174-0.33,0.265-0.493
				c0.226-0.413,0.464-0.818,0.712-1.219c0.083-0.138,0.165-0.276,0.253-0.412c0.332-0.517,0.68-1.024,1.044-1.515
				c0.064-0.087,0.135-0.169,0.202-0.257c0.307-0.403,0.624-0.794,0.951-1.175c0.057-0.066,0.108-0.139,0.165-0.204
				c0.079-0.087,0.162-0.166,0.238-0.253c0.216-0.238,0.435-0.469,0.659-0.697c0.15-0.153,0.3-0.305,0.452-0.453
				c0.233-0.224,0.472-0.438,0.71-0.649c0.15-0.131,0.297-0.266,0.45-0.393c0.265-0.221,0.535-0.425,0.808-0.627
				c0.133-0.1,0.263-0.205,0.396-0.299c0.41-0.287,0.823-0.556,1.243-0.799l7.958,4.625c-0.42,0.242-0.833,0.512-1.243,0.798
				c-0.133,0.095-0.263,0.2-0.396,0.299C76.969,45.549,76.699,45.754,76.433,45.974z"/>
			<path fill="#0C5AE5" d="M67.576,65.079c-0.219,0-0.438-0.057-0.631-0.171l-7.958-4.625c-0.388-0.225-0.626-0.639-0.626-1.087
				c0-0.438,0.02-0.882,0.057-1.33l0.027-0.313c0.037-0.408,0.076-0.74,0.128-1.072l0.061-0.409c0.064-0.396,0.143-0.8,0.236-1.207
				c0.132-0.589,0.255-1.041,0.388-1.49c0.003-0.006,0.121-0.382,0.121-0.39c0.103-0.327,0.214-0.653,0.329-0.98l0.16-0.434
				c0.135-0.358,0.285-0.723,0.438-1.088c0.007-0.013,0.105-0.248,0.113-0.262c0.334-0.736,0.582-1.237,0.84-1.734l0.283-0.519
				c0.233-0.429,0.484-0.854,0.745-1.272l0.27-0.438c0.339-0.531,0.705-1.063,1.086-1.575c0.002-0.005,0.207-0.265,0.211-0.27
				c0.322-0.422,0.653-0.833,0.995-1.232l1.123,0.615l-0.948-0.828c0.005-0.005,0.248-0.263,0.253-0.269
				c0.226-0.25,0.457-0.495,0.693-0.734l0.469-0.472c0.255-0.243,0.504-0.468,0.754-0.689l0.481-0.42
				c0.283-0.235,0.57-0.453,0.862-0.669l0.42-0.317c0.442-0.311,0.887-0.6,1.336-0.86c0.393-0.226,0.875-0.228,1.263,0.001
				l7.958,4.625c0.388,0.225,0.626,0.64,0.626,1.09c0,0.448-0.241,0.863-0.629,1.087c-0.391,0.225-0.771,0.476-1.152,0.741
				c-0.007,0.005-0.361,0.273-0.366,0.278c-0.253,0.188-0.506,0.378-0.751,0.585c-0.002,0.001-0.005,0.002-0.007,0.005l-0.3,0.262
				c-0.342,0.301-0.565,0.502-0.787,0.715l-0.425,0.425c-0.216,0.22-0.422,0.438-0.626,0.664l-0.378,0.43
				c-0.312,0.364-0.614,0.736-0.907,1.119l-1.201-0.505l1.01,0.75c-0.347,0.468-0.678,0.95-0.995,1.443l-0.152,0.247
				c-0.327,0.531-0.555,0.917-0.771,1.31l-0.258,0.478c-0.233,0.447-0.457,0.904-0.666,1.367l-1.263-0.272l1.152,0.507
				c-0.226,0.536-0.361,0.87-0.489,1.207l-0.101,0.272c-0.143,0.403-0.243,0.702-0.336,1l-1.317-0.01l1.206,0.355
				c-0.118,0.402-0.226,0.803-0.319,1.205c-0.108,0.485-0.177,0.84-0.236,1.193l-0.051,0.352c-0.047,0.304-0.082,0.584-0.106,0.863
				l-1.046,0.214l0.132,0.077l0.88,0.063c-0.027,0.384-0.047,0.768-0.047,1.145c0,0.449-0.241,0.866-0.631,1.091
				C68.009,65.023,67.792,65.079,67.576,65.079z M60.896,58.483l5.552,3.227c0.025-0.215,0.052-0.41,0.081-0.605l0.062-0.41
				c0.064-0.395,0.143-0.799,0.236-1.205c0.133-0.591,0.255-1.04,0.388-1.49c0.002-0.007,0.121-0.382,0.121-0.39
				c0.103-0.328,0.214-0.656,0.332-0.981l0.16-0.436c0.133-0.356,0.283-0.722,0.438-1.086c0.002-0.005,0.096-0.231,0.096-0.236
				c0.002-0.002,0.118-0.25,0.121-0.25c0.229-0.511,0.477-1.012,0.734-1.509l0.283-0.521c0.236-0.428,0.484-0.852,0.744-1.271
				l0.266-0.435c0.344-0.536,0.71-1.066,1.091-1.579c0.002-0.005,0.207-0.267,0.211-0.271c0.322-0.423,0.653-0.834,0.997-1.232
				l0.423-0.479c0.231-0.254,0.462-0.5,0.698-0.738l0.472-0.473c0.248-0.239,0.501-0.465,0.752-0.688l0.477-0.416
				c0.285-0.236,0.572-0.456,0.865-0.672l0.015-0.012l-5.567-3.234c-0.179,0.117-0.358,0.238-0.538,0.365l-0.206,0.154
				c-0.416,0.313-0.668,0.502-0.914,0.708l-0.28,0.244c-0.366,0.325-0.594,0.528-0.815,0.739l-0.423,0.424
				c-0.213,0.219-0.42,0.438-0.626,0.665l-1.167-0.593l0.931,0.844c-0.455,0.542-0.757,0.916-1.049,1.299l-1.202-0.506l1.01,0.75
				c-0.346,0.468-0.678,0.951-0.995,1.444l-0.157,0.253c-0.322,0.523-0.548,0.909-0.764,1.302l-0.26,0.48
				c-0.233,0.443-0.457,0.903-0.666,1.366c-0.002,0.005-0.118,0.253-0.12,0.258c-0.216,0.511-0.352,0.847-0.479,1.183l-0.094,0.25
				c-0.149,0.424-0.25,0.721-0.344,1.021l-1.317-0.009l1.207,0.356c-0.118,0.4-0.226,0.802-0.319,1.204
				c-0.108,0.484-0.177,0.838-0.236,1.192c0,0.002-0.056,0.372-0.056,0.375c-0.042,0.283-0.076,0.563-0.101,0.84
				c0,0.009-0.032,0.354-0.034,0.362C60.913,58.2,60.903,58.342,60.896,58.483z M76.433,45.975h0.025H76.433z"/>
		</g>
		<g>
			<path fill="#FFFFFF" d="M75.649,63.805c-0.007-4.295,3.526-10.401,7.272-12.562l32.729-18.852
				c1.676-0.964,3.769,0.242,3.771,2.174l0.203,94.615l-43.774,25.236L75.649,63.805z"/>
			<path fill="#0C5AE5" d="M75.851,155.675c-0.216,0-0.435-0.06-0.629-0.17c-0.388-0.224-0.629-0.637-0.629-1.089l-0.201-90.609l0,0
				c-0.007-4.757,3.759-11.265,7.901-13.654l32.729-18.852c1.184-0.683,2.589-0.681,3.773,0.002c1.177,0.68,1.882,1.899,1.885,3.26
				l0.203,94.613c0,0.449-0.238,0.867-0.629,1.094L76.48,155.505C76.286,155.615,76.067,155.675,75.851,155.675z M76.907,63.802
				l0.197,88.437l41.261-23.787l-0.202-93.885c0-0.653-0.439-0.977-0.626-1.086c-0.191-0.11-0.695-0.327-1.261,0L83.551,52.332
				C80.192,54.27,76.9,59.951,76.907,63.802L76.907,63.802z"/>
		</g>
		<g>
			<path fill="#FFFFFF" d="M107.644,149.156l-14.853,8.563L107.644,149.156z"/>
			<path fill="#0C5AE5" d="M92.791,158.977c-0.435,0-0.857-0.227-1.091-0.632c-0.346-0.602-0.14-1.371,0.462-1.717l14.852-8.561
				c0.604-0.349,1.371-0.142,1.721,0.462c0.346,0.6,0.14,1.371-0.462,1.716l-14.853,8.562
				C93.221,158.923,93.005,158.977,92.791,158.977z"/>
		</g>
	</g>
	<path fill="#0C5AE5" d="M98.398,128.968c-0.695,0-1.258-0.563-1.258-1.258V65.532c0-0.695,0.563-1.258,1.258-1.258
		s1.258,0.563,1.258,1.258v62.178C99.656,128.405,99.093,128.968,98.398,128.968z"/>
	<path fill="#0C5AE5" d="M91.054,83.44c-0.133,0-0.268-0.021-0.4-0.065c-0.659-0.221-1.012-0.934-0.791-1.593l7.343-21.895
		c0.152-0.459,0.558-0.79,1.04-0.848c0.474-0.065,0.951,0.163,1.213,0.572l6.968,10.948c0.374,0.586,0.199,1.363-0.386,1.737
		c-0.577,0.37-1.361,0.202-1.736-0.386l-5.553-8.725l-6.506,19.396C92.071,83.108,91.58,83.44,91.054,83.44z"/>
</g>
</svg>
