<?xml version="1.0" encoding="utf-8"?>
<!-- Generator: Adobe Illustrator 16.0.0, SVG Export Plug-In . SVG Version: 6.00 Build 0)  -->
<!DOCTYPE svg PUBLIC "-//W3C//DTD SVG 1.1//EN" "http://www.w3.org/Graphics/SVG/1.1/DTD/svg11.dtd">
<svg version="1.1" id="Layer_1" xmlns="http://www.w3.org/2000/svg" xmlns:xlink="http://www.w3.org/1999/xlink" x="0px" y="0px"
	 width="200px" height="200px" viewBox="0 0 200 200" enable-background="new 0 0 200 200" xml:space="preserve">
<g>
	<g>
		<g enable-background="new    ">
			<g>
				<path fill="#0C5AE5" d="M174.992,130.577c-20.474-11.819-53.561-11.819-73.902,0.003c-20.339,11.819-20.229,30.985,0.242,42.806
					c20.476,11.822,53.563,11.819,73.901,0C195.572,161.563,195.469,142.399,174.992,130.577L174.992,130.577z"/>
			</g>
		</g>
	</g>
	<g>
		<path fill="#D4E6FC" d="M161.103,125.278c-0.006-0.192-0.011-0.385-0.017-0.574c-0.027-0.785-0.061-1.57-0.11-2.358
			c-0.002-0.044-0.005-0.088-0.008-0.132c-0.05-0.755-0.109-1.513-0.176-2.273c-0.02-0.194-0.036-0.387-0.055-0.582
			c-0.074-0.79-0.159-1.587-0.256-2.383c-0.011-0.08-0.021-0.159-0.03-0.239c-0.093-0.735-0.194-1.472-0.305-2.213
			c-0.027-0.192-0.055-0.387-0.085-0.582c-0.123-0.799-0.255-1.598-0.397-2.402c-0.02-0.104-0.042-0.211-0.061-0.318
			c-0.132-0.722-0.272-1.447-0.42-2.172c-0.039-0.189-0.077-0.382-0.115-0.57c-0.171-0.805-0.347-1.609-0.533-2.414
			c-0.03-0.129-0.063-0.261-0.096-0.39c-0.168-0.711-0.344-1.422-0.527-2.133c-0.05-0.188-0.096-0.374-0.146-0.561
			c-0.212-0.805-0.431-1.61-0.662-2.417c-0.041-0.146-0.085-0.292-0.129-0.44c-0.203-0.703-0.414-1.408-0.634-2.111
			c-0.055-0.178-0.11-0.357-0.165-0.535c-0.253-0.805-0.517-1.609-0.785-2.411c-0.055-0.162-0.112-0.321-0.167-0.48
			c-0.239-0.697-0.483-1.395-0.733-2.089c-0.063-0.17-0.124-0.34-0.185-0.511c-0.293-0.799-0.596-1.598-0.905-2.397
			c-0.066-0.17-0.135-0.337-0.201-0.508c-0.271-0.692-0.552-1.384-0.837-2.076c-0.063-0.156-0.129-0.313-0.195-0.472
			c-0.329-0.793-0.67-1.584-1.019-2.375c-0.027-0.066-0.055-0.129-0.082-0.192c-0.058-0.135-0.121-0.264-0.179-0.396
			c-0.241-0.541-0.485-1.079-0.732-1.617c-0.1-0.211-0.195-0.423-0.294-0.634c-0.321-0.689-0.648-1.378-0.983-2.064
			c-0.014-0.025-0.024-0.052-0.038-0.077c-0.346-0.708-0.7-1.414-1.058-2.117c-0.106-0.208-0.214-0.415-0.32-0.623
			c-0.27-0.524-0.544-1.049-0.821-1.57c-0.107-0.204-0.214-0.407-0.324-0.61c-0.373-0.694-0.752-1.389-1.14-2.081
			c-0.024-0.044-0.049-0.088-0.074-0.132c-0.364-0.648-0.735-1.296-1.108-1.938c-0.118-0.203-0.239-0.406-0.36-0.612
			c-0.302-0.514-0.606-1.024-0.914-1.535c-0.115-0.189-0.23-0.379-0.346-0.568c-0.412-0.675-0.829-1.345-1.252-2.012
			c-0.055-0.085-0.109-0.17-0.165-0.255c-0.373-0.585-0.749-1.167-1.131-1.746c-0.132-0.201-0.267-0.404-0.401-0.604
			c-0.332-0.497-0.667-0.994-1.004-1.485c-0.118-0.174-0.236-0.349-0.357-0.522c-0.447-0.648-0.897-1.29-1.356-1.929
			c-0.079-0.111-0.159-0.219-0.238-0.331c-0.385-0.534-0.774-1.063-1.165-1.59c-0.143-0.193-0.288-0.386-0.434-0.578
			c-0.362-0.483-0.728-0.964-1.098-1.441c-0.118-0.155-0.236-0.311-0.357-0.464c-0.48-0.615-0.964-1.225-1.449-1.829
			c-0.104-0.127-0.209-0.252-0.313-0.38c-0.396-0.485-0.79-0.967-1.191-1.444c-0.153-0.184-0.311-0.367-0.464-0.549
			c-0.396-0.466-0.794-0.928-1.194-1.386c-0.085-0.1-0.17-0.202-0.258-0.301c-0.033-0.037-0.066-0.074-0.099-0.111
			c-0.382-0.433-0.767-0.862-1.153-1.289c-0.071-0.081-0.143-0.164-0.217-0.245c-0.462-0.505-0.923-1.005-1.39-1.5
			c-0.14-0.148-0.283-0.293-0.423-0.442c-0.327-0.346-0.656-0.69-0.988-1.031c-0.179-0.184-0.359-0.367-0.541-0.549
			c-0.297-0.301-0.593-0.6-0.893-0.896c-0.191-0.192-0.387-0.383-0.582-0.574c-0.291-0.283-0.582-0.565-0.873-0.846
			c-0.197-0.191-0.397-0.38-0.599-0.568c-0.293-0.277-0.587-0.553-0.884-0.826c-0.197-0.183-0.396-0.365-0.593-0.546
			c-0.311-0.282-0.621-0.56-0.934-0.837c-0.187-0.165-0.371-0.331-0.558-0.496c-0.359-0.316-0.722-0.626-1.084-0.935
			c-0.141-0.119-0.277-0.24-0.418-0.359c-0.502-0.424-1.007-0.842-1.513-1.253c-0.109-0.089-0.222-0.176-0.332-0.265
			c-0.398-0.321-0.799-0.64-1.199-0.954c-0.185-0.143-0.371-0.283-0.555-0.424c-0.33-0.255-0.662-0.508-0.994-0.756
			c-0.206-0.155-0.415-0.306-0.621-0.458c-0.315-0.232-0.631-0.461-0.946-0.689c-0.215-0.152-0.429-0.303-0.643-0.455
			c-0.316-0.222-0.629-0.44-0.947-0.656c-0.215-0.147-0.429-0.294-0.643-0.438c-0.324-0.218-0.65-0.433-0.978-0.646
			c-0.206-0.134-0.412-0.269-0.618-0.402c-0.356-0.228-0.716-0.452-1.076-0.674c-0.176-0.108-0.352-0.22-0.526-0.327
			c-0.536-0.327-1.071-0.646-1.609-0.957c-12.133-7.005-23.411-9.243-32.754-7.331c-3.116,0.639-6.016,1.738-8.662,3.275
			l-13.354,7.759c10.584-6.15,25.24-5.283,41.417,4.057c0.538,0.31,1.076,0.63,1.612,0.957c0.176,0.107,0.349,0.218,0.524,0.327
			c0.36,0.223,0.719,0.446,1.076,0.674c0.208,0.133,0.412,0.268,0.618,0.402c0.327,0.213,0.653,0.427,0.978,0.646
			c0.217,0.144,0.431,0.291,0.645,0.437c0.316,0.217,0.632,0.435,0.945,0.657c0.217,0.15,0.431,0.302,0.642,0.455
			c0.319,0.228,0.634,0.457,0.947,0.689c0.209,0.152,0.415,0.304,0.621,0.458c0.332,0.25,0.665,0.502,0.997,0.757
			c0.184,0.142,0.368,0.282,0.552,0.424c0.401,0.314,0.802,0.633,1.203,0.954c0.11,0.089,0.22,0.174,0.329,0.264
			c0.509,0.413,1.014,0.831,1.514,1.255c0.14,0.118,0.279,0.24,0.42,0.359c0.362,0.309,0.722,0.619,1.084,0.935
			c0.185,0.163,0.371,0.331,0.558,0.496c0.311,0.277,0.62,0.556,0.931,0.837c0.2,0.181,0.398,0.364,0.596,0.548
			c0.294,0.271,0.588,0.546,0.882,0.822c0.2,0.19,0.4,0.381,0.601,0.574c0.291,0.278,0.582,0.56,0.871,0.841
			c0.194,0.191,0.39,0.383,0.584,0.575c0.3,0.296,0.596,0.597,0.893,0.899c0.182,0.181,0.359,0.361,0.538,0.545
			c0.332,0.342,0.664,0.688,0.994,1.035c0.14,0.146,0.28,0.291,0.417,0.439c0.467,0.496,0.928,0.994,1.39,1.499
			c0.076,0.086,0.153,0.173,0.23,0.258c0.382,0.423,0.764,0.847,1.14,1.275c0.12,0.137,0.241,0.277,0.359,0.415
			c0.4,0.458,0.799,0.919,1.191,1.384c0.156,0.184,0.311,0.368,0.467,0.552c0.398,0.476,0.794,0.956,1.187,1.438
			c0.106,0.129,0.211,0.257,0.315,0.386c0.488,0.603,0.972,1.212,1.449,1.825c0.121,0.156,0.242,0.313,0.362,0.469
			c0.365,0.478,0.73,0.956,1.093,1.436c0.146,0.195,0.291,0.387,0.437,0.582c0.391,0.527,0.777,1.054,1.162,1.587
			c0.079,0.113,0.162,0.22,0.241,0.332c0.456,0.637,0.909,1.282,1.356,1.928c0.118,0.173,0.236,0.349,0.356,0.521
			c0.338,0.494,0.673,0.988,1.003,1.488c0.134,0.2,0.269,0.401,0.4,0.604c0.382,0.577,0.761,1.159,1.134,1.746
			c0.055,0.085,0.11,0.167,0.165,0.255c0.423,0.664,0.837,1.337,1.252,2.01c0.115,0.189,0.228,0.381,0.343,0.571
			c0.308,0.508,0.612,1.019,0.915,1.532c0.12,0.206,0.241,0.409,0.362,0.615c0.37,0.64,0.741,1.285,1.104,1.93
			c0.024,0.047,0.052,0.093,0.079,0.14c0.385,0.692,0.764,1.384,1.14,2.081c0.107,0.203,0.214,0.406,0.321,0.607
			c0.277,0.524,0.552,1.046,0.824,1.57c0.106,0.208,0.214,0.417,0.318,0.623c0.359,0.703,0.714,1.409,1.06,2.117
			c0.014,0.027,0.024,0.055,0.038,0.082c0.335,0.687,0.659,1.373,0.983,2.06c0.096,0.211,0.194,0.422,0.291,0.634
			c0.25,0.539,0.494,1.077,0.732,1.617c0.088,0.195,0.176,0.393,0.264,0.588c0.347,0.791,0.687,1.581,1.019,2.375
			c0.066,0.159,0.129,0.319,0.195,0.475c0.285,0.692,0.563,1.384,0.835,2.076c0.068,0.167,0.134,0.338,0.2,0.505
			c0.311,0.799,0.612,1.598,0.906,2.399c0.063,0.17,0.123,0.338,0.184,0.508c0.253,0.695,0.497,1.393,0.735,2.091
			c0.056,0.159,0.11,0.32,0.165,0.482c0.271,0.802,0.533,1.606,0.785,2.408c0.058,0.179,0.113,0.356,0.168,0.535
			c0.217,0.706,0.428,1.408,0.634,2.114c0.041,0.146,0.085,0.291,0.129,0.439c0.229,0.805,0.45,1.608,0.662,2.413
			c0.049,0.187,0.096,0.373,0.143,0.561c0.184,0.711,0.359,1.425,0.53,2.136c0.03,0.129,0.063,0.258,0.093,0.387
			c0.187,0.808,0.365,1.609,0.533,2.414c0.038,0.191,0.076,0.381,0.118,0.573c0.146,0.725,0.288,1.447,0.42,2.172
			c0.019,0.107,0.038,0.212,0.058,0.318c0.146,0.802,0.274,1.604,0.397,2.402c0.03,0.192,0.058,0.388,0.088,0.582
			c0.11,0.738,0.212,1.478,0.303,2.213c0.011,0.08,0.021,0.159,0.03,0.236c0.099,0.799,0.181,1.593,0.258,2.386
			c0.017,0.192,0.035,0.388,0.052,0.579c0.068,0.761,0.129,1.519,0.176,2.273c0.003,0.044,0.006,0.088,0.009,0.132
			c0.049,0.791,0.082,1.576,0.109,2.358c0.006,0.192,0.011,0.385,0.017,0.574c0.021,0.788,0.035,1.573,0.033,2.353
			c-0.053,18.349-6.532,31.261-16.979,37.331l13.352-7.759c10.449-6.073,16.929-18.982,16.98-37.334
			C161.135,126.849,161.121,126.063,161.103,125.278z"/>
		<path fill="#0C5AE5" d="M130.803,174.127c-0.483,0-0.956-0.25-1.217-0.7c-0.39-0.67-0.162-1.532,0.511-1.922l0.022-0.014
			c10.436-6.076,16.207-18.897,16.256-36.104c0.003-0.766-0.011-1.537-0.033-2.312l-0.016-0.571
			c-0.027-0.76-0.058-1.534-0.107-2.312c-0.055-0.876-0.112-1.62-0.182-2.366l-0.052-0.585c-0.074-0.767-0.156-1.549-0.253-2.334
			c-0.12-0.961-0.22-1.688-0.326-2.416l-0.088-0.574c-0.121-0.785-0.25-1.575-0.393-2.366l1.326-0.568l-1.384,0.253
			c-0.129-0.717-0.272-1.431-0.415-2.147l-0.118-0.576c-0.162-0.78-0.34-1.573-0.524-2.372l1.277-0.703l-1.367,0.327
			c-0.168-0.703-0.341-1.409-0.524-2.111l-0.141-0.553c-0.208-0.799-0.431-1.595-0.656-2.389l-0.129-0.441
			c-0.2-0.687-0.409-1.384-0.623-2.084l-0.162-0.517c-0.253-0.802-0.511-1.595-0.779-2.389l-0.162-0.475
			c-0.236-0.691-0.478-1.381-0.728-2.068l-0.182-0.5c-0.294-0.799-0.59-1.59-0.897-2.38l1.111-1.013l-1.307,0.519
			c-0.271-0.687-0.546-1.373-0.829-2.059l-0.118-0.283c-0.403-0.972-0.741-1.754-1.084-2.54l-0.259-0.574
			c-0.238-0.541-0.48-1.071-0.725-1.601l-0.192-0.415c-0.417-0.895-0.738-1.576-1.07-2.254c-0.382-0.783-0.73-1.483-1.087-2.177
			l-1.455-2.784c-0.365-0.681-0.742-1.37-1.123-2.054c-0.437-0.774-0.805-1.414-1.173-2.048l-1.604-2.693
			c-0.409-0.659-0.817-1.326-1.238-1.985l1.021-1.013l-1.186,0.758c-0.368-0.579-0.744-1.156-1.123-1.729l-0.393-0.593
			c-0.332-0.502-0.662-0.988-0.997-1.477l-0.255-0.376c-0.538-0.777-0.988-1.417-1.438-2.048l0.9-1.15l-1.14,0.824l-3.025-4.039
			c-0.47-0.602-0.947-1.203-1.431-1.798l-1.946-2.35c-0.391-0.461-0.783-0.917-1.178-1.37l-1.485-1.673l0.813-1.2l-1.038,0.947
			c-0.456-0.498-0.911-0.992-1.373-1.481l-0.217-0.228c-0.005-0.004-0.2-0.211-0.206-0.217l-8.829-8.352
			c-0.497-0.42-0.994-0.832-1.494-1.24l-8.343-6.047l-1.576-0.986c-0.527-0.32-1.054-0.634-1.584-0.939
			C73.863,27.34,59.66,25.904,49.07,32.052l-0.017,0.008c-0.67,0.387-1.532,0.165-1.922-0.508c-0.39-0.671-0.162-1.532,0.511-1.922
			l13.354-7.76c2.781-1.616,5.837-2.771,9.085-3.437c10.029-2.051,21.695,0.535,33.74,7.49c0.546,0.315,1.093,0.641,1.639,0.975
			l8.676,6.014l1.222,0.97c0,0,0.335,0.268,0.338,0.269c0.511,0.417,1.021,0.84,1.529,1.27l8.059,7.528l1.425,1.487
			c0.475,0.502,0.938,1.007,1.405,1.518c0.003,0.001,0.226,0.249,0.229,0.251l1.485,1.676c0.439,0.504,0.843,0.971,1.243,1.443
			l1.672,2.014c0,0,0.316,0.384,0.319,0.387c0.488,0.61,0.977,1.225,1.46,1.845l0.368,0.478c0.368,0.474,0.738,0.96,1.106,1.45
			l1.611,2.188l0.242,0.333c0.464,0.645,0.917,1.294,1.37,1.949l1.781,2.639c0.385,0.582,0.764,1.169,1.143,1.76l0.159,0.25
			c0.434,0.684,0.856,1.362,1.271,2.042l1.636,2.743c0.376,0.648,0.75,1.302,1.117,1.955c0.467,0.834,0.852,1.535,1.228,2.238
			l1.485,2.839c0.357,0.7,0.714,1.411,1.063,2.127c0.376,0.771,0.709,1.469,1.032,2.167l1.035,2.271l-1.104,0.969l1.29-0.56
			c0.432,0.98,0.774,1.785,1.109,2.589l0.203,0.494c0.28,0.678,0.563,1.378,0.84,2.079l0.201,0.513
			c0.313,0.807,0.617,1.612,0.917,2.419l0.181,0.508c0.259,0.717,0.508,1.422,0.747,2.128l0.167,0.48
			c0.272,0.813,0.539,1.625,0.794,2.441l0.167,0.541c0.223,0.708,0.438,1.422,0.643,2.136l0.132,0.447
			c0.231,0.813,0.453,1.626,0.668,2.443l0.073,0.285c0.003,0.003,0.072,0.277,0.074,0.28c0.188,0.719,0.365,1.441,0.533,2.163
			l0.099,0.39c0.189,0.818,0.365,1.631,0.538,2.443l0.118,0.583c0.148,0.732,0.291,1.469,0.426,2.198
			c0,0.003,0.061,0.324,0.061,0.327c0.146,0.813,0.276,1.623,0.403,2.433l0.077,0.524c0.12,0.818,0.222,1.563,0.318,2.309
			c0.129,1.055,0.214,1.864,0.291,2.666l0.055,0.577c0.065,0.785,0.129,1.554,0.179,2.319c0.058,0.937,0.093,1.732,0.12,2.531
			l0.017,0.582c0,0.003,0,0.006,0,0.006c0.02,0.799,0.033,1.596,0.033,2.386c-0.052,18.264-6.331,31.953-17.682,38.551
			l-13.329,7.745c-0.009,0.005-0.014,0.008-0.022,0.014C131.286,174.066,131.044,174.127,130.803,174.127z M102.331,41.901
			c0.524,0.427,1.032,0.85,1.54,1.279l8.059,7.527l1.436,1.498c0.462,0.49,0.929,0.996,1.395,1.507
			c0.003,0.001,0.233,0.261,0.236,0.264l1.521,1.715c0.398,0.456,0.802,0.922,1.199,1.393l1.988,2.4
			c0.494,0.608,0.982,1.225,1.466,1.843l3.083,4.116c0.003,0.003,0.245,0.338,0.245,0.338c0.461,0.643,0.917,1.293,1.37,1.944
			l0.354,0.519c0.349,0.51,0.689,1.013,1.021,1.518l0.403,0.604c0.385,0.582,0.767,1.169,1.146,1.76
			c0,0.003,0.164,0.261,0.164,0.261c0.426,0.67,0.846,1.348,1.264,2.026l1.636,2.746c0.376,0.651,0.75,1.301,1.115,1.952
			c0.47,0.84,0.851,1.54,1.232,2.243l1.482,2.839c0.357,0.7,0.717,1.411,1.065,2.128c0.376,0.777,0.703,1.469,1.029,2.163l0.3,0.648
			c0.25,0.536,0.497,1.082,0.738,1.631l0.261,0.58c0.354,0.81,0.697,1.609,1.032,2.408l0.195,0.472
			c0.291,0.708,0.571,1.406,0.849,2.103c0,0.003,0.2,0.511,0.2,0.516c0.313,0.808,0.62,1.615,0.917,2.424l0.189,0.522
			c0.25,0.692,0.497,1.397,0.738,2.104l0.168,0.488c0.274,0.811,0.538,1.626,0.793,2.436l0.17,0.544
			c0.22,0.714,0.435,1.422,0.643,2.136l0.097,0.329c0.267,0.934,0.488,1.746,0.702,2.56l0.148,0.576
			c0.182,0.708,0.36,1.431,0.533,2.149c0,0.003,0.096,0.393,0.096,0.398c0.189,0.815,0.368,1.631,0.538,2.44l0.118,0.568
			c0.151,0.75,0.294,1.48,0.429,2.213l0.058,0.321c0.148,0.813,0.277,1.626,0.403,2.438l0.088,0.582
			c0.112,0.758,0.217,1.507,0.308,2.254c0.132,1.049,0.214,1.854,0.294,2.66l0.052,0.594c0.068,0.769,0.132,1.54,0.179,2.306
			c0.058,0.937,0.093,1.732,0.12,2.529l0.017,0.582c0.022,0.804,0.036,1.604,0.033,2.399c-0.035,12.198-2.847,22.354-8.094,29.721
			l2.355-1.37c10.45-6.073,16.231-18.9,16.281-36.121c0-0.766-0.014-1.54-0.033-2.312l-0.017-0.568
			c-0.027-0.763-0.058-1.537-0.106-2.312c-0.058-0.873-0.115-1.62-0.182-2.372l-0.055-0.565c-0.071-0.785-0.156-1.568-0.25-2.354
			c-0.12-0.955-0.223-1.683-0.329-2.413l-0.085-0.573c-0.121-0.788-0.253-1.576-0.393-2.373l1.323-0.563l-1.384,0.253
			c-0.129-0.714-0.267-1.428-0.415-2.142l-0.115-0.574c-0.165-0.785-0.34-1.581-0.524-2.375l-0.088-0.359
			c-0.173-0.728-0.346-1.428-0.527-2.131l-0.071-0.279c0-0.003-0.071-0.275-0.071-0.275c-0.208-0.793-0.426-1.589-0.653-2.387
			l-0.096-0.324c-0.233-0.804-0.442-1.501-0.659-2.193l-0.165-0.541c-0.247-0.788-0.508-1.584-0.774-2.377
			c-0.002-0.003-0.164-0.467-0.164-0.47c-0.236-0.697-0.48-1.386-0.728-2.073l-0.187-0.516c-0.283-0.774-0.583-1.568-0.89-2.358
			l-0.201-0.508c-0.266-0.678-0.543-1.362-0.826-2.042l-0.148-0.365c-0.37-0.892-0.708-1.675-1.051-2.455l1.106-0.977l-1.277,0.59
			l-1.106-2.424c-0.318-0.684-0.64-1.364-0.972-2.042c-0.382-0.777-0.728-1.477-1.085-2.172l-1.449-2.775
			c-0.373-0.689-0.747-1.378-1.131-2.062c-0.434-0.771-0.802-1.414-1.173-2.051l-1.604-2.691c-0.409-0.667-0.82-1.329-1.238-1.99
			l-0.159-0.245c-0.373-0.585-0.746-1.161-1.125-1.735l-1.741-2.581c-0.444-0.646-0.892-1.282-1.345-1.914l0.903-1.15l-1.14,0.822
			l-1.579-2.142c-0.362-0.482-0.722-0.957-1.09-1.428l-0.352-0.457c-0.478-0.614-0.955-1.218-1.438-1.816l0.782-1.261l-1.09,0.888
			l-1.642-1.976c-0.387-0.458-0.78-0.914-1.175-1.367l-1.497-1.686l0.827-1.185l-1.038,0.947c-0.456-0.5-0.914-0.994-1.376-1.484
			l-9.249-8.795c-0.497-0.42-0.997-0.832-1.497-1.238l0.558-1.355l-0.884,1.094l-9.593-6.773c-0.527-0.32-1.052-0.634-1.582-0.939
			c-11.44-6.603-22.425-9.083-31.769-7.171c-2.951,0.604-5.722,1.653-8.239,3.114l-2.345,1.363c9.165-0.933,19.576,1.77,30.404,8.02
			c0.546,0.315,1.095,0.641,1.642,0.975l8.673,6.014l1.22,0.968l-0.659,1.272L102.331,41.901z"/>
	</g>
	<g>
		<path fill="#5F98ED" d="M89.765,34.9c32.146,18.558,58.12,63.549,58.017,100.489c-0.104,36.936-26.25,51.836-58.396,33.276
			c-32.145-18.56-58.12-63.549-58.016-100.488C31.474,31.24,57.62,16.34,89.765,34.9z"/>
		<path fill="#0C5AE5" d="M115.504,178.08c-8.258,0-17.387-2.751-26.821-8.198c-32.482-18.755-58.823-64.38-58.719-101.707
			c0.052-18.327,6.367-32.038,17.786-38.608c11.495-6.615,26.665-5.152,42.718,4.116l0,0c32.482,18.753,58.823,64.38,58.719,101.71
			c-0.052,18.326-6.367,32.035-17.785,38.607C126.662,176.727,121.298,178.08,115.504,178.08z M63.657,28.3
			c-5.31,0-10.202,1.229-14.504,3.704C38.64,38.053,32.825,50.901,32.775,68.18c-0.102,36.432,25.608,80.962,57.313,99.269
			c15.147,8.745,29.325,10.208,39.909,4.113c10.513-6.049,16.328-18.897,16.377-36.176c0.102-36.435-25.607-80.964-57.313-99.269
			l0,0C80.067,30.925,71.417,28.3,63.657,28.3z"/>
	</g>
	<g>
		<path fill="#FFFFFF" d="M88.447,46.581c26.531,15.317,47.97,52.451,47.882,82.938c-0.085,30.487-21.665,42.784-48.195,27.464
			c-26.533-15.317-47.97-52.448-47.885-82.936C40.337,43.561,61.914,31.264,88.447,46.581z"/>
		<path fill="#0C5AE5" d="M109.689,165.003c-6.858,0-14.434-2.281-22.258-6.801c-26.879-15.518-48.673-53.271-48.588-84.157
			c0.044-15.219,5.302-26.61,14.804-32.078c9.563-5.506,22.176-4.301,35.503,3.396l0,0c26.878,15.52,48.673,53.273,48.585,84.159
			c-0.042,15.219-5.299,26.61-14.802,32.076C118.982,163.872,114.513,165.003,109.689,165.003z M66.9,41.38
			c-4.341,0-8.338,1.003-11.85,3.024C46.451,49.352,41.696,59.88,41.655,74.05c-0.083,29.991,21.083,66.65,47.182,81.72
			c12.426,7.168,24.04,8.376,32.694,3.393c8.596-4.947,13.354-15.477,13.393-29.646c0.085-29.991-21.078-66.65-47.18-81.719
			C80.358,43.535,73.261,41.38,66.9,41.38z"/>
	</g>
	<g>
		<path fill="#5F98ED" d="M88.406,60.457c19.864,11.468,35.912,39.267,35.848,62.089c-0.065,22.824-16.221,32.03-36.082,20.562
			c-19.861-11.465-35.912-39.264-35.846-62.089C52.39,58.196,68.544,48.99,88.406,60.457z"/>
		<path fill="#0C5AE5" d="M104.311,149.464c-5.197,0-10.927-1.725-16.841-5.14c-20.221-11.672-36.615-40.071-36.549-63.309
			c0.033-11.523,4.03-20.159,11.257-24.318c7.278-4.188,16.841-3.281,26.931,2.542c20.219,11.673,36.615,40.073,36.552,63.31
			c-0.033,11.526-4.033,20.16-11.26,24.32C111.389,148.602,107.981,149.464,104.311,149.464z M72.276,56.917
			c-3.188,0-6.12,0.736-8.695,2.217c-6.323,3.638-9.818,11.41-9.848,21.887c-0.063,22.342,15.702,49.647,35.143,60.871
			c9.187,5.304,17.752,6.205,24.123,2.542c6.322-3.638,9.82-11.413,9.851-21.891c0.063-22.339-15.704-49.643-35.146-60.87
			C82.231,58.515,76.976,56.917,72.276,56.917z"/>
	</g>
	<g>
		<path fill="#FFFFFF" d="M88.365,75.226c12.764,7.369,23.079,25.234,23.038,39.902c-0.044,14.667-10.425,20.583-23.189,13.214
			c-12.764-7.371-23.076-25.234-23.035-39.902C65.22,73.773,75.601,67.856,88.365,75.226z"/>
		<path fill="#0C5AE5" d="M98.586,132.927c-3.427,0-7.196-1.131-11.076-3.371c-13.132-7.58-23.779-26.025-23.738-41.119
			c0.022-7.594,2.679-13.297,7.487-16.064c4.832-2.781,11.161-2.202,17.808,1.637c13.132,7.58,23.782,26.027,23.741,41.122
			c-0.022,7.594-2.683,13.299-7.49,16.063C103.303,132.354,101.032,132.927,98.586,132.927z M78,73.452
			c-1.96,0-3.761,0.45-5.337,1.359c-3.901,2.243-6.059,7.086-6.079,13.632c-0.041,14.196,9.978,31.548,22.333,38.681
			c5.744,3.313,11.07,3.891,14.999,1.634c3.901-2.243,6.063-7.087,6.082-13.635c0.041-14.195-9.98-31.547-22.335-38.681
			C84.222,74.457,80.933,73.452,78,73.452z"/>
	</g>
	<g>
		<path fill="#5F98ED" d="M16.168,146.087l71.669-44.607L16.168,146.087z"/>
		<path fill="#0C5AE5" d="M16.168,147.492c-0.47,0-0.928-0.236-1.194-0.662c-0.409-0.661-0.209-1.526,0.45-1.938l71.669-44.606
			c0.667-0.403,1.529-0.206,1.938,0.451c0.409,0.661,0.208,1.527-0.45,1.939l-71.67,44.604
			C16.678,147.424,16.423,147.492,16.168,147.492z"/>
	</g>
	<g>
		<polygon fill="#5F98ED" points="21.027,143.061 10.987,139.764 24.698,131.511 34.637,134.591 		"/>
		<path fill="#0C5AE5" d="M21.027,144.467c-0.148,0-0.296-0.022-0.439-0.071l-10.04-3.295c-0.522-0.17-0.896-0.632-0.958-1.178
			c-0.061-0.547,0.201-1.076,0.673-1.362l13.711-8.256c0.343-0.203,0.758-0.249,1.142-0.137l9.939,3.08
			c0.524,0.162,0.906,0.618,0.978,1.164c0.069,0.544-0.184,1.082-0.651,1.373l-13.609,8.47
			C21.543,144.396,21.288,144.467,21.027,144.467z M14.342,139.388l6.499,2.133l10.441-6.499l-6.397-1.981L14.342,139.388z"/>
	</g>
	<g>
		<polygon fill="#5F98ED" points="34.637,134.591 35.279,144.346 20.201,153.906 21.027,143.061 		"/>
		<path fill="#0C5AE5" d="M20.201,155.312c-0.25,0-0.5-0.065-0.725-0.2c-0.456-0.274-0.716-0.783-0.678-1.313l0.827-10.845
			c0.036-0.448,0.28-0.852,0.659-1.088l13.61-8.47c0.42-0.261,0.941-0.28,1.386-0.058c0.439,0.228,0.728,0.667,0.761,1.158
			l0.645,9.756c0.033,0.513-0.217,1.005-0.65,1.279l-15.082,9.56C20.726,155.237,20.462,155.312,20.201,155.312z M22.375,143.879
			l-0.56,7.339l12.009-7.613l-0.437-6.581L22.375,143.879z"/>
	</g>
</g>
</svg>
