<?xml version="1.0" encoding="utf-8"?>
<!-- Generator: Adobe Illustrator 16.0.0, SVG Export Plug-In . SVG Version: 6.00 Build 0)  -->
<!DOCTYPE svg PUBLIC "-//W3C//DTD SVG 1.1//EN" "http://www.w3.org/Graphics/SVG/1.1/DTD/svg11.dtd">
<svg version="1.1" id="Layer_1" xmlns="http://www.w3.org/2000/svg" xmlns:xlink="http://www.w3.org/1999/xlink" x="0px" y="0px"
	 width="200px" height="200px" viewBox="0 0 200 200" enable-background="new 0 0 200 200" xml:space="preserve">
<g>
	<g>
		<g enable-background="new    ">
			<g>
				<path fill="#0C5AE5" d="M143.194,154.365c-12.5-7.216-32.704-7.216-45.123,0.003c-12.42,7.216-12.356,18.92,0.144,26.136
					c12.506,7.219,32.708,7.219,45.127,0C155.762,173.286,155.699,161.586,143.194,154.365L143.194,154.365z"/>
			</g>
		</g>
	</g>
	<g>
		<g enable-background="new    ">
			<g>
				<path fill="#0C5AE5" d="M161.36,125.502c-12.5-7.216-32.706-7.216-45.124,0.002c-12.421,7.216-12.354,18.921,0.146,26.137
					c12.505,7.219,32.703,7.219,45.124,0S173.862,132.723,161.36,125.502L161.36,125.502z"/>
			</g>
		</g>
	</g>
	<g enable-background="new    ">
		<g>
			<defs>
				<path id="SVGID_1_" d="M139.561,125.007l-0.033,11.753c-0.015,4.311-2.845,8.611-8.506,11.901
					c-11.386,6.617-29.908,6.617-41.37,0c-5.767-3.331-8.646-7.701-8.636-12.065l0.034-11.752
					c-0.012,4.363,2.869,8.734,8.636,12.064c11.462,6.615,29.985,6.615,41.37,0C136.716,133.619,139.547,129.315,139.561,125.007z"
					/>
			</defs>
			<defs>
				<path id="SVGID_2_" d="M110.366,154.829c-7.716,0-15.438-1.701-21.33-5.104c-5.978-3.453-9.265-8.117-9.251-13.132l0.034-11.753
					v-0.002c0.005-0.678,0.553-1.226,1.23-1.226h0.004c0.68,0.002,1.23,0.555,1.226,1.232v0.021c0,4.09,2.845,7.987,8.021,10.977
					c11.103,6.406,29.11,6.411,40.139,0c5.075-2.95,7.877-6.8,7.892-10.842c0-0.68,0.48-1.226,1.232-1.226
					c0.68,0.003,1.228,0.556,1.228,1.232v0.003l0,0l-0.033,11.75c-0.015,4.95-3.254,9.554-9.117,12.964
					C125.787,153.128,118.079,154.829,110.366,154.829z M82.26,132.081l-0.015,4.518c-0.009,4.099,2.838,8.004,8.021,10.998
					c11.103,6.411,29.11,6.411,40.14,0c5.074-2.951,7.879-6.801,7.891-10.84l0.013-4.524c-1.541,2.131-3.775,4.077-6.635,5.74
					c-11.71,6.801-30.821,6.806-42.605,0C86.119,136.27,83.827,134.272,82.26,132.081z"/>
			</defs>
			<use xlink:href="#SVGID_1_"  overflow="visible" fill="#D4E6FC"/>
			<use xlink:href="#SVGID_2_"  overflow="visible" fill="#0C5AE5"/>
			<clipPath id="SVGID_3_">
				<use xlink:href="#SVGID_1_"  overflow="visible"/>
			</clipPath>
			<clipPath id="SVGID_4_" clip-path="url(#SVGID_3_)">
				<use xlink:href="#SVGID_2_"  overflow="visible"/>
			</clipPath>
			<g clip-path="url(#SVGID_4_)" enable-background="new    ">
				<g>
					<path fill="#D4E6FC" d="M139.561,125.007l-0.033,11.753c-0.015,4.311-2.845,8.611-8.506,11.901
						c-11.386,6.617-29.908,6.617-41.37,0c-5.767-3.331-8.646-7.701-8.636-12.065l0.034-11.752
						c-0.012,4.363,2.869,8.734,8.636,12.064c11.462,6.615,29.985,6.615,41.37,0C136.716,133.619,139.547,129.315,139.561,125.007
						L139.561,125.007z"/>
					<path fill="#0C5AE5" d="M110.366,154.829c-7.716,0-15.438-1.701-21.33-5.104c-5.978-3.453-9.265-8.117-9.251-13.132
						l0.034-11.753v-0.002c0.005-0.678,0.553-1.226,1.23-1.226h0.004c0.68,0.002,1.23,0.555,1.226,1.232v0.021
						c0,4.09,2.845,7.987,8.021,10.977c11.103,6.406,29.11,6.411,40.139,0c5.075-2.95,7.877-6.8,7.892-10.842
						c0-0.68,0.48-1.226,1.232-1.226c0.68,0.003,1.228,0.556,1.228,1.232v0.003l0,0l-0.033,11.75
						c-0.015,4.95-3.254,9.554-9.117,12.964C125.787,153.128,118.079,154.829,110.366,154.829z M82.26,132.081l-0.015,4.518
						c-0.009,4.099,2.838,8.004,8.021,10.998c11.103,6.411,29.11,6.411,40.14,0c5.074-2.951,7.879-6.801,7.891-10.84l0.013-4.524
						c-1.541,2.131-3.775,4.077-6.635,5.74c-11.71,6.801-30.821,6.806-42.605,0C86.119,136.27,83.827,134.272,82.26,132.081z"/>
				</g>
			</g>
		</g>
		<g>
			<g>
				<path fill="#FFFFFF" d="M130.925,112.941c11.462,6.618,11.52,17.347,0.13,23.967c-11.385,6.615-29.907,6.615-41.37,0
					c-11.462-6.617-11.52-17.347-0.134-23.964C100.94,106.326,119.463,106.326,130.925,112.941z"/>
				<path fill="#0C5AE5" d="M110.399,143.074c-7.716,0-15.438-1.699-21.33-5.102c-5.959-3.438-9.244-8.088-9.251-13.086
					c-0.005-4.97,3.229-9.588,9.112-13.007c11.712-6.803,30.825-6.81,42.609-0.003l0,0c5.959,3.438,9.241,8.086,9.251,13.087
					c0.005,4.967-3.231,9.587-9.116,13.009C125.821,141.373,118.112,143.074,110.399,143.074z M110.212,109.2
					c-7.269,0-14.529,1.603-20.044,4.809c-5.092,2.958-7.894,6.821-7.889,10.873c0.005,4.085,2.855,7.978,8.021,10.962
					c11.103,6.406,29.11,6.411,40.139,0c5.095-2.96,7.896-6.824,7.892-10.878c-0.008-4.085-2.854-7.976-8.021-10.96
					C124.759,110.803,117.48,109.2,110.212,109.2z"/>
			</g>
		</g>
	</g>
	<g enable-background="new    ">
		<g>
			<defs>
				<path id="SVGID_5_" d="M139.561,109.559l-0.033,11.753c-0.015,4.308-2.845,8.611-8.506,11.901
					c-11.386,6.615-29.908,6.615-41.37,0c-5.767-3.331-8.646-7.701-8.636-12.065l0.034-11.755
					c-0.012,4.366,2.869,8.737,8.636,12.065c11.462,6.617,29.985,6.617,41.37,0C136.716,118.171,139.547,113.867,139.561,109.559z"
					/>
			</defs>
			<defs>
				<path id="SVGID_6_" d="M110.366,139.379c-7.716,0-15.438-1.699-21.33-5.102c-5.978-3.451-9.265-8.117-9.251-13.132l0.034-11.755
					c0,0,0,0,0-0.003c0.005-0.678,0.553-1.226,1.23-1.226h0.004c0.68,0.003,1.23,0.556,1.226,1.233v0.021
					c0,4.092,2.845,7.989,8.021,10.977c11.103,6.41,29.11,6.41,40.137,0c5.077-2.948,7.879-6.798,7.894-10.84
					c0-0.678,0.553-1.226,1.229-1.226c0,0,0,0,0.003,0c0.68,0.003,1.228,0.555,1.228,1.232v0.003l0,0l-0.033,11.75
					c-0.015,4.95-3.254,9.554-9.117,12.964C125.787,137.678,118.079,139.379,110.366,139.379z M82.26,116.633l-0.015,4.518
					c-0.009,4.099,2.838,8.004,8.021,10.998c11.103,6.406,29.107,6.411,40.14,0c5.074-2.951,7.879-6.801,7.891-10.84l0.013-4.524
					c-1.541,2.131-3.775,4.077-6.635,5.738c-11.707,6.805-30.821,6.805-42.605,0C86.119,120.821,83.827,118.821,82.26,116.633z"/>
			</defs>
			<use xlink:href="#SVGID_5_"  overflow="visible" fill="#D4E6FC"/>
			<use xlink:href="#SVGID_6_"  overflow="visible" fill="#0C5AE5"/>
			<clipPath id="SVGID_7_">
				<use xlink:href="#SVGID_5_"  overflow="visible"/>
			</clipPath>
			<clipPath id="SVGID_8_" clip-path="url(#SVGID_7_)">
				<use xlink:href="#SVGID_6_"  overflow="visible"/>
			</clipPath>
			<g clip-path="url(#SVGID_8_)" enable-background="new    ">
				<g>
					<path fill="#D4E6FC" d="M139.561,109.559l-0.033,11.753c-0.015,4.308-2.845,8.611-8.506,11.901
						c-11.386,6.615-29.908,6.615-41.37,0c-5.767-3.331-8.646-7.701-8.636-12.065l0.034-11.755
						c-0.012,4.366,2.869,8.737,8.636,12.065c11.462,6.617,29.985,6.617,41.37,0C136.716,118.171,139.547,113.867,139.561,109.559
						L139.561,109.559z"/>
					<path fill="#0C5AE5" d="M110.366,139.379c-7.716,0-15.438-1.699-21.33-5.102c-5.978-3.451-9.265-8.117-9.251-13.132
						l0.034-11.755c0,0,0,0,0-0.003c0.005-0.678,0.553-1.226,1.23-1.226h0.004c0.68,0.003,1.23,0.556,1.226,1.233v0.021
						c0,4.092,2.845,7.989,8.021,10.977c11.103,6.41,29.11,6.41,40.137,0c5.077-2.948,7.879-6.798,7.894-10.84
						c0-0.678,0.553-1.226,1.229-1.226c0,0,0,0,0.003,0c0.68,0.003,1.228,0.555,1.228,1.232v0.003l0,0l-0.033,11.75
						c-0.015,4.95-3.254,9.554-9.117,12.964C125.787,137.678,118.079,139.379,110.366,139.379z M82.26,116.633l-0.015,4.518
						c-0.009,4.099,2.838,8.004,8.021,10.998c11.103,6.406,29.107,6.411,40.14,0c5.074-2.951,7.879-6.801,7.891-10.84l0.013-4.524
						c-1.541,2.131-3.775,4.077-6.635,5.738c-11.707,6.805-30.821,6.805-42.605,0C86.119,120.821,83.827,118.821,82.26,116.633z"/>
				</g>
			</g>
		</g>
		<g>
			<g>
				<path fill="#FFFFFF" d="M130.925,97.492c11.462,6.619,11.52,17.348,0.13,23.966c-11.385,6.617-29.907,6.617-41.37,0
					c-11.462-6.615-11.52-17.345-0.134-23.963C100.94,90.875,119.463,90.875,130.925,97.492z"/>
				<path fill="#0C5AE5" d="M110.399,127.626c-7.713,0-15.438-1.701-21.33-5.104c-5.959-3.438-9.241-8.086-9.251-13.084
					c-0.007-4.967,3.229-9.589,9.112-13.008c11.712-6.805,30.825-6.807,42.609-0.002l0,0c5.959,3.438,9.241,8.09,9.251,13.088
					c0.005,4.967-3.231,9.587-9.116,13.007C125.821,125.925,118.112,127.626,110.399,127.626z M110.212,93.749
					c-7.269,0-14.529,1.603-20.042,4.811c-5.094,2.959-7.896,6.823-7.891,10.875c0.007,4.085,2.855,7.978,8.021,10.96
					c11.103,6.41,29.11,6.41,40.137,0c5.097-2.958,7.898-6.822,7.894-10.876c-0.008-4.082-2.854-7.976-8.021-10.961
					C124.759,95.354,117.48,93.749,110.212,93.749z"/>
			</g>
		</g>
	</g>
	<g enable-background="new    ">
		<g>
			<defs>
				<path id="SVGID_9_" d="M139.561,94.109l-0.033,11.754c-0.015,4.308-2.845,8.611-8.506,11.901
					c-11.386,6.615-29.908,6.615-41.37,0c-5.767-3.331-8.646-7.701-8.636-12.067l0.034-11.754
					c-0.012,4.366,2.869,8.738,8.636,12.066c11.462,6.617,29.985,6.617,41.37,0C136.716,102.723,139.547,98.417,139.561,94.109z"/>
			</defs>
			<defs>
				<path id="SVGID_10_" d="M110.363,123.931c-7.716,0-15.435-1.699-21.327-5.102c-5.978-3.451-9.265-8.117-9.251-13.135
					l0.034-11.753c0,0,0,0,0-0.002c0.005-0.678,0.553-1.226,1.23-1.226h0.004c0.68,0.002,1.23,0.555,1.226,1.233v0.021
					c0,4.092,2.845,7.991,8.021,10.978c11.103,6.41,29.11,6.41,40.137,0c5.077-2.949,7.879-6.799,7.894-10.841
					c0-0.678,0.553-1.226,1.229-1.226c0.608-0.017,1.23,0.553,1.23,1.232v0.002l0,0l-0.033,11.751
					c-0.015,4.95-3.254,9.554-9.117,12.961C125.787,122.229,118.079,123.931,110.363,123.931z M82.26,101.184l-0.015,4.516
					c-0.009,4.1,2.838,8.007,8.021,11.001c11.103,6.406,29.11,6.406,40.14-0.003c5.074-2.948,7.879-6.798,7.891-10.837l0.013-4.524
					c-1.541,2.131-3.775,4.077-6.635,5.738c-11.707,6.803-30.821,6.807-42.605,0C86.119,105.373,83.827,103.376,82.26,101.184z"/>
			</defs>
			<use xlink:href="#SVGID_9_"  overflow="visible" fill="#D4E6FC"/>
			<use xlink:href="#SVGID_10_"  overflow="visible" fill="#0C5AE5"/>
			<clipPath id="SVGID_11_">
				<use xlink:href="#SVGID_9_"  overflow="visible"/>
			</clipPath>
			<clipPath id="SVGID_12_" clip-path="url(#SVGID_11_)">
				<use xlink:href="#SVGID_10_"  overflow="visible"/>
			</clipPath>
			<g clip-path="url(#SVGID_12_)" enable-background="new    ">
				<g>
					<path fill="#D4E6FC" d="M139.561,94.109l-0.033,11.754c-0.015,4.308-2.845,8.611-8.506,11.901
						c-11.386,6.615-29.908,6.615-41.37,0c-5.767-3.331-8.646-7.701-8.636-12.067l0.034-11.754
						c-0.012,4.366,2.869,8.738,8.636,12.066c11.462,6.617,29.985,6.617,41.37,0C136.716,102.723,139.547,98.417,139.561,94.109
						L139.561,94.109z"/>
					<path fill="#0C5AE5" d="M110.363,123.931c-7.716,0-15.435-1.699-21.327-5.102c-5.978-3.451-9.265-8.117-9.251-13.135
						l0.034-11.753c0,0,0,0,0-0.002c0.005-0.678,0.553-1.226,1.23-1.226h0.004c0.68,0.002,1.23,0.555,1.226,1.233v0.021
						c0,4.092,2.845,7.991,8.021,10.978c11.103,6.41,29.11,6.41,40.137,0c5.077-2.949,7.879-6.799,7.894-10.841
						c0-0.678,0.553-1.226,1.229-1.226c0.608-0.017,1.23,0.553,1.23,1.232v0.002l0,0l-0.033,11.751
						c-0.015,4.95-3.254,9.554-9.117,12.961C125.787,122.229,118.079,123.931,110.363,123.931z M82.26,101.184l-0.015,4.516
						c-0.009,4.1,2.838,8.007,8.021,11.001c11.103,6.406,29.11,6.406,40.14-0.003c5.074-2.948,7.879-6.798,7.891-10.837l0.013-4.524
						c-1.541,2.131-3.775,4.077-6.635,5.738c-11.707,6.803-30.821,6.807-42.605,0C86.119,105.373,83.827,103.376,82.26,101.184z"/>
				</g>
			</g>
		</g>
		<g>
			<g>
				<path fill="#FFFFFF" d="M130.925,82.044c11.462,6.618,11.52,17.347,0.13,23.966c-11.385,6.617-29.907,6.617-41.37,0
					c-11.462-6.619-11.52-17.346-0.134-23.963C100.94,75.426,119.463,75.426,130.925,82.044z"/>
				<path fill="#0C5AE5" d="M110.399,112.178c-7.713,0-15.438-1.701-21.33-5.104c-5.959-3.438-9.241-8.087-9.251-13.085
					c-0.007-4.967,3.229-9.587,9.112-13.007c11.712-6.803,30.825-6.81,42.609-0.002l0,0c5.959,3.438,9.241,8.088,9.251,13.086
					c0.005,4.967-3.231,9.588-9.116,13.008C125.821,110.477,118.112,112.178,110.399,112.178z M110.212,78.3
					c-7.269,0-14.529,1.603-20.042,4.811c-5.094,2.958-7.896,6.822-7.891,10.873c0.007,4.085,2.855,7.979,8.021,10.961
					c11.103,6.41,29.11,6.41,40.137,0c5.097-2.958,7.898-6.823,7.894-10.877c-0.008-4.083-2.854-7.976-8.021-10.96
					C124.759,79.905,117.48,78.3,110.212,78.3z"/>
			</g>
		</g>
	</g>
	<g enable-background="new    ">
		<g>
			<defs>
				<path id="SVGID_13_" d="M139.561,78.658l-0.033,11.755c-0.015,4.308-2.845,8.612-8.506,11.9c-11.386,6.618-29.908,6.618-41.37,0
					c-5.767-3.329-8.646-7.7-8.636-12.066l0.034-11.752c-0.012,4.363,2.869,8.734,8.636,12.065c11.462,6.618,29.985,6.618,41.37,0
					C136.716,87.271,139.547,82.969,139.561,78.658z"/>
			</defs>
			<defs>
				<path id="SVGID_14_" d="M110.366,108.482c-7.714,0-15.438-1.701-21.33-5.104c-5.978-3.449-9.265-8.116-9.251-13.133
					l0.034-11.752c0,0,0,0,0-0.002c0.005-0.678,0.553-1.226,1.23-1.226h0.004c0.68,0.002,1.23,0.555,1.226,1.233v0.021
					c0,4.09,2.845,7.987,8.021,10.977c11.105,6.411,29.11,6.411,40.137,0c5.077-2.951,7.879-6.8,7.894-10.842
					c0-0.677,0.553-1.225,1.229-1.225c0,0,0,0,0.003,0c0.68,0.002,1.228,0.555,1.228,1.232v0.002l0,0l-0.033,11.753
					c-0.015,4.95-3.254,9.554-9.117,12.962C125.787,106.781,118.079,108.482,110.366,108.482z M82.26,85.732l-0.015,4.518
					c-0.009,4.102,2.838,8.006,8.021,10.999c11.103,6.411,29.11,6.409,40.14,0c5.074-2.949,7.879-6.799,7.891-10.838l0.013-4.527
					c-1.541,2.131-3.775,4.078-6.635,5.741c-11.71,6.805-30.821,6.805-42.605,0C86.119,89.921,83.827,87.924,82.26,85.732z"/>
			</defs>
			<use xlink:href="#SVGID_13_"  overflow="visible" fill="#D4E6FC"/>
			<use xlink:href="#SVGID_14_"  overflow="visible" fill="#0C5AE5"/>
			<clipPath id="SVGID_15_">
				<use xlink:href="#SVGID_13_"  overflow="visible"/>
			</clipPath>
			<clipPath id="SVGID_16_" clip-path="url(#SVGID_15_)">
				<use xlink:href="#SVGID_14_"  overflow="visible"/>
			</clipPath>
			<g clip-path="url(#SVGID_16_)" enable-background="new    ">
				<g>
					<path fill="#D4E6FC" d="M139.561,78.658l-0.033,11.755c-0.015,4.308-2.845,8.612-8.506,11.9
						c-11.386,6.618-29.908,6.618-41.37,0c-5.767-3.329-8.646-7.7-8.636-12.066l0.034-11.752c-0.012,4.363,2.869,8.734,8.636,12.065
						c11.462,6.618,29.985,6.618,41.37,0C136.716,87.271,139.547,82.969,139.561,78.658L139.561,78.658z"/>
					<path fill="#0C5AE5" d="M110.366,108.482c-7.714,0-15.438-1.701-21.33-5.104c-5.978-3.449-9.265-8.116-9.251-13.133
						l0.034-11.752c0,0,0,0,0-0.002c0.005-0.678,0.553-1.226,1.23-1.226h0.004c0.68,0.002,1.23,0.555,1.226,1.233v0.021
						c0,4.09,2.845,7.987,8.021,10.977c11.105,6.411,29.11,6.411,40.137,0c5.077-2.951,7.879-6.8,7.894-10.842
						c0-0.677,0.553-1.225,1.229-1.225c0,0,0,0,0.003,0c0.68,0.002,1.228,0.555,1.228,1.232v0.002l0,0l-0.033,11.753
						c-0.015,4.95-3.254,9.554-9.117,12.962C125.787,106.781,118.079,108.482,110.366,108.482z M82.26,85.732l-0.015,4.518
						c-0.009,4.102,2.838,8.006,8.021,10.999c11.103,6.411,29.11,6.409,40.14,0c5.074-2.949,7.879-6.799,7.891-10.838l0.013-4.527
						c-1.541,2.131-3.775,4.078-6.635,5.741c-11.71,6.805-30.821,6.805-42.605,0C86.119,89.921,83.827,87.924,82.26,85.732z"/>
				</g>
			</g>
		</g>
		<g>
			<g>
				<path fill="#FFFFFF" d="M130.925,66.596c11.462,6.615,11.52,17.344,0.13,23.964c-11.385,6.618-29.907,6.618-41.37,0
					c-11.462-6.618-11.52-17.347-0.134-23.964C100.94,59.978,119.463,59.978,130.925,66.596z"/>
				<path fill="#0C5AE5" d="M110.399,96.728c-7.716,0-15.438-1.701-21.33-5.104c-5.959-3.438-9.244-8.088-9.251-13.089
					c-0.005-4.967,3.229-9.583,9.114-13.002c11.709-6.805,30.823-6.808,42.607-0.002l0,0c5.957,3.438,9.241,8.083,9.251,13.082
					c0.005,4.969-3.231,9.59-9.116,13.012C125.821,95.027,118.112,96.728,110.399,96.728z M110.212,62.852
					c-7.269,0-14.529,1.603-20.042,4.811c-5.094,2.958-7.896,6.819-7.891,10.871c0.005,4.085,2.855,7.978,8.021,10.962
					c11.103,6.411,29.11,6.411,40.137,0c5.097-2.96,7.898-6.824,7.894-10.878c-0.008-4.085-2.854-7.976-8.021-10.958l0,0
					C124.759,64.457,117.48,62.852,110.212,62.852z"/>
			</g>
		</g>
	</g>
	<g enable-background="new    ">
		<g>
			<defs>
				<path id="SVGID_17_" d="M139.561,63.21l-0.033,11.755c-0.015,4.308-2.845,8.612-8.506,11.899
					c-11.386,6.618-29.908,6.618-41.37,0c-5.767-3.331-8.646-7.701-8.636-12.065l0.034-11.752
					c-0.012,4.363,2.869,8.734,8.636,12.065c11.462,6.618,29.985,6.618,41.37,0C136.716,71.822,139.547,67.521,139.561,63.21z"/>
			</defs>
			<defs>
				<path id="SVGID_18_" d="M110.366,93.033c-7.714,0-15.438-1.702-21.33-5.104c-5.978-3.453-9.265-8.117-9.251-13.132l0.034-11.752
					c0,0,0,0,0-0.002c0.005-0.678,0.553-1.226,1.23-1.226h0.004c0.68,0.002,1.23,0.555,1.226,1.233v0.021
					c0,4.09,2.845,7.987,8.021,10.977c11.105,6.411,29.11,6.411,40.137,0c5.077-2.951,7.879-6.8,7.894-10.842
					c0-0.677,0.553-1.225,1.229-1.225c0,0,0,0,0.003,0c0.68,0.002,1.228,0.555,1.228,1.232v0.002l0,0l-0.033,11.752
					c-0.015,4.95-3.254,9.554-9.117,12.961C125.787,91.331,118.079,93.033,110.366,93.033z M82.26,70.284l-0.015,4.518
					c-0.009,4.099,2.838,8.004,8.021,10.998c11.103,6.411,29.11,6.411,40.14,0c5.074-2.948,7.879-6.798,7.891-10.837l0.013-4.527
					c-1.541,2.131-3.775,4.078-6.635,5.741c-11.71,6.805-30.821,6.805-42.605,0C86.119,74.473,83.827,72.476,82.26,70.284z"/>
			</defs>
			<use xlink:href="#SVGID_17_"  overflow="visible" fill="#D4E6FC"/>
			<use xlink:href="#SVGID_18_"  overflow="visible" fill="#0C5AE5"/>
			<clipPath id="SVGID_19_">
				<use xlink:href="#SVGID_17_"  overflow="visible"/>
			</clipPath>
			<clipPath id="SVGID_20_" clip-path="url(#SVGID_19_)">
				<use xlink:href="#SVGID_18_"  overflow="visible"/>
			</clipPath>
			<g clip-path="url(#SVGID_20_)" enable-background="new    ">
				<g>
					<path fill="#D4E6FC" d="M139.561,63.21l-0.033,11.755c-0.015,4.308-2.845,8.612-8.506,11.899
						c-11.386,6.618-29.908,6.618-41.37,0c-5.767-3.331-8.646-7.701-8.636-12.065l0.034-11.752
						c-0.012,4.363,2.869,8.734,8.636,12.065c11.462,6.618,29.985,6.618,41.37,0C136.716,71.822,139.547,67.521,139.561,63.21
						L139.561,63.21z"/>
					<path fill="#0C5AE5" d="M110.366,93.033c-7.714,0-15.438-1.702-21.33-5.104c-5.978-3.453-9.265-8.117-9.251-13.132
						l0.034-11.752c0,0,0,0,0-0.002c0.005-0.678,0.553-1.226,1.23-1.226h0.004c0.68,0.002,1.23,0.555,1.226,1.233v0.021
						c0,4.09,2.845,7.987,8.021,10.977c11.105,6.411,29.11,6.411,40.137,0c5.077-2.951,7.879-6.8,7.894-10.842
						c0-0.677,0.553-1.225,1.229-1.225c0,0,0,0,0.003,0c0.68,0.002,1.228,0.555,1.228,1.232v0.002l0,0l-0.033,11.752
						c-0.015,4.95-3.254,9.554-9.117,12.961C125.787,91.331,118.079,93.033,110.366,93.033z M82.26,70.284l-0.015,4.518
						c-0.009,4.099,2.838,8.004,8.021,10.998c11.103,6.411,29.11,6.411,40.14,0c5.074-2.948,7.879-6.798,7.891-10.837l0.013-4.527
						c-1.541,2.131-3.775,4.078-6.635,5.741c-11.71,6.805-30.821,6.805-42.605,0C86.119,74.473,83.827,72.476,82.26,70.284z"/>
				</g>
			</g>
		</g>
		<g>
			<g>
				<path fill="#FFFFFF" d="M130.925,51.145c11.462,6.618,11.52,17.347,0.13,23.967c-11.385,6.618-29.907,6.618-41.37,0
					c-11.462-6.618-11.52-17.347-0.134-23.964C100.94,44.53,119.463,44.53,130.925,51.145z"/>
				<path fill="#0C5AE5" d="M110.399,81.28c-7.713,0-15.438-1.701-21.33-5.104c-5.959-3.438-9.244-8.088-9.251-13.086
					c-0.005-4.969,3.229-9.587,9.112-13.007c11.712-6.803,30.825-6.808,42.609,0l0,0c5.957,3.438,9.241,8.083,9.251,13.082
					c0.005,4.969-3.231,9.59-9.116,13.012C125.821,79.579,118.112,81.28,110.399,81.28z M110.212,47.404
					c-7.271,0-14.529,1.603-20.044,4.808c-5.092,2.958-7.894,6.822-7.889,10.873c0.005,4.085,2.855,7.978,8.021,10.962
					c11.103,6.411,29.11,6.411,40.137,0c5.097-2.96,7.898-6.824,7.894-10.878c-0.008-4.085-2.854-7.976-8.021-10.958l0,0
					C124.759,49.009,117.479,47.404,110.212,47.404z"/>
			</g>
		</g>
	</g>
	<g enable-background="new    ">
		<g>
			<defs>
				<path id="SVGID_21_" d="M139.561,47.762l-0.033,11.753c-0.015,4.311-2.845,8.612-8.506,11.901
					c-11.386,6.618-29.908,6.618-41.37,0c-5.767-3.331-8.646-7.701-8.636-12.065l0.034-11.752
					c-0.012,4.363,2.869,8.734,8.636,12.065c11.462,6.615,29.985,6.615,41.37,0C136.716,56.374,139.547,52.07,139.561,47.762z"/>
			</defs>
			<defs>
				<path id="SVGID_22_" d="M110.366,77.584c-7.716,0-15.438-1.702-21.33-5.104c-5.978-3.453-9.265-8.117-9.251-13.132l0.034-11.752
					c0,0,0,0,0-0.002c0.005-0.68,0.613-1.204,1.235-1.226c0.68,0.002,1.23,0.555,1.226,1.232v0.022c0,4.09,2.845,7.987,8.021,10.977
					c11.103,6.406,29.11,6.411,40.139,0c5.075-2.951,7.877-6.8,7.892-10.842c0-0.677,0.553-1.225,1.229-1.225
					c0.608,0.007,1.23,0.552,1.23,1.232v0.002l0,0l-0.033,11.75c-0.015,4.95-3.254,9.554-9.117,12.964
					C125.787,75.883,118.079,77.584,110.366,77.584z M82.26,54.836l-0.015,4.518c-0.009,4.099,2.838,8.004,8.021,10.998
					c11.103,6.411,29.11,6.411,40.14,0c5.074-2.951,7.879-6.8,7.891-10.839l0.013-4.525c-1.541,2.131-3.775,4.078-6.635,5.741
					c-11.71,6.8-30.821,6.805-42.605,0C86.119,59.024,83.827,57.027,82.26,54.836z"/>
			</defs>
			<use xlink:href="#SVGID_21_"  overflow="visible" fill="#D4E6FC"/>
			<use xlink:href="#SVGID_22_"  overflow="visible" fill="#0C5AE5"/>
			<clipPath id="SVGID_23_">
				<use xlink:href="#SVGID_21_"  overflow="visible"/>
			</clipPath>
			<clipPath id="SVGID_24_" clip-path="url(#SVGID_23_)">
				<use xlink:href="#SVGID_22_"  overflow="visible"/>
			</clipPath>
			<g clip-path="url(#SVGID_24_)" enable-background="new    ">
				<g>
					<path fill="#D4E6FC" d="M139.561,47.762l-0.033,11.753c-0.015,4.311-2.845,8.612-8.506,11.901
						c-11.386,6.618-29.908,6.618-41.37,0c-5.767-3.331-8.646-7.701-8.636-12.065l0.034-11.752
						c-0.012,4.363,2.869,8.734,8.636,12.065c11.462,6.615,29.985,6.615,41.37,0C136.716,56.374,139.547,52.07,139.561,47.762
						L139.561,47.762z"/>
					<path fill="#0C5AE5" d="M110.366,77.584c-7.716,0-15.438-1.702-21.33-5.104c-5.978-3.453-9.265-8.117-9.251-13.132
						l0.034-11.752c0,0,0,0,0-0.002c0.005-0.68,0.613-1.204,1.235-1.226c0.68,0.002,1.23,0.555,1.226,1.232v0.022
						c0,4.09,2.845,7.987,8.021,10.977c11.103,6.406,29.11,6.411,40.139,0c5.075-2.951,7.877-6.8,7.892-10.842
						c0-0.677,0.553-1.225,1.229-1.225c0.608,0.007,1.23,0.552,1.23,1.232v0.002l0,0l-0.033,11.75
						c-0.015,4.95-3.254,9.554-9.117,12.964C125.787,75.883,118.079,77.584,110.366,77.584z M82.26,54.836l-0.015,4.518
						c-0.009,4.099,2.838,8.004,8.021,10.998c11.103,6.411,29.11,6.411,40.14,0c5.074-2.951,7.879-6.8,7.891-10.839l0.013-4.525
						c-1.541,2.131-3.775,4.078-6.635,5.741c-11.71,6.8-30.821,6.805-42.605,0C86.119,59.024,83.827,57.027,82.26,54.836z"/>
				</g>
			</g>
		</g>
		<g>
			<g>
				<path fill="#FFFFFF" d="M130.925,35.697c11.462,6.618,11.52,17.347,0.13,23.967c-11.385,6.615-29.907,6.615-41.37,0
					c-11.462-6.618-11.52-17.347-0.134-23.964C100.94,29.082,119.463,29.082,130.925,35.697z"/>
				<path fill="#0C5AE5" d="M110.399,65.829c-7.716,0-15.438-1.699-21.33-5.101c-5.959-3.438-9.244-8.088-9.251-13.086
					c-0.005-4.969,3.229-9.587,9.112-13.007c11.712-6.805,30.825-6.808,42.609-0.002l0,0c5.959,3.438,9.241,8.086,9.251,13.086
					c0.005,4.967-3.231,9.587-9.116,13.009C125.821,64.128,118.112,65.829,110.399,65.829z M110.212,31.956
					c-7.269,0-14.529,1.603-20.044,4.808c-5.092,2.958-7.894,6.822-7.889,10.873c0.005,4.085,2.855,7.978,8.021,10.962
					c11.103,6.406,29.11,6.411,40.139,0c5.095-2.96,7.896-6.824,7.892-10.878c-0.008-4.085-2.854-7.976-8.021-10.96
					C124.759,33.558,117.48,31.956,110.212,31.956z"/>
			</g>
		</g>
	</g>
	<g enable-background="new    ">
		<g>
			<defs>
				<path id="SVGID_25_" d="M132.684,32.313l-0.033,11.753c-0.012,4.308-2.845,8.612-8.502,11.901
					c-11.39,6.615-29.912,6.615-41.374,0c-5.767-3.331-8.646-7.701-8.634-12.065l0.034-11.755
					c-0.012,4.366,2.867,8.737,8.634,12.067c11.462,6.615,29.985,6.615,41.372-0.002C129.839,40.926,132.67,36.622,132.684,32.313z"
					/>
			</defs>
			<defs>
				<path id="SVGID_26_" d="M103.488,62.134c-7.714,0-15.437-1.699-21.329-5.102c-5.979-3.451-9.263-8.117-9.249-13.132
					l0.034-11.755c0,0,0,0,0-0.002c0.002-0.678,0.552-1.226,1.23-1.226h0.002c0.683,0.002,1.23,0.555,1.228,1.233v0.021
					c-0.002,4.092,2.845,7.99,8.019,10.977c11.101,6.411,29.11,6.411,40.139,0c5.075-2.949,7.879-6.798,7.892-10.84
					c0.002-0.677,0.552-1.225,1.229-1.225h0.005c0.678,0.002,1.229,0.555,1.226,1.232v0.002l0,0l-0.033,11.75
					c-0.015,4.95-3.251,9.554-9.114,12.964C118.91,60.432,111.202,62.134,103.488,62.134z M75.383,39.388l-0.012,4.518
					c-0.012,4.099,2.838,8.004,8.019,10.998c11.102,6.406,29.11,6.411,40.14,0c5.077-2.951,7.881-6.8,7.891-10.839l0.015-4.525
					c-1.543,2.131-3.777,4.078-6.637,5.738c-11.707,6.803-30.819,6.807-42.605,0C79.242,43.576,76.95,41.577,75.383,39.388z"/>
			</defs>
			<use xlink:href="#SVGID_25_"  overflow="visible" fill="#D4E6FC"/>
			<use xlink:href="#SVGID_26_"  overflow="visible" fill="#0C5AE5"/>
			<clipPath id="SVGID_27_">
				<use xlink:href="#SVGID_25_"  overflow="visible"/>
			</clipPath>
			<clipPath id="SVGID_28_" clip-path="url(#SVGID_27_)">
				<use xlink:href="#SVGID_26_"  overflow="visible"/>
			</clipPath>
			<g clip-path="url(#SVGID_28_)" enable-background="new    ">
				<g>
					<path fill="#D4E6FC" d="M132.684,32.313l-0.033,11.753c-0.012,4.308-2.845,8.612-8.502,11.901
						c-11.39,6.615-29.912,6.615-41.374,0c-5.767-3.331-8.646-7.701-8.634-12.065l0.034-11.755
						c-0.012,4.366,2.867,8.737,8.634,12.067c11.462,6.615,29.985,6.615,41.372-0.002C129.839,40.926,132.67,36.622,132.684,32.313
						L132.684,32.313z"/>
					<path fill="#0C5AE5" d="M103.488,62.134c-7.714,0-15.437-1.699-21.329-5.102c-5.979-3.451-9.263-8.117-9.249-13.132
						l0.034-11.755c0,0,0,0,0-0.002c0.002-0.678,0.552-1.226,1.23-1.226h0.002c0.683,0.002,1.23,0.555,1.228,1.233v0.021
						c-0.002,4.092,2.845,7.99,8.019,10.977c11.101,6.411,29.11,6.411,40.139,0c5.075-2.949,7.879-6.798,7.892-10.84
						c0.002-0.677,0.552-1.225,1.229-1.225h0.005c0.678,0.002,1.229,0.555,1.226,1.232v0.002l0,0l-0.033,11.75
						c-0.015,4.95-3.251,9.554-9.114,12.964C118.91,60.432,111.202,62.134,103.488,62.134z M75.383,39.388l-0.012,4.518
						c-0.012,4.099,2.838,8.004,8.019,10.998c11.102,6.406,29.11,6.411,40.14,0c5.077-2.951,7.881-6.8,7.891-10.839l0.015-4.525
						c-1.543,2.131-3.777,4.078-6.637,5.738c-11.707,6.803-30.819,6.807-42.605,0C79.242,43.576,76.95,41.577,75.383,39.388z"/>
				</g>
			</g>
		</g>
		<g>
			<g>
				<path fill="#FFFFFF" d="M124.048,20.249c11.462,6.618,11.522,17.347,0.132,23.964c-11.387,6.617-29.91,6.617-41.372,0.002
					c-11.459-6.618-11.52-17.347-0.135-23.964C94.063,13.631,112.586,13.631,124.048,20.249z"/>
				<path fill="#0C5AE5" d="M103.522,50.381c-7.715,0-15.438-1.701-21.33-5.104c-5.957-3.438-9.242-8.083-9.249-13.084
					c-0.007-4.967,3.227-9.587,9.112-13.007c11.709-6.803,30.826-6.808,42.607-0.002l0,0c5.959,3.438,9.244,8.088,9.251,13.086
					c0.005,4.967-3.229,9.587-9.116,13.007C118.944,48.68,111.235,50.381,103.522,50.381z M103.337,16.507
					c-7.27,0-14.529,1.603-20.043,4.808c-5.094,2.96-7.896,6.822-7.889,10.875c0.007,4.083,2.854,7.975,8.019,10.958
					c11.101,6.411,29.11,6.411,40.139,0c5.094-2.958,7.896-6.822,7.892-10.876c-0.005-4.082-2.855-7.975-8.021-10.959
					C117.882,18.11,110.606,16.507,103.337,16.507z"/>
			</g>
		</g>
	</g>
	<g enable-background="new    ">
		<g>
			<defs>
				<path id="SVGID_29_" d="M88.993,139.552l-0.034,11.752c-0.012,4.309-2.845,8.612-8.501,11.899
					c-11.387,6.618-29.911,6.618-41.371,0c-5.77-3.328-8.648-7.698-8.636-12.063l0.034-11.755
					c-0.012,4.363,2.867,8.734,8.634,12.065c11.461,6.617,29.983,6.617,41.373,0C86.148,148.163,88.981,143.86,88.993,139.552z"/>
			</defs>
			<defs>
				<path id="SVGID_30_" d="M59.798,169.372c-7.713,0-15.434-1.702-21.326-5.104c-5.981-3.448-9.266-8.112-9.251-13.132
					l0.034-11.752c0.002-0.681,0.553-1.229,1.23-1.229h0.002c0.68,0.003,1.23,0.556,1.228,1.232l0,0
					c-0.012,4.103,2.838,8.007,8.019,10.999c11.104,6.405,29.109,6.41,40.138,0c5.078-2.949,7.879-6.798,7.891-10.838l0,0
					c0.002-0.68,0.553-1.228,1.23-1.228c0.668,0.105,1.232,0.555,1.23,1.232l-0.034,11.753c-0.015,4.952-3.251,9.554-9.117,12.961
					C75.22,167.67,67.514,169.372,59.798,169.372z M31.693,146.626l-0.012,4.515c-0.012,4.102,2.838,8.007,8.021,10.998
					c11.102,6.411,29.109,6.411,40.136,0c5.078-2.948,7.882-6.798,7.891-10.837l0.015-4.524c-1.542,2.131-3.777,4.077-6.637,5.738
					c-11.707,6.805-30.82,6.805-42.604,0C35.553,150.814,33.26,148.814,31.693,146.626z"/>
			</defs>
			<use xlink:href="#SVGID_29_"  overflow="visible" fill="#D4E6FC"/>
			<use xlink:href="#SVGID_30_"  overflow="visible" fill="#0C5AE5"/>
			<clipPath id="SVGID_31_">
				<use xlink:href="#SVGID_29_"  overflow="visible"/>
			</clipPath>
			<clipPath id="SVGID_32_" clip-path="url(#SVGID_31_)">
				<use xlink:href="#SVGID_30_"  overflow="visible"/>
			</clipPath>
			<g clip-path="url(#SVGID_32_)" enable-background="new    ">
				<g>
					<path fill="#D4E6FC" d="M88.993,139.552l-0.034,11.752c-0.012,4.309-2.845,8.612-8.501,11.899
						c-11.387,6.618-29.911,6.618-41.371,0c-5.77-3.328-8.648-7.698-8.636-12.063l0.034-11.755
						c-0.012,4.363,2.867,8.734,8.634,12.065c11.461,6.617,29.983,6.617,41.373,0C86.148,148.163,88.981,143.86,88.993,139.552
						L88.993,139.552z"/>
					<path fill="#0C5AE5" d="M59.798,169.372c-7.713,0-15.434-1.702-21.326-5.104c-5.981-3.448-9.266-8.112-9.251-13.132
						l0.034-11.752c0.002-0.681,0.553-1.229,1.23-1.229h0.002c0.68,0.003,1.23,0.556,1.228,1.232l0,0
						c-0.012,4.103,2.838,8.007,8.019,10.999c11.104,6.405,29.109,6.41,40.138,0c5.078-2.949,7.879-6.798,7.891-10.838l0,0
						c0.002-0.68,0.553-1.228,1.23-1.228c0.668,0.105,1.232,0.555,1.23,1.232l-0.034,11.753c-0.015,4.952-3.251,9.554-9.117,12.961
						C75.22,167.67,67.514,169.372,59.798,169.372z M31.693,146.626l-0.012,4.515c-0.012,4.102,2.838,8.007,8.021,10.998
						c11.102,6.411,29.109,6.411,40.136,0c5.078-2.948,7.882-6.798,7.891-10.837l0.015-4.524c-1.542,2.131-3.777,4.077-6.637,5.738
						c-11.707,6.805-30.82,6.805-42.604,0C35.553,150.814,33.26,148.814,31.693,146.626z"/>
				</g>
			</g>
		</g>
		<g>
			<g>
				<path fill="#FFFFFF" d="M80.357,127.486c11.462,6.618,11.522,17.347,0.135,23.965c-11.39,6.617-29.912,6.617-41.373,0
					c-11.459-6.615-11.52-17.347-0.135-23.962C50.374,120.869,68.897,120.869,80.357,127.486z"/>
				<path fill="#0C5AE5" d="M59.832,157.619c-7.713,0-15.437-1.701-21.328-5.104c-5.957-3.438-9.242-8.084-9.249-13.084
					c-0.007-4.967,3.227-9.588,9.112-13.007c11.709-6.806,30.825-6.808,42.606-0.003c5.959,3.438,9.244,8.089,9.251,13.086
					c0.007,4.968-3.229,9.588-9.117,13.008C75.253,155.918,67.547,157.619,59.832,157.619z M59.646,123.745
					c-7.269,0-14.525,1.601-20.042,4.809c-5.094,2.96-7.896,6.821-7.889,10.875c0.007,4.083,2.855,7.976,8.019,10.958
					c11.106,6.405,29.111,6.41,40.138,0c5.094-2.958,7.896-6.822,7.891-10.876c-0.005-4.083-2.854-7.976-8.021-10.96
					C74.191,125.348,66.915,123.745,59.646,123.745z"/>
			</g>
		</g>
	</g>
	<g enable-background="new    ">
		<g>
			<defs>
				<path id="SVGID_33_" d="M88.993,124.104l-0.034,11.752c-0.012,4.309-2.845,8.612-8.501,11.899
					c-11.387,6.618-29.911,6.618-41.371,0c-5.77-3.328-8.648-7.701-8.636-12.064l0.034-11.753
					c-0.012,4.363,2.867,8.734,8.634,12.065c11.461,6.617,29.983,6.617,41.373,0C86.148,132.715,88.981,128.412,88.993,124.104z"/>
			</defs>
			<defs>
				<path id="SVGID_34_" d="M59.798,153.923c-7.713,0-15.434-1.701-21.326-5.104c-5.981-3.448-9.266-8.112-9.251-13.132
					l0.034-11.752c0.002-0.681,0.553-1.229,1.23-1.229h0.002c0.68,0.003,1.23,0.556,1.228,1.232l0,0
					c-0.012,4.1,2.838,8.005,8.019,10.998c11.104,6.406,29.109,6.411,40.138,0c5.078-2.95,7.882-6.8,7.891-10.839l0,0
					c0.002-0.681,0.553-1.228,1.23-1.228h0.005c0.678,0.002,1.228,0.555,1.226,1.232l-0.034,11.755
					c-0.015,4.952-3.251,9.554-9.117,12.961C75.22,152.222,67.514,153.923,59.798,153.923z M31.693,131.175l-0.012,4.518
					c-0.012,4.102,2.838,8.007,8.021,10.998c11.102,6.411,29.109,6.411,40.136,0c5.078-2.948,7.882-6.798,7.891-10.837l0.015-4.524
					c-1.542,2.129-3.777,4.075-6.634,5.738c-11.709,6.8-30.822,6.805-42.606,0C35.555,135.363,33.26,133.366,31.693,131.175z"/>
			</defs>
			<use xlink:href="#SVGID_33_"  overflow="visible" fill="#D4E6FC"/>
			<use xlink:href="#SVGID_34_"  overflow="visible" fill="#0C5AE5"/>
			<clipPath id="SVGID_35_">
				<use xlink:href="#SVGID_33_"  overflow="visible"/>
			</clipPath>
			<clipPath id="SVGID_36_" clip-path="url(#SVGID_35_)">
				<use xlink:href="#SVGID_34_"  overflow="visible"/>
			</clipPath>
			<g clip-path="url(#SVGID_36_)" enable-background="new    ">
				<g>
					<path fill="#D4E6FC" d="M88.993,124.104l-0.034,11.752c-0.012,4.309-2.845,8.612-8.501,11.899
						c-11.387,6.618-29.911,6.618-41.371,0c-5.77-3.328-8.648-7.701-8.636-12.064l0.034-11.753
						c-0.012,4.363,2.867,8.734,8.634,12.065c11.461,6.617,29.983,6.617,41.373,0C86.148,132.715,88.981,128.412,88.993,124.104
						L88.993,124.104z"/>
					<path fill="#0C5AE5" d="M59.798,153.923c-7.713,0-15.434-1.701-21.326-5.104c-5.981-3.448-9.266-8.112-9.251-13.132
						l0.034-11.752c0.002-0.681,0.553-1.229,1.23-1.229h0.002c0.68,0.003,1.23,0.556,1.228,1.232l0,0
						c-0.012,4.1,2.838,8.005,8.019,10.998c11.104,6.406,29.109,6.411,40.138,0c5.078-2.95,7.882-6.8,7.891-10.839l0,0
						c0.002-0.681,0.553-1.228,1.23-1.228h0.005c0.678,0.002,1.228,0.555,1.226,1.232l-0.034,11.755
						c-0.015,4.952-3.251,9.554-9.117,12.961C75.22,152.222,67.514,153.923,59.798,153.923z M31.693,131.175l-0.012,4.518
						c-0.012,4.102,2.838,8.007,8.021,10.998c11.102,6.411,29.109,6.411,40.136,0c5.078-2.948,7.882-6.798,7.891-10.837l0.015-4.524
						c-1.542,2.129-3.777,4.075-6.634,5.738c-11.709,6.8-30.822,6.805-42.606,0C35.555,135.363,33.26,133.366,31.693,131.175z"/>
				</g>
			</g>
		</g>
		<g>
			<g>
				<path fill="#FFFFFF" d="M80.357,112.038c11.462,6.615,11.522,17.345,0.135,23.965c-11.39,6.617-29.912,6.617-41.373,0
					c-11.459-6.618-11.52-17.347-0.135-23.962C50.374,105.421,68.897,105.421,80.357,112.038z"/>
				<path fill="#0C5AE5" d="M59.832,142.171c-7.713,0-15.437-1.701-21.328-5.104c-5.957-3.439-9.242-8.089-9.249-13.087
					c-0.007-4.967,3.229-9.585,9.114-13.004c11.707-6.803,30.822-6.811,42.604-0.003c5.959,3.438,9.244,8.084,9.251,13.082
					c0.007,4.969-3.229,9.59-9.114,13.012C75.253,140.467,67.547,142.171,59.832,142.171z M59.646,108.295
					c-7.269,0-14.525,1.603-20.042,4.811c-5.094,2.958-7.896,6.819-7.889,10.87c0.005,4.085,2.853,7.978,8.019,10.962
					c11.106,6.406,29.111,6.414,40.138,0c5.094-2.96,7.896-6.824,7.891-10.878c-0.005-4.085-2.854-7.975-8.021-10.957l0,0
					C74.191,109.899,66.915,108.295,59.646,108.295z"/>
			</g>
		</g>
	</g>
	<g enable-background="new    ">
		<g>
			<defs>
				<path id="SVGID_37_" d="M88.993,108.562l-0.034,11.752c-0.012,4.309-2.845,8.612-8.501,11.902
					c-11.387,6.615-29.911,6.617-41.371,0c-5.77-3.331-8.648-7.701-8.636-12.065l0.034-11.753
					c-0.012,4.364,2.867,8.735,8.634,12.063c11.461,6.617,29.983,6.617,41.373,0C86.148,117.173,88.981,112.87,88.993,108.562z"/>
			</defs>
			<defs>
				<path id="SVGID_38_" d="M59.798,138.384c-7.713,0-15.434-1.701-21.326-5.104c-5.981-3.451-9.266-8.117-9.251-13.132
					l0.034-11.753c0.002-0.68,0.553-1.228,1.23-1.228c0.692-0.021,1.232,0.555,1.23,1.232l0,0c-0.012,4.1,2.838,8.004,8.019,10.998
					c11.102,6.406,29.109,6.406,40.138-0.002c5.078-2.949,7.879-6.798,7.891-10.838l0,0c0.002-0.68,0.553-1.228,1.23-1.228h0.005
					c0.678,0.002,1.228,0.555,1.226,1.232l-0.034,11.753c-0.015,4.95-3.251,9.554-9.114,12.964
					C75.22,136.683,67.514,138.384,59.798,138.384z M31.693,115.636l-0.012,4.518c-0.012,4.099,2.838,8.004,8.021,10.998
					c11.102,6.41,29.109,6.41,40.136,0c5.078-2.951,7.882-6.801,7.891-10.84l0.015-4.524c-1.542,2.131-3.777,4.077-6.637,5.738
					c-11.702,6.805-30.815,6.805-42.604,0.002C35.553,119.824,33.26,117.827,31.693,115.636z"/>
			</defs>
			<use xlink:href="#SVGID_37_"  overflow="visible" fill="#D4E6FC"/>
			<use xlink:href="#SVGID_38_"  overflow="visible" fill="#0C5AE5"/>
			<clipPath id="SVGID_39_">
				<use xlink:href="#SVGID_37_"  overflow="visible"/>
			</clipPath>
			<clipPath id="SVGID_40_" clip-path="url(#SVGID_39_)">
				<use xlink:href="#SVGID_38_"  overflow="visible"/>
			</clipPath>
			<g clip-path="url(#SVGID_40_)" enable-background="new    ">
				<g>
					<path fill="#D4E6FC" d="M88.993,108.562l-0.034,11.752c-0.012,4.309-2.845,8.612-8.501,11.902
						c-11.387,6.615-29.911,6.617-41.371,0c-5.77-3.331-8.648-7.701-8.636-12.065l0.034-11.753
						c-0.012,4.364,2.867,8.735,8.634,12.063c11.461,6.617,29.983,6.617,41.373,0C86.148,117.173,88.981,112.87,88.993,108.562
						L88.993,108.562z"/>
					<path fill="#0C5AE5" d="M59.798,138.384c-7.713,0-15.434-1.701-21.326-5.104c-5.981-3.451-9.266-8.117-9.251-13.132
						l0.034-11.753c0.002-0.68,0.553-1.228,1.23-1.228c0.692-0.021,1.232,0.555,1.23,1.232l0,0c-0.012,4.1,2.838,8.004,8.019,10.998
						c11.102,6.406,29.109,6.406,40.138-0.002c5.078-2.949,7.879-6.798,7.891-10.838l0,0c0.002-0.68,0.553-1.228,1.23-1.228h0.005
						c0.678,0.002,1.228,0.555,1.226,1.232l-0.034,11.753c-0.015,4.95-3.251,9.554-9.114,12.964
						C75.22,136.683,67.514,138.384,59.798,138.384z M31.693,115.636l-0.012,4.518c-0.012,4.099,2.838,8.004,8.021,10.998
						c11.102,6.41,29.109,6.41,40.136,0c5.078-2.951,7.882-6.801,7.891-10.84l0.015-4.524c-1.542,2.131-3.777,4.077-6.637,5.738
						c-11.702,6.805-30.815,6.805-42.604,0.002C35.553,119.824,33.26,117.827,31.693,115.636z"/>
				</g>
			</g>
		</g>
		<g>
			<g>
				<path fill="#FFFFFF" d="M80.357,96.495c11.462,6.619,11.522,17.348,0.135,23.966c-11.39,6.617-29.912,6.617-41.373,0
					c-11.459-6.615-11.52-17.345-0.135-23.963C50.374,89.88,68.897,89.88,80.357,96.495z"/>
				<path fill="#0C5AE5" d="M59.832,126.629c-7.713,0-15.437-1.699-21.328-5.102c-5.957-3.438-9.242-8.088-9.249-13.086
					c-0.007-4.967,3.229-9.589,9.112-13.008c11.714-6.805,30.827-6.808,42.606-0.002c5.959,3.438,9.244,8.089,9.251,13.087
					c0.007,4.967-3.229,9.588-9.117,13.008C75.253,124.928,67.545,126.629,59.832,126.629z M59.649,92.754
					c-7.271,0-14.528,1.603-20.045,4.808c-5.094,2.958-7.896,6.823-7.889,10.876c0.007,4.083,2.853,7.976,8.019,10.96
					c11.102,6.406,29.109,6.406,40.138-0.002c5.094-2.958,7.896-6.822,7.891-10.876c-0.005-4.083-2.854-7.977-8.021-10.961
					C74.194,94.356,66.915,92.754,59.649,92.754z"/>
			</g>
		</g>
	</g>
	<g enable-background="new    ">
		<g>
			<defs>
				<path id="SVGID_41_" d="M88.993,93.018l-0.034,11.756c-0.012,4.309-2.845,8.612-8.501,11.899
					c-11.387,6.617-29.911,6.617-41.371,0c-5.77-3.328-8.648-7.699-8.636-12.065l0.034-11.754
					c-0.012,4.364,2.867,8.736,8.634,12.066c11.461,6.617,29.983,6.617,41.373,0C86.148,101.631,88.981,97.329,88.993,93.018z"/>
			</defs>
			<defs>
				<path id="SVGID_42_" d="M59.798,122.842c-7.713,0-15.434-1.701-21.326-5.104c-5.981-3.448-9.266-8.112-9.251-13.132
					l0.034-11.754c0.002-0.68,0.553-1.228,1.23-1.228h0.002c0.68,0.002,1.23,0.555,1.228,1.232l0,0c-0.012,4.1,2.838,8.004,8.019,11
					c11.104,6.406,29.109,6.411,40.138,0c5.078-2.952,7.882-6.801,7.891-10.841l0,0c0.002-0.68,0.553-1.228,1.23-1.228h0.005
					c0.678,0.002,1.228,0.555,1.226,1.232l-0.034,11.756c-0.015,4.953-3.251,9.555-9.117,12.962
					C75.22,121.141,67.514,122.842,59.798,122.842z M31.693,100.092l-0.012,4.519c-0.012,4.102,2.838,8.006,8.021,10.998
					c11.102,6.41,29.109,6.41,40.136,0c5.078-2.949,7.882-6.798,7.891-10.838l0.015-4.525c-1.542,2.13-3.777,4.076-6.634,5.739
					c-11.709,6.8-30.822,6.805-42.606,0C35.555,104.281,33.26,102.285,31.693,100.092z"/>
			</defs>
			<use xlink:href="#SVGID_41_"  overflow="visible" fill="#D4E6FC"/>
			<use xlink:href="#SVGID_42_"  overflow="visible" fill="#0C5AE5"/>
			<clipPath id="SVGID_43_">
				<use xlink:href="#SVGID_41_"  overflow="visible"/>
			</clipPath>
			<clipPath id="SVGID_44_" clip-path="url(#SVGID_43_)">
				<use xlink:href="#SVGID_42_"  overflow="visible"/>
			</clipPath>
			<g clip-path="url(#SVGID_44_)" enable-background="new    ">
				<g>
					<path fill="#D4E6FC" d="M88.993,93.018l-0.034,11.756c-0.012,4.309-2.845,8.612-8.501,11.899
						c-11.387,6.617-29.911,6.617-41.371,0c-5.77-3.328-8.648-7.699-8.636-12.065l0.034-11.754
						c-0.012,4.364,2.867,8.736,8.634,12.066c11.461,6.617,29.983,6.617,41.373,0C86.148,101.631,88.981,97.329,88.993,93.018
						L88.993,93.018z"/>
					<path fill="#0C5AE5" d="M59.798,122.842c-7.713,0-15.434-1.701-21.326-5.104c-5.981-3.448-9.266-8.112-9.251-13.132
						l0.034-11.754c0.002-0.68,0.553-1.228,1.23-1.228h0.002c0.68,0.002,1.23,0.555,1.228,1.232l0,0
						c-0.012,4.1,2.838,8.004,8.019,11c11.104,6.406,29.109,6.411,40.138,0c5.078-2.952,7.882-6.801,7.891-10.841l0,0
						c0.002-0.68,0.553-1.228,1.23-1.228h0.005c0.678,0.002,1.228,0.555,1.226,1.232l-0.034,11.756
						c-0.015,4.953-3.251,9.555-9.117,12.962C75.22,121.141,67.514,122.842,59.798,122.842z M31.693,100.092l-0.012,4.519
						c-0.012,4.102,2.838,8.006,8.021,10.998c11.102,6.41,29.109,6.41,40.136,0c5.078-2.949,7.882-6.798,7.891-10.838l0.015-4.525
						c-1.542,2.13-3.777,4.076-6.634,5.739c-11.709,6.8-30.822,6.805-42.606,0C35.555,104.281,33.26,102.285,31.693,100.092z"/>
				</g>
			</g>
		</g>
		<g>
			<g>
				<path fill="#FFFFFF" d="M80.357,80.956c11.462,6.615,11.522,17.344,0.135,23.965c-11.39,6.617-29.912,6.617-41.373,0
					c-11.459-6.619-11.52-17.348-0.135-23.965C50.374,74.338,68.897,74.338,80.357,80.956z"/>
				<path fill="#0C5AE5" d="M59.832,111.089c-7.713,0-15.437-1.701-21.328-5.104c-5.957-3.438-9.242-8.089-9.249-13.087
					c-0.007-4.967,3.229-9.585,9.114-13.004c11.707-6.803,30.822-6.81,42.604-0.002c5.959,3.438,9.244,8.083,9.251,13.082
					c0.007,4.969-3.229,9.591-9.114,13.013C75.253,109.388,67.547,111.089,59.832,111.089z M59.646,77.214
					c-7.269,0-14.525,1.6-20.042,4.808c-5.094,2.958-7.896,6.819-7.889,10.871c0.005,4.085,2.853,7.978,8.019,10.963
					c11.106,6.406,29.111,6.413,40.138,0c5.094-2.962,7.896-6.826,7.891-10.879c-0.005-4.084-2.854-7.975-8.021-10.957l0,0
					C74.191,78.817,66.915,77.214,59.646,77.214z"/>
			</g>
		</g>
	</g>
	<g enable-background="new    ">
		<g>
			<defs>
				<path id="SVGID_45_" d="M88.993,76.792l-0.034,11.752c-0.012,4.309-2.845,8.612-8.501,11.901
					c-11.387,6.616-29.911,6.616-41.371,0c-5.77-3.33-8.648-7.701-8.636-12.065l0.034-11.755c-0.012,4.366,2.867,8.737,8.634,12.065
					c11.461,6.618,29.983,6.618,41.373,0C86.148,85.403,88.981,81.1,88.993,76.792z"/>
			</defs>
			<defs>
				<path id="SVGID_46_" d="M59.798,106.612c-7.713,0-15.434-1.698-21.326-5.102c-5.981-3.451-9.266-8.118-9.251-13.133
					l0.034-11.755c0.002-0.68,0.553-1.228,1.23-1.228h0.002c0.68,0.002,1.23,0.555,1.228,1.233l0,0
					c-0.012,4.102,2.838,8.006,8.019,10.998c11.104,6.404,29.109,6.414,40.138,0c5.078-2.948,7.879-6.798,7.891-10.837l0,0
					c0.002-0.68,0.553-1.228,1.23-1.228h0.005c0.678,0.002,1.228,0.555,1.226,1.233L90.19,88.546
					c-0.015,4.95-3.251,9.554-9.114,12.964C75.22,104.911,67.514,106.612,59.798,106.612z M31.693,83.865l-0.012,4.518
					c-0.012,4.1,2.838,8.004,8.021,10.998c11.102,6.407,29.106,6.412,40.136,0c5.078-2.951,7.882-6.8,7.891-10.839l0.015-4.525
					c-1.542,2.132-3.777,4.078-6.637,5.738c-11.707,6.805-30.82,6.805-42.604,0C35.553,88.054,33.26,86.055,31.693,83.865z"/>
			</defs>
			<use xlink:href="#SVGID_45_"  overflow="visible" fill="#D4E6FC"/>
			<use xlink:href="#SVGID_46_"  overflow="visible" fill="#0C5AE5"/>
			<clipPath id="SVGID_47_">
				<use xlink:href="#SVGID_45_"  overflow="visible"/>
			</clipPath>
			<clipPath id="SVGID_48_" clip-path="url(#SVGID_47_)">
				<use xlink:href="#SVGID_46_"  overflow="visible"/>
			</clipPath>
			<g clip-path="url(#SVGID_48_)" enable-background="new    ">
				<g>
					<path fill="#D4E6FC" d="M88.993,76.792l-0.034,11.752c-0.012,4.309-2.845,8.612-8.501,11.901
						c-11.387,6.616-29.911,6.616-41.371,0c-5.77-3.33-8.648-7.701-8.636-12.065l0.034-11.755
						c-0.012,4.366,2.867,8.737,8.634,12.065c11.461,6.618,29.983,6.618,41.373,0C86.148,85.403,88.981,81.1,88.993,76.792
						L88.993,76.792z"/>
					<path fill="#0C5AE5" d="M59.798,106.612c-7.713,0-15.434-1.698-21.326-5.102c-5.981-3.451-9.266-8.118-9.251-13.133
						l0.034-11.755c0.002-0.68,0.553-1.228,1.23-1.228h0.002c0.68,0.002,1.23,0.555,1.228,1.233l0,0
						c-0.012,4.102,2.838,8.006,8.019,10.998c11.104,6.404,29.109,6.414,40.138,0c5.078-2.948,7.879-6.798,7.891-10.837l0,0
						c0.002-0.68,0.553-1.228,1.23-1.228h0.005c0.678,0.002,1.228,0.555,1.226,1.233L90.19,88.546
						c-0.015,4.95-3.251,9.554-9.114,12.964C75.22,104.911,67.514,106.612,59.798,106.612z M31.693,83.865l-0.012,4.518
						c-0.012,4.1,2.838,8.004,8.021,10.998c11.102,6.407,29.106,6.412,40.136,0c5.078-2.951,7.882-6.8,7.891-10.839l0.015-4.525
						c-1.542,2.132-3.777,4.078-6.637,5.738c-11.707,6.805-30.82,6.805-42.604,0C35.553,88.054,33.26,86.055,31.693,83.865z"/>
				</g>
			</g>
		</g>
		<g>
			<g>
				<path fill="#FFFFFF" d="M80.357,64.727c11.462,6.617,11.522,17.346,0.135,23.964c-11.39,6.618-29.912,6.618-41.373,0
					c-11.459-6.615-11.52-17.344-0.135-23.962C50.374,58.109,68.897,58.109,80.357,64.727z"/>
				<path fill="#0C5AE5" d="M59.832,94.859c-7.713,0-15.437-1.701-21.328-5.104c-5.957-3.438-9.242-8.083-9.249-13.083
					c-0.007-4.967,3.227-9.588,9.112-13.007c11.709-6.805,30.825-6.807,42.606-0.002c5.959,3.439,9.244,8.088,9.251,13.086
					c0.007,4.967-3.229,9.587-9.117,13.007C75.253,93.158,67.547,94.859,59.832,94.859z M59.646,60.985
					c-7.269,0-14.525,1.601-20.042,4.808c-5.094,2.96-7.896,6.822-7.889,10.876c0.007,4.083,2.855,7.975,8.019,10.957
					c11.106,6.406,29.111,6.414,40.138,0c5.094-2.958,7.896-6.822,7.891-10.875c-0.005-4.083-2.854-7.975-8.021-10.959
					C74.191,62.588,66.915,60.985,59.646,60.985z"/>
			</g>
		</g>
	</g>
	<g enable-background="new    ">
		<g>
			<defs>
				<path id="SVGID_49_" d="M135.342,155.598l-0.034,11.756c-0.015,4.308-2.845,8.611-8.504,11.898
					c-11.387,6.618-29.91,6.618-41.372,0c-5.767-3.33-8.646-7.701-8.634-12.064l0.031-11.753c-0.01,4.364,2.869,8.734,8.636,12.065
					c11.462,6.617,29.984,6.617,41.372,0C132.496,164.21,135.327,159.909,135.342,155.598z"/>
			</defs>
			<defs>
				<path id="SVGID_50_" d="M106.146,185.421c-7.715,0-15.438-1.701-21.33-5.104c-5.979-3.452-9.266-8.116-9.251-13.132
					l0.034-11.752c0.005-0.681,0.553-1.229,1.23-1.229c0.002,0,0.005,0,0.005,0c0.678,0.003,1.23,0.556,1.226,1.233l0,0
					c-0.01,4.099,2.84,8.004,8.021,10.998c11.101,6.41,29.109,6.41,40.139,0c5.075-2.951,7.88-6.801,7.892-10.84l0,0
					c0-0.68,0.553-1.228,1.23-1.228c0,0,0,0,0.002,0c0.68,0.002,1.229,0.555,1.229,1.232l-0.034,11.755
					c-0.015,4.952-3.253,9.554-9.116,12.961C121.568,183.72,113.859,185.421,106.146,185.421z M78.041,162.672l-0.014,4.518
					c-0.01,4.1,2.84,8.004,8.021,10.998c11.106,6.411,29.11,6.411,40.139,0c5.075-2.948,7.879-6.798,7.891-10.837l0.013-4.524
					c-1.54,2.131-3.775,4.075-6.635,5.738c-11.707,6.805-30.821,6.805-42.604,0C81.9,166.86,79.607,164.863,78.041,162.672z"/>
			</defs>
			<use xlink:href="#SVGID_49_"  overflow="visible" fill="#D4E6FC"/>
			<use xlink:href="#SVGID_50_"  overflow="visible" fill="#0C5AE5"/>
			<clipPath id="SVGID_51_">
				<use xlink:href="#SVGID_49_"  overflow="visible"/>
			</clipPath>
			<clipPath id="SVGID_52_" clip-path="url(#SVGID_51_)">
				<use xlink:href="#SVGID_50_"  overflow="visible"/>
			</clipPath>
			<g clip-path="url(#SVGID_52_)" enable-background="new    ">
				<g>
					<path fill="#D4E6FC" d="M135.342,155.598l-0.034,11.756c-0.015,4.308-2.845,8.611-8.504,11.898
						c-11.387,6.618-29.91,6.618-41.372,0c-5.767-3.33-8.646-7.701-8.634-12.064l0.031-11.753c-0.01,4.364,2.869,8.734,8.636,12.065
						c11.462,6.617,29.984,6.617,41.372,0C132.496,164.21,135.327,159.909,135.342,155.598L135.342,155.598z"/>
					<path fill="#0C5AE5" d="M106.146,185.421c-7.715,0-15.438-1.701-21.33-5.104c-5.979-3.452-9.266-8.116-9.251-13.132
						l0.034-11.752c0.005-0.681,0.553-1.229,1.23-1.229c0.002,0,0.005,0,0.005,0c0.678,0.003,1.23,0.556,1.226,1.233l0,0
						c-0.01,4.099,2.84,8.004,8.021,10.998c11.101,6.41,29.109,6.41,40.139,0c5.075-2.951,7.88-6.801,7.892-10.84l0,0
						c0-0.68,0.553-1.228,1.23-1.228c0,0,0,0,0.002,0c0.68,0.002,1.229,0.555,1.229,1.232l-0.034,11.755
						c-0.015,4.952-3.253,9.554-9.116,12.961C121.568,183.72,113.859,185.421,106.146,185.421z M78.041,162.672l-0.014,4.518
						c-0.01,4.1,2.84,8.004,8.021,10.998c11.106,6.411,29.11,6.411,40.139,0c5.075-2.948,7.879-6.798,7.891-10.837l0.013-4.524
						c-1.54,2.131-3.775,4.075-6.635,5.738c-11.707,6.805-30.821,6.805-42.604,0C81.9,166.86,79.607,164.863,78.041,162.672z"/>
				</g>
			</g>
		</g>
		<g>
			<g>
				<path fill="#FFFFFF" d="M126.705,143.535c11.462,6.615,11.522,17.345,0.133,23.965c-11.388,6.617-29.91,6.617-41.372,0
					c-11.462-6.618-11.52-17.347-0.135-23.965C96.721,136.918,115.244,136.918,126.705,143.535z"/>
				<path fill="#0C5AE5" d="M106.18,173.668c-7.714,0-15.438-1.701-21.329-5.104c-5.957-3.438-9.242-8.089-9.251-13.087
					c-0.004-4.967,3.229-9.587,9.112-13.007c11.712-6.807,30.828-6.805,42.609,0c5.96,3.438,9.242,8.084,9.252,13.084
					c0.004,4.967-3.23,9.588-9.117,13.01C121.602,171.967,113.894,173.668,106.18,173.668z M105.992,139.792
					c-7.27,0-14.529,1.603-20.043,4.808c-5.092,2.958-7.894,6.822-7.889,10.874c0.007,4.085,2.854,7.978,8.021,10.962
					c11.101,6.41,29.109,6.41,40.139,0c5.095-2.961,7.896-6.824,7.892-10.878c-0.008-4.083-2.854-7.976-8.021-10.958l0,0
					C120.54,141.397,113.259,139.792,105.992,139.792z"/>
			</g>
		</g>
	</g>
	<g>
		<g enable-background="new    ">
			<defs>
				<polygon id="SVGID_53_" enable-background="new    " points="38.297,78.17 62.756,63.958 76.94,72.146 52.483,86.36 				"/>
			</defs>
			<clipPath id="SVGID_54_">
				<use xlink:href="#SVGID_53_"  overflow="visible"/>
			</clipPath>
			<g clip-path="url(#SVGID_54_)">
				<path fill="#0C5AE5" d="M50.508,80.391l7.805-4.534c2.878,2.603,2.684,3.883,0.733,5.015
					C56.89,82.124,53.399,82.006,50.508,80.391L50.508,80.391z M58.789,74.124c-2.802-2.631-2.528-3.845-0.591-4.969
					c2.028-1.18,5.488-1.081,8.317,0.48L58.789,74.124L58.789,74.124z M70.169,68.237c-0.375-0.216-1.002-0.216-1.36-0.007
					l-1.076,0.625c-3.566-1.951-8.25-2.141-11.121-0.471c-2.826,1.641-2.612,3.573,0.726,6.583l-8.069,4.691
					c-2-1.425-2.853-2.932-2.987-4.708c-0.002-0.11-0.048-0.264-0.314-0.418c-0.36-0.209-1.053-0.209-1.411,0
					c-0.267,0.154-0.31,0.308-0.279,0.526c0.262,2.05,1.367,3.756,3.665,5.296l-2.249,1.307c-0.36,0.209-0.356,0.572,0.019,0.788
					c0.363,0.209,0.99,0.209,1.348,0l2.215-1.288c3.677,1.997,8.326,2.223,11.339,0.474c2.763-1.608,2.564-3.602-0.851-6.623
					l7.93-4.609c1.336,0.971,2.139,2.088,2.432,3.54c0.015,0.207,0.125,0.308,0.298,0.406c0.409,0.238,1.053,0.245,1.442,0.019
					c0.295-0.173,0.313-0.344,0.262-0.608c-0.401-1.55-1.204-2.794-3.092-4.08l1.139-0.663
					C70.534,68.809,70.532,68.446,70.169,68.237L70.169,68.237z"/>
			</g>
		</g>
	</g>
	<g enable-background="new    ">
		<g>
			<defs>
				<path id="SVGID_55_" d="M142.216,140.059l-0.033,11.753c-0.012,4.308-2.843,8.611-8.504,11.901
					c-11.385,6.615-29.906,6.615-41.37,0c-5.767-3.33-8.648-7.701-8.636-12.065l0.034-11.755c-0.012,4.366,2.869,8.737,8.636,12.065
					c11.463,6.617,29.984,6.617,41.369,0C139.374,148.671,142.204,144.367,142.216,140.059z"/>
			</defs>
			<defs>
				<path id="SVGID_56_" d="M113.023,169.879c-7.716,0-15.438-1.699-21.33-5.102c-5.979-3.453-9.266-8.117-9.251-13.132
					l0.034-11.755c0.002-0.681,0.553-1.229,1.23-1.229h0.005c0.678,0.003,1.228,0.556,1.226,1.233l0,0
					c-0.01,4.102,2.838,8.006,8.021,10.998c11.103,6.411,29.11,6.411,40.137,0c5.077-2.948,7.879-6.798,7.892-10.837l0,0
					c0.002-0.683,0.54-1.346,1.232-1.229c0.68,0.003,1.23,0.556,1.228,1.232l-0.033,11.753c-0.015,4.95-3.251,9.554-9.114,12.964
					C128.445,168.178,120.736,169.879,113.023,169.879z M84.918,147.133l-0.015,4.518c-0.01,4.1,2.838,8.004,8.021,10.998
					c11.103,6.406,29.11,6.411,40.139,0c5.075-2.951,7.877-6.801,7.889-10.84l0.012-4.522c-1.54,2.129-3.774,4.076-6.632,5.736
					c-11.707,6.805-30.819,6.805-42.604,0C88.777,151.321,86.482,149.321,84.918,147.133z"/>
			</defs>
			<use xlink:href="#SVGID_55_"  overflow="visible" fill="#D4E6FC"/>
			<use xlink:href="#SVGID_56_"  overflow="visible" fill="#0C5AE5"/>
			<clipPath id="SVGID_57_">
				<use xlink:href="#SVGID_55_"  overflow="visible"/>
			</clipPath>
			<clipPath id="SVGID_58_" clip-path="url(#SVGID_57_)">
				<use xlink:href="#SVGID_56_"  overflow="visible"/>
			</clipPath>
			<g clip-path="url(#SVGID_58_)" enable-background="new    ">
				<g>
					<path fill="#D4E6FC" d="M142.216,140.059l-0.033,11.753c-0.012,4.308-2.843,8.611-8.504,11.901
						c-11.385,6.615-29.906,6.615-41.37,0c-5.767-3.33-8.648-7.701-8.636-12.065l0.034-11.755
						c-0.012,4.366,2.869,8.737,8.636,12.065c11.463,6.617,29.984,6.617,41.369,0C139.374,148.671,142.204,144.367,142.216,140.059
						L142.216,140.059z"/>
					<path fill="#0C5AE5" d="M113.023,169.879c-7.716,0-15.438-1.699-21.33-5.102c-5.979-3.453-9.266-8.117-9.251-13.132
						l0.034-11.755c0.002-0.681,0.553-1.229,1.23-1.229h0.005c0.678,0.003,1.228,0.556,1.226,1.233l0,0
						c-0.01,4.102,2.838,8.006,8.021,10.998c11.103,6.411,29.11,6.411,40.137,0c5.077-2.948,7.879-6.798,7.892-10.837l0,0
						c0.002-0.683,0.54-1.346,1.232-1.229c0.68,0.003,1.23,0.556,1.228,1.232l-0.033,11.753c-0.015,4.95-3.251,9.554-9.114,12.964
						C128.445,168.178,120.736,169.879,113.023,169.879z M84.918,147.133l-0.015,4.518c-0.01,4.1,2.838,8.004,8.021,10.998
						c11.103,6.406,29.11,6.411,40.139,0c5.075-2.951,7.877-6.801,7.889-10.84l0.012-4.522c-1.54,2.129-3.774,4.076-6.632,5.736
						c-11.707,6.805-30.819,6.805-42.604,0C88.777,151.321,86.482,149.321,84.918,147.133z"/>
				</g>
			</g>
		</g>
		<g>
			<g>
				<path fill="#FFFFFF" d="M133.583,127.993c11.459,6.618,11.52,17.347,0.129,23.965c-11.385,6.617-29.906,6.617-41.369,0
					c-11.462-6.615-11.522-17.345-0.135-23.962C103.6,121.376,122.121,121.376,133.583,127.993z"/>
				<path fill="#0C5AE5" d="M113.057,158.126c-7.713,0-15.437-1.701-21.329-5.104c-5.959-3.438-9.244-8.084-9.251-13.084
					c-0.007-4.967,3.229-9.588,9.112-13.007c11.712-6.805,30.826-6.808,42.609-0.003c5.957,3.438,9.242,8.089,9.249,13.087
					c0.008,4.969-3.231,9.587-9.114,13.007C128.479,156.425,120.771,158.126,113.057,158.126z M112.869,124.25
					c-7.269,0-14.529,1.603-20.043,4.811c-5.092,2.96-7.894,6.822-7.889,10.875c0.005,4.083,2.854,7.976,8.021,10.958
					c11.103,6.411,29.11,6.411,40.137,0c5.095-2.958,7.898-6.822,7.892-10.873c-0.005-4.085-2.853-7.978-8.019-10.963
					C127.417,125.855,120.136,124.25,112.869,124.25z"/>
			</g>
		</g>
	</g>
	<g>
		<g enable-background="new    ">
			<defs>
				<polygon id="SVGID_59_" enable-background="new    " points="83.868,33.936 108.343,19.713 122.544,27.912 98.071,42.134 				
					"/>
			</defs>
			<clipPath id="SVGID_60_">
				<use xlink:href="#SVGID_59_"  overflow="visible"/>
			</clipPath>
			<g clip-path="url(#SVGID_60_)">
				<path fill="#0C5AE5" d="M96.079,36.158l7.82-4.546c2.881,2.622,2.685,3.883,0.733,5.018
					C102.479,37.881,98.984,37.763,96.079,36.158L96.079,36.158z M104.358,29.889c-2.785-2.639-2.509-3.854-0.591-4.969
					c2.045-1.189,5.507-1.089,8.333,0.471L104.358,29.889L104.358,29.889z M115.758,23.995c-0.377-0.219-1.004-0.219-1.379,0
					l-1.077,0.625c-3.549-1.958-8.246-2.141-11.105-0.481c-2.842,1.651-2.611,3.573,0.728,6.584l-8.07,4.69
					c-1.997-1.405-2.867-2.922-2.987-4.707c0-0.091-0.063-0.255-0.315-0.399c-0.377-0.219-1.05-0.228-1.425-0.01
					c-0.25,0.145-0.298,0.317-0.279,0.526c0.279,2.059,1.398,3.756,3.662,5.296l-2.232,1.298c-0.375,0.218-0.373,0.582,0.005,0.797
					c0.377,0.219,1.002,0.219,1.377,0l2.201-1.278c3.677,1.978,8.344,2.213,11.343,0.471c2.777-1.615,2.562-3.6-0.87-6.629
					l7.93-4.609c1.336,0.971,2.144,2.088,2.432,3.54c0.034,0.216,0.145,0.317,0.317,0.416c0.392,0.228,1.048,0.245,1.456,0.01
					c0.278-0.164,0.31-0.344,0.245-0.618c-0.413-1.54-1.206-2.792-3.076-4.07l1.125-0.654
					C116.138,24.574,116.133,24.211,115.758,23.995L115.758,23.995z"/>
			</g>
		</g>
	</g>
	<g>
		<g enable-background="new    ">
			<defs>
				<polygon id="SVGID_61_" enable-background="new    " points="92.247,142.188 116.705,127.975 130.906,136.176 106.449,150.387 
									"/>
			</defs>
			<clipPath id="SVGID_62_">
				<use xlink:href="#SVGID_61_"  overflow="visible"/>
			</clipPath>
			<g clip-path="url(#SVGID_62_)">
				<path fill="#0C5AE5" d="M104.442,144.42l7.821-4.544c2.864,2.612,2.682,3.881,0.73,5.015
					C110.842,146.143,107.348,146.025,104.442,144.42L104.442,144.42z M112.74,138.144c-2.805-2.631-2.528-3.847-0.594-4.972
					c2.03-1.18,5.49-1.079,8.316,0.48L112.74,138.144L112.74,138.144z M124.12,132.256c-0.377-0.218-1.005-0.218-1.362-0.009
					l-1.077,0.627c-3.565-1.951-8.249-2.142-11.12-0.474c-2.823,1.642-2.612,3.573,0.726,6.587l-8.069,4.688
					c-1.998-1.423-2.853-2.929-2.988-4.707c0.017-0.099-0.048-0.262-0.315-0.416c-0.36-0.209-1.05-0.209-1.41,0
					c-0.265,0.154-0.327,0.317-0.293,0.533c0.279,2.06,1.384,3.746,3.68,5.289l-2.248,1.305c-0.36,0.209-0.358,0.572,0.02,0.791
					c0.36,0.209,0.987,0.209,1.346,0l2.217-1.288c3.676,1.994,8.343,2.229,11.342,0.49c2.777-1.615,2.547-3.611-0.851-6.64
					l7.927-4.608c1.339,0.971,2.127,2.096,2.432,3.537c0.017,0.209,0.142,0.317,0.301,0.408c0.408,0.235,1.066,0.255,1.456,0.026
					c0.278-0.163,0.313-0.344,0.245-0.615c-0.399-1.552-1.204-2.794-3.091-4.082l1.14-0.663
					C124.485,132.828,124.48,132.466,124.12,132.256L124.12,132.256z"/>
			</g>
		</g>
	</g>
</g>
</svg>
