<?xml version="1.0" encoding="utf-8"?>
<!-- Generator: Adobe Illustrator 16.0.0, SVG Export Plug-In . SVG Version: 6.00 Build 0)  -->
<!DOCTYPE svg PUBLIC "-//W3C//DTD SVG 1.1//EN" "http://www.w3.org/Graphics/SVG/1.1/DTD/svg11.dtd">
<svg version="1.1" id="Layer_1" xmlns="http://www.w3.org/2000/svg" xmlns:xlink="http://www.w3.org/1999/xlink" x="0px" y="0px"
	 width="200px" height="200px" viewBox="0 0 200 200" enable-background="new 0 0 200 200" xml:space="preserve">
<g>
	<g>
		<g enable-background="new    ">
			<defs>
				<polygon id="SVGID_1_" enable-background="new    " points="36.632,124.318 112.036,80.5 197.395,129.785 121.995,173.604 				
					"/>
			</defs>
			<clipPath id="SVGID_2_">
				<use xlink:href="#SVGID_1_"  overflow="visible"/>
			</clipPath>
			<g clip-path="url(#SVGID_2_)">
				<path fill="#0C5AE5" d="M189.434,125.187l-69.438-40.09c-4.409-2.547-11.507-2.537-15.871,0L44.54,119.724
					c-4.363,2.532-4.356,6.646,0.053,9.193l69.441,40.089c4.391,2.537,11.507,2.537,15.868,0l59.585-34.627
					C193.854,131.842,193.829,127.724,189.434,125.187L189.434,125.187z"/>
			</g>
		</g>
	</g>
	<g>
		<g>
			<polygon fill="#FFFFFF" points="158.164,132.104 158.164,115.557 19.693,96.634 19.693,113.185 62.765,138.051 69.059,141.685 
				69.059,141.685 105.488,162.719 			"/>
			<path fill="#0C5AE5" d="M105.488,163.961c-0.214,0-0.43-0.059-0.621-0.17l-85.795-49.534c-0.383-0.219-0.621-0.631-0.621-1.072
				v-16.55c0-0.359,0.155-0.701,0.424-0.936c0.272-0.238,0.633-0.342,0.985-0.294l138.474,18.921
				c0.616,0.082,1.072,0.61,1.072,1.231v16.547c0,0.441-0.233,0.85-0.616,1.072l-52.679,30.615
				C105.92,163.902,105.704,163.961,105.488,163.961z M20.935,112.467l84.552,48.816l51.436-29.897v-14.747L20.935,98.058V112.467z
				 M158.164,132.104h0.024H158.164z"/>
		</g>
		<g>
			<polygon fill="#FFFFFF" points="158.164,115.557 121.738,94.524 108.703,87 72.37,66.022 19.693,96.634 62.765,121.504 
				69.059,125.138 69.059,125.138 105.488,146.172 			"/>
			<path fill="#0C5AE5" d="M105.488,147.409c-0.214,0-0.43-0.054-0.621-0.165L19.072,97.709c-0.383-0.221-0.621-0.631-0.621-1.072
				c0-0.444,0.235-0.854,0.619-1.077l52.677-30.612c0.381-0.223,0.859-0.223,1.245,0l85.794,49.533
				c0.383,0.223,0.621,0.63,0.621,1.071c0,0.446-0.233,0.854-0.616,1.077l-52.679,30.615
				C105.92,147.355,105.704,147.409,105.488,147.409z M22.169,96.632l83.317,48.1l50.204-29.175L72.373,67.458L22.169,96.632z"/>
		</g>
		<g>
			<polygon fill="#5F98ED" points="56.027,117.613 56.027,134.16 69.059,141.685 69.059,125.138 			"/>
			<path fill="#0C5AE5" d="M69.059,142.927c-0.213,0-0.429-0.054-0.621-0.165l-13.033-7.529c-0.383-0.218-0.621-0.63-0.621-1.072
				v-16.547c0-0.446,0.238-0.854,0.621-1.076c0.383-0.224,0.859-0.224,1.242,0l13.032,7.528c0.383,0.219,0.621,0.631,0.621,1.072
				v16.547c0,0.446-0.238,0.854-0.621,1.077C69.488,142.873,69.272,142.927,69.059,142.927z M57.269,133.442l10.549,6.093v-13.68
				l-10.549-6.093V133.442z"/>
		</g>
		<g>
			<polygon fill="#D4E6FC" points="105.488,146.172 105.488,162.719 158.164,132.104 158.164,115.557 			"/>
			<path fill="#0C5AE5" d="M105.488,163.961c-0.214,0-0.428-0.059-0.619-0.165c-0.385-0.224-0.623-0.636-0.623-1.077v-16.552
				c0-0.441,0.235-0.849,0.619-1.072l52.678-30.614c0.379-0.224,0.854-0.224,1.242,0c0.383,0.223,0.621,0.63,0.621,1.076v16.547
				c0,0.441-0.233,0.85-0.616,1.072l-52.679,30.615C105.92,163.902,105.704,163.961,105.488,163.961z M106.73,146.885v13.675
				l50.191-29.174v-13.67L106.73,146.885z"/>
		</g>
		<g>
			<path fill="#D4E6FC" d="M138.562,118.191c-3.313-1.912-3.333-5.012-0.044-6.923l-22.868-13.206l-36.687-21.18
				c-3.289,1.911-8.637,1.911-11.948,0l-28.59,16.612c3.313,1.914,3.331,5.011,0.039,6.922l36.686,21.184l22.868,13.199
				c3.291-1.911,8.645-1.906,11.956,0.005c0.291,0.17,0.568,0.35,0.811,0.539l28.713-16.684
				C139.168,118.521,138.853,118.36,138.562,118.191z"/>
			<path fill="#0C5AE5" d="M110.784,136.586c-0.271,0-0.538-0.087-0.762-0.262c-0.204-0.16-0.432-0.306-0.669-0.446
				c-2.914-1.684-7.818-1.679-10.713,0c-0.381,0.223-0.858,0.223-1.244,0l-59.554-34.384c-0.383-0.224-0.621-0.632-0.621-1.074
				c0-0.444,0.235-0.854,0.619-1.077c1.169-0.679,1.841-1.543,1.838-2.373c0-0.836-0.684-1.712-1.875-2.401
				c-0.383-0.221-0.621-0.631-0.621-1.072c0-0.444,0.235-0.854,0.619-1.077l28.587-16.612c0.381-0.223,0.859-0.226,1.244,0
				c2.916,1.679,7.815,1.676,10.707,0c0.381-0.223,0.858-0.226,1.244,0l59.555,34.383c0.383,0.224,0.621,0.631,0.621,1.072
				c0,0.446-0.238,0.854-0.621,1.077c-1.164,0.679-1.834,1.542-1.834,2.372c0,0.839,0.684,1.712,1.873,2.401
				c0.252,0.146,0.528,0.281,0.814,0.407c0.427,0.185,0.718,0.597,0.742,1.067c0.029,0.466-0.209,0.912-0.616,1.145l-28.708,16.688
				C111.216,136.533,111.002,136.586,110.784,136.586z M103.984,132.123c2.375,0,4.753,0.534,6.61,1.605
				c0.083,0.049,0.165,0.098,0.248,0.146l26.181-15.213c-1.426-1.091-2.202-2.464-2.202-3.948c0-1.203,0.509-2.338,1.465-3.299
				l-57.35-33.112c-3.466,1.683-8.405,1.683-11.895,0L40.659,93.634c0.98,0.973,1.504,2.118,1.504,3.335
				c0.002,1.206-0.509,2.338-1.467,3.304l57.349,33.112C99.778,132.54,101.881,132.123,103.984,132.123z"/>
		</g>
		<g>
			<path fill="#FFFFFF" d="M103.378,97.694c-6.032-3.481-17.398-2.532-25.405,2.12c-8.004,4.654-9.612,11.241-3.583,14.724
				c6.022,3.479,17.398,2.527,25.405-2.125C107.8,107.762,109.401,101.173,103.378,97.694L103.378,97.694z"/>
			<path fill="#0C5AE5" d="M83.84,117.9c-3.852,0-7.408-0.747-10.071-2.285c-2.75-1.591-4.269-3.915-4.271-6.544
				c-0.005-3.663,2.857-7.427,7.852-10.332c8.467-4.921,20.178-5.855,26.649-2.12l0,0c2.748,1.586,4.263,3.91,4.268,6.538
				c0.005,3.663-2.854,7.428-7.848,10.328C95.434,116.382,89.334,117.9,83.84,117.9z M93.964,96.821
				c-5.072,0-10.791,1.407-15.368,4.068c-4.145,2.41-6.619,5.466-6.614,8.183c0.002,2.188,1.649,3.595,3.029,4.395
				c5.671,3.27,16.511,2.319,24.161-2.129c4.143-2.406,6.614-5.463,6.612-8.175c-0.003-2.187-1.647-3.595-3.027-4.394l0,0
				C100.479,97.454,97.367,96.821,93.964,96.821z"/>
		</g>
		<g>
			<polygon fill="#5F98ED" points="121.738,94.524 108.703,87 102.613,90.539 93.475,95.851 71.257,108.761 62.115,114.072 
				56.027,117.613 69.059,125.138 75.15,121.602 84.177,116.353 106.621,103.313 115.649,98.063 121.738,94.524 			"/>
			<path fill="#0C5AE5" d="M69.059,126.38c-0.213,0-0.429-0.054-0.621-0.165l-13.033-7.529c-0.383-0.218-0.621-0.63-0.621-1.072
				c0-0.441,0.235-0.854,0.618-1.076l52.678-30.611c0.38-0.223,0.859-0.223,1.243,0l13.034,7.524
				c0.384,0.221,0.621,0.63,0.621,1.072c0,0.444-0.232,0.854-0.616,1.077l-52.681,30.616
				C69.491,126.326,69.275,126.38,69.059,126.38z M58.503,117.609l10.553,6.093l50.202-29.176l-10.551-6.09L58.503,117.609z"/>
		</g>
	</g>
	<g>
		<g>
			<polygon fill="#FFFFFF" points="156.32,109.313 156.32,92.768 17.847,73.847 17.847,90.396 60.921,115.266 67.216,118.899 
				67.216,118.899 103.643,139.929 			"/>
			<path fill="#0C5AE5" d="M103.643,141.17c-0.214,0-0.43-0.053-0.621-0.164L17.226,91.47c-0.383-0.221-0.621-0.63-0.621-1.074
				V73.847c0-0.359,0.155-0.701,0.424-0.937c0.272-0.235,0.631-0.342,0.985-0.293L156.49,91.538c0.616,0.083,1.072,0.609,1.072,1.23
				v16.545c0,0.441-0.232,0.854-0.616,1.077l-52.681,30.615C104.074,141.117,103.857,141.17,103.643,141.17z M19.089,89.678
				l84.551,48.814l51.439-29.892V93.852L19.089,75.271V89.678z M156.32,109.313h0.024H156.32z"/>
		</g>
		<g>
			<polygon fill="#FFFFFF" points="156.32,92.768 119.895,71.736 106.861,64.212 70.527,43.234 17.847,73.847 60.921,98.715 
				67.216,102.353 67.216,102.353 103.643,123.382 			"/>
			<path fill="#0C5AE5" d="M103.643,124.623c-0.214,0-0.43-0.053-0.621-0.164L17.226,74.921c-0.383-0.221-0.621-0.63-0.621-1.072
				c0-0.444,0.235-0.854,0.619-1.077l52.68-30.611c0.381-0.226,0.858-0.226,1.244-0.002l85.794,49.535
				c0.384,0.221,0.621,0.631,0.621,1.072c0,0.444-0.232,0.854-0.616,1.077l-52.681,30.617
				C104.074,124.57,103.857,124.623,103.643,124.623z M20.326,73.844l83.314,48.101l50.207-29.175L70.529,44.669L20.326,73.844z"/>
		</g>
		<g>
			<polygon fill="#5F98ED" points="54.181,94.825 54.181,111.37 67.216,118.899 67.216,102.353 			"/>
			<path fill="#0C5AE5" d="M67.216,120.142c-0.213,0-0.429-0.059-0.621-0.17l-13.035-7.524c-0.383-0.223-0.621-0.631-0.621-1.077
				V94.825c0-0.444,0.237-0.854,0.621-1.074c0.383-0.223,0.859-0.223,1.242,0l13.035,7.525c0.383,0.224,0.621,0.631,0.621,1.077
				v16.547c0,0.441-0.238,0.854-0.621,1.072C67.645,120.083,67.429,120.142,67.216,120.142z M55.423,110.652l10.551,6.093V103.07
				l-10.551-6.094V110.652z"/>
		</g>
		<g>
			<polygon fill="#D4E6FC" points="103.643,123.382 103.643,139.929 156.32,109.313 156.32,92.768 			"/>
			<path fill="#0C5AE5" d="M103.643,141.17c-0.214,0-0.428-0.053-0.619-0.164c-0.385-0.224-0.623-0.631-0.623-1.077v-16.547
				c0-0.441,0.235-0.85,0.619-1.072L155.7,91.693c0.378-0.223,0.854-0.223,1.241-0.002c0.384,0.223,0.621,0.633,0.621,1.077v16.545
				c0,0.441-0.232,0.854-0.616,1.077l-52.681,30.615C104.074,141.117,103.857,141.17,103.643,141.17z M104.885,124.1v13.67
				l50.194-29.169V94.927L104.885,124.1z"/>
		</g>
		<g>
			<path fill="#D4E6FC" d="M136.718,95.404c-3.313-1.914-3.333-5.013-0.044-6.925l-22.867-13.204l-36.688-21.18
				c-3.289,1.912-8.64,1.912-11.951,0L36.582,70.71c3.311,1.911,3.328,5.008,0.039,6.92l36.686,21.182l22.868,13.203
				c3.292-1.911,8.643-1.911,11.956,0c0.292,0.17,0.563,0.35,0.811,0.543l28.714-16.686
				C137.319,95.732,137.009,95.572,136.718,95.404z"/>
			<path fill="#0C5AE5" d="M108.94,113.801c-0.267,0-0.538-0.087-0.76-0.262c-0.206-0.16-0.435-0.306-0.677-0.451
				c-2.906-1.674-7.811-1.679-10.707,0c-0.381,0.223-0.858,0.228-1.244,0L36,78.705c-0.383-0.221-0.621-0.63-0.621-1.072
				c0-0.444,0.235-0.854,0.619-1.077c1.169-0.679,1.838-1.542,1.836-2.372c0-0.837-0.684-1.712-1.873-2.399
				c-0.383-0.221-0.621-0.63-0.621-1.072c0-0.444,0.235-0.854,0.618-1.077l28.587-16.613c0.378-0.225,0.858-0.225,1.244-0.002
				c2.916,1.682,7.815,1.686,10.707,0.002c0.383-0.225,0.858-0.225,1.244-0.002l59.555,34.385c0.384,0.221,0.621,0.63,0.621,1.072
				c0,0.444-0.237,0.854-0.621,1.077c-1.164,0.679-1.834,1.542-1.834,2.372c0,0.837,0.685,1.712,1.873,2.401
				c0.252,0.143,0.519,0.281,0.805,0.402c0.433,0.182,0.724,0.594,0.752,1.065c0.029,0.468-0.208,0.915-0.615,1.152l-28.709,16.684
				C109.372,113.742,109.159,113.801,108.94,113.801z M102.139,109.333c2.375,0,4.754,0.538,6.613,1.605
				c0.082,0.054,0.164,0.103,0.247,0.15l26.181-15.216c-1.426-1.086-2.202-2.459-2.202-3.944c0-1.206,0.51-2.338,1.465-3.304
				l-57.35-33.11c-3.469,1.688-8.407,1.683-11.895,0L38.815,70.849c0.978,0.97,1.501,2.115,1.501,3.333
				c0.002,1.206-0.507,2.338-1.465,3.304l57.349,33.11C97.935,109.755,100.036,109.333,102.139,109.333z"/>
		</g>
		<g>
			<path fill="#FFFFFF" d="M101.532,74.906c-6.03-3.48-17.396-2.532-25.403,2.12c-8.006,4.652-9.612,11.245-3.583,14.725
				c6.023,3.479,17.398,2.525,25.403-2.127C105.956,84.972,107.555,78.385,101.532,74.906L101.532,74.906z"/>
			<path fill="#0C5AE5" d="M81.938,95.06c-3.856,0-7.405-0.728-10.012-2.234c-2.75-1.589-4.269-3.912-4.271-6.544
				c-0.005-3.663,2.857-7.427,7.852-10.331c8.47-4.919,20.175-5.855,26.646-2.12l0,0c2.751,1.586,4.268,3.91,4.27,6.539
				c0.005,3.663-2.855,7.427-7.849,10.328C93.656,93.556,87.481,95.06,81.938,95.06z M92.121,74.033
				c-5.072,0-10.791,1.407-15.368,4.068c-4.145,2.408-6.619,5.467-6.614,8.179c0.002,2.188,1.649,3.6,3.029,4.397
				c5.673,3.27,16.506,2.319,24.158-2.127c4.143-2.406,6.617-5.464,6.611-8.176c-0.002-2.186-1.646-3.595-3.026-4.393l0,0
				C98.634,74.667,95.521,74.033,92.121,74.033z"/>
		</g>
		<g>
			<polygon fill="#5F98ED" points="119.895,71.736 106.861,64.212 100.771,67.751 91.631,73.063 69.411,85.974 60.271,91.286 
				54.181,94.825 67.216,102.353 73.306,98.813 82.334,93.566 104.777,80.524 113.807,75.275 119.895,71.736 			"/>
			<path fill="#0C5AE5" d="M67.216,103.595c-0.213,0-0.429-0.059-0.621-0.17L53.56,95.899c-0.383-0.221-0.621-0.631-0.621-1.072
				c0-0.444,0.235-0.854,0.618-1.077l52.68-30.613c0.381-0.221,0.858-0.226,1.245,0l13.033,7.524
				c0.383,0.221,0.621,0.631,0.621,1.072c0,0.444-0.233,0.854-0.616,1.077l-52.681,30.614
				C67.647,103.536,67.432,103.595,67.216,103.595z M56.66,94.822l10.553,6.093l50.203-29.176l-10.553-6.09L56.66,94.822z"/>
		</g>
	</g>
	<g>
		<g>
			<polygon fill="#FFFFFF" points="168.4,93.719 168.4,77.172 29.923,58.251 29.923,74.8 72.998,99.668 79.292,103.303 
				79.292,103.303 115.718,124.332 			"/>
			<path fill="#0C5AE5" d="M115.723,125.574c-0.214,0-0.432-0.054-0.621-0.165L29.303,75.874c-0.383-0.221-0.621-0.63-0.621-1.074
				l0.002-16.548c0-0.359,0.155-0.7,0.424-0.936c0.272-0.235,0.631-0.343,0.985-0.295l138.471,18.922
				c0.616,0.082,1.077,0.608,1.077,1.229v16.547c0,0.441-0.237,0.852-0.621,1.075l-52.677,30.616
				C116.154,125.521,115.936,125.574,115.723,125.574z M31.166,74.082l84.552,48.814l51.44-29.893V78.256L31.168,59.674
				L31.166,74.082z M168.4,93.719h0.023H168.4z"/>
		</g>
		<g>
			<polygon fill="#FFFFFF" points="168.4,77.172 131.974,56.142 118.938,48.616 82.604,27.638 29.923,58.251 72.998,83.119 
				79.292,86.755 79.292,86.755 115.718,107.785 			"/>
			<path fill="#0C5AE5" d="M115.723,109.027c-0.214,0-0.432-0.059-0.621-0.17l-85.799-49.53c-0.383-0.222-0.621-0.63-0.621-1.074
				c0-0.443,0.235-0.853,0.619-1.075l52.68-30.614c0.381-0.226,0.858-0.223,1.244-0.002l85.796,49.535
				c0.384,0.221,0.621,0.631,0.621,1.072c0,0.444-0.237,0.854-0.621,1.077l-52.677,30.611
				C116.154,108.969,115.936,109.027,115.723,109.027z M32.402,58.248l83.315,48.102l50.203-29.175L82.605,29.073L32.402,58.248z"/>
		</g>
		<g>
			<polygon fill="#5F98ED" points="66.26,79.229 66.26,95.775 79.292,103.303 79.292,86.755 			"/>
			<path fill="#0C5AE5" d="M79.292,104.545c-0.213,0-0.429-0.058-0.621-0.17L65.639,96.85c-0.383-0.221-0.621-0.63-0.621-1.075
				V79.229c0-0.444,0.238-0.854,0.621-1.074c0.383-0.223,0.859-0.223,1.242,0l13.033,7.526c0.383,0.221,0.621,0.63,0.621,1.074
				v16.548c0,0.441-0.237,0.854-0.621,1.072C79.722,104.487,79.506,104.545,79.292,104.545z M67.502,95.058l10.549,6.093V87.473
				L67.502,81.38V95.058z"/>
		</g>
		<g>
			<polygon fill="#D4E6FC" points="115.718,107.785 115.718,124.332 168.4,93.719 168.4,77.172 			"/>
			<path fill="#0C5AE5" d="M115.723,125.574c-0.214,0-0.427-0.054-0.621-0.165c-0.383-0.223-0.621-0.631-0.621-1.077v-16.547
				c0-0.441,0.233-0.854,0.616-1.076l52.678-30.612c0.383-0.223,0.858-0.221,1.241-0.002c0.389,0.224,0.626,0.633,0.626,1.077
				v16.547c0,0.441-0.237,0.852-0.621,1.075l-52.677,30.616C116.154,125.521,115.936,125.574,115.723,125.574z M116.965,108.499
				v13.675l50.193-29.17V79.331L116.965,108.499z"/>
		</g>
		<g>
			<path fill="#D4E6FC" d="M148.792,79.809c-3.309-1.914-3.333-5.014-0.044-6.925L125.881,59.68L89.196,38.5
				c-3.289,1.913-8.637,1.913-11.951,0L48.658,55.113c3.313,1.911,3.33,5.01,0.039,6.921l36.686,21.182l22.869,13.202
				c3.289-1.912,8.645-1.909,11.953,0.002c0.296,0.17,0.567,0.349,0.814,0.541l28.709-16.686
				C149.398,80.133,149.088,79.976,148.792,79.809z"/>
			<path fill="#0C5AE5" d="M121.02,98.204c-0.271,0-0.543-0.09-0.767-0.265c-0.203-0.158-0.427-0.303-0.669-0.444
				c-2.911-1.681-7.815-1.681-10.711-0.002c-0.379,0.221-0.857,0.226-1.243,0L48.076,63.109c-0.383-0.221-0.621-0.631-0.621-1.072
				c0-0.444,0.235-0.854,0.619-1.077c1.169-0.679,1.841-1.544,1.838-2.373c0-0.838-0.684-1.712-1.875-2.398
				c-0.383-0.222-0.621-0.631-0.621-1.074c0-0.444,0.235-0.854,0.618-1.076l28.587-16.613c0.381-0.223,0.858-0.226,1.244-0.002
				c2.916,1.683,7.815,1.681,10.706,0.002c0.381-0.223,0.861-0.226,1.245-0.002l59.552,34.385c0.384,0.221,0.621,0.63,0.621,1.072
				c0,0.444-0.232,0.854-0.616,1.077c-1.169,0.677-1.839,1.542-1.834,2.37c0,0.839,0.685,1.715,1.873,2.404
				c0.252,0.146,0.523,0.281,0.81,0.405c0.432,0.187,0.719,0.599,0.747,1.067c0.024,0.468-0.213,0.912-0.615,1.147l-28.714,16.685
				C121.446,98.148,121.233,98.204,121.02,98.204z M114.219,93.738c2.372,0,4.754,0.536,6.607,1.608
				c0.087,0.049,0.169,0.097,0.247,0.146l26.186-15.215c-1.431-1.089-2.202-2.462-2.202-3.946c-0.005-1.205,0.505-2.335,1.46-3.301
				L89.169,39.918c-3.468,1.683-8.407,1.686-11.895,0L50.895,55.25c0.978,0.973,1.499,2.115,1.501,3.334
				c0.002,1.207-0.509,2.341-1.467,3.305L108.276,95C110.013,94.158,112.113,93.738,114.219,93.738z"/>
		</g>
		<g>
			<path fill="#FFFFFF" d="M113.612,59.312c-6.033-3.482-17.399-2.535-25.406,2.118c-8.004,4.653-9.612,11.243-3.583,14.727
				c6.023,3.478,17.398,2.525,25.404-2.127C118.031,69.376,119.633,62.789,113.612,59.312L113.612,59.312z"/>
			<path fill="#0C5AE5" d="M94.074,79.515c-3.852,0-7.408-0.745-10.071-2.285c-2.75-1.588-4.269-3.912-4.271-6.542
				c-0.005-3.663,2.857-7.429,7.852-10.333c8.472-4.925,20.183-5.854,26.65-2.12c2.745,1.587,4.264,3.91,4.269,6.537
				c0.005,3.663-2.857,7.427-7.849,10.331C105.668,77.999,99.567,79.515,94.074,79.515z M104.195,58.437
				c-5.072,0-10.789,1.407-15.366,4.065c-4.145,2.411-6.619,5.469-6.614,8.184c0.002,2.188,1.649,3.597,3.029,4.395
				c5.673,3.27,16.511,2.319,24.162-2.127c4.143-2.409,6.612-5.465,6.612-8.177c-0.005-2.185-1.649-3.594-3.027-4.39l0,0
				C110.711,59.071,107.599,58.437,104.195,58.437z"/>
		</g>
		<g>
			<polygon fill="#5F98ED" points="131.974,56.142 118.938,48.616 112.846,52.155 103.707,57.467 81.49,70.378 72.348,75.69 
				66.26,79.229 79.292,86.755 85.383,83.216 94.411,77.97 116.853,64.925 125.881,59.68 131.974,56.142 			"/>
			<path fill="#0C5AE5" d="M79.292,87.997c-0.213,0-0.429-0.056-0.621-0.167l-13.032-7.526c-0.383-0.221-0.621-0.63-0.621-1.072
				c0-0.444,0.235-0.854,0.619-1.077l52.676-30.611c0.384-0.224,0.859-0.224,1.247-0.002l13.035,7.525
				c0.383,0.222,0.62,0.63,0.62,1.074c0,0.443-0.237,0.853-0.62,1.075L79.916,87.83C79.724,87.941,79.508,87.997,79.292,87.997z
				 M68.737,79.227l10.553,6.093l50.204-29.174l-10.556-6.094L68.737,79.227z"/>
		</g>
	</g>
</g>
</svg>
