<?xml version="1.0" encoding="utf-8"?>
<!-- Generator: Adobe Illustrator 16.0.0, SVG Export Plug-In . SVG Version: 6.00 Build 0)  -->
<!DOCTYPE svg PUBLIC "-//W3C//DTD SVG 1.1//EN" "http://www.w3.org/Graphics/SVG/1.1/DTD/svg11.dtd">
<svg version="1.1" id="Layer_1" xmlns="http://www.w3.org/2000/svg" xmlns:xlink="http://www.w3.org/1999/xlink" x="0px" y="0px"
	 width="200px" height="200px" viewBox="0 0 200 200" enable-background="new 0 0 200 200" xml:space="preserve">
<g>
	<path fill="#0C5AE5" d="M106.806,182.477c-0.259,0-0.518-0.075-0.744-0.217c-12.534-7.975-19.045-11.508-19.106-11.543
		c-0.398-0.214-0.668-0.61-0.717-1.063c-0.052-0.45,0.122-0.896,0.462-1.196l59.778-52.459c0.453-0.393,1.111-0.456,1.627-0.145
		l36.17,21.632c0.422,0.255,0.682,0.716,0.67,1.213c-0.006,0.495-0.281,0.949-0.715,1.188c0,0-61.526,33.992-76.753,42.416
		C107.267,182.42,107.035,182.477,106.806,182.477z M89.999,169.247c2.648,1.508,8.317,4.818,16.855,10.234
		c14.514-8.031,63.188-34.919,73.931-40.856l-33.236-19.875L89.999,169.247z"/>
	<g>
		<g>
			<polygon fill="#0C5AE5" points="87.64,160.899 116.122,144.346 116.098,152.943 87.612,169.5 			"/>
			<path fill="#0C5AE5" d="M87.612,170.886c-0.238,0-0.476-0.063-0.693-0.188c-0.427-0.246-0.693-0.705-0.693-1.2l0.028-8.601
				c0-0.493,0.262-0.947,0.687-1.195l28.485-16.557c0.429-0.249,0.958-0.251,1.389,0c0.43,0.246,0.695,0.707,0.691,1.202
				l-0.023,8.601c0,0.493-0.266,0.947-0.687,1.195l-28.485,16.555C88.094,170.823,87.856,170.886,87.612,170.886z M89.019,161.7
				l-0.013,5.388l25.709-14.939l0.014-5.394L89.019,161.7z"/>
		</g>
		<g>
			<path fill="#D4E6FC" d="M104.207,108c-0.713-0.411-1.416-0.868-2.107-1.355c-0.229-0.157-0.445-0.336-0.668-0.5
				c-0.465-0.348-0.924-0.696-1.376-1.072c-0.257-0.213-0.509-0.441-0.763-0.665c-0.405-0.357-0.809-0.72-1.204-1.103
				c-0.26-0.248-0.514-0.508-0.769-0.769c-0.378-0.384-0.746-0.776-1.114-1.179c-0.232-0.258-0.459-0.518-0.687-0.779
				c-0.553-0.645-1.091-1.307-1.611-1.989c-0.11-0.146-0.229-0.286-0.343-0.435c-0.614-0.83-1.201-1.687-1.764-2.563
				c-0.149-0.23-0.287-0.468-0.433-0.704c-0.417-0.676-0.822-1.362-1.203-2.059c-0.152-0.276-0.307-0.552-0.452-0.831
				c-0.423-0.808-0.823-1.625-1.196-2.451c-0.054-0.124-0.12-0.245-0.174-0.373c-0.464-1.05-0.87-2.113-1.244-3.179
				c-0.089-0.263-0.173-0.522-0.26-0.782c-0.338-1.028-0.643-2.059-0.887-3.087c-0.013-0.06-0.033-0.117-0.046-0.176
				c-0.251-1.071-0.429-2.135-0.571-3.193c-0.037-0.26-0.068-0.517-0.095-0.773c-0.117-1.063-0.197-2.119-0.192-3.149
				c0.017-6.061,2.153-10.325,5.606-12.33L62.168,79.057c-3.449,2.007-5.589,6.271-5.607,12.33c-0.004,1.032,0.076,2.087,0.192,3.15
				c0.031,0.258,0.06,0.514,0.095,0.773c0.141,1.058,0.322,2.121,0.574,3.192c0.01,0.06,0.032,0.117,0.043,0.176
				c0.247,1.028,0.552,2.057,0.887,3.085c0.087,0.262,0.171,0.522,0.262,0.784c0.374,1.066,0.78,2.129,1.242,3.179
				c0.009,0.021,0.017,0.043,0.024,0.065c0.046,0.105,0.105,0.208,0.154,0.313c0.371,0.825,0.768,1.638,1.191,2.443
				c0.148,0.282,0.301,0.558,0.455,0.833c0.381,0.698,0.784,1.383,1.201,2.063c0.146,0.232,0.284,0.47,0.433,0.701
				c0.563,0.876,1.15,1.73,1.767,2.561c0.112,0.149,0.23,0.289,0.341,0.436c0.522,0.686,1.058,1.348,1.613,1.991
				c0.095,0.11,0.181,0.233,0.279,0.344c0.129,0.149,0.27,0.284,0.406,0.43c0.365,0.407,0.736,0.8,1.114,1.187
				c0.255,0.26,0.509,0.516,0.769,0.764c0.395,0.383,0.798,0.746,1.204,1.104c0.254,0.224,0.506,0.452,0.762,0.666
				c0.452,0.376,0.912,0.724,1.378,1.07c0.222,0.164,0.44,0.343,0.666,0.501c0.693,0.485,1.396,0.943,2.11,1.358
				c5.341,3.084,10.179,3.37,13.669,1.34l28.485-16.553C114.385,111.374,109.55,111.084,104.207,108z"/>
			<path fill="#0C5AE5" d="M84.352,128.59c-2.887,0-6.058-0.949-9.32-2.835c-0.753-0.434-1.488-0.913-2.214-1.424l-0.695-0.521
				c-0.487-0.363-0.966-0.728-1.434-1.113l-0.604-0.527c-0.614-0.543-1.034-0.917-1.442-1.315c-0.268-0.255-0.533-0.522-0.798-0.793
				c-0.39-0.4-0.774-0.806-1.152-1.226l-0.417-0.44c-0.016-0.023-0.178-0.219-0.194-0.241c-0.666-0.783-1.223-1.465-1.759-2.173
				l-0.353-0.445c-0.635-0.858-1.239-1.74-1.82-2.642l-0.305-0.495c-0.571-0.925-0.985-1.632-1.38-2.352l-0.463-0.854
				c-0.436-0.833-0.847-1.669-1.229-2.52c-0.002-0.006-0.159-0.322-0.159-0.327c-0.5-1.145-0.92-2.24-1.305-3.341l-0.254-0.75
				c-0.368-1.129-0.682-2.191-0.936-3.255c-0.308-1.299-0.493-2.403-0.644-3.504l-0.097-0.81c-0.122-1.117-0.206-2.224-0.2-3.303
				c0.016-6.372,2.253-11.175,6.292-13.525l28.485-16.554c0.004,0,0.004,0,0.004,0c0.657-0.388,1.506-0.162,1.89,0.503
				c0.388,0.66,0.163,1.51-0.5,1.895l0,0c-3.158,1.834-4.903,5.787-4.917,11.134c-0.005,0.982,0.074,1.985,0.185,2.995l0.089,0.739
				c0.138,1.017,0.309,2.036,0.549,3.064c0.281,1.161,0.574,2.154,0.898,3.146l0.254,0.761c0.363,1.025,0.752,2.057,1.202,3.073
				l-1.093,0.931l1.264-0.57c0.361,0.801,0.749,1.593,1.161,2.381l0.373,0.688c0.436,0.793,0.828,1.459,1.234,2.115l0.417,0.685
				c0.546,0.847,1.117,1.678,1.714,2.484c0.005,0.008,0.322,0.408,0.328,0.416c0.506,0.665,1.024,1.308,1.561,1.929l0.665,0.753
				c0.354,0.39,0.712,0.771,1.077,1.142c0.244,0.249,0.487,0.498,0.737,0.736c0.383,0.371,0.771,0.72,1.16,1.063l0.734,0.637
				c0.432,0.364,0.875,0.698,1.32,1.03l0.627,0.472c0.666,0.467,1.332,0.903,2.01,1.293c0,0.003,0,0.003,0,0.003
				c4.724,2.728,9.089,3.211,12.282,1.344c0.659-0.387,1.509-0.162,1.893,0.504c0.384,0.66,0.163,1.511-0.5,1.895l0,0
				c-0.004,0.002-0.009,0.002-0.014,0.004L90.088,127.1C88.37,128.095,86.436,128.59,84.352,128.59z M61.299,105.537
				c0.361,0.801,0.747,1.589,1.156,2.371l0.438,0.803c0.373,0.683,0.763,1.346,1.168,2.005l0.416,0.677
				c0.547,0.854,1.118,1.683,1.715,2.488c0.006,0.008,0.322,0.412,0.328,0.419c0.506,0.666,1.025,1.309,1.564,1.93
				c0.014,0.017,0.163,0.201,0.175,0.218l0.277,0.312c0.01,0.009,0.194,0.206,0.206,0.212c0.357,0.4,0.719,0.78,1.082,1.153
				c0.244,0.248,0.487,0.495,0.739,0.734c0.381,0.371,0.769,0.72,1.159,1.063l0.738,0.646c0.427,0.353,0.872,0.688,1.316,1.02
				l0.633,0.475c0.66,0.466,1.328,0.899,2.007,1.295c4.722,2.721,9.081,3.205,12.279,1.345l22.066-12.824
				c-2.306-0.341-4.751-1.233-7.248-2.679c-0.75-0.43-1.484-0.909-2.211-1.42c-0.15-0.106-0.305-0.223-0.461-0.342l-0.234-0.179
				c-0.489-0.364-0.971-0.729-1.439-1.122c-0.206-0.17-0.414-0.353-0.619-0.535c-0.593-0.526-1.012-0.901-1.423-1.3
				c-0.267-0.254-0.531-0.524-0.796-0.795c-0.39-0.397-0.774-0.801-1.151-1.218l-0.708-0.804c-0.577-0.668-1.128-1.353-1.664-2.056
				l-0.353-0.446c-0.635-0.857-1.239-1.736-1.821-2.641l-0.446-0.729c-0.427-0.692-0.844-1.401-1.239-2.115l-0.463-0.855
				c-0.435-0.833-0.846-1.675-1.23-2.524l1.087-0.944l-1.268,0.558c-0.479-1.082-0.896-2.178-1.28-3.278l-0.211-0.623
				c-0.41-1.25-0.724-2.319-0.979-3.383c-0.309-1.299-0.499-2.405-0.645-3.506l-0.097-0.813c-0.122-1.112-0.206-2.219-0.2-3.297
				c0.004-2.793,0.438-5.282,1.264-7.398L62.863,80.256c-3.154,1.835-4.902,5.788-4.916,11.135
				c-0.006,0.981,0.073,1.985,0.184,2.994l0.089,0.747c0.138,1.007,0.311,2.029,0.549,3.058c0.282,1.16,0.573,2.153,0.898,3.144
				l0.254,0.757c0.363,1.032,0.755,2.063,1.201,3.08l-1.088,0.936L61.299,105.537z"/>
		</g>
		<g>
			<polygon fill="#FFFFFF" points="36.627,37.811 65.112,21.258 71.568,29.292 43.083,45.846 			"/>
			<path fill="#0C5AE5" d="M43.085,47.232c-0.408,0-0.808-0.181-1.08-0.519l-6.458-8.036c-0.251-0.313-0.354-0.724-0.284-1.119
				c0.076-0.397,0.32-0.742,0.668-0.944l28.485-16.554c0.593-0.346,1.35-0.206,1.775,0.33l6.458,8.034
				c0.251,0.314,0.354,0.724,0.282,1.12c-0.076,0.396-0.316,0.741-0.666,0.944L43.781,47.044
				C43.564,47.171,43.321,47.232,43.085,47.232z M38.716,38.199l4.702,5.852l26.062-15.146l-4.703-5.85L38.716,38.199z"/>
		</g>
		<g>
			<polygon fill="#FFFFFF" points="43.083,45.846 71.568,29.292 92.399,27.487 63.913,44.041 			"/>
			<path fill="#0C5AE5" d="M43.083,47.232c-0.598,0-1.137-0.389-1.32-0.968c-0.196-0.618,0.064-1.289,0.625-1.615l28.485-16.555
				c0.175-0.103,0.373-0.164,0.576-0.183l20.831-1.805c0.608-0.077,1.242,0.343,1.44,0.962c0.197,0.618-0.063,1.289-0.626,1.615
				L64.608,45.238c-0.175,0.103-0.373,0.165-0.575,0.183l-20.832,1.806C43.164,47.23,43.123,47.232,43.083,47.232z M71.999,30.646
				l-22.86,13.285l14.346-1.243l22.863-13.285L71.999,30.646z"/>
		</g>
		<g>
			<polygon fill="#D4E6FC" points="120.551,142.143 149.037,125.59 155.496,133.626 127.009,150.18 			"/>
			<path fill="#0C5AE5" d="M127.012,151.563c-0.411,0-0.812-0.181-1.082-0.516l-6.456-8.035c-0.254-0.316-0.357-0.726-0.283-1.123
				c0.072-0.396,0.316-0.741,0.664-0.944l28.483-16.553c0.596-0.339,1.352-0.201,1.777,0.33l6.459,8.033
				c0.254,0.313,0.357,0.724,0.281,1.119c-0.072,0.397-0.314,0.744-0.664,0.947l-28.486,16.557
				C127.488,151.502,127.247,151.563,127.012,151.563z M122.64,142.53l4.703,5.853l26.063-15.146l-4.705-5.85L122.64,142.53z"/>
		</g>
		<g>
			<polygon fill="#D4E6FC" points="127.009,150.18 155.496,133.626 143.428,150.587 114.944,167.141 			"/>
			<path fill="#0C5AE5" d="M114.944,168.526c-0.378,0-0.755-0.158-1.025-0.452c-0.438-0.481-0.484-1.204-0.106-1.738l12.068-16.961
				c0.114-0.16,0.26-0.294,0.433-0.396l28.485-16.554c0.563-0.325,1.281-0.215,1.721,0.265c0.439,0.48,0.482,1.204,0.104,1.735
				l-12.066,16.966c-0.113,0.158-0.262,0.294-0.434,0.396l-28.484,16.552C115.422,168.463,115.183,168.526,114.944,168.526z
				 M127.965,151.226l-8.18,11.498l22.688-13.185l8.182-11.502L127.965,151.226z"/>
		</g>
		<g>
			<polygon fill="#D4E6FC" points="120.632,114.549 149.113,97.995 149.037,125.59 120.551,142.143 			"/>
			<path fill="#0C5AE5" d="M120.551,143.527c-0.238,0-0.477-0.062-0.692-0.186c-0.428-0.246-0.692-0.708-0.692-1.202l0.081-27.596
				c0-0.49,0.262-0.947,0.688-1.195l28.485-16.553c0.428-0.249,0.957-0.249,1.387,0c0.432,0.246,0.695,0.706,0.693,1.201
				l-0.078,27.595c0,0.493-0.266,0.947-0.688,1.196l-28.485,16.554C121.032,143.466,120.794,143.527,120.551,143.527z
				 M122.013,115.346l-0.067,24.387l25.709-14.941l0.066-24.386L122.013,115.346z"/>
		</g>
		<g>
			<polygon fill="#FFFFFF" points="87.954,49.329 116.438,32.776 116.414,41.353 87.929,57.907 			"/>
			<path fill="#0C5AE5" d="M87.931,59.293c-0.241,0-0.481-0.063-0.691-0.188c-0.434-0.245-0.696-0.705-0.693-1.202l0.021-8.578
				c0-0.493,0.265-0.947,0.688-1.193l28.485-16.553c0.433-0.254,0.96-0.253,1.391-0.004c0.43,0.25,0.692,0.708,0.692,1.205
				l-0.024,8.576c-0.002,0.493-0.263,0.947-0.69,1.193L88.627,59.105C88.414,59.23,88.169,59.293,87.931,59.293z M89.335,50.127
				l-0.013,5.37l25.709-14.942l0.016-5.368L89.335,50.127z"/>
		</g>
		<g>
			<polygon fill="#FFFFFF" points="63.938,35.464 92.423,18.909 116.438,32.776 87.954,49.329 			"/>
			<path fill="#0C5AE5" d="M87.954,50.714c-0.238,0-0.479-0.062-0.692-0.185L63.246,36.664c-0.427-0.248-0.693-0.703-0.693-1.198
				c0-0.494,0.262-0.951,0.688-1.199l28.485-16.555c0.433-0.252,0.96-0.251,1.391-0.003l24.015,13.866
				c0.427,0.248,0.692,0.704,0.692,1.199c0,0.494-0.263,0.951-0.69,1.198L88.649,50.525C88.435,50.652,88.194,50.714,87.954,50.714z
				 M66.703,35.459l21.248,12.27l25.723-14.948L92.426,20.51L66.703,35.459z"/>
		</g>
		<g>
			<polygon fill="#FFFFFF" points="87.929,57.907 116.414,41.353 137.186,67.177 108.7,83.73 			"/>
			<path fill="#0C5AE5" d="M108.7,85.115c-0.409,0-0.81-0.178-1.083-0.516L86.85,58.775c-0.252-0.313-0.355-0.725-0.282-1.121
				c0.076-0.396,0.316-0.741,0.666-0.944l28.485-16.555c0.595-0.345,1.348-0.201,1.773,0.329l20.771,25.823
				c0.254,0.314,0.357,0.726,0.283,1.121c-0.074,0.397-0.316,0.744-0.668,0.947L109.393,84.93
				C109.176,85.054,108.938,85.115,108.7,85.115z M90.021,58.294l19.01,23.64l26.063-15.143l-19.013-23.642L90.021,58.294z"/>
		</g>
		<g>
			<polygon fill="#FFFFFF" points="108.7,83.73 137.186,67.177 143.664,66.612 115.183,83.165 			"/>
			<path fill="#0C5AE5" d="M108.697,85.115c-0.598,0-1.136-0.386-1.317-0.966c-0.198-0.619,0.062-1.29,0.622-1.618l28.484-16.553
				c0.18-0.104,0.375-0.166,0.578-0.182l6.48-0.564c0.621-0.061,1.244,0.34,1.441,0.96s-0.063,1.291-0.625,1.617l-28.483,16.554
				c-0.176,0.103-0.373,0.165-0.577,0.182l-6.482,0.565C108.778,85.112,108.738,85.115,108.697,85.115z"/>
		</g>
		<g>
			<polygon fill="#D4E6FC" points="115.183,83.165 143.664,66.612 155.594,97.451 127.111,114.004 			"/>
			<path fill="#0C5AE5" d="M127.111,115.389c-0.154,0-0.311-0.026-0.456-0.078c-0.385-0.136-0.688-0.43-0.835-0.806L113.89,83.666
				c-0.246-0.637,0.005-1.356,0.595-1.7l28.484-16.553c0.354-0.206,0.773-0.241,1.154-0.108c0.383,0.135,0.688,0.43,0.832,0.807
				l11.934,30.839c0.246,0.636-0.006,1.355-0.596,1.698l-28.485,16.554C127.595,115.325,127.353,115.389,127.111,115.389z
				 M116.9,83.769l10.918,28.222l26.059-15.143l-10.918-28.223L116.9,83.769z"/>
		</g>
		<g>
			<path fill="#FFFFFF" d="M120.632,114.549l-0.081,27.594l6.458,8.037l-12.064,16.961l-6.462-8.015l-20.843,1.773l-0.027,8.601
				l-24.016-13.866l0.025-8.599l-20.75-25.792l-6.482,0.542L24.441,90.958l6.48-0.563L31,62.797l-6.456-8.012l12.083-16.975
				l6.456,8.035l20.83-1.805l0.025-8.577l24.016,13.865l-0.025,8.578L108.7,83.73l6.482-0.565l11.929,30.839L120.632,114.549z
				 M75.723,124.557c10.618,6.127,19.233,1.216,19.268-10.982c0.035-12.198-8.525-27.05-19.143-33.177
				c-10.617-6.129-19.253-1.211-19.286,10.989C56.527,103.587,65.107,118.425,75.723,124.557L75.723,124.557z"/>
			<path fill="#0C5AE5" d="M87.612,170.886c-0.238,0-0.476-0.063-0.693-0.188l-24.015-13.867c-0.431-0.246-0.693-0.705-0.693-1.2
				l0.021-8.109l-19.98-24.836l-5.749,0.479c-0.612,0.043-1.183-0.307-1.407-0.879L23.147,91.458
				c-0.157-0.407-0.113-0.863,0.117-1.234c0.23-0.368,0.621-0.608,1.055-0.646l5.219-0.455l0.076-25.837l-6.15-7.632
				c-0.389-0.483-0.408-1.167-0.051-1.673l12.085-16.975c0.252-0.353,0.656-0.567,1.088-0.581c0.429,0.007,0.85,0.179,1.12,0.519
				l5.993,7.459l18.832-1.633l0.021-7.312c0-0.492,0.266-0.949,0.693-1.196c0.427-0.248,0.957-0.246,1.386,0.001l24.015,13.865
				c0.429,0.249,0.692,0.708,0.692,1.204l-0.021,8.089l19.997,24.864l5.747-0.501c0.611-0.052,1.188,0.306,1.412,0.879l11.929,30.84
				c0.157,0.407,0.114,0.866-0.116,1.236c-0.229,0.366-0.624,0.607-1.058,0.645l-5.215,0.436l-0.074,25.835l6.151,7.654
				c0.388,0.486,0.407,1.166,0.048,1.672l-12.068,16.962c-0.248,0.353-0.651,0.569-1.085,0.583
				c-0.445,0.004-0.846-0.179-1.119-0.518l-5.999-7.44l-18.847,1.604l-0.021,7.329c0,0.495-0.265,0.952-0.692,1.198
				C88.091,170.823,87.851,170.886,87.612,170.886z M64.985,154.836l21.25,12.269l0.02-6.207c0-0.719,0.552-1.317,1.267-1.377
				l20.845-1.773c0.459-0.027,0.906,0.153,1.196,0.511l5.313,6.589l10.4-14.617l-5.802-7.218c-0.2-0.251-0.308-0.556-0.308-0.872
				l0.081-27.596c0-0.719,0.552-1.318,1.266-1.377l4.641-0.388l-10.888-28.145l-5.447,0.476c-0.479,0.021-0.911-0.154-1.201-0.511
				L86.85,58.775c-0.198-0.246-0.306-0.554-0.303-0.872l0.02-7.776L65.318,37.86l-0.02,6.185c-0.002,0.717-0.549,1.313-1.266,1.376
				l-20.832,1.806c-0.454,0.046-0.908-0.152-1.196-0.513l-5.313-6.608L26.281,54.734l5.795,7.196c0.2,0.246,0.309,0.556,0.309,0.872
				l-0.079,27.594c-0.002,0.718-0.549,1.316-1.264,1.378l-4.643,0.402l10.907,28.142l5.449-0.454
				c0.463-0.033,0.906,0.153,1.193,0.511l20.753,25.79c0.2,0.247,0.308,0.556,0.305,0.872L64.985,154.836z M84.352,128.59
				c-2.887,0-6.061-0.953-9.32-2.835l0,0c-10.986-6.343-19.893-21.762-19.854-34.37c0.016-6.396,2.267-11.207,6.333-13.547
				c4.094-2.349,9.433-1.873,15.03,1.36c10.972,6.334,19.872,21.757,19.835,34.378c-0.018,6.396-2.264,11.207-6.328,13.544
				C88.342,128.101,86.422,128.59,84.352,128.59z M76.416,123.356c4.708,2.717,9.06,3.201,12.252,1.36
				c3.168-1.82,4.924-5.781,4.938-11.145c0.032-11.741-8.245-26.084-18.45-31.977c-4.708-2.718-9.065-3.201-12.262-1.355
				c-3.177,1.826-4.933,5.787-4.947,11.15C57.915,103.116,66.2,117.455,76.416,123.356L76.416,123.356z"/>
		</g>
	</g>
</g>
</svg>
