<?xml version="1.0" encoding="utf-8"?>
<!-- Generator: Adobe Illustrator 16.0.0, SVG Export Plug-In . SVG Version: 6.00 Build 0)  -->
<!DOCTYPE svg PUBLIC "-//W3C//DTD SVG 1.1//EN" "http://www.w3.org/Graphics/SVG/1.1/DTD/svg11.dtd">
<svg version="1.1" id="Layer_1" xmlns="http://www.w3.org/2000/svg" xmlns:xlink="http://www.w3.org/1999/xlink" x="0px" y="0px"
	 width="1024px" height="537.18px" viewBox="0 0 1024 537.18" enable-background="new 0 0 1024 537.18" xml:space="preserve">
<g>
	<path fill="#002E4F" d="M774.159,500.962c-6.913,8.966-15.037,15.628-13.254,18.654c0,0,3.679,2.676,13.834,2.676
		c17.41,0,34.519-1.327,31.708-3.092c-3.892-2.443-15.163-3.328-25.934-7.056c-2.662-0.922,5.826-6.079,3.507-6.921
		C779.222,503.476,775.483,501.966,774.159,500.962z"/>
	<path fill="#002E4F" d="M953.536,519.083c0,0,2.287,3.21,11.067,3.21c15.053,0,30.743-2.045,28.315-3.571
		c-3.366-2.109-29.751-7.617-29.751-7.617l-5.915-7.348l-10.033,5.552L953.536,519.083z"/>
	<g>
		<path fill="#00A4E2" d="M905.844,297.229c-10.797,0-18.962-2.157-19.644-2.341c-5.632-1.538-8.952-7.348-7.415-12.979
			c1.532-5.626,7.323-8.938,12.946-7.428c0.37,0.097,24.141,6.188,38.016-5.719c9.286-7.973,12.814-22.985,10.486-44.624
			l-0.741-6.902l21.375-12.112c5.087-2.878,11.533-1.094,14.409,3.985c2.878,5.079,1.092,11.531-3.987,14.406l-9.45,5.356
			c1.494,25.488-4.699,44.319-18.447,56.036C931.802,294.786,917.334,297.229,905.844,297.229z"/>
	</g>
	<g>
		<path fill="#E1F3F6" d="M942.427,238.575c-0.402,15.374-4.485,26.498-12.235,33.143c-15.221,13.065-41.289,6.403-41.736,6.285
			c-6.18-1.667-12.534,1.979-14.218,8.151c-1.686,6.182,1.958,12.563,8.141,14.252c0.75,0.199,9.724,4.677,21.567,4.256
			c44.976-1.597,72.121-40.394,72.623-63.013L942.427,238.575z"/>
	</g>
	<g>
		<path fill="#008DC4" d="M880.584,184.774c-4.029-1.807-7.989-3.763-11.89-5.815c-37.268,21.223-84.882,48.413-85.826,49.359
			c0,0,23.666,37.682,25.179,39.192c0.972,0.971,59.652-41.124,101.867-71.623C900.174,192.118,890.13,189.054,880.584,184.774z"/>
		<path fill="#00AFE2" d="M881.193,183.69c9.759,4.305,20.011,7.429,29.932,11.328c23.242-16.797,41.208-29.868,41.208-29.868
			l-39.725-11.163c0,0-19.115,10.851-42.668,24.26C873.636,180.177,877.38,182.006,881.193,183.69z"/>
		<polygon fill="#006091" points="812.714,134.224 836.102,197.543 881.822,214.32 823.907,108.525 		"/>
		<polygon fill="#006091" points="884.312,229.874 850.438,229.874 880.587,282.545 926.551,301.922 		"/>
		<path fill="#0076AD" d="M926.551,301.922l-26.968-46.004l-115.366,67.636l-22.687-38.7l14.247-230.083l51.844-30.393
			l93.313,159.179l31.398-18.406l26.112,44.541l-31.398,18.406l26.967,46L926.551,301.922z M821.893,123.394l-2.919,1.713
			l-7.93,122.871l62.431-36.598L821.893,123.394z"/>
		<polygon fill="#008DC4" points="723.179,274.324 761.53,284.854 784.217,323.554 743.693,313.289 		"/>
		<polygon fill="#00AFE2" points="723.179,274.324 761.53,284.854 775.777,54.771 740.589,46.35 		"/>
		<polygon fill="#00D2FD" points="740.589,46.35 775.777,54.771 827.621,24.378 791.988,14.018 		"/>
	</g>
	<path fill="#002E4F" d="M817.746,366.009c0,0,5.638,60.801,5.638,82.098c0,0-44.272,34.509-55.112,52.559
		c4.655,3.544,13.858,8.248,19.887,8.064c29.54-28.207,61.963-48.34,61.963-48.34s13.988-40.571,18.342-74.924L817.746,366.009z"/>
	<path fill="#E1F3F6" d="M849.302,368.878c9.969,0.07,20.156-1.646,28.73-6.301c-2.878-12.143,3.253-47.968,10.951-67.112
		c0,0,6.071-13.33,1.815-17.425c-15.749-15.147-29.152-13.906-33.319-14.074c-14.457,12.203-41.356,48.216-40.278,95.811
		C824.63,367.583,839.718,368.814,849.302,368.878z"/>
	<path fill="#00396A" d="M946.961,510.98c5.764-1.603,11.29-4.267,14.837-8.981c-17.095-27.728-79.784-129.57-83.18-137.543
		c-0.087-0.205-0.165-0.442-0.246-0.675c-9.205,4.963-20.191,6.711-30.84,6.301c-9.276-0.355-22.703-1.656-30.276-8.523
		c0.019,0.491,0.021,0.977,0.046,1.473c1.308,26.584,89.491,115.221,124.194,149.114C943.405,511.865,945.261,511.45,946.961,510.98
		z"/>
	<g>
		<path fill="#00A4E2" d="M764.924,341.313c-2.449,0-4.801-0.351-7.048-1.106c-4.661-1.559-10.829-5.485-13.742-15.314
			c-1.659-5.6,1.532-11.484,7.131-13.141c5.597-1.662,11.478,1.537,13.136,7.131c0.197,0.653,0.378,1.068,0.507,1.312
			c1.128,0.048,5.313-0.318,15.504-6.307c9.104-5.346,19.873-13.313,30.287-21.017c17.597-13.022,34.218-25.316,47.943-29.659
			c5.563-1.764,11.504,1.327,13.266,6.889c1.761,5.567-1.321,11.507-6.886,13.266c-10.366,3.279-26.32,15.088-41.751,26.497
			C800.681,326.575,780.762,341.313,764.924,341.313z"/>
	</g>
	<g>
		<path fill="#00A4E2" d="M784.7,333.41c-1.295-6.225-2.651-13.098-6.593-18.212c-8.521,4.721-12.161,5.039-13.2,4.996
			c-0.129-0.243-0.31-0.658-0.507-1.312c-1.658-5.594-7.539-8.793-13.136-7.131c-5.599,1.656-8.79,7.541-7.131,13.141
			c2.913,9.829,9.081,13.756,13.742,15.314c2.247,0.756,4.599,1.106,7.048,1.106c6.142,0,12.898-2.223,20.187-5.912
			C784.973,334.737,784.838,334.074,784.7,333.41z"/>
		<path fill="#E1F3F6" d="M871.907,270.1c-1.762-5.562-7.703-8.652-13.266-6.889c-13.726,4.343-30.347,16.637-47.943,29.659
			c-10.414,7.703-21.184,15.671-30.287,21.017c-0.415,0.248-0.807,0.464-1.203,0.69c3.952,5.222,10.792,30.976,10.913,31.563
			c11.207-5.864,64.972-46.792,76.626-59.146C870.756,282.75,873.668,275.667,871.907,270.1z"/>
	</g>
	<path fill="none" stroke="#20C6F0" stroke-width="7.6538" stroke-linecap="round" stroke-miterlimit="10" d="M736.856,313.289"/>
	<g>
		<path fill="#00A4E2" d="M749.976,332.773c-0.626,0-1.257-0.188-1.805-0.577c-8.294-5.928-12.62-17.338-12.801-17.817
			c-0.599-1.607,0.216-3.398,1.826-4.003c1.604-0.594,3.396,0.216,3.997,1.823l0,0c0.041,0.103,3.862,10.131,10.592,14.938
			c1.397,0.998,1.721,2.939,0.724,4.332C751.901,332.32,750.946,332.773,749.976,332.773z"/>
	</g>
	<g>
		<path fill="#00A4E2" d="M749.981,325.194c-0.977,0-1.937-0.458-2.541-1.316c-3.968-5.62-7.147-18.978-7.498-20.477
			c-0.386-1.673,0.652-3.345,2.324-3.733c1.678-0.399,3.345,0.652,3.733,2.325c0.877,3.76,3.752,14.376,6.517,18.298
			c0.992,1.402,0.658,3.345-0.744,4.332C751.228,325.011,750.602,325.194,749.981,325.194z"/>
	</g>
	<g>
		<path fill="#00A4E2" d="M754.27,323.447c-1.228,0-2.39-0.729-2.881-1.938c-2.848-6.98-3.959-21.621-4.005-22.241
			c-0.127-1.71,1.157-3.198,2.87-3.328c1.721-0.141,3.201,1.16,3.331,2.87c0.291,3.954,1.505,15.314,3.56,20.354
			c0.65,1.591-0.113,3.403-1.701,4.051C755.058,323.371,754.661,323.447,754.27,323.447z"/>
	</g>
	<g>
		<path fill="#00A4E2" d="M758.934,321.947c-1.387,0-2.646-0.928-3.011-2.33c-1.955-7.596-0.173-15.343-0.094-15.666
			c0.394-1.672,2.074-2.702,3.738-2.314c1.669,0.395,2.705,2.066,2.313,3.738c-0.032,0.146-1.488,6.657,0.065,12.688
			c0.429,1.667-0.575,3.36-2.236,3.786C759.451,321.919,759.189,321.947,758.934,321.947z"/>
	</g>
	<g>
		<path fill="#00A4E2" d="M883.921,286.996c-1.425,0-2.87-0.308-4.243-0.955c-4.968-2.346-7.091-8.28-4.741-13.243
			c2.454-5.194,6.886-10.514,7.385-11.107c3.547-4.197,9.817-4.726,14.018-1.182c4.196,3.539,4.73,9.807,1.197,14.009l0,0
			c-1.246,1.479-3.598,4.629-4.612,6.781C891.225,284.892,887.648,286.996,883.921,286.996z"/>
	</g>
	<g>
		<path fill="#0086CF" d="M885.355,281.876c1.176,1.3,2.411,2.524,3.695,3.689c1.629-0.976,2.999-2.422,3.873-4.267
			c1.015-2.152,3.366-5.303,4.612-6.781c3.533-4.202,2.999-10.47-1.197-14.009c-4.2-3.544-10.471-3.015-14.018,1.182
			c-0.197,0.237-1.006,1.208-2.063,2.611C880.347,270.57,881.005,277.081,885.355,281.876z"/>
	</g>
	<g>
		<path fill="#00A4E2" d="M918.024,270.899c-3.96,9.602-14.951,14.182-24.556,10.223l0,0c-9.603-3.96-14.18-14.954-10.22-24.562
			l4.977-12.067c3.959-9.607,14.956-14.182,24.559-10.223l0,0c9.602,3.96,14.177,14.954,10.217,24.556L918.024,270.899z"/>
	</g>
	<path fill="#00396A" d="M885.353,255.158c-1.529,6.462-10.813,4.391-14.298,1.014c-4.804-4.645-7.671-17.791,2.973-17.09
		c-7.666-11.572,18.336-24.123,21.065-10.75c2.031-3.45,4.107-6.549,8.631-6.84c3.256-0.208,8.958,2.312,8.485,6.301
		c4.836-3.822,11.879-3.525,16.664,0.337c1.529,1.238,4.288,3.988,2.907,5.995c-0.758,1.106-4.677,1.446-5.987,1.845
		c2.263-1.025,11.527,1.042,9.704,4.893c-0.85,1.796-5.384,0.184-6.711-0.2c0,0-0.013,0.421,0,0.405
		c4.95,2.713,6.989,5.464,6.396,11.625c-0.272,2.832-1.613,8.184-4.981,8.588c-1.727,0.205-3.72-0.885-3.69-2.692
		c4.135,4.127-1.721,15.175-6.942,9.727c-2.047-2.136-1.061-5.718,0.882-7.563c-3.088-1.774-9.788-11.167-5.022-13.68
		c-2.228,0.054-12.545-3.447-9.262-6.414c0.865,3.442-3.396,7.897-6.786,6.128c2.108,4.59-4.095,8.016-7.906,8.178
		c2.333,2.935-4.857,6.419-7.053,2.163L885.353,255.158z"/>
</g>
<g>
	<path fill="#0089E0" d="M531.969,217.616c0,0-6.036-23.11,23.911-28.6l-2.282,27.769L531.969,217.616z"/>
	<g>
		<path fill="#CDE5E8" d="M411.971,275.969c-6.557,0-12.653-1.327-18.274-3.986c-27.204-12.855-30.228-51.476-30.341-53.113
			c-0.41-5.826,3.979-10.878,9.802-11.288c5.813-0.405,10.859,3.965,11.283,9.777c0.591,7.771,5.033,29.285,18.333,35.532
			c10.983,5.157,28.019-0.092,49.271-15.186c4.758-3.382,11.358-2.26,14.738,2.498c3.38,4.763,2.26,11.361-2.5,14.743
			C444.573,268.941,427.06,275.969,411.971,275.969z"/>
	</g>
	<g>
		<g>
			<path fill="#00AFE2" d="M468.217,295.805c2.94-7.714,5.664-15.547,8.839-23.175c-2.139-0.167-4.297-0.442-6.487-0.857
				c-10.255-1.959-18.938-6.128-26.045-12.516c-7.115-6.381-12.607-14.473-16.48-24.259c-3.876-9.79-6.128-20.916-6.759-33.391
				c-0.637-12.468,0.372-25.632,3.018-39.493c2.7-14.134,6.63-26.807,11.79-38.031c5.16-11.221,11.342-20.67,18.554-28.34
				c7.207-7.671,15.293-13.161,24.259-16.476c8.96-3.311,18.571-3.995,28.826-2.035c8.118,1.552,15.269,4.614,21.491,9.13
				c2.997-5.979,6.218-11.849,9.284-17.704c3.622-6.925,6.985-13.977,10.206-21.092c1.376-3.044,2.568-6.177,3.816-9.283
				c-10.393-5.924-22.039-10.128-34.95-12.596c-18.293-3.493-35.512-2.832-51.652,1.983c-16.148,4.818-30.681,12.88-43.614,24.197
				c-12.934,11.317-23.908,25.525-32.915,42.612c-9.014,17.095-15.525,36.175-19.547,57.233
				c-4.024,21.064-5.006,41.201-2.924,60.409c2.071,19.208,7.037,36.454,14.889,51.742c7.852,15.288,18.387,28.149,31.625,38.571
				c12.321,9.71,26.837,16.41,43.549,20.11C460.948,313.72,464.775,304.851,468.217,295.805z"/>
			<path fill="#006091" d="M611.373,136.885c-2.08-19.207-7.04-36.459-14.889-51.746c-7.853-15.288-18.396-28.14-31.623-38.57
				c-3.563-2.805-7.314-5.351-11.242-7.656c-1.238,3.104-2.422,6.233-3.822,9.264c-3.282,7.091-6.57,14.169-10.206,21.091
				c-3.097,5.891-6.347,11.802-9.359,17.826c1.071,0.817,2.117,1.667,3.129,2.574c7.107,6.387,12.669,14.485,16.683,24.299
				s6.352,20.89,7.013,33.224c0.658,12.335-0.361,25.565-3.059,39.698c-2.646,13.861-6.565,26.471-11.749,37.826
				c-5.188,11.362-11.458,20.862-18.806,28.506c-7.35,7.644-15.503,13.13-24.464,16.437c-6.608,2.444-13.489,3.458-20.639,3.064
				c-3.517,8.345-6.479,16.938-9.686,25.387c-3.175,8.355-6.741,16.55-10.412,24.701c0.826,0.172,1.648,0.345,2.481,0.507
				c18.288,3.495,35.501,2.832,51.647-1.985c16.14-4.812,30.681-12.877,43.614-24.194c12.937-11.317,23.903-25.521,32.915-42.616
				c9.009-17.084,15.528-36.166,19.552-57.227C612.473,176.235,613.444,156.096,611.373,136.885z"/>
		</g>
		<g>
			<path fill="#0076AD" d="M493.021,334.294c-18.29-3.495-34.053-10.46-47.283-20.882c-13.238-10.422-23.773-23.282-31.623-38.57
				c-7.854-15.288-12.817-32.534-14.891-51.746c-2.08-19.204-1.098-39.342,2.924-60.406c4.021-21.058,10.533-40.136,19.549-57.231
				c9.006-17.088,19.981-31.297,32.915-42.614c12.933-11.316,27.466-19.379,43.614-24.198c16.14-4.813,33.357-5.475,51.65-1.981
				c18.287,3.493,34.044,10.455,47.279,20.879c13.233,10.432,23.773,23.284,31.625,38.57c7.854,15.288,12.81,32.54,14.892,51.747
				c2.071,19.212,1.101,39.35-2.924,60.407c-4.024,21.063-10.541,40.139-19.55,57.229c-9.014,17.095-19.98,31.298-32.914,42.616
				c-12.934,11.318-27.474,19.383-43.614,24.194C528.521,337.122,511.311,337.791,493.021,334.294z M502.868,282.75
				c9.977,1.904,19.441,1.203,28.407-2.114c8.96-3.308,17.117-8.793,24.467-16.438c7.345-7.644,13.615-17.144,18.803-28.504
				c5.187-11.357,9.103-23.966,11.749-37.826c2.7-14.135,3.72-27.363,3.059-39.701c-0.658-12.332-2.999-23.409-7.008-33.222
				c-4.016-9.815-9.58-17.913-16.685-24.299c-7.115-6.382-15.655-10.53-25.63-12.436c-10.257-1.96-19.867-1.275-28.825,2.034
				c-8.968,3.316-17.052,8.806-24.261,16.477c-7.212,7.67-13.395,17.118-18.552,28.34c-5.163,11.225-9.09,23.896-11.79,38.031
				c-2.649,13.861-3.655,27.025-3.021,39.493c0.634,12.475,2.883,23.599,6.762,33.39c3.874,9.786,9.362,17.877,16.478,24.259
				C483.928,276.623,492.61,280.792,502.868,282.75z"/>
		</g>
	</g>
	<g>
		<path fill="#00396A" d="M679.488,179.075l0.807,38.859c0,0-11.096,9.944-21.038,0l3.665-43.763L679.488,179.075z"/>
		<path fill="#002E4F" d="M633.72,489.057c-0.634-0.502-4.966-2.52-5.564-3.021c-2.325,3.485-3.952,5.405-6.749,8.297
			c6.852,5.972,5.09,13.228,5.09,13.228s-4.847,4.17-6.743,5.108c-6.045,2.978-17.194,7.115-17.194,7.115l28.08,2.201l20.828-21.335
			C644.085,496.528,638.426,492.779,633.72,489.057z"/>
		<path fill="#002E4F" d="M523.699,490.578c-4.473-0.781-10.117,2.644-13.756,0c-0.844,7.812-0.682,12.073-0.682,12.073
			l-41.546,17.133h53.058c0.478-5.653-0.537-11.08,0.227-16.318C521.388,500.774,523.211,493.172,523.699,490.578z"/>
		<path fill="#CDE5E8" d="M572.063,302.014l-46.946,89.203c0,0,19.021,16.092,37.751,21.454l35.193-105.101L572.063,302.014z"/>
		<path fill="#002E4F" d="M623.467,496.566c2.816-2.881,5.142-6.316,7.458-9.807c-12.143-10.406-18.085-21.131-34.587-39.585
			c-6.826-7.639,11.259-51.377,15.649-58.714c7.89-13.184,9.108-22.743,15.277-45.308l-45.848,17.127
			c-10.913,39.094-23.628,78.193-10.881,96.842c13.471,19.717,37.376,35.598,48.912,43.528
			C619.888,500.952,623.084,496.275,623.467,496.566z"/>
		<g>
			<path fill="#00A4E2" d="M546.267,213.028c-0.628,0-1.26-0.189-1.81-0.583c-1.395-1-1.713-2.945-0.712-4.337
				c3.692-5.146,4.504-9.381,4.512-9.423c0.311-1.68,1.915-2.805,3.606-2.507c1.684,0.301,2.808,1.895,2.52,3.58
				c-0.041,0.225-1.004,5.59-5.586,11.973C548.189,212.578,547.235,213.028,546.267,213.028z"/>
		</g>
		<path fill="#F6EE9E" d="M624.009,352.603c13.648-37.47,25.301-96.27,29.665-119.735c-2.438-1.014-4.831-1.775-6.73-2.304
			c-4.048-1.116-8.9-2.434-13.052-1.144c-2.106,0.658-3.983,1.743-5.823,2.897c-1.702,5.092-2.403,9.386-2.403,9.386
			s-29.313,56.038-48.412,94.253C593.474,339.592,609.336,344.921,624.009,352.603z"/>
		<path fill="#00396A" d="M576.702,337.105c-0.008-0.005-0.014-0.005-0.021-0.011c-1.691,3.388-3.299,6.63-4.79,9.667
			c-0.003,0-0.014,0-0.014,0c-3.757,6.657-7.806,12.812-11.728,18.725c-37.721,56.874-51.965,102.203-54.481,123.657
			c3.601,2.811,17.222,4.402,21.762,5.189c6.958-35.561,25.067-58.261,57.513-85.082c10.856-8.976,18.978-20.38,26.114-29.848
			c4.254-5.643,8.476-14.688,12.526-25.645C608.878,346.049,592.953,340.73,576.702,337.105z"/>
		<g>
			<path fill="#00A4E2" d="M540.098,352.75c-4.38,0-8.475-2.741-9.987-7.11c-1.912-5.519,1.009-11.539,6.524-13.448
				c12.825-4.445,32.494-21.978,45.756-40.782c26.913-38.161,45.808-59.318,46.601-60.203c3.897-4.344,10.581-4.708,14.927-0.809
				c4.342,3.895,4.706,10.579,0.809,14.921l0,0c-0.186,0.21-18.932,21.222-45.06,58.271c-13.09,18.563-36.235,41.683-56.108,48.572
				C542.415,352.56,541.247,352.75,540.098,352.75z"/>
		</g>
		<g>
			<path fill="#00A4E2" d="M646.251,236.369c-0.243,0-0.488-0.011-0.736-0.027c-5.479-0.405-9.595-5.168-9.195-10.65
				c0.421-5.729,2.638-12.289,2.892-13.02c1.794-5.192,7.455-7.95,12.65-6.155c5.189,1.791,7.945,7.447,6.16,12.639
				c-0.626,1.829-1.686,5.616-1.858,7.986C655.78,232.377,651.416,236.363,646.251,236.369z"/>
		</g>
		<g>
			<path fill="#0086CF" d="M649.164,225.875c1.758,2.021,3.679,3.821,5.712,5.466c0.715-1.251,1.174-2.669,1.287-4.198
				c0.173-2.371,1.232-6.158,1.858-7.986c1.785-5.192-0.971-10.848-6.16-12.639c-4.308-1.489-8.931,0.162-11.41,3.728
				C641.369,215.863,645.957,222.193,649.164,225.875z"/>
		</g>
		<g>
			<path fill="#00A4E2" d="M674.796,204.336c-0.232,10.383-8.839,18.612-19.227,18.38l0,0c-10.384-0.235-18.613-8.842-18.379-19.226
				l0.292-13.053c0.231-10.387,8.841-18.617,19.226-18.382l0,0c10.384,0.235,18.613,8.839,18.382,19.226L674.796,204.336z"/>
		</g>
		<g>
			<path fill="#00A4E2" d="M525.172,349.831c-4.338,0-9.301-1.165-14.854-3.501c-1.581-0.663-2.325-2.486-1.662-4.067
				c0.667-1.586,2.487-2.33,4.07-1.667c8.184,3.441,14.697,3.933,18.843,1.424c1.473-0.89,3.38-0.415,4.27,1.053
				c0.888,1.467,0.418,3.377-1.052,4.267C532.041,349,528.829,349.831,525.172,349.831z"/>
		</g>
		<g>
			<path fill="#00A4E2" d="M528.896,354.351c-4.946,0-8.917-0.96-13.433-2.055l-1.399-0.335c-1.67-0.399-2.7-2.077-2.298-3.749
				c0.396-1.667,2.077-2.708,3.747-2.298l1.413,0.34c7.539,1.823,12.523,3.031,23.547,0.184c1.673-0.427,3.358,0.571,3.787,2.233
				c0.429,1.666-0.571,3.36-2.233,3.792C536.713,353.833,532.54,354.351,528.896,354.351z"/>
		</g>
		<g>
			<path fill="#00A4E2" d="M524.959,343.708c-9.759,0-16.445-6.005-16.78-6.313c-1.265-1.159-1.352-3.123-0.192-4.391
				c1.157-1.263,3.115-1.349,4.383-0.199c0.31,0.28,7.46,6.581,17.079,4.104c1.673-0.432,3.358,0.572,3.787,2.233
				c0.429,1.662-0.572,3.361-2.236,3.787C528.889,343.476,526.862,343.708,524.959,343.708z"/>
		</g>
		<g>
			<path fill="#00A4E2" d="M531.475,340.369c-0.121,0-0.242-0.011-0.363-0.021c-10.59-1.24-14.895-8.863-15.072-9.187
				c-0.826-1.505-0.275-3.394,1.229-4.224c1.494-0.82,3.374-0.281,4.208,1.208c0.146,0.254,3.083,5.173,10.354,6.025
				c1.707,0.2,2.927,1.742,2.727,3.447C534.375,339.198,533.031,340.369,531.475,340.369z"/>
		</g>
		<g>
			<path fill="#00A4E2" d="M568.627,217.514c-0.167,0-0.337-0.014-0.51-0.043c-5.146-0.852-19.224-3.066-22.495-3.066
				c-1.718,0-3.11-1.392-3.11-3.11c0-1.716,1.393-3.11,3.11-3.11c4.375,0,21.564,2.829,23.509,3.153
				c1.694,0.281,2.843,1.88,2.56,3.574C571.44,216.432,570.121,217.514,568.627,217.514z"/>
		</g>
		<g>
			<path fill="#00A4E2" d="M566.637,224.041c-0.271,0-0.548-0.035-0.82-0.111c-0.148-0.04-14.932-4.064-21.81-4.456
				c-1.716-0.097-3.024-1.567-2.927-3.28c0.097-1.716,1.578-3.067,3.279-2.927c7.531,0.429,22.466,4.494,23.097,4.667
				c1.656,0.453,2.63,2.16,2.177,3.816C569.258,223.135,568.004,224.041,566.637,224.041z"/>
		</g>
		<g>
			<path fill="#00A4E2" d="M565.14,230.877c-0.318,0-0.64-0.048-0.955-0.146c-13.999-4.519-17.448-4.797-19.302-4.945
				c-0.804-0.065-1.559-0.127-2.592-0.399c-1.659-0.439-2.648-2.139-2.212-3.8c0.442-1.659,2.142-2.646,3.804-2.212
				c0.493,0.132,0.85,0.162,1.496,0.213c2.255,0.181,6.026,0.485,20.715,5.225c1.632,0.526,2.53,2.279,2.004,3.914
				C567.672,230.041,566.453,230.877,565.14,230.877z"/>
		</g>
		<g>
			<path fill="#00A4E2" d="M558.989,235.856c-0.072,0-0.148-0.005-0.224-0.011c-14.021-1.003-14.603-8.613-14.622-9.479l6.218-0.146
				c0,0,0.008-0.073-0.017-0.202c0.006,0.032,0.647,3.04,8.866,3.629c1.71,0.119,2.999,1.608,2.878,3.318
				C561.97,234.604,560.607,235.856,558.989,235.856z"/>
		</g>
		<path fill="#00A4E2" d="M547.251,232.123c0,0-2.697-1.246-6.902-1.246c-3.536,0-8.34-6-8.34-12.225
			c0,0-1.726-18.356,17.651-10.053L547.251,232.123z"/>
		<path fill="#CDE5E8" d="M608.273,286.688l-27.166,133.751c0,0,42.071,10.137,67.876-4.726l6.526-185.84
			C655.51,229.874,626.634,219.769,608.273,286.688z"/>
		<path fill="#E1F3F6" d="M614.563,360.28l26.022-1.397c0,0,0.624,39.795-14.921,38.242
			C625.665,397.125,604.395,401.774,614.563,360.28z"/>
		<path fill="#E1F3F6" d="M647.238,226.695c-2.856-2.562-6.541-3.973-10.377-3.973c-4.41,0-8.631,1.88-11.571,5.16
			c-0.795,0.89-19.806,22.151-46.961,60.657c-1.778,2.52-3.733,5.093-5.815,7.649l-2.762,3.388l3.01,3.172
			c3.204,3.388,6.567,6.689,9.818,9.878c1.764,1.731,3.527,3.463,5.27,5.211l3.842,3.852l3.492-4.17
			c3.118-3.717,5.993-7.439,8.551-11.059c25.966-36.823,44.513-57.608,44.698-57.818
			C654.15,242.265,653.614,232.415,647.238,226.695z"/>
		<polygon fill="#F8FDFF" points="592.708,323.883 565.353,299.306 575.855,287.622 603.211,312.194 		"/>
		<path fill="#00396A" d="M618.31,211.801l23.903,9.368c0,0,10.163-49.454,2.746-56.87
			C644.959,164.298,618.31,161.775,618.31,211.801z"/>
		<path fill="#00396A" d="M646.34,172.911c0.847,1.261,19.393,13.637,33.955,10.213c0,0-2.489-21.861-36.482-18.711L646.34,172.911z
			"/>
		<circle fill="none" stroke="#DDDD67" stroke-width="0.8679" stroke-miterlimit="10" cx="650.266" cy="196.226" r="10.394"/>
		<circle fill="none" stroke="#DDDD67" stroke-width="0.755" stroke-miterlimit="10" cx="675.094" cy="198.263" r="9.04"/>
		<path fill="none" stroke="#DDDD67" stroke-width="0.8679" stroke-miterlimit="10" d="M660.659,196.226c0,0,3.45-1.35,5.505,0.706"
			/>
	</g>
	<g>
		<g>
			<path fill="#0086CF" d="M358.25,214.431c-0.243,0-0.485-0.011-0.733-0.03c-5.481-0.399-9.597-5.168-9.198-10.647
				c0.421-5.728,2.638-12.289,2.892-13.017c1.791-5.193,7.455-7.953,12.65-6.158c5.189,1.792,7.946,7.448,6.161,12.638
				c-0.626,1.832-1.686,5.617-1.858,7.989C367.78,210.439,363.416,214.428,358.25,214.431z"/>
		</g>
		<g>
			<path fill="#002E4F" d="M352.343,490.519c16.478,7.605,29.999,7.449,31.088,7.605c10.743-19.117,43.107-70.889,13.664-113.375
				l-41.643-22.382C355.453,362.368,397.096,405.815,352.343,490.519z"/>
			<path fill="#002E4F" d="M373.899,507.441c0,0,3.847-7.806,6.851-13.049c-2.255-0.275-12.34-0.686-16.483-2.276
				c-3.889,7.94-12.361,19.576-18.346,27.555h55.957L373.899,507.441z"/>
			<path fill="#00396A" d="M443.122,387.236c-6.959-13.508-57.505-54.188-62.085-77.551c-0.405-2.066-0.752-4.191-1.052-6.365
				c-8.119,4.294-18.657,5.459-27.007,5.885c-9.47,0.48-15.131,1.068-24.296-3.393c0.776,14.5-1.583,28.499,6.875,43.188
				c16.788,29.142,72.569,54.097,78.792,63.726c12.27,18.999,16.512,60.24,20.69,85.399c6.567,0,22.139-0.285,28.54-2.557
				C461.417,482.665,464.923,429.556,443.122,387.236z"/>
			<path fill="#002E4F" d="M460.543,505.181c0,0-1.815-7.358-2.36-10.789c-6.403,2.249-10.128-0.017-16.715,0
				c0.998,6.241,0.259,17.904,0.836,24.75h53.058L460.543,505.181z"/>
			<path fill="#CDE5E8" d="M353.366,316.838c8.081-0.372,25.055-2.622,31.865-9.43c-1.395-11.091-6.352-28.937-4.607-43.296
				c5.917-48.689-17.856-63.282-17.856-63.282s-10.945-7.655-19.816,1.486c-13.373,13.776-26.422,52.729-25.114,110.314
				C327.057,317.388,343.677,317.281,353.366,316.838z"/>
		</g>
		<g>
			<path fill="#00A4E2" d="M475.292,332.207c-0.79,0-1.594-0.086-2.398-0.274c-38.312-8.891-70.756-31.844-93.829-66.385
				c-17.29-25.877-23.261-49.102-23.509-50.078c-1.427-5.662,2.007-11.405,7.668-12.83c5.656-1.428,11.396,1.999,12.828,7.651
				c0.11,0.423,5.615,21.315,20.99,44.112c20.286,30.069,47.412,49.23,80.628,56.939c5.688,1.316,9.228,6.996,7.908,12.683
				C484.446,328.906,480.098,332.207,475.292,332.207z"/>
		</g>
		<path fill="#E1F3F6" d="M452.003,300.45c-21.108-9.996-39.08-25.84-53.413-47.094c-15.188-22.517-20.68-43.324-20.729-43.524
			c-1.4-5.523-6.354-9.382-12.046-9.382c-1.022,0-2.05,0.128-3.048,0.38c-3.22,0.81-5.934,2.828-7.636,5.679
			c-1.705,2.851-2.196,6.196-1.384,9.416l0.051,0.229c1.635,7.115,8.17,32.142,23.714,55.403
			c18.606,27.856,43.849,48.706,73.001,60.305c0.221,0.086,0.456,0.13,0.69,0.13c0.367,0,0.734-0.108,1.047-0.324
			c0.51-0.346,0.817-0.923,0.817-1.543v-27.992C453.069,301.41,452.654,300.757,452.003,300.45z"/>
		<g>
			<path fill="#00A4E2" d="M483.143,332.962c-3.388,0-6.983-0.378-10.781-1.139c-1.686-0.334-2.775-1.975-2.441-3.657
				c0.337-1.683,1.972-2.778,3.66-2.438c9.257,1.851,16.979,1.176,22.956-2.007c1.516-0.809,3.398-0.231,4.205,1.284
				s0.232,3.398-1.284,4.202C494.763,331.71,489.304,332.962,483.143,332.962z"/>
		</g>
		<g>
			<path fill="#00A4E2" d="M483.583,326.003c-1.481,0-3.005-0.098-4.553-0.324c-1.699-0.248-2.875-1.828-2.627-3.527
				s1.821-2.875,3.525-2.627c9.942,1.456,19.147-3.706,19.242-3.761c1.491-0.847,3.388-0.334,4.24,1.155
				c0.853,1.488,0.343,3.382-1.144,4.239C501.875,321.38,493.716,326.003,483.583,326.003z"/>
		</g>
		<g>
			<path fill="#00A4E2" d="M480.824,319.886c-0.483,0-0.977-0.017-1.481-0.049c-1.715-0.107-3.016-1.58-2.908-3.296
				s1.586-3.016,3.299-2.907c7.355,0.453,11.215-4.014,11.25-4.057c1.082-1.338,3.042-1.538,4.373-0.454
				c1.333,1.079,1.537,3.037,0.453,4.37C495.588,313.769,490.501,319.886,480.824,319.886z"/>
		</g>
		<g>
			<path fill="#00A4E2" d="M470.072,314.642c-1.715,0-3.11-1.392-3.11-3.106c0-1.71,1.384-3.103,3.094-3.107
				c0.278-0.006,6.417-0.146,9.929-5.206c0.979-1.413,2.916-1.759,4.326-0.782s1.761,2.913,0.782,4.327
				C479.688,314.556,470.461,314.642,470.072,314.642z"/>
		</g>
		<g>
			<path fill="#00A4E2" d="M459.909,244.477c-0.968,0-1.923-0.448-2.53-1.294c-4.585-6.387-5.548-11.75-5.589-11.976
				c-0.292-1.688,0.844-3.297,2.538-3.588c1.683-0.294,3.296,0.841,3.59,2.537c0.005,0.021,0.82,4.256,4.513,9.402
				c1,1.397,0.682,3.339-0.715,4.337C461.171,244.288,460.535,244.477,459.909,244.477z"/>
		</g>
		<g>
			<path fill="#00A4E2" d="M460.559,245.852c-0.194,0-0.394-0.016-0.59-0.054c-6.8-1.306-20.294-1.322-20.432-1.322
				c-1.716,0-3.107-1.392-3.107-3.107c0-1.715,1.392-3.107,3.107-3.107c0.577,0,14.222,0.016,21.602,1.43
				c1.686,0.318,2.792,1.947,2.468,3.636C463.324,244.816,462.019,245.852,460.559,245.852z"/>
		</g>
		<g>
			<path fill="#00A4E2" d="M437.832,252.326c-1.545,0-2.886-1.155-3.083-2.725c-0.21-1.705,0.998-3.258,2.703-3.468
				c1.974-0.249,19.436-2.374,25.084-1.37c1.691,0.296,2.816,1.91,2.517,3.604c-0.299,1.688-1.917,2.821-3.604,2.514
				c-3.56-0.626-16.138,0.54-23.229,1.418C438.088,252.315,437.959,252.326,437.832,252.326z"/>
		</g>
		<g>
			<path fill="#00A4E2" d="M441.873,259.354c-1.459,0-2.762-1.03-3.048-2.519c-0.326-1.688,0.78-3.318,2.465-3.642
				c7.531-1.451,9.54-2.093,13.187-3.269c1.707-0.55,3.833-1.23,7.002-2.152c1.646-0.475,3.374,0.475,3.852,2.12
				c0.478,1.651-0.472,3.377-2.123,3.852c-3.081,0.896-5.071,1.538-6.827,2.099c-3.75,1.208-6.015,1.937-13.915,3.458
				C442.267,259.338,442.067,259.354,441.873,259.354z"/>
		</g>
		<g>
			<path fill="#00A4E2" d="M448.57,264.296c-1.486,0-2.802-1.068-3.061-2.584c-0.289-1.694,0.85-3.301,2.541-3.587
				c10.069-1.726,12.076-5.48,12.086-5.519c0.54-1.634,2.295-2.519,3.927-1.979c1.629,0.539,2.514,2.298,1.977,3.927
				c-0.399,1.203-3.083,7.326-16.941,9.7C448.92,264.28,448.745,264.296,448.57,264.296z"/>
		</g>
		<path fill="#00A4E2" d="M460.554,260.552l-2.371-25.338c0,0,11.115,0.809,11.091,12.456
			C469.266,251.56,468.146,255.891,460.554,260.552z"/>
		<g>
			<path fill="#00A4E2" d="M390.593,178.007c2.805,10.605-3.52,21.483-14.128,24.287l0,0c-10.611,2.807-21.486-3.516-24.294-14.125
				l-3.528-13.336c-2.805-10.609,3.52-21.486,14.128-24.292l0,0c10.611-2.808,21.486,3.518,24.294,14.127L390.593,178.007z"/>
		</g>
		<g>
			<path fill="#00396A" d="M388.729,170.957c-1.508,4.209-3.646,8.377-6.926,11.212c-7.998,6.902-20.262,8.763-29.994,4.626
				l0.362,1.374c2.808,10.61,13.683,16.932,24.294,14.125c10.608-2.804,16.933-13.682,14.128-24.287L388.729,170.957z"/>
		</g>
		<path fill="#00396A" d="M352.111,187.436c-7.463-4.792-15.522-23.005-3.733-26.992c7.293-2.466,4.356,20.015,4.356,26.371
			L352.111,187.436z"/>
		<path fill="#00396A" d="M346.121,161.945c-9.02-6.534,2.158-25.024,24.445-25.024c13.775,0,13.675,10.553,4.148,16.25
			c-7.906,4.726-20.165,1.958-26.104,10.016L346.121,161.945z"/>
		<path fill="#00396A" d="M388.724,175.034c-3.158-4.789-9.381-14.491-11.8-19.953c-1.535-3.47-3.639-9.386,3.312-5.183
			c5.818,3.517,8.977,15.917,8.429,22.202L388.724,175.034z"/>
	</g>
</g>
<g>
	<g>
		<path fill="#006091" d="M231.229,219.243c-3.431,3.174-7.207,6.133-10.301,9.672l-44.876,93.744l33.408-43.123l35.482-73.348
			C240.405,210.574,235.863,214.959,231.229,219.243z"/>
		<path fill="#006091" d="M204.613,203.852c3.255-4.452,6.387-9.683,10.09-14.283l-78.549-38.351l-74.527,7.462l130.584,60.217
			C196.494,214.015,200.799,209.071,204.613,203.852z"/>
		<path fill="#00AFE2" d="M215.823,190.116c-4.176,5.225-7.563,11.371-11.571,16.25c-3.598,4.38-7.21,8.753-10.902,13.058
			l59.366,27.373l21.554-28.145L215.823,190.116z"/>
		<path fill="#0076AD" d="M126.428,298.902l23.026-48.098L28.831,193.063l19.372-40.461L246.838,35.619l54.204,25.949
			l-79.674,166.425l32.828,15.718l-22.293,46.565l-32.828-15.714l-23.023,48.097L126.428,298.902z M215.785,112.246l-3.053-1.462
			l-106.258,62.205l65.273,31.25L215.785,112.246z"/>
		<polygon fill="#006091" points="254.196,243.71 274.269,218.652 258.517,253.577 231.162,291.787 		"/>
		<path fill="#006091" d="M246.509,204.792l78.331-171.708l-23.797,28.483l-79.674,166.425
			C223.591,225.851,245.241,206.061,246.509,204.792z"/>
		<polygon fill="#009EE7" points="48.203,152.602 83.599,121.789 277.689,10.391 246.838,35.619 		"/>
		<polygon fill="#00D2FD" points="246.838,35.619 301.042,61.567 324.839,33.084 277.689,10.391 		"/>
	</g>
	<path fill="#00A4E2" d="M180.316,161.036c-6.667-4.739-11.258-2.665-14.46-2.168c-3.506,0.542-6.101-1.372-6.114-1.381
		c-1.44-0.934-3.366-0.523-4.299,0.917c-0.936,1.439-0.523,3.366,0.917,4.299c0.146,0.096,2.859,1.82,7.598,3.064
		c-5.171,4.712-10.441,10.403-10.735,10.722c-1.165,1.259-1.087,3.227,0.175,4.392c0.596,0.553,1.354,0.826,2.107,0.826
		c0.838,0,1.672-0.336,2.284-1c0.06-0.063,3.733-4.027,7.835-7.979c-3.808,4.766-7.382,9.722-8.035,10.635
		c-1.001,1.396-0.68,3.338,0.714,4.339c0.548,0.394,1.182,0.581,1.81,0.581c0.966,0,1.92-0.449,2.527-1.296
		c2.034-2.839,4.906-6.678,7.646-10.123c-1.02,2.016-2.314,4.299-4.906,8.472c-0.906,1.46-0.461,3.375,0.998,4.282
		c0.51,0.317,1.079,0.468,1.637,0.468c1.041,0,2.055-0.519,2.646-1.469c1.065-1.717,1.926-3.137,2.646-4.36
		c-0.542,1.351-0.076,2.937,1.189,3.761c0.523,0.341,1.111,0.503,1.694,0.503c1.017,0,2.012-0.499,2.608-1.415
		c2.913-4.481,4.326-8.141,4.933-11.021l0.127,0.096C185.589,167.442,183.485,163.289,180.316,161.036z M174.088,182.909
		c1.027-1.807,1.731-3.173,2.39-4.534C175.919,179.698,175.14,181.209,174.088,182.909z"/>
	<path fill="#00396A" d="M85.101,196.296c-9.842-0.557-24.125,18.709-9.513,23.953c-13.228-0.313-16.464,18.386-4.337,23.548
		c-21.235-4.132-18.765,23.385-8.72,33.343c-6.808-1.09-13.688,5.416-12.658,12.499c1.039,7.132,3.865,17.02,21.511,22.317
		c17.648,5.297,28.434-4.623,37.214-13.978c5.621,11.485,33.405-4.035,30.325-17.774c10.484,3.717,19.879-8.184,20.089-17.689
		c0.205-9.278-6.293-16.361-12.472-22.387c4.354-3.986,5.179-11.378,4.032-17.026c-1.904-9.383-13.653-10.317-13.653-17.784
		c0-2.613,0.501-10.732-1.726-14.298c-3.544-5.675-9.716-11.292-17.478-8.519C85.101,167.031,85.101,196.296,85.101,196.296z"/>
	<path fill="#002E4F" d="M104.116,498.125c-8.968-1.564-10.417-1.116-19.277-3.279l-20.515,25.073h79.584l-46.217-12.435
		L104.116,498.125z"/>
	<path fill="#002E4F" d="M252.3,505.31l-4.704-6.177c-4.246,2.746-8.664,5.093-13.459,6.76l12.566,14.025h46.633L252.3,505.31z"/>
	<path fill="#002E4F" d="M76.413,498.206c8.915,2.185,17.829,4.456,26.854,5.988l65.718-80.853l-11.191-32.124l-46.012-53.055
		l13.254,75.188L76.413,498.206z"/>
	<path fill="#00396A" d="M165.792,315.9c-18.031-4.785-42.476,1.268-60.019,7.887c0,0,10.759,42.837,17.823,55.616
		c20.572,37.206,109.548,130.066,109.548,130.066c4.885-1.661,14.301-8.556,18.611-11.345L165.792,315.9z"/>
	<path fill="#CDE5E8" d="M103.388,340.542c17.411-6.538,52.337-17.564,70.26-13.087c0,0-23.736-55.752-34.508-68.051
		c-7.272-8.297-46.97-31.656-46.97-1.117C92.17,300.131,103.388,340.542,103.388,340.542z"/>
	<g>
		<path fill="#00A4E2" d="M118.865,255.681c-0.232,0.081-0.464,0.151-0.707,0.221c-5.303,1.43-10.762-1.71-12.194-7.013
			c-1.497-5.545-1.567-12.472-1.572-13.243c-0.024-5.497,4.413-9.968,9.907-9.989c5.492-0.024,9.961,4.406,9.991,9.892
			c0.014,1.937,0.264,5.858,0.882,8.151C126.539,248.771,123.739,253.976,118.865,255.681z"/>
	</g>
	<g>
		<path fill="#0086CF" d="M125.5,245.847c-0.035-0.712-0.135-1.429-0.329-2.147c-0.618-2.292-0.868-6.214-0.882-8.151
			c-0.03-5.486-4.499-9.917-9.991-9.892c-5.494,0.021-9.931,4.492-9.907,9.989c0,0.124,0.005,0.426,0.013,0.841
			C109.309,242.022,117.387,244.627,125.5,245.847z"/>
	</g>
	<g>
		<path fill="#00A4E2" d="M135.229,216.022c3.21,9.88-2.198,20.487-12.078,23.702l0,0c-9.88,3.204-20.491-2.201-23.701-12.08
			l-4.032-12.418c-3.21-9.88,2.198-20.491,12.075-23.7l0,0c9.88-3.211,20.491,2.196,23.701,12.077L135.229,216.022z"/>
	</g>
	<path fill="#00A4E2" d="M246.007,206.04c-0.394-0.332-0.85-0.534-1.319-0.639c0.453-0.495,0.938-1.028,1.505-1.64
		c1.163-1.264,1.082-3.23-0.181-4.394c-0.156-0.143-0.321-0.267-0.496-0.372c0.868-1.245,0.723-2.967-0.418-4.035
		c-0.884-0.826-2.114-1.025-3.18-0.642c1.416-1.431,2.298-2.425,2.403-2.546c1.135-1.288,1.011-3.253-0.278-4.388
		c-1.287-1.134-3.253-1.012-4.386,0.279c-0.073,0.08-6.832,7.699-13.783,11.663c-3.015-4.56-7.061-6.158-7.293-6.247
		c-1.594-0.604-3.355,0.195-3.979,1.781c-0.621,1.586,0.17,3.382,1.748,4.022c0.138,0.055,2.514,1.063,4.361,3.905
		c-0.256,0.704-0.553,1.703-0.723,2.875c-45.75,61.924-106.414,39.942-109.163,38.901c-5.435-2.083-11.536,0.615-13.643,6.047
		c-2.112,5.443,0.591,11.566,6.034,13.675c0.739,0.286,15.59,5.934,36.771,5.934c4.259,0,8.777-0.227,13.483-0.777
		c22.837-2.648,56.615-15.806,83.609-50.588c0.442-0.253,1.068-0.642,1.894-1.243c0.556-0.359,1.117-0.752,1.688-1.228l-0.073-0.054
		c1.597-1.343,3.566-3.245,5.802-5.913C247.496,209.101,247.324,207.14,246.007,206.04z"/>
	<path fill="#E1F3F6" d="M161.789,244.725l-2.576,0.556c-6.282,1.354-12.785,2.044-19.331,2.044
		c-16.038,0-27.177-4.046-28.386-4.504c-1.432-0.55-2.932-0.825-4.453-0.825c-5.176,0-9.727,3.113-11.598,7.941
		c-1.2,3.096-1.414,6.619,0.216,9.51c6.071,10.773,22.743,15.126,44.329,15.126c4.591,0,9.197-0.265,13.696-0.782
		c2.751-0.318,5.64-0.793,8.585-1.414l1.81-0.475c0,0-2.589-7.849-3.14-15.822C160.729,253.043,161.789,244.725,161.789,244.725z"/>
	<path fill="#00396A" d="M94.997,225.209c6.53-4.148,8.785-11.922,8.067-19.694c5.726,3.85,10.255,1.501,13.832-5.113
		c10.848,15.202,27.382-7.415,4.836-15.605c-18.034-6.551-35.708,11.284-31.088,29.218L94.997,225.209z"/>
</g>
</svg>
